<svg width="16" height="16" viewBox="0 0 16 16" fill="none" xmlns="http://www.w3.org/2000/svg">
<path fill-rule="evenodd" clip-rule="evenodd" d="M5.16536 9.33398C5.16536 7.76918 6.43389 6.50065 7.9987 6.50065C9.5635 6.50065 10.832 7.76918 10.832 9.33398C10.832 10.8988 9.5635 12.1673 7.9987 12.1673C6.43389 12.1673 5.16536 10.8988 5.16536 9.33398ZM7.9987 7.50065C6.98618 7.50065 6.16536 8.32146 6.16536 9.33398C6.16536 10.3465 6.98618 11.1673 7.9987 11.1673C9.01122 11.1673 9.83203 10.3465 9.83203 9.33398C9.83203 8.32146 9.01122 7.50065 7.9987 7.50065Z" fill="white"/>
<path d="M7.9987 3.33398C7.63051 3.33398 7.33203 3.63246 7.33203 4.00065C7.33203 4.36884 7.63051 4.66732 7.9987 4.66732H8.00469C8.37288 4.66732 8.67135 4.36884 8.67135 4.00065C8.67135 3.63246 8.37288 3.33398 8.00469 3.33398H7.9987Z" fill="white"/>
<path fill-rule="evenodd" clip-rule="evenodd" d="M8.01978 0.833985H7.97789C7.57516 0.833978 7.24179 0.833972 6.96651 0.857418C6.67802 0.881989 6.41733 0.934442 6.16589 1.05893C5.71793 1.28071 5.43475 1.63316 5.23594 1.98665C5.08183 2.26068 4.96221 2.56845 4.8608 2.82936C4.83686 2.89095 4.81394 2.94993 4.79181 3.00524L4.59365 3.50065C3.86588 3.50064 3.34156 3.50129 2.93727 3.557C2.48181 3.61975 2.15245 3.7546 1.81013 4.01727C1.6368 4.15027 1.48165 4.30542 1.34865 4.47875C1.06408 4.8496 0.94353 5.28195 0.886841 5.7848C0.832015 6.27112 0.832023 6.88091 0.832032 7.63718V10.7039C0.832018 11.6156 0.832007 12.3505 0.909714 12.9285C0.990392 13.5286 1.16299 14.0338 1.56427 14.4351C1.96554 14.8364 2.47079 15.009 3.07086 15.0896C3.64884 15.1673 4.38372 15.1673 5.29545 15.1673H10.7019C11.6137 15.1673 12.3486 15.1673 12.9265 15.0896C13.5266 15.009 14.0319 14.8364 14.4331 14.4351C14.8344 14.0338 15.007 13.5286 15.0877 12.9285C15.1654 12.3505 15.1654 11.6156 15.1654 10.7039V7.63719C15.1654 6.88091 15.1654 6.27113 15.1106 5.7848C15.0539 5.28195 14.9333 4.8496 14.6487 4.47875C14.5157 4.30542 14.3606 4.15027 14.1873 4.01727C13.8449 3.7546 13.5156 3.61975 13.0601 3.557C12.6559 3.50129 12.1316 3.50064 11.404 3.50065L11.2059 3.00524C11.1837 2.94993 11.1608 2.89095 11.1369 2.82936C11.0355 2.56845 10.9158 2.26068 10.7617 1.98665C10.5629 1.63316 10.2797 1.28071 9.83177 1.05893C9.58033 0.934442 9.31964 0.881989 9.03115 0.857418C8.75587 0.833972 8.42251 0.833978 8.01978 0.833985ZM11.8038 4.50125C11.8925 4.7527 11.7677 5.03161 11.5179 5.13156C11.2615 5.23411 10.9705 5.10941 10.8679 4.85301L10.2774 3.37663C10.2474 3.30161 10.2192 3.22929 10.1919 3.15936C10.0928 2.90546 10.006 2.68298 9.8901 2.47685C9.75055 2.22871 9.59529 2.0577 9.38808 1.95511C9.29003 1.90656 9.1657 1.8725 8.94629 1.85381C8.71842 1.8344 8.42776 1.83399 7.99883 1.83399C7.5699 1.83399 7.27924 1.8344 7.05138 1.85381C6.83196 1.8725 6.70763 1.90656 6.60958 1.95511C6.40237 2.0577 6.24711 2.22871 6.10756 2.47685C5.99163 2.68297 5.90484 2.90545 5.8058 3.15934C5.77852 3.22926 5.75029 3.30164 5.72029 3.37663L5.12974 4.85301C5.02718 5.10941 4.73619 5.23411 4.4798 5.13156C4.22993 5.03161 4.10513 4.7527 4.19387 4.50125C3.67417 4.50324 3.3345 4.51171 3.07378 4.54763C2.77939 4.5882 2.61518 4.66 2.41889 4.81062C2.31489 4.89042 2.2218 4.98351 2.142 5.08751C2.01328 5.25527 1.92718 5.48316 1.88055 5.89682C1.83278 6.32057 1.83203 6.87383 1.83203 7.66732V10.6673C1.83203 11.6243 1.83309 12.2917 1.9008 12.7952C1.96657 13.2844 2.08686 13.5435 2.27137 13.728C2.45588 13.9125 2.71493 14.0328 3.20411 14.0986C3.70768 14.1663 4.37509 14.1673 5.33203 14.1673H10.6654C11.6223 14.1673 12.2897 14.1663 12.7933 14.0986C13.2825 14.0328 13.5415 13.9125 13.726 13.728C13.9105 13.5435 14.0308 13.2844 14.0966 12.7952C14.1643 12.2917 14.1654 11.6243 14.1654 10.6673V7.66732C14.1654 6.87383 14.1646 6.32057 14.1169 5.89682C14.0702 5.48316 13.9841 5.25527 13.8554 5.08751C13.7756 4.98351 13.6825 4.89042 13.5785 4.81062C13.3822 4.66 13.218 4.5882 12.9236 4.54763C12.6629 4.51171 12.3233 4.50324 11.8038 4.50125Z" fill="white"/>
</svg>
