<svg width="46" height="57" viewBox="0 0 46 57" fill="none" xmlns="http://www.w3.org/2000/svg">
<path fill-rule="evenodd" clip-rule="evenodd" d="M22.9688 40.6875C31.3048 40.6875 38.0625 33.9298 38.0625 25.5938V15.0938C38.0625 6.7577 31.3048 0 22.9688 0C14.6327 0 7.875 6.7577 7.875 15.0938V25.5938C7.875 33.9298 14.6327 40.6875 22.9688 40.6875ZM22.9688 3.9375C16.8073 3.9375 11.8125 8.93232 11.8125 15.0938V25.5938C11.8125 31.7552 16.8073 36.75 22.9688 36.75C28.4584 36.75 33.022 32.785 33.9518 27.5625H28.2188C27.1314 27.5625 26.25 26.6811 26.25 25.5938C26.25 24.5064 27.1314 23.625 28.2188 23.625H34.125V17.0625H28.2188C27.1314 17.0625 26.25 16.1811 26.25 15.0938C26.25 14.0064 27.1314 13.125 28.2188 13.125H33.9518C33.022 7.90254 28.4584 3.9375 22.9688 3.9375Z" fill="white"/>
<path d="M3.9375 25.5938C3.9375 24.5064 3.05606 23.625 1.96875 23.625C0.881439 23.625 0 24.5064 0 25.5938C0 37.6159 9.23632 47.4807 21 48.4793V52.5H15.0938C14.0064 52.5 13.125 53.3814 13.125 54.4688C13.125 55.5561 14.0064 56.4375 15.0938 56.4375H30.8438C31.9311 56.4375 32.8125 55.5561 32.8125 54.4688C32.8125 53.3814 31.9311 52.5 30.8438 52.5H24.9375V48.4793C36.7012 47.4807 45.9375 37.6159 45.9375 25.5938C45.9375 24.5064 45.0561 23.625 43.9688 23.625C42.8814 23.625 42 24.5064 42 25.5938C42 36.1044 33.4794 44.625 22.9688 44.625C12.4581 44.625 3.9375 36.1044 3.9375 25.5938Z" fill="white"/>
</svg>
