<svg width="18" height="18" viewBox="0 0 18 18" fill="none" xmlns="http://www.w3.org/2000/svg">
<path fill-rule="evenodd" clip-rule="evenodd" d="M9.04076 3H9.00133C8.6904 2.99999 8.42663 2.99998 8.20774 3.01806C7.97547 3.03723 7.7591 3.07877 7.54989 3.17967C7.46732 3.21949 7.38853 3.26546 7.31433 3.31708C7.12632 3.44789 6.99491 3.60923 6.87933 3.79296C6.77041 3.96611 6.66102 4.18378 6.53205 4.4404L6.27418 4.95348H4.38544H4.38469H3.46154C3.20664 4.95348 3 5.1409 3 5.37209C3 5.60328 3.20664 5.79069 3.46154 5.79069H3.95011L4.29743 11.0088C4.34385 11.7063 4.38069 12.2597 4.45733 12.7018C4.53592 13.1553 4.66228 13.5329 4.91576 13.8632C5.14764 14.1654 5.44638 14.4205 5.79295 14.6122C6.17179 14.8218 6.59499 14.9135 7.09871 14.9573C7.58989 15 8.20122 15 8.9716 15H9.01942C9.78875 15 10.3994 15 10.8899 14.9573C11.3931 14.9136 11.8158 14.8221 12.1944 14.6129C12.5408 14.4216 12.8394 14.1669 13.0714 13.8652C13.3249 13.5354 13.4517 13.1584 13.5308 12.7056C13.6081 12.2641 13.6457 11.7114 13.6932 11.015L14.0493 5.79069H14.5385C14.7934 5.79069 15 5.60328 15 5.37209C15 5.1409 14.7934 4.95348 14.5385 4.95348H13.6158H13.6141H11.785L11.4826 4.38759C11.3502 4.14007 11.238 3.92996 11.1274 3.76291C11.0101 3.58558 10.8781 3.43019 10.6924 3.30452C10.619 3.25487 10.5412 3.2107 10.4599 3.17245C10.2543 3.07565 10.0425 3.03577 9.81541 3.01734C9.60148 2.99999 9.34398 2.99999 9.04076 3ZM13.1245 5.79069H11.506C11.4995 5.79082 11.4929 5.79082 11.4863 5.79069H6.58092C6.57415 5.79083 6.56737 5.79083 6.56059 5.79069H4.87487L5.21739 10.9367C5.26559 11.6607 5.30025 12.1741 5.36921 12.5718C5.437 12.9629 5.53193 13.2006 5.67342 13.385C5.83208 13.5917 6.03648 13.7663 6.27361 13.8975C6.48507 14.0144 6.75236 14.0861 7.18686 14.1239C7.62883 14.1623 8.19592 14.1628 8.99555 14.1628C9.79414 14.1628 10.3605 14.1623 10.8018 14.1239C11.2358 14.0862 11.5029 14.0147 11.7141 13.898C11.9511 13.767 12.1555 13.5928 12.3142 13.3863C12.4557 13.2023 12.5509 12.965 12.6192 12.5744C12.6887 12.1772 12.7241 11.6646 12.7734 10.9417L13.1245 5.79069ZM10.7592 4.95348H7.28864L7.36372 4.80409C7.50317 4.52663 7.59545 4.34399 7.68109 4.20785C7.76238 4.07862 7.82071 4.01994 7.87619 3.98134C7.90991 3.95787 7.94573 3.93698 7.98326 3.91887C8.04499 3.8891 8.12806 3.86531 8.29143 3.85182C8.46353 3.8376 8.68505 3.83721 9.02127 3.83721C9.34922 3.83721 9.56522 3.83759 9.73314 3.85122C9.89258 3.86415 9.97403 3.88697 10.0349 3.91559C10.0718 3.93298 10.1071 3.95305 10.1405 3.97563C10.1954 4.01279 10.2536 4.06932 10.336 4.19377C10.4228 4.32492 10.5173 4.50098 10.6604 4.76867L10.7592 4.95348Z" fill="#76869E"/>
</svg>
