<svg width="20" height="20" viewBox="0 0 20 20" fill="none" xmlns="http://www.w3.org/2000/svg">
<path fill-rule="evenodd" clip-rule="evenodd" d="M10.0552 1.04102H10.0018C9.58075 1.041 9.22356 1.04099 8.92715 1.06798C8.61261 1.09661 8.31962 1.15863 8.03631 1.30928C7.92449 1.36873 7.8178 1.43736 7.71732 1.51444C7.46273 1.70975 7.28477 1.95063 7.12826 2.22496C6.98076 2.48347 6.83263 2.80847 6.65799 3.19162L6.30879 3.95768H3.75111C3.75077 3.95768 3.75044 3.95768 3.7501 3.95768H2.5C2.15482 3.95768 1.875 4.23751 1.875 4.58268C1.875 4.92786 2.15482 5.20768 2.5 5.20768H3.16161L3.63194 12.9986C3.6948 14.04 3.74469 14.8663 3.84847 15.5264C3.95489 16.2034 4.12601 16.7672 4.46926 17.2604C4.78326 17.7116 5.18781 18.0925 5.65712 18.3787C6.17013 18.6916 6.74321 18.8285 7.42534 18.8939C8.09048 18.9577 8.91832 18.9577 9.96154 18.9577H10.0263C11.0681 18.9577 11.895 18.9577 12.5593 18.894C13.2407 18.8287 13.8131 18.6921 14.3258 18.3798C14.7948 18.0941 15.1992 17.7139 15.5133 17.2634C15.8567 16.771 16.0283 16.2081 16.1355 15.532C16.2401 14.8729 16.2911 14.0477 16.3554 13.0078L16.8376 5.20768H17.5C17.8452 5.20768 18.125 4.92786 18.125 4.58268C18.125 4.23751 17.8452 3.95768 17.5 3.95768H16.2506C16.2498 3.95768 16.2491 3.95768 16.2483 3.95768H13.7714L13.3618 3.11277C13.1826 2.74321 13.0306 2.4295 12.8809 2.18008C12.722 1.91533 12.5433 1.68331 12.2918 1.49569C12.1924 1.42155 12.0871 1.3556 11.977 1.29849C11.6985 1.15397 11.4117 1.09442 11.1042 1.06691C10.8145 1.041 10.4658 1.041 10.0552 1.04102ZM15.5852 5.20768H13.3935C13.3847 5.20787 13.3758 5.20787 13.3669 5.20768H6.72416C6.715 5.20789 6.70582 5.20789 6.69663 5.20768H4.41389L4.87772 12.891C4.94298 13.9719 4.98992 14.7384 5.0833 15.3323C5.1751 15.9162 5.30366 16.2711 5.49526 16.5464C5.71011 16.8551 5.9869 17.1157 6.30801 17.3116C6.59437 17.4862 6.95632 17.5932 7.54471 17.6496C8.14321 17.707 8.91114 17.7077 9.99397 17.7077C11.0754 17.7077 11.8423 17.707 12.44 17.6497C13.0277 17.5934 13.3893 17.4866 13.6754 17.3123C13.9963 17.1168 14.2731 16.8567 14.488 16.5484C14.6796 16.2736 14.8085 15.9193 14.901 15.3362C14.9951 14.7431 15.043 13.9777 15.1098 12.8984L15.5852 5.20768ZM12.3822 3.95768H7.68253L7.78421 3.73463C7.97304 3.32037 8.098 3.04767 8.21397 2.84441C8.32406 2.65146 8.40305 2.56384 8.47817 2.50621C8.52384 2.47117 8.57234 2.43998 8.62316 2.41295C8.70676 2.3685 8.81925 2.33297 9.04048 2.31283C9.27353 2.29161 9.5735 2.29102 10.0288 2.29102C10.4729 2.29102 10.7654 2.29159 10.9928 2.31194C11.2087 2.33124 11.319 2.36531 11.4014 2.40805C11.4514 2.43401 11.4992 2.46398 11.5444 2.49769C11.6188 2.55317 11.6976 2.63758 11.8091 2.82338C11.9267 3.0192 12.0547 3.28207 12.2485 3.68175L12.3822 3.95768Z" fill="#76869E"/>
</svg>
