<svg width="40" height="40" viewBox="0 0 40 40" fill="none" xmlns="http://www.w3.org/2000/svg">
<path d="M21.2497 13.334C21.2497 12.6436 20.69 12.084 19.9997 12.084C19.3093 12.084 18.7497 12.6436 18.7497 13.334V18.7507H13.333C12.6427 18.7507 12.083 19.3103 12.083 20.0007C12.083 20.691 12.6427 21.2507 13.333 21.2507H18.7497L18.7497 26.6673C18.7497 27.3577 19.3093 27.9173 19.9997 27.9173C20.69 27.9173 21.2497 27.3577 21.2497 26.6673L21.2497 21.2507L26.6663 21.2507C27.3567 21.2507 27.9163 20.691 27.9163 20.0007C27.9163 19.3103 27.3567 18.7507 26.6663 18.7507L21.2497 18.7507V13.334Z" fill="#4489EB"/>
<path fill-rule="evenodd" clip-rule="evenodd" d="M19.9997 2.08398C10.1046 2.08398 2.08301 10.1055 2.08301 20.0007C2.08301 29.8958 10.1046 37.9173 19.9997 37.9173C29.8948 37.9173 37.9163 29.8958 37.9163 20.0007C37.9163 10.1055 29.8948 2.08398 19.9997 2.08398ZM4.58301 20.0007C4.58301 11.4863 11.4853 4.58398 19.9997 4.58398C28.5141 4.58398 35.4163 11.4863 35.4163 20.0007C35.4163 28.515 28.5141 35.4173 19.9997 35.4173C11.4853 35.4173 4.58301 28.515 4.58301 20.0007Z" fill="#4489EB"/>
</svg>
