<svg width="24" height="24" viewBox="0 0 24 24" fill="none" xmlns="http://www.w3.org/2000/svg">
<path fill-rule="evenodd" clip-rule="evenodd" d="M8.48709 2.39137C9.98525 1.69829 10.9543 1.25 12 1.25C13.0457 1.25 14.0147 1.69829 15.5129 2.39137L17.4361 3.28038C18.6983 3.86375 19.7228 4.33731 20.425 4.7951C21.1276 5.25313 21.75 5.84942 21.75 6.75C21.75 7.65058 21.1276 8.24687 20.425 8.7049C19.7228 9.16269 18.6983 9.63625 17.4361 10.2196L15.5129 11.1086C14.0147 11.8017 13.0457 12.25 12 12.25C10.9543 12.25 9.98524 11.8017 8.48707 11.1086L6.56388 10.2196C5.30174 9.63625 4.27718 9.16269 3.57495 8.7049C2.87237 8.24687 2.25 7.65058 2.25 6.75C2.25 5.84942 2.87237 5.25313 3.57495 4.7951C4.27718 4.33731 5.30174 3.86375 6.56388 3.28038L8.48709 2.39137ZM12 2.75C11.3249 2.75 10.6728 3.03361 8.95767 3.82638L7.25285 4.61441C5.91691 5.23192 4.9936 5.66086 4.39413 6.05167C3.78399 6.44943 3.75 6.65455 3.75 6.75C3.75 6.84545 3.78399 7.05057 4.39413 7.44833C4.99361 7.83914 5.91691 8.26808 7.25285 8.88559L8.95767 9.67362C10.6728 10.4664 11.3249 10.75 12 10.75C12.6751 10.75 13.3272 10.4664 15.0423 9.67362L16.7472 8.88559C18.0831 8.26808 19.0064 7.83914 19.6059 7.44833C20.216 7.05057 20.25 6.84545 20.25 6.75C20.25 6.65455 20.216 6.44943 19.6059 6.05167C19.0064 5.66086 18.0831 5.23192 16.7472 4.61441L15.0423 3.82638C13.3272 3.03361 12.6751 2.75 12 2.75Z" fill="url(#paint0_linear_1536_1947)"/>
<path d="M3.64663 10.486C3.9842 10.726 4.06326 11.1943 3.82323 11.5319C3.76268 11.617 3.75 11.6745 3.75 11.7309C3.75 11.8142 3.77695 12.0137 4.39001 12.4077C4.98967 12.7931 5.91327 13.216 7.24914 13.8247L8.95396 14.6015C10.6681 15.3826 11.3222 15.6633 12 15.6633C12.6778 15.6633 13.3319 15.3826 15.046 14.6015L16.7509 13.8247C18.0867 13.216 19.0103 12.7931 19.61 12.4077C20.223 12.0137 20.25 11.8142 20.25 11.7309C20.25 11.6745 20.2373 11.617 20.1768 11.5319C19.9367 11.1943 20.0158 10.726 20.3534 10.486C20.6909 10.246 21.1592 10.325 21.3992 10.6626C21.6213 10.975 21.75 11.3318 21.75 11.7309C21.75 12.6296 21.1206 13.22 20.4209 13.6696C19.7189 14.1208 18.6946 14.5875 17.4323 15.1626L15.5109 16.0381C14.011 16.7221 13.0435 17.1633 12 17.1633C10.9565 17.1633 9.98902 16.7221 8.48904 16.0381L6.56772 15.1626C5.30546 14.5875 4.28114 14.1208 3.57907 13.6696C2.87941 13.22 2.25 12.6296 2.25 11.7309C2.25 11.3318 2.37866 10.975 2.60077 10.6626C2.84081 10.325 3.30906 10.246 3.64663 10.486Z" fill="url(#paint1_linear_1536_1947)"/>
<path d="M4.0906 16.8528C4.4146 16.5947 4.46806 16.1229 4.20999 15.7989C3.95193 15.4749 3.48007 15.4214 3.15607 15.6795C2.6498 16.0827 2.25 16.6059 2.25 17.3176C2.25 18.2163 2.87941 18.8067 3.57907 19.2563C4.28114 19.7075 5.30546 20.1742 6.56772 20.7493L8.48904 21.6248C9.98902 22.3088 10.9565 22.75 12 22.75C13.0435 22.75 14.011 22.3088 15.5109 21.6248L17.4323 20.7493C18.6945 20.1742 19.7189 19.7075 20.4209 19.2563C21.1206 18.8067 21.75 18.2163 21.75 17.3176C21.75 16.6059 21.3502 16.0827 20.8439 15.6795C20.5199 15.4214 20.0481 15.4749 19.79 15.7989C19.5319 16.1229 19.5854 16.5947 19.9094 16.8528C20.2342 17.1115 20.25 17.2481 20.25 17.3176C20.25 17.4009 20.223 17.6004 19.61 17.9944C19.0103 18.3798 18.0867 18.8027 16.7509 19.4114L15.046 20.1882C13.3319 20.9693 12.6778 21.25 12 21.25C11.3222 21.25 10.6681 20.9693 8.95396 20.1882L7.24914 19.4114C5.91327 18.8027 4.98967 18.3798 4.39001 17.9944C3.77695 17.6004 3.75 17.4009 3.75 17.3176C3.75 17.2481 3.76576 17.1115 4.0906 16.8528Z" fill="url(#paint2_linear_1536_1947)"/>
<defs>
<linearGradient id="paint0_linear_1536_1947" x1="2.73378" y1="22.75" x2="21.75" y2="22.75" gradientUnits="userSpaceOnUse">
<stop stop-color="#A719DD"/>
<stop offset="0.45" stop-color="#623BD8"/>
<stop offset="1" stop-color="#4489EB"/>
</linearGradient>
<linearGradient id="paint1_linear_1536_1947" x1="2.73378" y1="22.75" x2="21.75" y2="22.75" gradientUnits="userSpaceOnUse">
<stop stop-color="#A719DD"/>
<stop offset="0.45" stop-color="#623BD8"/>
<stop offset="1" stop-color="#4489EB"/>
</linearGradient>
<linearGradient id="paint2_linear_1536_1947" x1="2.73378" y1="22.75" x2="21.75" y2="22.75" gradientUnits="userSpaceOnUse">
<stop stop-color="#A719DD"/>
<stop offset="0.45" stop-color="#623BD8"/>
<stop offset="1" stop-color="#4489EB"/>
</linearGradient>
</defs>
</svg>
