<svg width="24" height="24" viewBox="0 0 24 24" fill="none" xmlns="http://www.w3.org/2000/svg">
<path d="M4 7H20M10 11V17M14 11V17" stroke="#E43C5C" stroke-width="1.5" stroke-linecap="round" stroke-linejoin="round"/>
<path d="M6 7L7 20C7 20.5304 7.21071 21.0391 7.58579 21.4142C7.96086 21.7893 8.46957 22 9 22H15C15.5304 22 16.0391 21.7893 16.4142 21.4142C16.7893 21.0391 17 20.5304 17 20L18 7" stroke="#E43C5C" stroke-width="1.5" stroke-linecap="round" stroke-linejoin="round"/>
<path d="M9 7V4C9 3.73478 9.10536 3.48043 9.29289 3.29289C9.48043 3.10536 9.73478 3 10 3H14C14.2652 3 14.5196 3.10536 14.7071 3.29289C14.8946 3.48043 15 3.73478 15 4V7" stroke="#E43C5C" stroke-width="1.5" stroke-linecap="round" stroke-linejoin="round"/>
</svg>
