<svg width="38" height="38" viewBox="0 0 38 38" fill="none" xmlns="http://www.w3.org/2000/svg">
<rect width="38" height="38" rx="10.64" fill="#B0B0B1"/>
<path d="M21 18.5H17C16.1716 18.5 15.5 19.1716 15.5 20V22C15.5 22.8284 16.1716 23.5 17 23.5H21C21.8284 23.5 22.5 22.8284 22.5 22V20C22.5 19.1716 21.8284 18.5 21 18.5Z" fill="white" fill-opacity="0.9"/>
<path d="M17 18.5V16.5C17 15.9696 17.2107 15.4609 17.5858 15.0858C17.9609 14.7107 18.4696 14.5 19 14.5C19.5304 14.5 20.0391 14.7107 20.4142 15.0858C20.7893 15.4609 21 15.9696 21 16.5V18.5" stroke="white" stroke-opacity="0.9" stroke-width="1.25" stroke-linecap="round"/>
</svg>
