<svg width="65" height="72" viewBox="0 0 65 72" fill="none" xmlns="http://www.w3.org/2000/svg">
<path fill-rule="evenodd" clip-rule="evenodd" d="M12.33 12.8045L15.388 64.2034C15.4341 64.9694 15.7707 65.689 16.3292 66.2153C16.8877 66.7416 17.6259 67.0349 18.3933 67.0354H45.6293C46.3967 67.0349 47.135 66.7416 47.6934 66.2153C48.2519 65.689 48.5885 64.9694 48.6346 64.2034L51.6926 12.8045H12.33ZM56.2232 12.8045L53.1463 64.4708C53.0321 66.3871 52.1904 68.1875 50.7933 69.5042C49.3962 70.8208 47.549 71.5543 45.6293 71.5547H18.3933C16.4736 71.5543 14.6264 70.8208 13.2293 69.5042C11.8322 68.1875 10.9905 66.3871 10.8763 64.4708L7.79946 12.8045H0V10.1683C0 9.66889 0.198389 9.18994 0.551524 8.8368C0.904658 8.48367 1.38361 8.28528 1.88302 8.28528H62.1396C62.639 8.28528 63.118 8.48367 63.4711 8.8368C63.8242 9.18994 64.0226 9.66889 64.0226 10.1683V12.8045H56.2232ZM39.5434 0C40.0428 0 40.5217 0.198389 40.8749 0.551524C41.228 0.904658 41.4264 1.38361 41.4264 1.88302V4.51924H22.5962V1.88302C22.5962 1.38361 22.7946 0.904658 23.1477 0.551524C23.5009 0.198389 23.9798 0 24.4792 0H39.5434ZM22.5962 22.5962H27.1155L28.9985 56.4905H24.4792L22.5962 22.5962ZM36.9072 22.5962H41.4264L39.5434 56.4905H35.0241L36.9072 22.5962Z" fill="#AF0000"/>
</svg>
