<svg width="48" height="48" viewBox="0 0 48 48" fill="none" xmlns="http://www.w3.org/2000/svg">
<path d="M9.7476 39.7737H38.2509C41.692 39.7737 43.4461 38.0529 43.4461 34.645V17.3239C43.4461 13.916 41.692 12.212 38.2509 12.212H34.38C33.0897 12.212 32.693 11.9473 31.9483 11.12L30.6079 9.63068C29.7976 8.72154 28.9541 8.22461 27.2332 8.22461H20.6489C18.945 8.22461 18.1007 8.72154 17.2742 9.63068L15.9338 11.12C15.206 11.9304 14.7924 12.212 13.5021 12.212H9.74689C6.30582 12.212 4.55176 13.916 4.55176 17.3239V34.645C4.55176 38.0529 6.30653 39.7737 9.7476 39.7737ZM9.7963 37.1098C8.1587 37.1098 7.21568 36.2332 7.21568 34.5123V17.4728C7.21568 15.7519 8.1587 14.8752 9.7963 14.8752H14.1635C15.6528 14.8752 16.4469 14.5943 17.2742 13.6682L18.5807 12.212C19.5238 11.1532 20.0037 10.8885 21.4762 10.8885H26.4059C27.8783 10.8885 28.3583 11.1532 29.3013 12.212L30.6079 13.6675C31.4352 14.5943 32.2292 14.8752 33.7186 14.8752H38.2015C39.8391 14.8752 40.7829 15.7519 40.7829 17.4728V34.5123C40.7829 36.2332 39.8398 37.1098 38.2015 37.1098H9.7963ZM23.9912 34.4798C25.1797 34.4832 26.3571 34.2513 27.4555 33.7975C28.554 33.3437 29.5518 32.677 30.3914 31.8358C31.231 30.9947 31.8958 29.9956 32.3475 28.8963C32.7993 27.797 33.0289 26.6192 33.0233 25.4307C33.0233 20.4007 29.0197 16.3815 23.9904 16.3815C18.9944 16.3815 14.9745 20.4007 14.9745 25.4307C14.9745 30.4592 18.9944 34.4798 23.9904 34.4798M35.8849 21.3931C37.01 21.3931 37.9361 20.484 37.9361 19.3589C37.9361 18.8148 37.72 18.2931 37.3353 17.9084C36.9507 17.5237 36.4289 17.3076 35.8849 17.3076C35.3409 17.3076 34.8191 17.5237 34.4345 17.9084C34.0498 18.2931 33.8337 18.8148 33.8337 19.3589C33.8337 20.484 34.7598 21.3931 35.8849 21.3931ZM23.9912 31.9655C20.4011 31.9655 17.4732 29.0538 17.4732 25.4307C17.4732 21.8075 20.3849 18.8965 23.9912 18.8965C24.8496 18.8955 25.6997 19.0638 26.493 19.3918C27.2862 19.7198 28.007 20.2011 28.614 20.808C29.221 21.4149 29.7024 22.1357 30.0305 22.9289C30.3585 23.7221 30.5269 24.5723 30.526 25.4307C30.527 26.2891 30.3587 27.1393 30.0307 27.9327C29.7026 28.726 29.2213 29.4468 28.6143 30.0538C28.0073 30.6608 27.2864 31.1421 26.4931 31.4702C25.6998 31.7982 24.8496 31.9665 23.9912 31.9655Z" fill="#4489EB"/>
</svg>
