<svg width="20" height="20" viewBox="0 0 20 20" fill="none" xmlns="http://www.w3.org/2000/svg">
<path d="M4.16536 10.2083C4.48646 10.2083 4.75535 10.4516 4.7873 10.7711C4.97756 12.6737 5.82258 13.7781 6.59397 14.4134C6.9855 14.7358 7.36516 14.9426 7.64405 15.0679C7.75227 15.1164 7.84453 15.1524 7.91536 15.1778C7.98619 15.1524 8.07846 15.1164 8.18669 15.0678C8.46559 14.9425 8.84527 14.7357 9.23682 14.4132C10.0082 13.7778 10.8533 12.6734 11.0435 10.7711C11.0755 10.4516 11.3443 10.2083 11.6654 10.2083L11.6731 10.2083L11.6931 10.2084L11.7642 10.2089C11.8232 10.2094 11.9043 10.2104 11.9911 10.2125C12.1358 10.216 12.3837 10.2234 12.5292 10.2524C13.4382 10.4332 14.1489 11.1438 14.3297 12.0529C14.374 12.2758 14.3739 12.5283 14.3738 12.8556L14.3737 17.5C14.3737 17.8452 14.0939 18.125 13.7487 18.125C13.4036 18.125 13.1237 17.8452 13.1237 17.5V12.9167C13.1237 12.4995 13.1207 12.3822 13.1037 12.2968C13.0215 11.8836 12.6985 11.5605 12.2853 11.4783C12.2874 11.4788 12.2865 11.4787 12.2821 11.4782C12.2732 11.4773 12.2503 11.4749 12.2096 11.4722C11.8802 13.4001 10.9431 14.6272 10.0315 15.3781C9.53762 15.7848 9.05792 16.0468 8.69881 16.2081C8.51887 16.2889 8.36791 16.345 8.25874 16.3817C8.20411 16.4001 8.15979 16.4137 8.12736 16.4231L8.06708 16.4396C7.96753 16.4646 7.86266 16.4644 7.7631 16.4395L7.70354 16.4232C7.67111 16.4137 7.62678 16.4002 7.57215 16.3818C7.46297 16.3451 7.31201 16.289 7.13207 16.2082C6.77294 16.0469 6.29322 15.785 5.79934 15.3783C4.88767 14.6275 3.9506 13.4003 3.62119 11.4722C3.58048 11.4749 3.55759 11.4773 3.54874 11.4782C3.54434 11.4787 3.54341 11.4788 3.54552 11.4783C3.1323 11.5605 2.80928 11.8836 2.72709 12.2968C2.7101 12.3822 2.70707 12.4995 2.70707 12.9167L2.70707 17.5C2.70707 17.8452 2.42725 18.125 2.08207 18.125C1.73689 18.125 1.45707 17.8452 1.45707 17.5L1.45705 12.8556C1.45689 12.5283 1.45676 12.2758 1.5011 12.0529C1.68193 11.1438 2.39257 10.4332 3.30166 10.2524C3.44711 10.2234 3.695 10.216 3.83974 10.2125C3.92656 10.2104 4.00757 10.2094 4.06665 10.2089L4.13772 10.2084L4.1577 10.2083L4.16536 10.2083Z" fill="#76869E"/>
<path d="M9.91061 9.88481C10.0949 9.99869 10.207 10.1999 10.207 10.4165V12.0831C10.207 12.2997 10.0949 12.5009 9.91061 12.6148C9.72635 12.7287 9.49627 12.739 9.30252 12.6421L7.9154 11.9486L6.52826 12.6423C6.33451 12.7392 6.10441 12.7289 5.92014 12.615C5.73587 12.5011 5.6237 12.2999 5.6237 12.0833L5.6237 10.4166C5.6237 10.2 5.73585 9.99888 5.92009 9.885C6.10434 9.77112 6.33442 9.76075 6.52816 9.8576L7.91533 10.551L9.30252 9.85745C9.49627 9.76058 9.72635 9.77093 9.91061 9.88481Z" fill="#76869E"/>
<path fill-rule="evenodd" clip-rule="evenodd" d="M7.91536 1.875C6.17739 1.875 4.79036 3.30964 4.79036 5.05208V5.78125C4.79036 7.52369 6.17739 8.95833 7.91536 8.95833C9.65334 8.95833 11.0404 7.52369 11.0404 5.78125L11.0404 5.05208C11.0404 3.30964 9.65334 1.875 7.91536 1.875ZM6.04036 5.05208C6.04036 3.97557 6.89192 3.125 7.91536 3.125C8.93881 3.125 9.79036 3.97557 9.79036 5.05208L9.79036 5.78125C9.79036 6.85776 8.93881 7.70833 7.91536 7.70833C6.89192 7.70833 6.04036 6.85776 6.04036 5.78125V5.05208Z" fill="#76869E"/>
<path d="M16.4519 11.4783C16.3665 11.4613 16.2492 11.4583 15.832 11.4583C15.4869 11.4583 15.207 11.1785 15.207 10.8333C15.207 10.4881 15.4869 10.2083 15.832 10.2083L15.8931 10.2083C16.2204 10.2081 16.4729 10.208 16.6958 10.2524C17.6049 10.4332 18.3155 11.1438 18.4963 12.0529C18.5407 12.2758 18.5405 12.5283 18.5404 12.8556L18.5404 17.5C18.5404 17.8452 18.2605 18.125 17.9154 18.125C17.5702 18.125 17.2904 17.8452 17.2904 17.5V12.9167C17.2904 12.4995 17.2873 12.3822 17.2704 12.2968C17.1882 11.8835 16.8651 11.5605 16.4519 11.4783Z" fill="#76869E"/>
<path d="M12.9155 1.875C12.5498 1.875 12.1976 1.93913 11.8701 2.05732C11.5454 2.17447 11.3771 2.53265 11.4943 2.85734C11.6115 3.18203 11.9696 3.35027 12.2943 3.23312C12.4881 3.16322 12.6968 3.125 12.9155 3.125C13.939 3.125 14.7905 3.97557 14.7905 5.05208L14.7905 5.78125C14.7905 6.85776 13.939 7.70833 12.9155 7.70833C12.6968 7.70833 12.4881 7.67011 12.2943 7.60021C11.9696 7.48306 11.6115 7.6513 11.4943 7.97599C11.3771 8.30068 11.5454 8.65887 11.8701 8.77602C12.1976 8.89421 12.5498 8.95833 12.9155 8.95833C14.6535 8.95833 16.0405 7.52369 16.0405 5.78125V5.05208C16.0405 3.30964 14.6535 1.875 12.9155 1.875Z" fill="#76869E"/>
</svg>
