<svg width="18" height="22" viewBox="0 0 18 22" fill="none" xmlns="http://www.w3.org/2000/svg">
<path d="M15.216 13.391C15.337 13.466 15.472 13.501 15.605 13.501L15.607 13.5C15.86 13.5 16.107 13.372 16.248 13.14C17.067 11.795 17.5 10.249 17.5 8.66899C17.5 3.88899 13.575 0 8.75 0C3.925 0 0 3.88899 0 8.66899C0 10.248 0.433002 11.794 1.252 13.14C1.468 13.494 1.92901 13.606 2.28301 13.391C2.63701 13.175 2.74901 12.714 2.53401 12.36C1.85701 11.249 1.5 9.97299 1.5 8.66899C1.5 4.71599 4.752 1.5 8.75 1.5C12.748 1.5 16 4.71599 16 8.66899C16 9.974 15.642 11.25 14.966 12.36C14.75 12.714 14.862 13.176 15.216 13.391Z" fill="white"/>
<path fill-rule="evenodd" clip-rule="evenodd" d="M13.6156 17.222C13.3203 17.6887 12.901 18.0484 12.4079 18.2667L12.3487 18.563L12.3457 18.5779C12.1966 19.3185 12.1143 19.7275 11.8977 20.108C11.5607 20.703 11.0167 21.148 10.3667 21.362C9.9477 21.501 9.5207 21.501 8.7457 21.501H8.74869C7.97269 21.501 7.5457 21.501 7.1257 21.362C6.4777 21.149 5.9337 20.703 5.5957 20.108C5.3787 19.726 5.2957 19.313 5.1457 18.564L5.08599 18.265C4.59413 18.0467 4.17671 17.6881 3.88365 17.225C3.70465 16.94 3.60365 16.638 3.42165 16.091L4.13165 15.85L3.42065 16.087C3.31065 15.758 3.23864 15.541 3.24964 15.289C3.27664 14.751 3.61564 14.2829 4.11164 14.0919C4.34256 14.001 4.55949 14.001 4.92025 14.001H12.5766C12.9374 14.001 13.1557 14.001 13.3916 14.0939C13.8826 14.2829 14.2206 14.75 14.2476 15.284C14.2586 15.54 14.1906 15.746 14.0766 16.086C13.8936 16.637 13.7926 16.939 13.6156 17.222ZM10.8318 18.501C10.7398 18.954 10.6792 19.2189 10.5947 19.368C10.4417 19.638 10.1947 19.84 9.89869 19.938C9.70873 20.001 9.36782 20.001 8.74803 20.001C8.12825 20.001 7.78567 20.001 7.5947 19.938C7.2997 19.841 7.0527 19.639 6.8997 19.368C6.81521 19.2189 6.75451 18.9538 6.66249 18.501H10.8318ZM4.81785 15.5373L4.80565 15.501L4.80665 15.502H12.6906C12.6786 15.539 12.6656 15.5789 12.6526 15.6169C12.5076 16.0539 12.4276 16.295 12.3476 16.422C12.1746 16.695 11.9086 16.8879 11.5986 16.9649C11.4506 17.0019 11.1966 17.002 10.7366 17.002H6.76064C6.30064 17.002 6.04664 17.0019 5.89964 16.9649C5.58864 16.8879 5.32264 16.695 5.15164 16.425C5.06964 16.295 4.98965 16.0539 4.84465 15.6169L4.84265 15.612C4.83468 15.5874 4.82611 15.5619 4.81785 15.5373Z" fill="white"/>
<path d="M7.24111 10.7501C7.38911 10.9161 7.5941 11.0011 7.8011 11.0011L7.7991 11.0001C7.9771 11.0001 8.1551 10.9371 8.2981 10.8101L10.1851 9.1291C10.5171 8.8351 10.6481 8.38813 10.5291 7.96113C10.4101 7.53313 10.0641 7.21813 9.6271 7.13813L8.75511 6.9791L9.85811 5.75112C10.1351 5.44312 10.1091 4.96909 9.8011 4.69209C9.4931 4.41509 9.01911 4.44112 8.74211 4.74912L7.22111 6.44311C6.94311 6.75211 6.8541 7.18813 6.9881 7.58213C7.1231 7.97713 7.46111 8.26911 7.87111 8.34311L8.65411 8.48613L7.3021 9.69111C6.9931 9.96711 6.96511 10.4411 7.24111 10.7501Z" fill="white"/>
</svg>
