<svg width="350" height="437" viewBox="0 0 350 437" fill="none" xmlns="http://www.w3.org/2000/svg">
<g clip-path="url(#clip0_749_3555)">
<rect width="350" height="437" rx="22" fill="white"/>
<rect x="-191.357" y="207.942" width="18.0605" height="493.758" transform="rotate(-45 -191.357 207.942)" fill="#F1F2F7"/>
<rect x="-151.809" y="189.689" width="18.0605" height="493.758" transform="rotate(-45 -151.809 189.689)" fill="#F1F2F7"/>
<rect x="-129.297" y="159.302" width="18.0605" height="493.758" transform="rotate(-45 -129.297 159.302)" fill="#F1F2F7"/>
<rect x="-92.791" y="136.79" width="18.0605" height="493.758" transform="rotate(-45 -92.791 136.79)" fill="#F1F2F7"/>
<rect x="-52.6348" y="124.02" width="18.0605" height="493.758" transform="rotate(-45 -52.6348 124.02)" fill="#F1F2F7"/>
<rect x="-10.4023" y="104.55" width="18.0605" height="493.758" transform="rotate(-45 -10.4023 104.55)" fill="#F1F2F7"/>
<rect x="-10.4023" y="51.2572" width="18.0605" height="529.865" transform="rotate(-45 -10.4023 51.2572)" fill="#F1F2F7"/>
<rect x="-4.00391" y="-4.02731" width="18.0605" height="529.865" transform="rotate(-45 -4.00391 -4.02731)" fill="#F1F2F7"/>
<rect x="19.7246" y="-34.4189" width="18.0605" height="529.865" transform="rotate(-45 19.7246 -34.4189)" fill="#F1F2F7"/>
<rect x="32.4961" y="-75.7917" width="18.0605" height="529.865" transform="rotate(-45 32.4961 -75.7917)" fill="#F1F2F7"/>
<rect x="60.8242" y="-105.604" width="18.0605" height="529.865" transform="rotate(-45 60.8242 -105.604)" fill="#F1F2F7"/>
<rect x="75.3984" y="-146.977" width="18.0605" height="529.865" transform="rotate(-45 75.3984 -146.977)" fill="#F1F2F7"/>
<rect x="103.387" y="-174.965" width="18.0605" height="529.865" transform="rotate(-45 103.387 -174.965)" fill="#F1F2F7"/>
</g>
<rect x="1" y="1" width="348" height="435" rx="21" stroke="#0E101A" stroke-opacity="0.2" stroke-width="2" stroke-dasharray="6 6"/>
<defs>
<clipPath id="clip0_749_3555">
<rect width="350" height="437" rx="22" fill="white"/>
</clipPath>
</defs>
</svg>
