<svg width="20" height="20" viewBox="0 0 20 20" fill="none" xmlns="http://www.w3.org/2000/svg">
<path d="M8.54169 15.8337C8.54169 15.4885 8.82151 15.2087 9.16669 15.2087H10.8334C11.1785 15.2087 11.4584 15.4885 11.4584 15.8337C11.4584 16.1788 11.1785 16.4587 10.8334 16.4587H9.16669C8.82151 16.4587 8.54169 16.1788 8.54169 15.8337Z" fill="#3260BB"/>
<path fill-rule="evenodd" clip-rule="evenodd" d="M9.95357 1.04199H10.0465C11.382 1.04198 12.4478 1.04197 13.2837 1.15435C14.1472 1.27045 14.8584 1.51671 15.421 2.07932C15.9836 2.64194 16.2299 3.35312 16.346 4.21667C16.4584 5.05258 16.4584 6.11838 16.4584 7.45388V12.5468C16.4584 13.8823 16.4584 14.9481 16.346 15.784C16.2299 16.6475 15.9836 17.3587 15.421 17.9213C14.8584 18.4839 14.1472 18.7302 13.2837 18.8463C12.4478 18.9587 11.382 18.9587 10.0465 18.9587H9.95357C8.61807 18.9587 7.55227 18.9587 6.71637 18.8463C5.85281 18.7302 5.14163 18.4839 4.57902 17.9213C4.0164 17.3587 3.77015 16.6475 3.65405 15.784C3.54166 14.9481 3.54167 13.8823 3.54169 12.5468V7.45387C3.54167 6.11838 3.54166 5.05258 3.65405 4.21667C3.77015 3.35312 4.0164 2.64194 4.57902 2.07932C5.14163 1.51671 5.85281 1.27045 6.71637 1.15435C7.55227 1.04197 8.61807 1.04198 9.95357 1.04199ZM6.88293 2.3932C6.15798 2.49067 5.75456 2.67155 5.4629 2.96321C5.17125 3.25486 4.99036 3.65829 4.8929 4.38323C4.79302 5.12615 4.79169 6.10773 4.79169 7.50033V12.5003C4.79169 13.8929 4.79302 14.8745 4.8929 15.6174C4.99036 16.3424 5.17125 16.7458 5.4629 17.0374C5.75456 17.3291 6.15798 17.51 6.88292 17.6075C7.62585 17.7073 8.60742 17.7087 10 17.7087C11.3926 17.7087 12.3742 17.7073 13.1171 17.6075C13.8421 17.51 14.2455 17.3291 14.5371 17.0374C14.8288 16.7458 15.0097 16.3424 15.1071 15.6174C15.207 14.8745 15.2084 13.8929 15.2084 12.5003V7.50033C15.2084 6.10773 15.207 5.12615 15.1071 4.38323C15.0097 3.65829 14.8288 3.25486 14.5371 2.96321C14.2455 2.67155 13.8421 2.49067 13.1171 2.3932C13.0835 2.38868 13.0494 2.38437 13.0148 2.38024C12.9482 2.77786 12.8867 3.12594 12.8034 3.40964C12.7042 3.74783 12.5553 4.06538 12.2689 4.31955C11.9725 4.58245 11.6313 4.69289 11.2657 4.74341C10.9211 4.79105 10.4957 4.792 10.0001 4.792C9.5044 4.792 9.07906 4.79105 8.73441 4.74341C8.36885 4.69289 8.02757 4.58245 7.73126 4.31955C7.44478 4.06538 7.29594 3.74783 7.19669 3.40964C7.11343 3.12594 7.05193 2.77786 6.98534 2.38023C6.9507 2.38436 6.91657 2.38868 6.88293 2.3932ZM8.24028 2.30411C8.29736 2.6385 8.34228 2.87424 8.3961 3.05763C8.4599 3.275 8.5166 3.34526 8.56084 3.38452C8.60952 3.4277 8.68531 3.47475 8.90554 3.50518C9.14667 3.53851 9.47585 3.542 10.0001 3.542C10.5243 3.542 10.8534 3.53851 11.0946 3.50518C11.3148 3.47475 11.3906 3.4277 11.4393 3.38452C11.4835 3.34526 11.5402 3.275 11.604 3.05763C11.6578 2.87424 11.7028 2.6385 11.7598 2.30412C11.2572 2.29231 10.6772 2.29199 10 2.29199C9.32286 2.29199 8.74289 2.29231 8.24028 2.30411Z" fill="#3260BB"/>
</svg>
