<svg width="67" height="68" viewBox="0 0 67 68" fill="none" xmlns="http://www.w3.org/2000/svg">
<path d="M57.966 12.9774C56.996 11.9875 55.8405 11.1984 54.5655 10.6552C53.2905 10.1119 51.921 9.82508 50.5351 9.81109C49.1493 9.79709 47.7743 10.0562 46.4886 10.5736C45.2029 11.091 44.0316 11.8566 43.0418 12.8266C42.052 13.7966 41.2629 14.9522 40.7196 16.2271C40.1764 17.5021 39.8895 18.8717 39.8755 20.2575C39.8473 23.0563 40.932 25.7517 42.8911 27.7508M57.966 12.9774C59.9251 14.9764 61.0098 17.6718 60.9815 20.4707C60.9533 23.2695 59.8143 25.9425 57.8153 27.9016C55.8162 29.8606 53.1208 30.9454 50.3219 30.9171C47.5231 30.8888 44.8501 29.7499 42.8911 27.7508M57.966 12.9774L42.8911 27.7508" stroke="url(#paint0_linear_66898_24103)" stroke-width="4" stroke-linecap="round" stroke-linejoin="round"/>
<path fill-rule="evenodd" clip-rule="evenodd" d="M38.6265 61.874C39.4138 61.259 40.5506 61.3992 41.1656 62.1865C41.7805 62.9738 41.6413 64.1106 40.854 64.7256C38.6085 66.4796 35.6784 67.5205 32.5044 67.5205C29.3305 67.5205 26.4004 66.4796 24.1548 64.7256C23.3676 64.1106 23.2285 62.9738 23.8433 62.1865C24.4583 61.3992 25.595 61.259 26.3824 61.874C27.9772 63.1198 30.1188 63.9023 32.5044 63.9023C34.8901 63.9023 37.0317 63.1197 38.6265 61.874ZM32.5025 15.6641C33.2232 15.6641 33.9356 15.7018 34.6373 15.7744C34.3713 16.9305 34.2286 18.1333 34.2203 19.3682C33.6562 19.3116 33.0829 19.2822 32.5025 19.2822C23.4211 19.2824 16.1627 26.3889 16.1626 35.0303C16.1624 37.569 16.0329 40.437 14.1724 43.0967L14.1665 43.1055C13.9183 43.4561 13.6505 43.812 13.399 44.1455L13.2203 44.3818C12.9103 44.7945 12.6262 45.1807 12.3726 45.5664C11.8594 46.3469 11.5484 47.0134 11.4488 47.6475C11.1279 49.6894 12.4622 51.3557 14.9244 52.3457C25.2552 56.4994 39.7508 56.4994 50.0816 52.3457C52.5436 51.3557 53.8781 49.6894 53.5572 47.6475C53.4575 47.0134 53.1466 46.3469 52.6333 45.5664C52.3797 45.1806 52.0948 44.7946 51.7847 44.3818L51.607 44.1455C51.3555 43.812 51.0877 43.4562 50.8394 43.1055L50.8335 43.0967C49.1706 40.7194 48.8919 38.1759 48.8511 35.8496C49.4548 35.9167 50.0685 35.9531 50.69 35.9531C51.2915 35.9531 51.8854 35.9193 52.4703 35.8564C52.5146 37.9282 52.7654 39.5461 53.7945 41.0195C54.0073 41.3199 54.2333 41.619 54.48 41.9463L54.6773 42.209C54.9941 42.6307 55.3361 43.0928 55.6558 43.5791C56.2894 44.5427 56.9158 45.7144 57.1314 47.0859C57.8361 51.5705 54.5841 54.4344 51.4312 55.7021C40.2343 60.2041 24.7716 60.2041 13.5748 55.7021C10.4217 54.4344 7.16987 51.5706 7.87456 47.0859C8.09012 45.7144 8.71656 44.5427 9.35014 43.5791C9.66979 43.093 10.011 42.6305 10.3277 42.209L10.5259 41.9463C10.7727 41.619 10.9977 41.3199 11.2105 41.0195C12.3724 39.3559 12.5443 37.5077 12.5445 35.0303C12.5446 24.2787 21.537 15.6643 32.5025 15.6641Z" fill="url(#paint1_linear_66898_24103)"/>
<defs>
<linearGradient id="paint0_linear_66898_24103" x1="58.7834" y1="4.97351" x2="58.7834" y2="30.9176" gradientUnits="userSpaceOnUse">
<stop stop-color="#A719DD"/>
<stop offset="0.630117" stop-color="#623BD8"/>
<stop offset="1" stop-color="#4489EB"/>
</linearGradient>
<linearGradient id="paint1_linear_66898_24103" x1="52.0774" y1="3.7803" x2="52.0774" y2="67.5205" gradientUnits="userSpaceOnUse">
<stop stop-color="#A719DD"/>
<stop offset="0.630117" stop-color="#623BD8"/>
<stop offset="1" stop-color="#4489EB"/>
</linearGradient>
</defs>
</svg>
