<svg width="84" height="84" viewBox="0 0 84 84" fill="none" xmlns="http://www.w3.org/2000/svg">
<path d="M42.7656 7.179C44.4224 7.179 45.7655 8.52228 45.7656 10.179C45.7656 11.8359 44.4225 13.179 42.7656 13.179H23.3828C14.5464 13.179 7.38297 20.3426 7.38281 29.179V57.6458C7.38281 66.4824 14.5463 73.6458 23.3828 73.6458H52.1494C60.9859 73.6457 68.1494 66.4823 68.1494 57.6458V43.4124C68.1496 41.7557 69.4927 40.4124 71.1494 40.4124C72.8061 40.4125 74.1493 41.7557 74.1494 43.4124V57.6458C74.1494 69.796 64.2996 79.6457 52.1494 79.6458H23.3828C11.2325 79.6458 1.38281 69.7961 1.38281 57.6458V29.179C1.38297 17.0289 11.2326 7.179 23.3828 7.179H42.7656ZM58.3457 59.0833C60.0025 59.0833 61.3455 60.4266 61.3457 62.0833C61.3457 63.7402 60.0026 65.0833 58.3457 65.0833H16.6543C14.9974 65.0833 13.6543 63.7402 13.6543 62.0833C13.6545 60.4266 14.9975 59.0833 16.6543 59.0833H58.3457ZM58.3457 47.0833C60.0025 47.0833 61.3455 48.4266 61.3457 50.0833C61.3457 51.7402 60.0026 53.0833 58.3457 53.0833H16.6543C14.9974 53.0833 13.6543 51.7402 13.6543 50.0833C13.6545 48.4266 14.9975 47.0833 16.6543 47.0833H58.3457ZM41.4043 35.0833C43.0611 35.0833 44.4041 36.4266 44.4043 38.0833C44.4043 39.7402 43.0611 41.0833 41.4043 41.0833H16.6543C14.9974 41.0833 13.6543 39.7402 13.6543 38.0833C13.6545 36.4266 14.9975 35.0833 16.6543 35.0833H41.4043ZM78.1338 5.12431C79.1589 4.09919 80.8215 4.09919 81.8467 5.12431C82.8714 6.14942 82.8715 7.8112 81.8467 8.83623L71.4521 19.2298L81.8467 29.6243C82.8714 30.6494 82.8715 32.3112 81.8467 33.3362C80.8215 34.3614 79.1589 34.3614 78.1338 33.3362L67.7402 22.9427L57.3467 33.3362C56.3216 34.3614 54.6589 34.3614 53.6338 33.3362C52.6089 32.3112 52.6091 30.6494 53.6338 29.6243L64.0283 19.2298L53.6338 8.83623C52.6089 7.8112 52.6091 6.14942 53.6338 5.12431C54.6589 4.09919 56.3216 4.09919 57.3467 5.12431L67.7402 15.5179L78.1338 5.12431ZM41.4043 23.0833C43.0611 23.0833 44.4041 24.4266 44.4043 26.0833C44.4043 27.7402 43.0611 29.0833 41.4043 29.0833H16.6543C14.9974 29.0833 13.6543 27.7402 13.6543 26.0833C13.6545 24.4266 14.9975 23.0833 16.6543 23.0833H41.4043Z" fill="url(#paint0_linear_62756_27655)"/>
<defs>
<linearGradient id="paint0_linear_62756_27655" x1="74.1536" y1="-12.8986" x2="74.1536" y2="79.6458" gradientUnits="userSpaceOnUse">
<stop stop-color="#A719DD"/>
<stop offset="0.630117" stop-color="#623BD8"/>
<stop offset="1" stop-color="#4489EB"/>
</linearGradient>
</defs>
</svg>
