<svg width="16" height="16" viewBox="0 0 16 16" fill="none" xmlns="http://www.w3.org/2000/svg">
<path d="M4.0013 14.666C3.63464 14.666 3.32086 14.5356 3.05997 14.2747C2.79908 14.0138 2.66841 13.6998 2.66797 13.3327V6.66602C2.66797 6.29935 2.79864 5.98557 3.05997 5.72468C3.3213 5.46379 3.63508 5.33313 4.0013 5.33268H4.66797V3.99935C4.66797 3.07713 4.99308 2.29113 5.6433 1.64135C6.29352 0.991572 7.07952 0.666461 8.0013 0.666016C8.92308 0.665572 9.7093 0.990683 10.36 1.64135C11.0106 2.29202 11.3355 3.07802 11.3346 3.99935V5.33268H12.0013C12.368 5.33268 12.682 5.46335 12.9433 5.72468C13.2046 5.98602 13.3351 6.29979 13.3346 6.66602V13.3327C13.3346 13.6993 13.2042 14.0133 12.9433 14.2747C12.6824 14.536 12.3684 14.6665 12.0013 14.666H4.0013ZM8.9433 10.9413C9.20419 10.68 9.33464 10.366 9.33464 9.99935C9.33464 9.63268 9.20419 9.31891 8.9433 9.05802C8.68241 8.79713 8.36841 8.66646 8.0013 8.66602C7.63419 8.66557 7.32041 8.79624 7.05997 9.05802C6.79952 9.31979 6.66886 9.63357 6.66797 9.99935C6.66708 10.3651 6.79775 10.6791 7.05997 10.9413C7.32219 11.2036 7.63597 11.334 8.0013 11.3327C8.36664 11.3313 8.68064 11.2009 8.9433 10.9413ZM6.0013 5.33268H10.0013V3.99935C10.0013 3.44379 9.80686 2.97157 9.41797 2.58268C9.02908 2.19379 8.55686 1.99935 8.0013 1.99935C7.44575 1.99935 6.97352 2.19379 6.58464 2.58268C6.19575 2.97157 6.0013 3.44379 6.0013 3.99935V5.33268Z" fill="#B9BFCB"/>
</svg>
