<svg width="18" height="18" viewBox="0 0 18 18" fill="none" xmlns="http://www.w3.org/2000/svg">
<path d="M7.08902 11.7791C7.20152 11.9683 7.40569 12.0833 7.62486 12.0833H7.62569C7.63101 12.0833 7.63653 12.0831 7.64215 12.0829C7.64798 12.0827 7.65392 12.0825 7.65986 12.0825C7.89153 12.0691 8.09735 11.9291 8.19402 11.7183C8.21319 11.6766 10.1415 7.51329 12.5924 6.17329C12.8949 6.00746 13.0065 5.62745 12.8407 5.32495C12.6749 5.02245 12.2949 4.91078 11.9924 5.07661C9.92153 6.20911 8.27486 8.8841 7.51319 10.2958C6.79569 9.53744 5.97985 9.06664 5.93485 9.04081C5.63569 8.86997 5.25486 8.9741 5.08319 9.27327C4.91236 9.57244 5.01569 9.9541 5.31486 10.1258C5.32653 10.1324 6.51735 10.8241 7.08902 11.7791Z" fill="#3260BB"/>
<path fill-rule="evenodd" clip-rule="evenodd" d="M0 8.95833C0 13.8983 4.01833 17.9167 8.95833 17.9167C13.8983 17.9167 17.9167 13.8983 17.9167 8.95833C17.9167 4.01833 13.8983 0 8.95833 0C4.01833 0 0 4.01833 0 8.95833ZM1.25 8.95833C1.25 4.70833 4.70833 1.25 8.95833 1.25C13.2083 1.25 16.6667 4.70833 16.6667 8.95833C16.6667 13.2083 13.2083 16.6667 8.95833 16.6667C4.70833 16.6667 1.25 13.2083 1.25 8.95833Z" fill="#3260BB"/>
</svg>
