<svg width="28" height="28" viewBox="0 0 28 28" fill="none" xmlns="http://www.w3.org/2000/svg">
<path d="M22.1667 8.16667H5.83333C4.54467 8.16667 3.5 9.21134 3.5 10.5V21C3.5 22.2887 4.54467 23.3333 5.83333 23.3333H22.1667C23.4553 23.3333 24.5 22.2887 24.5 21V10.5C24.5 9.21134 23.4553 8.16667 22.1667 8.16667Z" stroke="white" stroke-width="1.86667" stroke-linecap="round" stroke-linejoin="round"/>
<path d="M9.33333 8.16667L11.6667 4.66667H16.3333L18.6667 8.16667" stroke="white" stroke-width="1.86667" stroke-linecap="round" stroke-linejoin="round"/>
<path d="M14 19.25C16.2552 19.25 18.0833 17.4218 18.0833 15.1667C18.0833 12.9115 16.2552 11.0833 14 11.0833C11.7448 11.0833 9.91667 12.9115 9.91667 15.1667C9.91667 17.4218 11.7448 19.25 14 19.25Z" stroke="white" stroke-width="1.86667" stroke-linecap="round" stroke-linejoin="round"/>
</svg>
