<svg width="20" height="20" viewBox="0 0 20 20" fill="none" xmlns="http://www.w3.org/2000/svg">
<path fill-rule="evenodd" clip-rule="evenodd" d="M4.37484 5.83333C4.37484 3.64721 6.14704 1.875 8.33317 1.875C10.5193 1.875 12.2915 3.64721 12.2915 5.83333C12.2915 8.01946 10.5193 9.79167 8.33317 9.79167C6.14704 9.79167 4.37484 8.01946 4.37484 5.83333ZM8.33317 3.125C6.8374 3.125 5.62484 4.33756 5.62484 5.83333C5.62484 7.3291 6.8374 8.54167 8.33317 8.54167C9.82894 8.54167 11.0415 7.3291 11.0415 5.83333C11.0415 4.33756 9.82894 3.125 8.33317 3.125Z" fill="#3260BB"/>
<path fill-rule="evenodd" clip-rule="evenodd" d="M4.00067 12.2078C6.65333 10.653 10.0133 10.653 12.666 12.2078C12.75 12.257 12.8546 12.3151 12.9736 12.3812C13.5008 12.6738 14.3108 13.1234 14.8653 13.6577C15.2115 13.9913 15.5528 14.4419 15.6151 15.0031C15.6819 15.6044 15.4132 16.1592 14.8996 16.6409C14.0246 17.4615 12.968 18.125 11.5994 18.125H5.06731C3.69869 18.125 2.64209 17.4615 1.76702 16.6409C1.25342 16.1592 0.984796 15.6044 1.05156 15.0031C1.11387 14.4419 1.45517 13.9913 1.80141 13.6577C2.3559 13.1234 3.16583 12.6738 3.69303 12.3812C3.81192 12.3152 3.91674 12.257 4.00067 12.2078ZM12.0339 13.2862C9.77157 11.9602 6.89509 11.9602 4.63277 13.2862C4.50571 13.3607 4.36749 13.4379 4.22341 13.5184C3.69637 13.8128 3.09104 14.1509 2.66872 14.5579C2.40622 14.8108 2.30888 15.0064 2.29393 15.141C2.28343 15.2355 2.29893 15.426 2.6221 15.7291C3.38207 16.4418 4.14648 16.875 5.06731 16.875H11.5994C12.5202 16.875 13.2846 16.4418 14.0446 15.7291C14.3677 15.426 14.3832 15.2355 14.3727 15.141C14.3578 15.0064 14.2604 14.8108 13.9979 14.5579C13.5756 14.1509 12.9704 13.8128 12.4434 13.5184C12.2993 13.4379 12.161 13.3607 12.0339 13.2862Z" fill="#3260BB"/>
<path d="M16.8748 3.33333C16.8748 2.98816 16.595 2.70833 16.2498 2.70833C15.9047 2.70833 15.6248 2.98816 15.6248 3.33333V4.79167H14.1665C13.8213 4.79167 13.5415 5.07149 13.5415 5.41667C13.5415 5.76184 13.8213 6.04167 14.1665 6.04167H15.6248V7.5C15.6248 7.84518 15.9047 8.125 16.2498 8.125C16.595 8.125 16.8748 7.84518 16.8748 7.5V6.04167H18.3332C18.6783 6.04167 18.9582 5.76184 18.9582 5.41667C18.9582 5.07149 18.6783 4.79167 18.3332 4.79167H16.8748V3.33333Z" fill="#3260BB"/>
</svg>
