<svg width="16" height="14" viewBox="0 0 16 14" fill="none" xmlns="http://www.w3.org/2000/svg">
<path d="M13.135 0.189493C13.8826 -0.218971 14.8202 0.0547265 15.2287 0.800821C15.6372 1.54853 15.3622 2.48603 14.6144 2.89457C12.5009 4.05084 10.5152 6.47186 8.99824 8.79203C8.2599 9.92347 7.66593 10.9779 7.25898 11.7471C7.05554 12.1324 6.89992 12.444 6.79511 12.6582L6.64374 12.9737C6.40482 13.4947 5.89822 13.8406 5.32636 13.8731C4.7544 13.9039 4.21262 13.6153 3.91816 13.125C3.43872 12.3236 2.6788 11.5932 1.97285 11.0352C1.6306 10.7639 1.32221 10.5502 1.10175 10.4053L0.776557 10.2041C0.0380989 9.78173 -0.219102 8.83908 0.203315 8.10063C0.624218 7.36093 1.56599 7.10328 2.30585 7.52543L2.79121 7.82621C3.07179 8.01121 3.45791 8.27863 3.88496 8.61625C4.21318 8.87515 4.57823 9.18653 4.94648 9.54399C5.34267 8.83331 5.83755 7.9929 6.41718 7.10649C7.98506 4.70611 10.3168 1.73116 13.135 0.189493Z" fill="white"/>
</svg>
