<svg width="24" height="23" viewBox="0 0 24 23" fill="none" xmlns="http://www.w3.org/2000/svg">
<path fill-rule="evenodd" clip-rule="evenodd" d="M17.8979 0.253907H17.8287C17.1291 0.253895 16.554 0.253885 16.0888 0.298119C15.6054 0.344084 15.1677 0.442775 14.7696 0.686715C14.3744 0.928893 14.0422 1.26117 13.8 1.65637C13.5561 2.05444 13.4574 2.49207 13.4114 2.9755C13.3672 3.44072 13.3672 4.01576 13.3672 4.71539V4.7846C13.3672 5.48423 13.3672 6.05928 13.4114 6.5245C13.4574 7.00793 13.5561 7.44556 13.8 7.84364C14.0422 8.23884 14.3744 8.57111 14.7696 8.81329C15.1677 9.05723 15.6054 9.15592 16.0888 9.20188C16.554 9.24612 17.129 9.24611 17.8287 9.24609H17.8979C18.5975 9.24611 19.1726 9.24612 19.6378 9.20188C20.1212 9.15592 20.5588 9.05723 20.9569 8.81329C21.3521 8.57111 21.6844 8.23884 21.9266 7.84364C22.1705 7.44556 22.2692 7.00793 22.3152 6.5245C22.3594 6.05928 22.3594 5.48424 22.3594 4.78461V4.71539C22.3594 4.01576 22.3594 3.44072 22.3152 2.9755C22.2692 2.49207 22.1705 2.05444 21.9266 1.65637C21.6844 1.26117 21.3521 0.928893 20.9569 0.686715C20.5588 0.442775 20.1212 0.344084 19.6378 0.298119C19.1726 0.253885 18.5975 0.253895 17.8979 0.253907ZM15.5115 1.89731C15.649 1.81305 15.8437 1.74765 16.2232 1.71156C16.6132 1.67448 17.1205 1.67373 17.8633 1.67373C18.6061 1.67373 19.1133 1.67448 19.5034 1.71156C19.8829 1.74765 20.0776 1.81305 20.2151 1.89731C20.4192 2.02242 20.5909 2.19406 20.716 2.39822C20.8002 2.53571 20.8656 2.73039 20.9017 3.10989C20.9388 3.49996 20.9396 4.00721 20.9396 4.75C20.9396 5.4928 20.9388 6.00004 20.9017 6.39011C20.8656 6.76961 20.8002 6.96429 20.716 7.10178C20.5909 7.30594 20.4192 7.47759 20.2151 7.60269C20.0776 7.68695 19.8829 7.75236 19.5034 7.78844C19.1133 7.82553 18.6061 7.82628 17.8633 7.82628C17.1205 7.82628 16.6132 7.82553 16.2232 7.78844C15.8437 7.75236 15.649 7.68695 15.5115 7.60269C15.3073 7.47759 15.1357 7.30594 15.0106 7.10178C14.9263 6.96429 14.8609 6.76961 14.8248 6.39011C14.7878 6.00004 14.787 5.4928 14.787 4.75C14.787 4.00721 14.7878 3.49996 14.8248 3.10989C14.8609 2.73039 14.9263 2.53571 15.0106 2.39822C15.1357 2.19406 15.3073 2.02242 15.5115 1.89731Z" fill="#AAB9CC"/>
<path d="M9.76953 8.14746H2.09375L5.93164 1.49902L9.76953 8.14746Z" stroke="#AAB9CC" stroke-width="1.5"/>
<circle cx="5.93164" cy="16.6816" r="4.06836" stroke="#AAB9CC" stroke-width="1.5"/>
<path d="M14.2585 16.6812L17.9355 20.3583L21.6126 16.6812L17.9355 13.0041L14.2585 16.6812ZM18.6427 21.7725L18.5667 21.8402C18.2 22.1394 17.6711 22.1394 17.3044 21.8402L17.2284 21.7725L12.8442 17.3883L12.7759 17.3117C12.477 16.945 12.4768 16.4159 12.7759 16.0494L12.8442 15.9741L17.2284 11.5899C17.619 11.1994 18.2521 11.1994 18.6427 11.5899L23.0269 15.9741L23.0952 16.0494C23.4158 16.4422 23.393 17.0222 23.0269 17.3883L18.6427 21.7725Z" fill="#AAB9CC"/>
</svg>
