<svg width="32" height="32" viewBox="0 0 32 32" fill="none" xmlns="http://www.w3.org/2000/svg">
<path d="M24.7 13.9C24.9681 13.0944 25.0622 12.241 24.976 11.3963C24.8898 10.5516 24.6253 9.73487 24.2 9C23.5564 7.8971 22.583 7.02398 21.4168 6.5037C20.2507 5.98342 18.9507 5.84222 17.7 6.1C17.1341 5.46727 16.4404 4.96183 15.6646 4.61707C14.8889 4.2723 14.0489 4.09607 13.2 4.1C11.9139 4.09927 10.6605 4.50505 9.61884 5.25935C8.57718 6.01366 7.80058 7.07789 7.4 8.3C6.56561 8.47172 5.77734 8.81915 5.08765 9.31917C4.39796 9.8192 3.82265 10.4604 3.4 11.2C2.74643 12.3281 2.47147 13.6359 2.61545 14.9316C2.75942 16.2274 3.31475 17.4429 4.2 18.4C3.93189 19.2056 3.83783 20.059 3.92402 20.9037C4.01021 21.7484 4.2747 22.5651 4.7 23.3C5.34358 24.4029 6.31705 25.276 7.48319 25.7963C8.64933 26.3166 9.94935 26.4578 11.2 26.2C11.7659 26.8327 12.4596 27.3382 13.2354 27.6829C14.0111 28.0277 14.8511 28.2039 15.7 28.2C16.9861 28.2007 18.2395 27.795 19.2812 27.0406C20.3228 26.2863 21.0994 25.2221 21.5 24C22.3344 23.8283 23.1227 23.4809 23.8123 22.9808C24.502 22.4808 25.0773 21.8396 25.5 21.1C26.1536 19.9719 26.4285 18.6641 26.2846 17.3684C26.1406 16.0726 25.5853 14.8571 24.7 13.9ZM15.7 26.5C14.646 26.5166 13.6197 26.1627 12.8 25.5V25.4L17.6 22.6C17.7227 22.5292 17.8243 22.4271 17.8946 22.3041C17.9649 22.1811 18.0013 22.0416 18 21.9V15L20 16.2V21.8C20.0269 22.3911 19.9369 22.9817 19.7352 23.5379C19.5336 24.0942 19.2242 24.6052 18.8248 25.0418C18.4254 25.4784 17.9438 25.8319 17.4076 26.0821C16.8714 26.3323 16.2911 26.4743 15.7 26.5ZM6 22.4C5.49021 21.4883 5.31344 20.4277 5.5 19.4L5.6 19.5L10.4 22.3C10.6 22.4 10.9 22.4 11.2 22.3L17.1 18.9V21.2L12.1 24.1C11.0644 24.6775 9.84262 24.8229 8.70037 24.5045C7.55813 24.1862 6.58769 23.4299 6 22.4ZM4.7 12.4C5.21068 11.4861 6.02403 10.7788 7 10.4V15.9C6.97941 16.058 7.00649 16.2186 7.07775 16.3611C7.14902 16.5037 7.26123 16.6217 7.4 16.7L13.3 20.1L11.3 21.3L6.3 18.4C5.3136 17.7969 4.59716 16.8373 4.29926 15.7202C4.00136 14.6031 4.14486 13.4142 4.7 12.4ZM21.3 16.3L15.5 13L17.5 12L22.5 14.9C23.2069 15.3389 23.7782 15.9653 24.1505 16.7094C24.5228 17.4535 24.6815 18.2863 24.609 19.1152C24.5365 19.9441 24.2355 20.7366 23.7397 21.4048C23.2438 22.0729 22.5724 22.5905 21.8 22.9C21.6049 22.9807 21.4044 23.0475 21.2 23.1V17.5C21.2013 17.3584 21.1649 17.2189 21.0946 17.0959C21.0243 16.9729 20.9227 16.8708 20.8 16.8L21.3 16.3ZM23.3 13.3L23.2 13.2L18.4 10.4C18.2784 10.3298 18.1404 10.2928 18 10.2928C17.8596 10.2928 17.7216 10.3298 17.6 10.4L11.7 13.8V10.9L16.7 8C17.4416 7.59331 18.2829 7.40388 19.1273 7.45343C19.9717 7.50298 20.785 7.7895 21.474 8.28015C22.163 8.77079 22.6997 9.44569 23.0227 10.2274C23.3457 11.0092 23.4418 11.8661 23.3 12.7V13.3ZM11.3 16.3L9.3 15.1V9.5C9.28862 8.63755 9.52533 7.79 9.98195 7.05827C10.4386 6.32653 11.0959 5.74144 11.8756 5.37266C12.6553 5.00388 13.5246 4.86695 14.3799 4.97817C15.2352 5.08939 16.0405 5.44408 16.7 6L16.6 6.1L11.8 8.9C11.6773 8.97082 11.5757 9.07294 11.5054 9.19593C11.4351 9.31891 11.3987 9.45836 11.4 9.6V16.3H11.3ZM12.3 13.9L15 12.4L17.7 13.9V16.9L15 18.4L12.3 16.9V13.9Z" fill="#10A37F"/>
</svg>
