<svg width="18" height="18" viewBox="0 0 18 18" fill="none" xmlns="http://www.w3.org/2000/svg">
<path fill-rule="evenodd" clip-rule="evenodd" d="M8.95833 1.25C4.70114 1.25 1.25 4.70114 1.25 8.95833C1.25 13.2155 4.70114 16.6667 8.95833 16.6667C13.2155 16.6667 16.6667 13.2155 16.6667 8.95833C16.6667 8.61316 16.9465 8.33333 17.2917 8.33333C17.6368 8.33333 17.9167 8.61316 17.9167 8.95833C17.9167 13.9059 13.9059 17.9167 8.95833 17.9167C4.01078 17.9167 0 13.9059 0 8.95833C0 4.01078 4.01078 0 8.95833 0C11.2901 0 13.4144 0.891527 15.0077 2.35096V0.625C15.0077 0.279822 15.2875 0 15.6327 0C15.9779 0 16.2577 0.279822 16.2577 0.625V3.23516C16.2577 4.05994 15.2322 4.43585 14.6986 3.81355C13.2864 2.23907 11.2383 1.25 8.95833 1.25Z" fill="#3260BB"/>
</svg>
