<svg width="24" height="24" viewBox="0 0 24 24" fill="none" xmlns="http://www.w3.org/2000/svg">
<g filter="url(#filter0_d_1996_4624)">
<path d="M10 10.9995L14 6.99951L10 2.99951" stroke="white" stroke-width="1.25" stroke-linecap="round"/>
</g>
<path d="M18.0619 10.4995C18.8551 11.8731 19.1583 13.4754 18.9217 15.0438C18.6852 16.6123 17.923 18.0539 16.7599 19.1325C15.5969 20.2111 14.102 20.8627 12.5202 20.9806C10.9384 21.0985 9.36347 20.6757 8.05341 19.7814C6.74335 18.8871 5.77586 17.5744 5.30945 16.0583C4.84304 14.5422 4.90536 12.9127 5.4862 11.4367C6.06705 9.96066 7.13197 8.72568 8.50651 7.93406C9.88104 7.14244 11.4837 6.84112 13.0519 7.07948" stroke="white" stroke-width="1.25" stroke-linecap="round"/>
<defs>
<filter id="filter0_d_1996_4624" x="5.375" y="2.37451" width="13.5098" height="17.25" filterUnits="userSpaceOnUse" color-interpolation-filters="sRGB">
<feFlood flood-opacity="0" result="BackgroundImageFix"/>
<feColorMatrix in="SourceAlpha" type="matrix" values="0 0 0 0 0 0 0 0 0 0 0 0 0 0 0 0 0 0 127 0" result="hardAlpha"/>
<feOffset dy="4"/>
<feGaussianBlur stdDeviation="2"/>
<feComposite in2="hardAlpha" operator="out"/>
<feColorMatrix type="matrix" values="0 0 0 0 0 0 0 0 0 0 0 0 0 0 0 0 0 0 0.25 0"/>
<feBlend mode="normal" in2="BackgroundImageFix" result="effect1_dropShadow_1996_4624"/>
<feBlend mode="normal" in="SourceGraphic" in2="effect1_dropShadow_1996_4624" result="shape"/>
</filter>
</defs>
</svg>
