<svg width="32" height="32" viewBox="0 0 32 32" fill="none" xmlns="http://www.w3.org/2000/svg">
<path fill-rule="evenodd" clip-rule="evenodd" d="M10.3327 18.666C10.3327 15.5364 12.8697 12.9993 15.9993 12.9993C19.129 12.9993 21.666 15.5364 21.666 18.666C21.666 21.7956 19.129 24.3327 15.9993 24.3327C12.8697 24.3327 10.3327 21.7956 10.3327 18.666ZM15.9993 14.9993C13.9743 14.9993 12.3327 16.641 12.3327 18.666C12.3327 20.6911 13.9743 22.3327 15.9993 22.3327C18.0244 22.3327 19.666 20.6911 19.666 18.666C19.666 16.641 18.0244 14.9993 15.9993 14.9993Z" fill="url(#paint0_linear_68616_12046)"/>
<path d="M15.9993 6.66602C15.263 6.66602 14.666 7.26297 14.666 7.99935C14.666 8.73573 15.263 9.33268 15.9993 9.33268H16.0113C16.7477 9.33268 17.3447 8.73573 17.3447 7.99935C17.3447 7.26297 16.7477 6.66602 16.0113 6.66602H15.9993Z" fill="url(#paint1_linear_68616_12046)"/>
<path fill-rule="evenodd" clip-rule="evenodd" d="M16.0415 1.66602H15.9577C15.1523 1.666 14.4855 1.66599 13.935 1.71288C13.358 1.76202 12.8366 1.86693 12.3337 2.11591C11.4378 2.55946 10.8714 3.26437 10.4738 3.97135C10.1656 4.5194 9.92637 5.13495 9.72355 5.65677C9.67567 5.77995 9.62982 5.89792 9.58558 6.00853L9.18879 7.0005C7.68556 7.00658 6.60758 7.04186 5.67712 7.4324C4.41339 7.96282 3.38767 8.9411 2.78946 10.18C2.52257 10.7327 2.38667 11.3265 2.29672 12.0161C2.20904 12.6883 2.15788 13.5178 2.09388 14.5556L1.88049 18.0158C1.72066 20.607 1.59436 22.6547 1.71227 24.2606C1.83337 25.9099 2.22009 27.255 3.21739 28.3309C4.21665 29.4088 5.5231 29.8866 7.14639 30.1129C8.72336 30.3327 10.7502 30.3327 13.3097 30.3326H18.6887C21.2482 30.3327 23.275 30.3327 24.8519 30.1129C26.4752 29.8866 27.7817 29.4088 28.7809 28.3309C29.7783 27.255 30.165 25.9099 30.2861 24.2606C30.404 22.6546 30.2777 20.607 30.1178 18.0158L29.9044 14.5556C29.8405 13.5178 29.7893 12.6883 29.7016 12.0161C29.6117 11.3265 29.4758 10.7327 29.2089 10.18C28.6107 8.9411 27.5849 7.96282 26.3212 7.4324C25.3909 7.04193 24.3132 7.00659 22.8104 7.0005L22.4137 6.00853C22.3694 5.89791 22.3236 5.77995 22.2757 5.65676C22.0729 5.13494 21.8336 4.5194 21.5254 3.97135C21.1278 3.26437 20.5614 2.55946 19.6655 2.11591C19.1626 1.86693 18.6412 1.76202 18.0643 1.71288C17.5137 1.66599 16.847 1.666 16.0415 1.66602ZM23.6131 9.01098C23.7836 9.51113 23.534 10.0626 23.0377 10.2612C22.5249 10.4663 21.9429 10.2169 21.7378 9.70407L20.5567 6.75131C20.4967 6.60128 20.4403 6.45663 20.3857 6.31676C20.1876 5.80896 20.014 5.364 19.7822 4.95174C19.5031 4.45547 19.1925 4.11344 18.7781 3.90826C18.582 3.81117 18.3334 3.74304 17.8945 3.70567C17.4388 3.66685 16.8575 3.66602 15.9996 3.66602C15.1418 3.66602 14.5604 3.66685 14.1047 3.70567C13.6659 3.74304 13.4172 3.81117 13.2211 3.90826C12.8067 4.11344 12.4962 4.45548 12.2171 4.95174C11.9852 5.36399 11.8116 5.80894 11.6135 6.31673C11.559 6.45656 11.5025 6.60133 11.4425 6.75132L10.2614 9.70407C10.0563 10.2169 9.47434 10.4663 8.96156 10.2612C8.46526 10.0626 8.21567 9.51112 8.38609 9.01096C7.37161 9.03525 6.86063 9.10468 6.45116 9.27654C5.64149 9.61638 4.9787 10.2456 4.59049 11.0496C4.45482 11.3306 4.35649 11.6877 4.27992 12.2748C4.2021 12.8714 4.1546 13.6328 4.08788 14.7145L3.88143 18.0622C3.71583 20.7472 3.60008 22.6593 3.7069 24.1142C3.81171 25.5416 4.12253 26.3654 4.68411 26.9712C5.24373 27.5749 6.02984 27.9379 7.42251 28.132C8.84537 28.3303 10.7325 28.3326 13.3883 28.3326H18.61C21.2658 28.3326 23.153 28.3303 24.5758 28.132C25.9685 27.9379 26.7546 27.5749 27.3142 26.9712C27.8758 26.3654 28.1866 25.5416 28.2914 24.1142C28.3983 22.6593 28.2825 20.7472 28.1169 18.0622L27.9105 14.7145C27.8437 13.6328 27.7962 12.8714 27.7184 12.2748C27.6418 11.6877 27.5435 11.3306 27.4078 11.0496C27.0196 10.2456 26.3568 9.61638 25.5472 9.27654C25.1378 9.10473 24.627 9.03529 23.6131 9.01098Z" fill="url(#paint2_linear_68616_12046)"/>
<defs>
<linearGradient id="paint0_linear_68616_12046" x1="27.3462" y1="-4.90342" x2="27.3462" y2="30.3326" gradientUnits="userSpaceOnUse">
<stop stop-color="#A719DD"/>
<stop offset="0.630117" stop-color="#623BD8"/>
<stop offset="1" stop-color="#4489EB"/>
</linearGradient>
<linearGradient id="paint1_linear_68616_12046" x1="27.3462" y1="-4.90342" x2="27.3462" y2="30.3326" gradientUnits="userSpaceOnUse">
<stop stop-color="#A719DD"/>
<stop offset="0.630117" stop-color="#623BD8"/>
<stop offset="1" stop-color="#4489EB"/>
</linearGradient>
<linearGradient id="paint2_linear_68616_12046" x1="27.3462" y1="-4.90342" x2="27.3462" y2="30.3326" gradientUnits="userSpaceOnUse">
<stop stop-color="#A719DD"/>
<stop offset="0.630117" stop-color="#623BD8"/>
<stop offset="1" stop-color="#4489EB"/>
</linearGradient>
</defs>
</svg>
