<svg width="24" height="24" viewBox="0 0 24 24" fill="none" xmlns="http://www.w3.org/2000/svg">
<path fill-rule="evenodd" clip-rule="evenodd" d="M5.25 7.5C5.25 6.25736 6.25736 5.25 7.5 5.25C8.74264 5.25 9.75 6.25736 9.75 7.5C9.75 8.74264 8.74264 9.75 7.5 9.75C6.25736 9.75 5.25 8.74264 5.25 7.5ZM7.5 6.75C7.08579 6.75 6.75 7.08579 6.75 7.5C6.75 7.91421 7.08579 8.25 7.5 8.25C7.91421 8.25 8.25 7.91421 8.25 7.5C8.25 7.08579 7.91421 6.75 7.5 6.75Z" fill="#4489EB"/>
<path fill-rule="evenodd" clip-rule="evenodd" d="M11.9428 1.75H12.0572C14.2479 1.74999 15.9686 1.74998 17.312 1.93059C18.6886 2.11568 19.7809 2.50272 20.6391 3.36091C21.4973 4.21911 21.8843 5.31137 22.0694 6.68802C22.25 8.03144 22.25 9.7521 22.25 11.9428V12.0572C22.25 14.2479 22.25 15.9686 22.0694 17.312C21.8843 18.6886 21.4973 19.7809 20.6391 20.6391C19.7809 21.4973 18.6886 21.8843 17.312 22.0694C15.9686 22.25 14.2479 22.25 12.0572 22.25H11.9428C9.75214 22.25 8.03144 22.25 6.68802 22.0694C5.31137 21.8843 4.21911 21.4973 3.36091 20.6391C2.50272 19.7809 2.11568 18.6886 1.93059 17.312C1.74998 15.9686 1.74999 14.2479 1.75 12.0572V11.9428C1.74999 9.75212 1.74998 8.03144 1.93059 6.68802C2.11568 5.31137 2.50272 4.21911 3.36091 3.36091C4.21911 2.50272 5.31137 2.11568 6.68802 1.93059C8.03144 1.74998 9.75212 1.74999 11.9428 1.75ZM6.8879 3.41722C5.67757 3.57994 4.95462 3.88853 4.42157 4.42157C3.88853 4.95462 3.57994 5.67757 3.41722 6.8879C3.25159 8.11979 3.25 9.73963 3.25 12C3.25 14.2604 3.25159 15.8802 3.41722 17.1121C3.57994 18.3224 3.88853 19.0454 4.42157 19.5784C4.56327 19.7201 4.71839 19.846 4.89252 19.9574C5.02575 19.7965 5.16 19.6338 5.29528 19.4699C7.21549 17.1435 9.34537 14.563 11.7629 12.942C13.1778 11.9933 14.735 11.3392 16.453 11.2584C17.8274 11.1938 19.2575 11.4983 20.75 12.249C20.75 12.1669 20.75 12.0839 20.75 12C20.75 9.73963 20.7484 8.11979 20.5828 6.8879C20.4201 5.67757 20.1115 4.95462 19.5784 4.42157C19.0454 3.88853 18.3224 3.57994 17.1121 3.41722C15.8802 3.25159 14.2604 3.25 12 3.25C9.73963 3.25 8.11979 3.25159 6.8879 3.41722ZM20.7444 13.9568C19.1874 13.0269 17.7919 12.6971 16.5234 12.7568C15.1542 12.8212 13.8583 13.343 12.5983 14.1878C10.3788 15.676 8.40715 18.0611 6.46958 20.4049C6.44277 20.4373 6.41596 20.4697 6.38916 20.5022C6.54568 20.5323 6.71162 20.5591 6.8879 20.5828C8.11979 20.7484 9.73963 20.75 12 20.75C14.2604 20.75 15.8802 20.7484 17.1121 20.5828C18.3224 20.4201 19.0454 20.1115 19.5784 19.5784C20.1115 19.0454 20.4201 18.3224 20.5828 17.1121C20.6961 16.269 20.7327 15.2442 20.7444 13.9568Z" fill="#4489EB"/>
</svg>
