<svg width="24" height="24" viewBox="0 0 24 24" fill="none" xmlns="http://www.w3.org/2000/svg">
<path d="M4.91196 10.541L7.55196 7.901C7.81424 7.63433 7.99976 7.30188 8.08899 6.93864C8.17821 6.57541 8.16784 6.19484 8.05896 5.837C7.87396 5.2283 7.71052 4.61325 7.56896 3.993C7.45296 3.45 6.97596 3 6.41996 3H4.91196C3.80196 3 2.88896 3.904 3.01096 5.008C3.93696 13.4 10.601 20.063 18.992 20.989C20.096 21.111 21 20.199 21 19.089V17.579C21 17.025 20.548 16.569 20.002 16.469C19.4018 16.3523 18.8094 16.199 18.228 16.01C17.461 15.766 16.609 15.938 16.04 16.506L13.459 19.088" stroke="white" stroke-width="1.5" stroke-linecap="round" stroke-linejoin="round"/>
</svg>
