<svg width="16" height="16" viewBox="0 0 16 16" fill="none" xmlns="http://www.w3.org/2000/svg">
<path d="M10 4C10 2.89543 9.10457 2 8 2C6.89543 2 6 2.89543 6 4V8C6 9.10457 6.89543 10 8 10C9.10457 10 10 9.10457 10 8V4Z" stroke="#7C5CFF" stroke-width="1.2" stroke-linecap="round" stroke-linejoin="round"/>
<path d="M3.3335 7.3335C3.3335 8.57117 3.82516 9.75816 4.70033 10.6333C5.5755 11.5085 6.76249 12.0002 8.00016 12.0002M8.00016 12.0002C9.23784 12.0002 10.4248 11.5085 11.3 10.6333C12.1752 9.75816 12.6668 8.57117 12.6668 7.3335M8.00016 12.0002V14.0002" stroke="#7C5CFF" stroke-width="1.2" stroke-linecap="round" stroke-linejoin="round"/>
</svg>
