<svg width="24" height="24" viewBox="0 0 24 24" fill="none" xmlns="http://www.w3.org/2000/svg">
<path d="M11.9733 7.25019C11.963 7.24996 11.9528 7.24994 11.9426 7.25013C11.1276 7.26517 10.4285 7.30017 9.8448 7.37272C9.26861 7.44432 8.75489 7.55795 8.33694 7.75675C7.90045 7.96437 7.53931 8.28034 7.34662 8.7487C7.1636 9.19355 7.17512 9.67529 7.26182 10.1381C7.3381 10.5452 7.72997 10.8134 8.1371 10.7372C8.54423 10.6609 8.81245 10.269 8.73618 9.8619C8.67594 9.54035 8.70586 9.38735 8.73381 9.31942C8.75208 9.275 8.79446 9.20017 8.98126 9.11132C9.1866 9.01365 9.51595 8.92512 10.0298 8.86127C10.3626 8.81991 10.7523 8.79114 11.2064 8.77211V15.25H10.4724C10.0582 15.25 9.72238 15.5858 9.72238 16C9.72238 16.4142 10.0582 16.75 10.4724 16.75H13.4404C13.8547 16.75 14.1904 16.4142 14.1904 16C14.1904 15.5858 13.8547 15.25 13.4404 15.25H12.7064V8.77322C13.1184 8.79007 13.4801 8.81359 13.7963 8.84816C14.3025 8.9035 14.6424 8.98249 14.8652 9.07851C15.0722 9.16773 15.1297 9.24951 15.1551 9.30316C15.189 9.37465 15.2293 9.53573 15.1735 9.87992C15.1072 10.2888 15.3849 10.674 15.7937 10.7403C16.2026 10.8066 16.5878 10.529 16.6541 10.1201C16.7358 9.61693 16.7248 9.11277 16.5107 8.66091C16.2881 8.19121 15.901 7.89153 15.4589 7.701C15.0326 7.51727 14.519 7.41823 13.9593 7.35704C13.3926 7.29509 12.7266 7.26712 11.9733 7.25019Z" fill="#6B47B8"/>
<path fill-rule="evenodd" clip-rule="evenodd" d="M6.75 20.75H17.25V21C17.25 21.9665 18.0335 22.75 19 22.75H21C21.9665 22.75 22.75 21.9665 22.75 21V19C22.75 18.0335 21.9665 17.25 21 17.25H20.75V6.75H21C21.9665 6.75 22.75 5.9665 22.75 5V3C22.75 2.0335 21.9665 1.25 21 1.25H19C18.0335 1.25 17.25 2.0335 17.25 3V3.25H6.75V3C6.75 2.0335 5.9665 1.25 5 1.25H3C2.0335 1.25 1.25 2.0335 1.25 3V5C1.25 5.9665 2.0335 6.75 3 6.75H3.25V17.25H3C2.0335 17.25 1.25 18.0335 1.25 19V21C1.25 21.9665 2.0335 22.75 3 22.75H5C5.9665 22.75 6.75 21.9665 6.75 21V20.75ZM2.75 3C2.75 2.86193 2.86193 2.75 3 2.75H5C5.13807 2.75 5.25 2.86193 5.25 3V5C5.25 5.13807 5.13807 5.25 5 5.25H3C2.86193 5.25 2.75 5.13807 2.75 5V3ZM3 18.75C2.86193 18.75 2.75 18.8619 2.75 19V21C2.75 21.1381 2.86193 21.25 3 21.25H5C5.13807 21.25 5.25 21.1381 5.25 21V19C5.25 18.8619 5.13807 18.75 5 18.75H3ZM4.75 17.25V6.75H5C5.9665 6.75 6.75 5.9665 6.75 5V4.75H17.25V5C17.25 5.9665 18.0335 6.75 19 6.75H19.25V17.25H19C18.0335 17.25 17.25 18.0335 17.25 19V19.25H6.75V19C6.75 18.0335 5.9665 17.25 5 17.25H4.75ZM18.75 21V19C18.75 18.8619 18.8619 18.75 19 18.75H21C21.1381 18.75 21.25 18.8619 21.25 19V21C21.25 21.1381 21.1381 21.25 21 21.25H19C18.8619 21.25 18.75 21.1381 18.75 21ZM19 2.75C18.8619 2.75 18.75 2.86193 18.75 3V5C18.75 5.13807 18.8619 5.25 19 5.25H21C21.1381 5.25 21.25 5.13807 21.25 5V3C21.25 2.86193 21.1381 2.75 21 2.75H19Z" fill="#6B47B8"/>
</svg>
