<svg width="24" height="24" viewBox="0 0 24 24" fill="none" xmlns="http://www.w3.org/2000/svg">
<path fill-rule="evenodd" clip-rule="evenodd" d="M1.25 12C1.25 6.06294 6.06294 1.25 12 1.25C17.9371 1.25 22.75 6.06294 22.75 12C22.75 17.9371 17.9371 22.75 12 22.75C6.06294 22.75 1.25 17.9371 1.25 12ZM10.9879 3.30118C11.3781 2.88858 11.7204 2.75 12 2.75C12.2796 2.75 12.6219 2.88858 13.0121 3.30118C13.4038 3.71536 13.7911 4.35495 14.1321 5.20748C14.7485 6.74864 15.1657 8.86474 15.2386 11.25H8.76142C8.83433 8.86474 9.25147 6.74864 9.86793 5.20748C10.2089 4.35495 10.5962 3.71536 10.9879 3.30118ZM7.26076 11.25C7.33391 8.71063 7.77612 6.39813 8.47522 4.65039C8.69034 4.11258 8.93444 3.61652 9.20735 3.17903C5.69222 4.29086 3.08521 7.44573 2.77997 11.25H7.26076ZM2.77997 12.75H7.26076C7.33391 15.2894 7.77612 17.6019 8.47522 19.3496C8.69034 19.8874 8.93444 20.3835 9.20735 20.821C5.69222 19.7091 3.08521 16.5543 2.77997 12.75ZM21.22 11.25C20.9148 7.44573 18.3078 4.29086 14.7927 3.17903C15.0656 3.61652 15.3097 4.11258 15.5248 4.65039C16.2239 6.39813 16.6661 8.71063 16.7392 11.25H21.22ZM16.7392 12.75H21.22C20.9148 16.5543 18.3078 19.7091 14.7927 20.821C15.0656 20.3835 15.3097 19.8874 15.5248 19.3496C16.2239 17.6019 16.6661 15.2894 16.7392 12.75ZM15.2386 12.75C15.1657 15.1353 14.7485 17.2514 14.1321 18.7925C13.7911 19.6451 13.4038 20.2846 13.0121 20.6988C12.6219 21.1114 12.2796 21.25 12 21.25C11.7204 21.25 11.3781 21.1114 10.9879 20.6988C10.5962 20.2846 10.2089 19.6451 9.86793 18.7925C9.25147 17.2514 8.83433 15.1353 8.76142 12.75H15.2386Z" fill="#AAB9CC"/>
</svg>
