<svg width="84" height="84" viewBox="0 0 84 84" fill="none" xmlns="http://www.w3.org/2000/svg">
<path d="M38.4966 70.8681C36.5072 70.868 35.3704 70.8332 33.9292 70.7877C33.6983 70.7812 33.4582 70.7737 33.2041 70.7657C32.7764 70.7523 32.3091 70.7377 31.78 70.7245C20.4435 70.4375 14.1997 70.2767 9.50268 65.5832C4.79518 60.8407 4.6656 54.7611 4.4311 43.7256C4.3576 40.2011 4.3576 36.7782 4.4311 33.2537C4.6656 22.2182 4.79509 16.1422 9.49209 11.4067C14.1989 6.70334 20.4418 6.54525 31.7718 6.25832L31.7766 6.2582C38.6541 6.0832 45.3392 6.0832 52.2167 6.2582C63.5497 6.5452 69.7935 6.70601 74.494 11.3995C79.2015 16.142 79.3311 22.2216 79.5656 33.2571C79.6111 35.4621 79.6216 37.6461 79.6216 40.2431C79.6216 41.6921 78.4456 42.8681 76.9966 42.8681C75.5476 42.8681 74.3716 41.6921 74.3716 40.2431C74.3716 37.6811 74.3611 35.5287 74.3156 33.3692C74.0986 23.0582 73.997 18.354 70.7735 15.106C67.564 11.9 62.713 11.7739 52.08 11.5044C45.2935 11.3294 38.6926 11.3294 31.9061 11.5044C21.2749 11.7739 16.4219 11.8969 13.2057 15.1131C9.99271 18.3541 9.89092 23.0579 9.67392 33.3654C9.60042 36.8129 9.60042 40.1659 9.67392 43.6169C9.89092 53.9244 9.99247 58.6319 13.216 61.8764C16.4255 65.0824 21.2765 65.2084 31.9095 65.4779C32.767 65.4989 33.4602 65.5202 34.0902 65.5412C35.5392 65.5867 36.5891 65.6181 38.4966 65.6181C39.9456 65.6181 41.1216 66.7941 41.1216 68.2431C41.1216 69.6921 39.9456 70.8681 38.4966 70.8681Z" fill="url(#paint0_linear_60905_15811)"/>
<path d="M42.0008 37.6246C39.4493 37.6246 36.8978 36.6131 33.4678 34.5936L23.1674 28.5C21.9214 27.7615 21.5047 26.1513 22.2432 24.9053C22.9817 23.6593 24.5919 23.2429 25.8379 23.9814L36.1349 30.0716C41.2869 33.1061 42.7149 33.1061 47.8739 30.0716L58.1674 23.9849C59.4169 23.2464 61.0268 23.6596 61.7618 24.9091C62.5003 26.1586 62.0874 27.7684 60.8379 28.5034L50.5409 34.5936C47.1074 36.6166 44.5558 37.6246 42.0008 37.6246Z" fill="url(#paint1_linear_60905_15811)"/>
<path fill-rule="evenodd" clip-rule="evenodd" d="M75.1452 77.1009C75.6593 77.6115 76.327 77.8671 76.9984 77.8676C77.6698 77.8671 78.3445 77.6116 78.8551 77.0975C79.8806 76.072 79.8806 74.4097 78.8551 73.3842L73.6122 68.1482C75.3132 65.7262 76.3107 62.7755 76.3107 59.5975C76.3107 51.3375 69.5975 44.6176 61.3445 44.6176C53.0915 44.6176 46.3751 51.355 46.3751 59.5975C46.3751 67.84 53.0915 74.5425 61.3445 74.5425C64.5225 74.5425 67.4697 73.5486 69.8952 71.8581L75.1452 77.1009ZM51.6251 59.5975C51.6251 54.232 55.986 49.8676 61.3445 49.8676H61.3482C66.7067 49.8676 71.0641 54.232 71.0641 59.5975C71.0641 62.247 69.9931 64.6516 68.2641 66.4016C68.2431 66.4191 68.2257 66.4367 68.2047 66.4577C68.1987 66.4637 68.1927 66.4692 68.1869 66.4746C68.1757 66.4851 68.165 66.495 68.1558 66.5066C66.3988 68.2286 63.994 69.2925 61.3445 69.2925C55.986 69.2925 51.6251 64.963 51.6251 59.5975Z" fill="url(#paint2_linear_60905_15811)"/>
<defs>
<linearGradient id="paint0_linear_60905_15811" x1="71.7858" y1="-10.3136" x2="71.7858" y2="77.8676" gradientUnits="userSpaceOnUse">
<stop stop-color="#A719DD"/>
<stop offset="0.630117" stop-color="#623BD8"/>
<stop offset="1" stop-color="#4489EB"/>
</linearGradient>
<linearGradient id="paint1_linear_60905_15811" x1="71.7858" y1="-10.3136" x2="71.7858" y2="77.8676" gradientUnits="userSpaceOnUse">
<stop stop-color="#A719DD"/>
<stop offset="0.630117" stop-color="#623BD8"/>
<stop offset="1" stop-color="#4489EB"/>
</linearGradient>
<linearGradient id="paint2_linear_60905_15811" x1="71.7858" y1="-10.3136" x2="71.7858" y2="77.8676" gradientUnits="userSpaceOnUse">
<stop stop-color="#A719DD"/>
<stop offset="0.630117" stop-color="#623BD8"/>
<stop offset="1" stop-color="#4489EB"/>
</linearGradient>
</defs>
</svg>
