<svg width="80" height="80" viewBox="0 0 80 80" fill="none" xmlns="http://www.w3.org/2000/svg">
<path d="M36.9282 63.0404C34.4733 63.0281 33.5546 62.9943 31.0874 62.9298C21.4122 62.6871 16.5761 62.5672 13.1011 59.0769C9.62612 55.5896 9.52473 50.8795 9.32195 41.4623C9.25727 38.4394 9.25727 35.4154 9.32195 32.3924C9.52473 22.9752 9.62612 18.2651 13.1011 14.7778C16.5761 11.2875 21.4122 11.1677 31.0874 10.9249C37.0287 10.775 42.9727 10.775 48.914 10.9249C58.5892 11.1677 63.4253 11.2875 66.9003 14.7778C70.3753 18.2651 70.4766 22.9752 70.6794 32.3924C70.7194 34.4171 70.7255 36.4388 70.7255 38.4636" stroke="url(#paint0_linear_2073_7875)" stroke-width="4" stroke-linecap="round" stroke-linejoin="round"/>
<path d="M24.6367 26.1738L33.676 31.5199C38.9453 34.6354 41.0499 34.6354 46.3223 31.5199L55.3615 26.1738M64.6312 63.1143L70.724 69.1886M67.8143 55.4423C67.8385 54.0041 67.5762 52.5754 67.0425 51.2396C66.5089 49.9038 65.7147 48.6876 64.7061 47.662C63.6976 46.6363 62.4949 45.8217 61.1683 45.2656C59.8417 44.7096 58.4177 44.4232 56.9792 44.4232C55.5408 44.4232 54.1167 44.7096 52.7901 45.2656C51.4635 45.8217 50.2608 46.6363 49.2523 47.662C48.2438 48.6876 47.4495 49.9038 46.9159 51.2396C46.3822 52.5754 46.1199 54.0041 46.1441 55.4423C46.192 58.2843 47.3546 60.9938 49.3813 62.9867C51.4081 64.9797 54.1368 66.0965 56.9792 66.0965C59.8217 66.0965 62.5503 64.9797 64.5771 62.9867C66.6039 60.9938 67.7665 58.2843 67.8143 55.4423Z" stroke="url(#paint1_linear_2073_7875)" stroke-width="4" stroke-linecap="round" stroke-linejoin="round"/>
<defs>
<linearGradient id="paint0_linear_2073_7875" x1="18.3408" y1="-7.99273" x2="88.6334" y2="25.9003" gradientUnits="userSpaceOnUse">
<stop stop-color="#A719DD"/>
<stop offset="1" stop-color="#4489EB"/>
</linearGradient>
<linearGradient id="paint1_linear_2073_7875" x1="31.4369" y1="10.6859" x2="85.9094" y2="34.6029" gradientUnits="userSpaceOnUse">
<stop stop-color="#A719DD"/>
<stop offset="1" stop-color="#4489EB"/>
</linearGradient>
</defs>
</svg>
