<svg width="20" height="20" viewBox="0 0 20 20" fill="none" xmlns="http://www.w3.org/2000/svg">
<path fill-rule="evenodd" clip-rule="evenodd" d="M4.3763 5.83333C4.3763 3.64721 6.14851 1.875 8.33464 1.875C10.5208 1.875 12.293 3.64721 12.293 5.83333C12.293 8.01946 10.5208 9.79167 8.33464 9.79167C6.14851 9.79167 4.3763 8.01946 4.3763 5.83333ZM8.33464 3.125C6.83886 3.125 5.6263 4.33756 5.6263 5.83333C5.6263 7.3291 6.83886 8.54167 8.33464 8.54167C9.83041 8.54167 11.043 7.3291 11.043 5.83333C11.043 4.33756 9.83041 3.125 8.33464 3.125Z" fill="#76869E"/>
<path fill-rule="evenodd" clip-rule="evenodd" d="M4.00214 12.2078C6.6548 10.653 10.0148 10.653 12.6675 12.2078C12.7515 12.257 12.8561 12.3151 12.9751 12.3812C13.5023 12.6738 14.3122 13.1234 14.8667 13.6577C15.213 13.9913 15.5543 14.4419 15.6166 15.0031C15.6833 15.6044 15.4147 16.1592 14.9011 16.6409C14.026 17.4615 12.9694 18.125 11.6008 18.125H5.06877C3.70015 18.125 2.64356 17.4615 1.76848 16.6409C1.25488 16.1592 0.98626 15.6044 1.05303 15.0031C1.11534 14.4419 1.45664 13.9913 1.80287 13.6577C2.35737 13.1234 3.16729 12.6738 3.69449 12.3812C3.81338 12.3152 3.9182 12.257 4.00214 12.2078ZM12.0354 13.2862C9.77304 11.9602 6.89655 11.9602 4.63423 13.2862C4.50718 13.3607 4.36895 13.4379 4.22488 13.5184C3.69784 13.8128 3.09251 14.1509 2.67019 14.5579C2.40769 14.8108 2.31034 15.0064 2.29539 15.141C2.2849 15.2355 2.30039 15.426 2.62357 15.7291C3.38353 16.4418 4.14794 16.875 5.06877 16.875H11.6008C12.5216 16.875 13.2861 16.4418 14.046 15.7291C14.3692 15.426 14.3847 15.2355 14.3742 15.141C14.3592 15.0064 14.2619 14.8108 13.9994 14.5579C13.5771 14.1509 12.9719 13.8128 12.4448 13.5184C12.3007 13.4379 12.1624 13.3607 12.0354 13.2862Z" fill="#76869E"/>
<path d="M16.8763 3.33333C16.8763 2.98816 16.5965 2.70833 16.2513 2.70833C15.9061 2.70833 15.6263 2.98816 15.6263 3.33333V4.79167L14.168 4.79167C13.8228 4.79167 13.543 5.07149 13.543 5.41667C13.543 5.76184 13.8228 6.04167 14.168 6.04167H15.6263V7.5C15.6263 7.84518 15.9061 8.125 16.2513 8.125C16.5965 8.125 16.8763 7.84518 16.8763 7.5V6.04167H18.3346C18.6798 6.04167 18.9596 5.76184 18.9596 5.41667C18.9596 5.07149 18.6798 4.79167 18.3346 4.79167H16.8763V3.33333Z" fill="#76869E"/>
</svg>
