<svg width="24" height="24" viewBox="0 0 24 24" fill="none" xmlns="http://www.w3.org/2000/svg">
<path d="M12.0002 15C11.4479 15 11.0002 15.4477 11.0002 16C11.0002 16.5523 11.4479 17 12.0002 17H12.0092C12.5615 17 13.0092 16.5523 13.0092 16C13.0092 15.4477 12.5615 15 12.0092 15H12.0002Z" fill="#AAB9CC"/>
<path fill-rule="evenodd" clip-rule="evenodd" d="M12.0002 2.25C11.3714 2.25 10.8391 2.48307 10.3161 2.83353C9.82142 3.16499 9.2691 3.64833 8.60487 4.22959L2.74539 9.35692C2.23592 9.80273 2.1388 10.4595 2.3671 10.9887C2.59169 11.5093 3.11613 11.8843 3.76256 11.8843C3.76664 11.8843 3.77024 11.8846 3.77341 11.885L3.77341 15.1392C3.77338 16.4846 3.77336 17.5762 3.89855 18.4362C4.02963 19.3368 4.31114 20.0912 4.95305 20.6841C5.5865 21.2691 6.37816 21.5185 7.32362 21.6359C8.24247 21.75 9.41372 21.75 10.8805 21.75H13.1198C14.5866 21.75 15.7579 21.75 16.6767 21.6359C17.6222 21.5185 18.4139 21.2691 19.0473 20.6841C19.6892 20.0912 19.9707 19.3368 20.1018 18.4362C20.227 17.5762 20.227 16.4846 20.2269 15.1392V11.885C20.229 11.8847 20.2313 11.8845 20.2337 11.8844C20.235 11.8843 20.2364 11.8843 20.2378 11.8843C20.8842 11.8843 21.4087 11.5093 21.6332 10.9887C21.8615 10.4595 21.7644 9.80273 21.255 9.35692L15.3955 4.2296C14.7313 3.64834 14.1789 3.16499 13.6843 2.83353C13.1613 2.48307 12.629 2.25 12.0002 2.25ZM9.55572 5.39075C10.2664 4.76887 10.7464 4.35083 11.1511 4.07964C11.5366 3.82132 11.7777 3.75 12.0002 3.75C12.2226 3.75 12.4638 3.82132 12.8493 4.07964C13.254 4.35083 13.7339 4.76887 14.4446 5.39075L20.1538 10.3866C19.4086 10.4276 18.7269 11.0107 18.7269 11.8371V15.0806C18.7269 16.4987 18.7251 17.4807 18.6174 18.2202C18.5139 18.9315 18.3261 19.3082 18.0295 19.5822C17.7244 19.864 17.2916 20.048 16.4919 20.1474C15.6763 20.2486 14.5984 20.25 13.0683 20.25H10.9321C9.40191 20.25 8.32405 20.2486 7.50848 20.1474C6.70877 20.048 6.2759 19.864 5.97082 19.5822C5.67421 19.3082 5.48645 18.9315 5.38291 18.2202C5.27527 17.4807 5.27341 16.4987 5.27341 15.0806V11.8371C5.27341 11.0107 4.59178 10.4276 3.8465 10.3866L9.55572 5.39075Z" fill="#AAB9CC"/>
</svg>
