<svg width="48" height="48" viewBox="0 0 48 48" fill="none" xmlns="http://www.w3.org/2000/svg">
<path d="M44 24C44 31.542 44 35.314 41.656 37.656C39.312 39.998 35.542 40 28 40H20C12.458 40 8.686 40 6.344 37.656C4.002 35.312 4 31.542 4 24C4 16.458 4 12.686 6.344 10.344C8.688 8.002 12.458 8 20 8H28C35.542 8 39.314 8 41.656 10.344C42.964 11.65 43.542 13.4 43.796 16" stroke="#4489EB" stroke-width="3" stroke-linecap="round"/>
<path d="M16.5 31C16.5 31.3978 16.658 31.7794 16.9393 32.0607C17.2206 32.342 17.6022 32.5 18 32.5C18.3978 32.5 18.7794 32.342 19.0607 32.0607C19.342 31.7794 19.5 31.3978 19.5 31H16.5ZM22.5 20.85C22.5 21.2478 22.658 21.6294 22.9393 21.9107C23.2206 22.192 23.6022 22.35 24 22.35C24.3978 22.35 24.7794 22.192 25.0607 21.9107C25.342 21.6294 25.5 21.2478 25.5 20.85H22.5ZM10.5 20.85C10.5 21.2478 10.658 21.6294 10.9393 21.9107C11.2206 22.192 11.6022 22.35 12 22.35C12.3978 22.35 12.7794 22.192 13.0607 21.9107C13.342 21.6294 13.5 21.2478 13.5 20.85H10.5ZM14 29.5C13.6022 29.5 13.2206 29.658 12.9393 29.9393C12.658 30.2206 12.5 30.6022 12.5 31C12.5 31.3978 12.658 31.7794 12.9393 32.0607C13.2206 32.342 13.6022 32.5 14 32.5V29.5ZM22 32.5C22.3978 32.5 22.7794 32.342 23.0607 32.0607C23.342 31.7794 23.5 31.3978 23.5 31C23.5 30.6022 23.342 30.2206 23.0607 29.9393C22.7794 29.658 22.3978 29.5 22 29.5V32.5ZM15.85 18.5H18V15.5H15.85V18.5ZM18 18.5H20.15V15.5H18V18.5ZM19.5 31V17H16.5V31H19.5ZM20.15 18.5C21.06 18.5 21.602 18.502 21.994 18.552C22.348 18.596 22.366 18.656 22.334 18.626L24.324 16.384C23.724 15.848 23.022 15.656 22.364 15.574C21.744 15.498 20.982 15.5 20.15 15.5V18.5ZM25.5 20.85C25.5 20.018 25.502 19.256 25.426 18.636C25.344 17.978 25.152 17.276 24.616 16.676L22.374 18.668C22.344 18.634 22.404 18.652 22.448 19.008C22.498 19.398 22.5 19.94 22.5 20.85H25.5ZM22.334 18.626L22.372 18.666L24.616 16.676C24.5238 16.5737 24.4263 16.4762 24.324 16.384L22.334 18.626ZM15.85 15.5C15.018 15.5 14.256 15.498 13.636 15.574C12.978 15.656 12.276 15.848 11.676 16.384L13.668 18.626C13.634 18.656 13.652 18.596 14.008 18.552C14.398 18.502 14.94 18.5 15.85 18.5V15.5ZM13.5 20.85C13.5 19.94 13.502 19.398 13.552 19.006C13.596 18.652 13.656 18.634 13.626 18.666L11.384 16.676C10.848 17.276 10.656 17.978 10.574 18.636C10.498 19.256 10.5 20.018 10.5 20.85H13.5ZM11.676 16.384C11.5733 16.476 11.476 16.5733 11.384 16.676L13.626 18.666L13.666 18.628L11.676 16.384ZM14 32.5H22V29.5H14V32.5Z" fill="#4489EB"/>
</svg>
