<svg width="24" height="24" viewBox="0 0 24 24" fill="none" xmlns="http://www.w3.org/2000/svg">
<path d="M12 1.24805C12.4142 1.24805 12.75 1.58383 12.75 1.99805V2.99805C12.75 3.41226 12.4142 3.74805 12 3.74805C11.5858 3.74805 11.25 3.41226 11.25 2.99805V1.99805C11.25 1.58383 11.5858 1.24805 12 1.24805Z" fill="#4489EB"/>
<path d="M12 6.24805C8.84624 6.24805 6.25 8.89237 6.25 12.2039C6.25 13.0946 6.43828 13.9371 6.77463 14.6932C6.94299 15.0716 6.77268 15.5149 6.39423 15.6833C6.01578 15.8517 5.57249 15.6813 5.40413 15.3029C4.98366 14.3577 4.75 13.3077 4.75 12.2039C4.75 8.10838 7.97406 4.74805 12 4.74805C16.026 4.74805 19.25 8.10839 19.25 12.2039C19.25 13.3077 19.0163 14.3578 18.5959 15.3029C18.4275 15.6813 17.9842 15.8517 17.6058 15.6833C17.2273 15.5149 17.057 15.0717 17.2253 14.6932C17.5617 13.9371 17.75 13.0946 17.75 12.2039C17.75 8.89237 15.1538 6.24805 12 6.24805Z" fill="#4489EB"/>
<path d="M21 11.248C20.5858 11.248 20.25 11.5838 20.25 11.998C20.25 12.4123 20.5858 12.748 21 12.748H22C22.4142 12.748 22.75 12.4123 22.75 11.998C22.75 11.5838 22.4142 11.248 22 11.248H21Z" fill="#4489EB"/>
<path d="M1.25 11.998C1.25 11.5838 1.58579 11.248 2 11.248H3C3.41421 11.248 3.75 11.5838 3.75 11.998C3.75 12.4123 3.41421 12.748 3 12.748H2C1.58579 12.748 1.25 12.4123 1.25 11.998Z" fill="#4489EB"/>
<path d="M19.6007 5.45708C19.8936 5.16419 19.8936 4.68932 19.6007 4.39642C19.3078 4.10353 18.8329 4.10354 18.54 4.39643L17.8329 5.10354C17.5401 5.39644 17.5401 5.87131 17.833 6.1642C18.1259 6.45709 18.6007 6.45709 18.8936 6.16419L19.6007 5.45708Z" fill="#4489EB"/>
<path d="M4.39936 4.3974C4.69225 4.10451 5.16712 4.10451 5.46002 4.3974L6.16713 5.10451C6.46002 5.39741 6.46002 5.87228 6.16713 6.16517C5.87423 6.45807 5.39936 6.45807 5.10647 6.16517L4.39936 5.45806C4.10646 5.16517 4.10646 4.6903 4.39936 4.3974Z" fill="#4489EB"/>
<path fill-rule="evenodd" clip-rule="evenodd" d="M16.7919 17.2138C16.6791 18.134 16.2852 19.2464 15.2273 19.8151C15.1385 20.6258 14.9375 21.3519 14.4634 21.8864C13.8683 22.5575 13.0048 22.7584 12.0101 22.7482C10.9243 22.7664 10.0543 22.5112 9.47532 21.8083C9.01918 21.2545 8.83724 20.523 8.74673 19.7639C8.30398 19.4841 7.96701 19.1559 7.72394 18.7613C7.42364 18.2737 7.30693 17.7485 7.24546 17.2373C7.15351 16.4728 7.76966 15.8645 8.47767 15.8645L15.5728 15.8643C16.2476 15.8642 16.8872 16.4355 16.7919 17.2138ZM9.00113 17.9746C8.90132 17.8126 8.83168 17.62 8.78185 17.3644L15.2466 17.3643C15.1159 17.9534 14.8399 18.3672 14.3862 18.5545H9.64485C9.30081 18.3554 9.11584 18.1609 9.00113 17.9746ZM10.6331 20.8546C10.4966 20.6889 10.3896 20.4392 10.3107 20.0545H13.6771C13.5958 20.4853 13.4777 20.7373 13.3412 20.8912C13.1706 21.0836 12.844 21.258 12.0165 21.2482C12.0089 21.2481 12.0014 21.2481 11.9938 21.2483C11.1307 21.2642 10.8029 21.0607 10.6331 20.8546Z" fill="#4489EB"/>
</svg>
