<svg width="20" height="20" viewBox="0 0 20 20" fill="none" xmlns="http://www.w3.org/2000/svg">
<path fill-rule="evenodd" clip-rule="evenodd" d="M10.0003 2.29102C5.74313 2.29102 2.29199 5.74215 2.29199 9.99935C2.29199 14.2565 5.74313 17.7077 10.0003 17.7077C14.2575 17.7077 17.7087 14.2565 17.7087 9.99935C17.7087 9.65417 17.9885 9.37435 18.3337 9.37435C18.6788 9.37435 18.9587 9.65417 18.9587 9.99935C18.9587 14.9469 14.9479 18.9577 10.0003 18.9577C5.05277 18.9577 1.04199 14.9469 1.04199 9.99935C1.04199 5.0518 5.05277 1.04102 10.0003 1.04102C12.3321 1.04102 14.4564 1.93254 16.0497 3.39197V1.66602C16.0497 1.32084 16.3295 1.04102 16.6747 1.04102C17.0199 1.04102 17.2997 1.32084 17.2997 1.66602V4.27618C17.2997 5.10096 16.2742 5.47687 15.7406 4.85456C14.3284 3.28009 12.2803 2.29102 10.0003 2.29102Z" fill="#AAB9CC"/>
</svg>
