<svg width="40" height="40" viewBox="0 0 40 40" fill="none" xmlns="http://www.w3.org/2000/svg">
<path d="M10 13.3333C10 10.6812 11.0536 8.13763 12.9289 6.26227C14.8043 4.3869 17.3478 3.33333 20 3.33333C22.6522 3.33333 25.1957 4.3869 27.0711 6.26227C28.9464 8.13763 30 10.6812 30 13.3333C30 25 35 25 35 28.3333H5C5 25 10 25 10 13.3333Z" stroke="white" stroke-width="3" stroke-linecap="round" stroke-linejoin="round"/>
<path d="M16.6667 35C16.6667 35.8841 17.0179 36.7319 17.643 37.357C18.2681 37.9821 19.1159 38.3333 20 38.3333C20.8841 38.3333 21.7319 37.9821 22.357 37.357C22.9821 36.7319 23.3333 35.8841 23.3333 35" stroke="white" stroke-width="3" stroke-linecap="round" stroke-linejoin="round"/>
</svg>
