<svg width="20" height="20" viewBox="0 0 20 20" fill="none" xmlns="http://www.w3.org/2000/svg">
<path fill-rule="evenodd" clip-rule="evenodd" d="M9.99992 13.9577C12.6463 13.9577 14.7916 11.8124 14.7916 9.16602V5.83268C14.7916 3.18632 12.6463 1.04102 9.99992 1.04102C7.35355 1.04102 5.20825 3.18632 5.20825 5.83268V9.16602C5.20825 11.8124 7.35355 13.9577 9.99992 13.9577ZM9.99992 2.29102C8.04391 2.29102 6.45825 3.87667 6.45825 5.83268V9.16602C6.45825 11.122 8.04391 12.7077 9.99992 12.7077C11.7427 12.7077 13.1914 11.4489 13.4866 9.79102H11.6666C11.3214 9.79102 11.0416 9.51119 11.0416 9.16602C11.0416 8.82084 11.3214 8.54102 11.6666 8.54102H13.5416V6.45768H11.6666C11.3214 6.45768 11.0416 6.17786 11.0416 5.83268C11.0416 5.4875 11.3214 5.20768 11.6666 5.20768H13.4866C13.1914 3.54976 11.7427 2.29102 9.99992 2.29102Z" fill="#8766CE"/>
<path d="M3.95825 9.16602C3.95825 8.82084 3.67843 8.54102 3.33325 8.54102C2.98807 8.54102 2.70825 8.82084 2.70825 9.16602C2.70825 12.9826 5.64042 16.1143 9.37492 16.4313V17.7077H7.49992C7.15474 17.7077 6.87492 17.9875 6.87492 18.3327C6.87492 18.6779 7.15474 18.9577 7.49992 18.9577H12.4999C12.8451 18.9577 13.1249 18.6779 13.1249 18.3327C13.1249 17.9875 12.8451 17.7077 12.4999 17.7077H10.6249V16.4313C14.3594 16.1143 17.2916 12.9826 17.2916 9.16602C17.2916 8.82084 17.0118 8.54102 16.6666 8.54102C16.3214 8.54102 16.0416 8.82084 16.0416 9.16602C16.0416 12.5027 13.3366 15.2077 9.99992 15.2077C6.6632 15.2077 3.95825 12.5027 3.95825 9.16602Z" fill="#8766CE"/>
</svg>
