<svg width="14" height="14" viewBox="0 0 14 14" fill="none" xmlns="http://www.w3.org/2000/svg">
<path d="M10.4997 6.4165H3.49967C2.85534 6.4165 2.33301 6.93884 2.33301 7.58317V11.0832C2.33301 11.7275 2.85534 12.2498 3.49967 12.2498H10.4997C11.144 12.2498 11.6663 11.7275 11.6663 11.0832V7.58317C11.6663 6.93884 11.144 6.4165 10.4997 6.4165Z" stroke="#FFB547" stroke-width="1.16667" stroke-linecap="round" stroke-linejoin="round"/>
<path d="M4.66699 6.41667V4.08333C4.66699 3.46449 4.91282 2.871 5.35041 2.43342C5.78799 1.99583 6.38149 1.75 7.00033 1.75C7.61916 1.75 8.21266 1.99583 8.65024 2.43342C9.08783 2.871 9.33366 3.46449 9.33366 4.08333V6.41667" stroke="#FFB547" stroke-width="1.16667" stroke-linecap="round" stroke-linejoin="round"/>
</svg>
