<svg width="13" height="14" viewBox="0 0 13 14" fill="none" xmlns="http://www.w3.org/2000/svg">
<path d="M0.00155658 6.87227C0.00155654 7.60534 0.59583 8.19962 1.3289 8.19962C2.06198 8.19962 2.65625 7.60534 2.65625 6.87227C2.65625 6.1392 2.06198 5.54492 1.3289 5.54492C0.59583 5.54492 0.00155661 6.1392 0.00155658 6.87227Z" fill="white"/>
<path d="M10.2468 13.4031C11.4741 11.4419 12.125 9.17502 12.125 6.86147C12.125 4.54791 11.4741 2.28102 10.2468 0.319858C10.2003 0.243696 10.139 0.177626 10.0665 0.125548C9.99404 0.0734706 9.91186 0.0364406 9.82484 0.0166445C9.73782 -0.00315171 9.64772 -0.00531275 9.55985 0.0102889C9.47198 0.0258905 9.38812 0.0589387 9.31324 0.107482L9.23802 0.156152C9.09716 0.249467 8.9975 0.393307 8.95963 0.557976C8.92176 0.722644 8.94856 0.895569 9.03449 1.04105C10.128 2.78141 10.7081 4.79504 10.7081 6.8504C10.7081 8.90577 10.128 10.9194 9.03449 12.6598C8.94855 12.8052 8.92176 12.9782 8.95963 13.1428C8.9975 13.3075 9.09716 13.4513 9.23802 13.5447L9.31324 13.5933C9.38679 13.6429 9.46947 13.6773 9.55646 13.6945C9.64344 13.7118 9.733 13.7116 9.81989 13.6939C9.90679 13.6761 9.98929 13.6413 10.0626 13.5914C10.1359 13.5415 10.1985 13.4774 10.2468 13.4031Z" fill="white"/>
<path d="M7.56612 11.6607C8.45999 10.219 8.93359 8.55642 8.93359 6.86012C8.93359 5.16383 8.45999 3.50122 7.56612 2.05955C7.51889 1.98472 7.45726 1.92001 7.38481 1.86919C7.31236 1.81838 7.23054 1.78246 7.1441 1.76352C7.05766 1.74459 6.96831 1.74301 6.88126 1.75889C6.7942 1.77477 6.71117 1.80779 6.63698 1.85602L6.56176 1.90469C6.4209 1.99801 6.32124 2.14185 6.28337 2.30652C6.24549 2.47119 6.27229 2.64411 6.35823 2.78959C7.11555 4.00899 7.51686 5.41584 7.51686 6.85127C7.51686 8.28671 7.11555 9.69355 6.35823 10.913C6.27229 11.0584 6.24549 11.2314 6.28337 11.396C6.32124 11.5607 6.4209 11.7045 6.56176 11.7979L6.63698 11.8465C6.7101 11.8956 6.79221 11.9297 6.87857 11.9469C6.96493 11.9641 7.05384 11.9641 7.14019 11.9468C7.22654 11.9295 7.30862 11.8954 7.38172 11.8463C7.45481 11.7972 7.51748 11.7341 7.56612 11.6607Z" fill="white"/>
<path d="M4.88993 9.91803C5.44501 8.99483 5.73828 7.93793 5.73828 6.8607C5.73828 5.78348 5.44501 4.72658 4.88993 3.80338C4.84312 3.7287 4.7819 3.66409 4.70984 3.61332C4.63778 3.56255 4.55634 3.52665 4.47025 3.5077C4.38417 3.48875 4.29518 3.48715 4.20846 3.50297C4.12175 3.51879 4.03906 3.55173 3.96521 3.59986L3.89442 3.6441C3.75053 3.74146 3.64989 3.89073 3.6136 4.06063C3.57731 4.23054 3.60818 4.4079 3.69975 4.55555C4.11099 5.25415 4.32787 6.05005 4.32787 6.8607C4.32787 7.67136 4.11099 8.46726 3.69974 9.16586C3.60861 9.31404 3.57843 9.49177 3.61556 9.66172C3.65268 9.83168 3.75422 9.98063 3.89885 10.0773L3.96964 10.1216C4.04314 10.1696 4.12549 10.2024 4.21185 10.2182C4.29822 10.234 4.38687 10.2323 4.4726 10.2134C4.55832 10.1944 4.63939 10.1585 4.71106 10.1078C4.78273 10.0571 4.84354 9.99256 4.88993 9.91803Z" fill="white"/>
</svg>
