<svg width="81" height="81" viewBox="0 0 81 81" fill="none" xmlns="http://www.w3.org/2000/svg">
<circle cx="40.0684" cy="40.0684" r="38.0684" fill="url(#paint0_linear_420_63)" stroke="white" stroke-width="4"/>
<path d="M46.606 55.9453C45.5015 55.9453 44.606 55.0499 44.606 53.9453V26.1914C44.606 25.0868 45.5015 24.1914 46.606 24.1914H51.6786C52.7831 24.1914 53.6786 25.0868 53.6786 26.1914V53.9453C53.6786 55.0499 52.7831 55.9453 51.6786 55.9453H46.606ZM28.4609 55.9453C27.3564 55.9453 26.4609 55.0499 26.4609 53.9453V26.1914C26.4609 25.0868 27.3564 24.1914 28.4609 24.1914H33.5335C34.6381 24.1914 35.5335 25.0868 35.5335 26.1914V53.9453C35.5335 55.0499 34.6381 55.9453 33.5335 55.9453H28.4609Z" fill="white"/>
<defs>
<linearGradient id="paint0_linear_420_63" x1="68.6225" y1="-12.5313" x2="68.6225" y2="76.1367" gradientUnits="userSpaceOnUse">
<stop stop-color="#A719DD"/>
<stop offset="0.630117" stop-color="#623BD8"/>
<stop offset="1" stop-color="#4489EB"/>
</linearGradient>
</defs>
</svg>
