<svg width="24" height="24" viewBox="0 0 24 24" fill="none" xmlns="http://www.w3.org/2000/svg">
<path d="M3.19141 15.9134L7.56412 11.5407C7.72854 11.3762 7.92375 11.2458 8.13859 11.1568C8.35344 11.0678 8.58371 11.022 8.81626 11.022C9.04881 11.022 9.27909 11.0678 9.49393 11.1568C9.70877 11.2458 9.90398 11.3762 10.0684 11.5407L13.952 15.4243M13.952 15.4243L15.4194 16.8917M13.952 15.4243L15.8791 13.4972C16.0435 13.3327 16.2387 13.2023 16.4536 13.1133C16.6684 13.0243 16.8987 12.9784 17.1313 12.9784C17.3638 12.9784 17.5941 13.0243 17.8089 13.1133C18.0238 13.2023 18.219 13.3327 18.3834 13.4972L20.7996 15.9134" stroke="white" stroke-width="1.5" stroke-linecap="round" stroke-linejoin="round"/>
<circle cx="15.106" cy="7.67585" r="2.29353" stroke="white" stroke-width="1.5"/>
<path d="M4.42188 3.87847C5.79336 2.70654 7.86233 2.70654 12.0003 2.70654C16.1382 2.70654 18.2072 2.70654 19.5787 3.87847C19.7737 4.04477 19.9546 4.22574 20.1216 4.42139C21.2935 5.79288 21.2935 7.86184 21.2935 11.9998C21.2935 16.1377 21.2935 18.2067 20.1216 19.5782C19.9553 19.7732 19.7743 19.9541 19.5787 20.1211C18.2072 21.293 16.1382 21.293 12.0003 21.293C7.86233 21.293 5.79336 21.293 4.42188 20.1211C4.22688 19.9548 4.04591 19.7738 3.87896 19.5782C2.70703 18.2067 2.70703 16.1377 2.70703 11.9998C2.70703 7.86184 2.70703 5.79288 3.87896 4.42139C4.04526 4.2264 4.22623 4.04542 4.42188 3.87847Z" stroke="white" stroke-width="1.5" stroke-linecap="round" stroke-linejoin="round"/>
</svg>
