<svg width="38" height="38" viewBox="0 0 38 38" fill="none" xmlns="http://www.w3.org/2000/svg">
<rect width="38" height="38" rx="10.64" fill="#0B0716"/>
<path d="M25.525 17.425C25.7261 16.8208 25.7966 16.1808 25.732 15.5472C25.6673 14.9137 25.469 14.3012 25.15 13.75C24.6673 12.9228 23.9372 12.268 23.0626 11.8778C22.188 11.4876 21.213 11.3817 20.275 11.575C19.8506 11.1005 19.3303 10.7214 18.7485 10.4628C18.1667 10.2042 17.5367 10.072 16.9 10.075C15.9354 10.0745 14.9954 10.3788 14.2141 10.9445C13.4329 11.5102 12.8504 12.3084 12.55 13.225C11.9242 13.3538 11.333 13.6144 10.8157 13.9894C10.2985 14.3644 9.86699 14.8453 9.55 15.4C9.05982 16.2461 8.8536 17.2269 8.96158 18.1987C9.06956 19.1705 9.48606 20.0822 10.15 20.8C9.94892 21.4042 9.87837 22.0442 9.94301 22.6778C10.0077 23.3113 10.206 23.9238 10.525 24.475C11.0077 25.3022 11.7378 25.957 12.6124 26.3472C13.487 26.7374 14.462 26.8433 15.4 26.65C15.8244 27.1245 16.3447 27.5036 16.9265 27.7622C17.5083 28.0208 18.1383 28.153 18.775 28.15C19.7396 28.1505 20.6796 27.8462 21.4609 27.2805C22.2421 26.7148 22.8246 25.9166 23.125 25C23.7508 24.8712 24.342 24.6106 24.8593 24.2356C25.3765 23.8606 25.808 23.3797 26.125 22.825C26.6152 21.9789 26.8214 20.9981 26.7134 20.0263C26.6054 19.0545 26.1889 18.1428 25.525 17.425ZM18.775 26.875C17.9845 26.8875 17.2148 26.622 16.6 26.125V26.05L20.2 23.95C20.292 23.8969 20.3683 23.8203 20.421 23.7281C20.4737 23.6358 20.5009 23.5312 20.5 23.425V18.25L22 19.15V23.35C22.0201 23.7933 21.9527 24.2362 21.8014 24.6535C21.6502 25.0707 21.4181 25.4539 21.1186 25.7814C20.819 26.1088 20.4578 26.3739 20.0557 26.5616C19.6536 26.7492 19.2183 26.8557 18.775 26.875ZM11.5 23.8C11.1177 23.1163 10.9851 22.3208 11.125 21.55L11.2 21.625L14.8 23.725C14.95 23.8 15.175 23.8 15.4 23.725L19.825 21.175V22.9L16.075 25.075C15.2983 25.5081 14.382 25.6172 13.5253 25.3784C12.6686 25.1397 11.9408 24.5724 11.5 23.8ZM10.525 16.3C10.908 15.6146 11.518 15.0841 12.25 14.8V18.925C12.2346 19.0435 12.2549 19.1639 12.3083 19.2708C12.3618 19.3777 12.4459 19.4662 12.55 19.525L16.975 22.075L15.475 22.975L11.725 20.8C10.9852 20.3477 10.4479 19.628 10.2244 18.7901C10.001 17.9523 10.1086 17.0606 10.525 16.3ZM22.975 19.225L18.625 16.75L20.125 16L23.875 18.175C24.4051 18.5042 24.8336 18.9739 25.1129 19.532C25.3921 20.0901 25.5111 20.7147 25.4567 21.3364C25.4023 21.958 25.1766 22.5525 24.8047 23.0536C24.4328 23.5547 23.9293 23.9429 23.35 24.175C23.2037 24.2355 23.0533 24.2856 22.9 24.325V20.125C22.9009 20.0188 22.8737 19.9142 22.821 19.8219C22.7683 19.7297 22.692 19.6531 22.6 19.6L22.975 19.225ZM24.475 16.975L24.4 16.9L20.8 14.8C20.7088 14.7473 20.6053 14.7196 20.5 14.7196C20.3947 14.7196 20.2912 14.7473 20.2 14.8L15.775 17.35V15.175L19.525 13C20.0812 12.695 20.7122 12.5529 21.3455 12.5901C21.9787 12.6272 22.5887 12.8421 23.1055 13.2101C23.6222 13.5781 24.0248 14.0843 24.267 14.6706C24.5093 15.2569 24.5813 15.8996 24.475 16.525V16.975ZM15.475 19.225L13.975 18.325V14.125C13.9665 13.4782 14.144 12.8425 14.4865 12.2937C14.8289 11.7449 15.3219 11.3061 15.9067 11.0295C16.4915 10.7529 17.1434 10.6502 17.7849 10.7336C18.4264 10.817 19.0304 11.0831 19.525 11.5L19.45 11.575L15.85 13.675C15.758 13.7281 15.6817 13.8047 15.629 13.8969C15.5763 13.9892 15.549 14.0938 15.55 14.2V19.225H15.475ZM16.225 17.425L18.25 16.3L20.275 17.425V19.675L18.25 20.8L16.225 19.675V17.425Z" fill="#383341"/>
</svg>
