<svg width="20" height="20" viewBox="0 0 20 20" fill="none" xmlns="http://www.w3.org/2000/svg">
<path d="M7.42516 17.2253C7.26683 17.2253 7.1085 17.1669 6.9835 17.0419C6.74183 16.8003 6.74183 16.4003 6.9835 16.1586L12.4168 10.7253C12.8168 10.3253 12.8168 9.67526 12.4168 9.27526L6.9835 3.84193C6.74183 3.60026 6.74183 3.20026 6.9835 2.95859C7.22516 2.71693 7.62516 2.71693 7.86683 2.95859L13.3002 8.39193C13.7252 8.81693 13.9668 9.39193 13.9668 10.0003C13.9668 10.6086 13.7335 11.1836 13.3002 11.6086L7.86683 17.0419C7.74183 17.1586 7.5835 17.2253 7.42516 17.2253Z" fill="#AAB9CC"/>
</svg>
