<svg width="14" height="17" viewBox="0 0 14 17" fill="none" xmlns="http://www.w3.org/2000/svg">
<path fill-rule="evenodd" clip-rule="evenodd" d="M0.833333 15H12.5C12.721 15 12.933 15.0878 13.0893 15.2441C13.2455 15.4004 13.3333 15.6123 13.3333 15.8333C13.3333 16.0543 13.2455 16.2663 13.0893 16.4226C12.933 16.5789 12.721 16.6667 12.5 16.6667H0.833333C0.61232 16.6667 0.400358 16.5789 0.244078 16.4226C0.0877975 16.2663 0 16.0543 0 15.8333C0 15.6123 0.0877975 15.4004 0.244078 15.2441C0.400358 15.0878 0.61232 15 0.833333 15ZM0 10.8333L8.33333 2.5L10.8333 5L2.5 13.3333H0V10.8333ZM9.16667 1.66667L10.8333 0L13.3333 2.5L11.6658 4.1675L9.16667 1.66667Z" fill="url(#paint0_linear_61011_16409)"/>
<defs>
<linearGradient id="paint0_linear_61011_16409" x1="0.330789" y1="16.6667" x2="13.3333" y2="16.6667" gradientUnits="userSpaceOnUse">
<stop stop-color="#A719DD"/>
<stop offset="0.45" stop-color="#623BD8"/>
<stop offset="1" stop-color="#4489EB"/>
</linearGradient>
</defs>
</svg>
