<svg width="84" height="84" viewBox="0 0 84 84" fill="none" xmlns="http://www.w3.org/2000/svg">
<path d="M42 48.125C43.4497 48.125 44.625 49.3003 44.625 50.75V57.75C44.625 59.1997 43.4497 60.375 42 60.375C40.5503 60.375 39.375 59.1997 39.375 57.75V50.75C39.375 49.3003 40.5503 48.125 42 48.125Z" fill="url(#paint0_linear_60885_16439)"/>
<path fill-rule="evenodd" clip-rule="evenodd" d="M23.625 29.6068V22.75C23.625 12.6018 31.8518 4.375 42 4.375C52.1482 4.375 60.375 12.6018 60.375 22.75V29.6068C66.2928 31.02 70.8363 36.0446 71.6642 42.1931C72.1827 46.0445 72.625 50.0914 72.625 54.25C72.625 58.4085 72.1827 62.4555 71.6642 66.3069C70.7137 73.3664 64.8649 78.9443 57.6617 79.2754C52.6623 79.5052 47.5854 79.625 42 79.625C36.4146 79.625 31.3378 79.5052 26.3383 79.2754C19.1351 78.9443 13.2863 73.3664 12.3358 66.3069C11.8173 62.4555 11.375 58.4085 11.375 54.25C11.375 50.0914 11.8173 46.0445 12.3358 42.1931C13.1637 36.0446 17.7072 31.02 23.625 29.6068ZM28.875 22.75C28.875 15.5013 34.7513 9.625 42 9.625C49.2487 9.625 55.125 15.5013 55.125 22.75V29.1178C50.9363 28.9578 46.644 28.875 42 28.875C37.356 28.875 33.0637 28.9578 28.875 29.1178V22.75ZM42 34.125C36.4926 34.125 31.4962 34.243 26.5794 34.4691C21.9979 34.6797 18.1625 38.2616 17.5389 42.8937C17.0301 46.6727 16.625 50.4452 16.625 54.25C16.625 58.0548 17.0301 61.8273 17.5389 65.6063C18.1625 70.2384 21.9979 73.8203 26.5794 74.0309C31.4962 74.257 36.4926 74.375 42 74.375C47.5074 74.375 52.5038 74.257 57.4207 74.0309C62.0022 73.8203 65.8375 70.2384 66.4611 65.6063C66.97 61.8273 67.375 58.0548 67.375 54.25C67.375 50.4452 66.97 46.6727 66.4611 42.8937C65.8375 38.2616 62.0022 34.6797 57.4207 34.4691C52.5038 34.243 47.5075 34.125 42 34.125Z" fill="url(#paint1_linear_60885_16439)"/>
<defs>
<linearGradient id="paint0_linear_60885_16439" x1="66.2448" y1="-12.8698" x2="66.2448" y2="79.625" gradientUnits="userSpaceOnUse">
<stop stop-color="#A719DD"/>
<stop offset="0.630117" stop-color="#623BD8"/>
<stop offset="1" stop-color="#4489EB"/>
</linearGradient>
<linearGradient id="paint1_linear_60885_16439" x1="66.2448" y1="-12.8698" x2="66.2448" y2="79.625" gradientUnits="userSpaceOnUse">
<stop stop-color="#A719DD"/>
<stop offset="0.630117" stop-color="#623BD8"/>
<stop offset="1" stop-color="#4489EB"/>
</linearGradient>
</defs>
</svg>
