<svg width="32" height="32" viewBox="0 0 32 32" fill="none" xmlns="http://www.w3.org/2000/svg">
<path fill-rule="evenodd" clip-rule="evenodd" d="M16.0007 22.3346C20.2348 22.3346 23.6673 18.9022 23.6673 14.668V9.33464C23.6673 5.10045 20.2348 1.66797 16.0007 1.66797C11.7665 1.66797 8.33398 5.10045 8.33398 9.33464V14.668C8.33398 18.9022 11.7665 22.3346 16.0007 22.3346ZM16.0007 3.66797C12.871 3.66797 10.334 6.20502 10.334 9.33464V14.668C10.334 17.7976 12.871 20.3346 16.0007 20.3346C18.789 20.3346 21.107 18.3206 21.5794 15.668H18.6673C18.115 15.668 17.6673 15.2203 17.6673 14.668C17.6673 14.1157 18.115 13.668 18.6673 13.668H21.6673V10.3346H18.6673C18.115 10.3346 17.6673 9.88692 17.6673 9.33464C17.6673 8.78235 18.115 8.33464 18.6673 8.33464H21.5794C21.107 5.68196 18.789 3.66797 16.0007 3.66797Z" fill="url(#paint0_linear_68616_12042)"/>
<path d="M6.33398 14.668C6.33398 14.1157 5.88627 13.668 5.33398 13.668C4.7817 13.668 4.33398 14.1157 4.33398 14.668C4.33398 20.7744 9.02545 25.7851 15.0007 26.2924V28.3346H12.0007C11.4484 28.3346 11.0007 28.7824 11.0007 29.3346C11.0007 29.8869 11.4484 30.3346 12.0007 30.3346H20.0007C20.5529 30.3346 21.0007 29.8869 21.0007 29.3346C21.0007 28.7824 20.5529 28.3346 20.0007 28.3346H17.0007V26.2924C22.9759 25.7851 27.6673 20.7744 27.6673 14.668C27.6673 14.1157 27.2196 13.668 26.6673 13.668C26.115 13.668 25.6673 14.1157 25.6673 14.668C25.6673 20.0067 21.3394 24.3346 16.0007 24.3346C10.6619 24.3346 6.33398 20.0067 6.33398 14.668Z" fill="url(#paint1_linear_68616_12042)"/>
<defs>
<linearGradient id="paint0_linear_68616_12042" x1="25.2368" y1="-4.90148" x2="25.2368" y2="30.3346" gradientUnits="userSpaceOnUse">
<stop stop-color="#A719DD"/>
<stop offset="0.630117" stop-color="#623BD8"/>
<stop offset="1" stop-color="#4489EB"/>
</linearGradient>
<linearGradient id="paint1_linear_68616_12042" x1="25.2368" y1="-4.90148" x2="25.2368" y2="30.3346" gradientUnits="userSpaceOnUse">
<stop stop-color="#A719DD"/>
<stop offset="0.630117" stop-color="#623BD8"/>
<stop offset="1" stop-color="#4489EB"/>
</linearGradient>
</defs>
</svg>
