<svg width="32" height="32" viewBox="0 0 32 32" fill="none" xmlns="http://www.w3.org/2000/svg">
<path d="M11 4H16V12H11C9.93913 12 8.92172 11.5786 8.17157 10.8284C7.42143 10.0783 7 9.06087 7 8C7 6.93913 7.42143 5.92172 8.17157 5.17157C8.92172 4.42143 9.93913 4 11 4Z" fill="#F24E1E"/>
<path d="M16 4H21C22.0609 4 23.0783 4.42143 23.8284 5.17157C24.5786 5.92172 25 6.93913 25 8C25 9.06087 24.5786 10.0783 23.8284 10.8284C23.0783 11.5786 22.0609 12 21 12H16V4Z" fill="#FF7262"/>
<path d="M16 12H21C22.0609 12 23.0783 12.4214 23.8284 13.1716C24.5786 13.9217 25 14.9391 25 16C25 17.0609 24.5786 18.0783 23.8284 18.8284C23.0783 19.5786 22.0609 20 21 20H16V12Z" fill="#A259FF"/>
<path d="M20 24C20 24.7911 19.7654 25.5645 19.3259 26.2223C18.8864 26.8801 18.2616 27.3928 17.5307 27.6955C16.7998 27.9983 15.9956 28.0775 15.2196 27.9231C14.4437 27.7688 13.731 27.3878 13.1716 26.8284C12.6122 26.269 12.2312 25.5563 12.0769 24.7804C11.9225 24.0044 12.0017 23.2002 12.3045 22.4693C12.6072 21.7384 13.1199 21.1136 13.7777 20.6741C14.4355 20.2346 15.2089 20 16 20C17.0609 20 18.0783 20.4214 18.8284 21.1716C19.5786 21.9217 20 22.9391 20 24Z" fill="#1ABCFE"/>
<path d="M11 12H16V20H11C9.93913 20 8.92172 19.5786 8.17157 18.8284C7.42143 18.0783 7 17.0609 7 16C7 14.9391 7.42143 13.9217 8.17157 13.1716C8.92172 12.4214 9.93913 12 11 12Z" fill="#0ACF83"/>
</svg>
