<svg width="14" height="14" viewBox="0 0 14 14" fill="none" xmlns="http://www.w3.org/2000/svg">
<g clip-path="url(#clip0_204_556)">
<path d="M9.9165 1.16666H4.08317C3.43884 1.16666 2.9165 1.68899 2.9165 2.33332V11.6667C2.9165 12.311 3.43884 12.8333 4.08317 12.8333H9.9165C10.5608 12.8333 11.0832 12.311 11.0832 11.6667V2.33332C11.0832 1.68899 10.5608 1.16666 9.9165 1.16666Z" stroke="white" stroke-width="1.16667" stroke-linecap="round"/>
<path d="M6.99984 10.5C7.322 10.5 7.58317 10.2388 7.58317 9.91668C7.58317 9.59451 7.322 9.33334 6.99984 9.33334C6.67767 9.33334 6.4165 9.59451 6.4165 9.91668C6.4165 10.2388 6.67767 10.5 6.99984 10.5Z" fill="white" stroke="white" stroke-width="1.16667" stroke-linecap="round"/>
</g>
<defs>
<clipPath id="clip0_204_556">
<rect width="14" height="14" fill="white"/>
</clipPath>
</defs>
</svg>
