<svg width="20" height="20" viewBox="0 0 20 20" fill="none" xmlns="http://www.w3.org/2000/svg">
<path fill-rule="evenodd" clip-rule="evenodd" d="M7.49984 1.04166C3.933 1.04166 1.0415 3.93315 1.0415 7.49999C1.0415 11.0668 3.933 13.9583 7.49984 13.9583C9.05817 13.9583 10.4876 13.4064 11.6033 12.4874L12.8865 13.7706C12.5599 14.4601 12.6819 15.3092 13.2523 15.8796L15.7869 18.4142C16.5124 19.1397 17.6886 19.1397 18.4141 18.4142C19.1395 17.6888 19.1395 16.5125 18.4141 15.7871L15.8794 13.2524C15.309 12.682 14.4599 12.5601 13.7704 12.8867L12.4872 11.6035C13.4062 10.4878 13.9582 9.05835 13.9582 7.49999C13.9582 3.93315 11.0667 1.04166 7.49984 1.04166ZM2.2915 7.49999C2.2915 4.62351 4.62335 2.29166 7.49984 2.29166C10.3763 2.29166 12.7082 4.62351 12.7082 7.49999C12.7082 10.3765 10.3763 12.7083 7.49984 12.7083C4.62335 12.7083 2.2915 10.3765 2.2915 7.49999ZM14.9955 14.1363C14.7582 13.899 14.3735 13.899 14.1362 14.1363C13.8988 14.3736 13.8988 14.7584 14.1362 14.9957L16.6708 17.5303C16.9081 17.7677 17.2929 17.7677 17.5302 17.5303C17.7675 17.293 17.7675 16.9083 17.5302 16.671L14.9955 14.1363Z" fill="#AAB9CC"/>
</svg>
