<svg width="100" height="100" viewBox="0 0 100 100" fill="none" xmlns="http://www.w3.org/2000/svg">
<path d="M45.8005 66.666C45.8005 64.3648 47.6659 62.4993 49.9671 62.4993H50.0045C52.3057 62.4993 54.1712 64.3648 54.1712 66.666C54.1712 68.9672 52.3057 70.8327 50.0045 70.8327H49.9671C47.6659 70.8327 45.8005 68.9672 45.8005 66.666Z" fill="#C5711C"/>
<path d="M46.8747 54.166C46.8747 55.8919 48.2738 57.291 49.9997 57.291C51.7256 57.291 53.1247 55.8919 53.1247 54.166V37.4993C53.1247 35.7735 51.7256 34.3743 49.9997 34.3743C48.2738 34.3743 46.8747 35.7735 46.8747 37.4993V54.166Z" fill="#C5711C"/>
<path fill-rule="evenodd" clip-rule="evenodd" d="M43.1746 8.39519C47.6098 6.92296 52.3895 6.92296 56.8248 8.39519C61.2416 9.86132 64.7096 13.3386 68.1936 18.2241C71.6661 23.0935 75.503 29.8829 80.4489 38.6347L80.6431 38.9784C85.5899 47.7315 89.4267 54.5206 91.8178 60.0263C94.2205 65.5589 95.4172 70.3358 94.4624 74.9249C93.501 79.5454 91.1304 83.7472 87.678 86.923C84.2339 90.0911 79.5444 91.4275 73.6396 92.0694C67.7683 92.7077 60.088 92.7077 50.2028 92.7077H49.7966C39.9114 92.7077 32.2311 92.7077 26.3598 92.0694C20.455 91.4275 15.7655 90.0911 12.3214 86.923C8.86894 83.7472 6.49834 79.5454 5.53698 74.9249C4.58217 70.3358 5.77884 65.5589 8.18157 60.0263C10.5727 54.5206 14.4095 47.7315 19.3563 38.9783L19.5504 38.6348C24.4964 29.883 28.3333 23.0935 31.8058 18.2241C35.2898 13.3386 38.7577 9.86132 43.1746 8.39519ZM54.8558 14.3269C51.6989 13.279 48.3005 13.279 45.1436 14.3269C42.6603 15.1512 40.164 17.2681 36.8944 21.8529C33.6362 26.422 29.9579 32.922 24.8941 41.8824C19.8306 50.8422 16.159 57.3472 13.9143 62.516C11.6656 67.6938 11.1023 70.9908 11.6559 73.6517C12.3543 77.0082 14.0728 80.042 16.5527 82.3231C18.5003 84.1147 21.5352 85.2581 27.0353 85.856C32.5287 86.4533 39.8689 86.4577 49.9997 86.4577C60.1305 86.4577 67.4707 86.4533 72.9641 85.856C78.4642 85.2581 81.4991 84.1147 83.4467 82.3231C85.9266 80.042 87.6451 77.0082 88.3434 73.6517C88.8971 70.9908 88.3337 67.6938 86.0851 62.516C83.8403 57.3472 80.1688 50.8422 75.1053 41.8824C70.0414 32.922 66.3632 26.422 63.105 21.8529C59.8354 17.2681 57.3391 15.1512 54.8558 14.3269Z" fill="#C5711C"/>
</svg>
