<svg width="24" height="24" viewBox="0 0 24 24" fill="none" xmlns="http://www.w3.org/2000/svg">
<path fill-rule="evenodd" clip-rule="evenodd" d="M6.77224 6.84112L7.58743 20.5428C7.59971 20.747 7.68944 20.9389 7.83832 21.0792C7.9872 21.2194 8.184 21.2976 8.38857 21.2978H15.649C15.8536 21.2976 16.0504 21.2194 16.1993 21.0792C16.3482 20.9389 16.4379 20.747 16.4502 20.5428L17.2654 6.84112H6.77224ZM18.4731 6.84112L17.6529 20.6141C17.6224 21.125 17.3981 21.6049 17.0256 21.9559C16.6532 22.3069 16.1608 22.5024 15.649 22.5025H8.38857C7.87681 22.5024 7.38441 22.3069 7.01197 21.9559C6.63953 21.6049 6.41517 21.125 6.38472 20.6141L5.5645 6.84112H3.48535V6.13836C3.48535 6.00523 3.53824 5.87755 3.63237 5.78342C3.72651 5.68928 3.85419 5.63639 3.98732 5.63639H20.0503C20.1834 5.63639 20.3111 5.68928 20.4052 5.78342C20.4994 5.87755 20.5523 6.00523 20.5523 6.13836V6.84112H18.4731ZM14.0267 3.42773C14.1598 3.42773 14.2875 3.48062 14.3816 3.57476C14.4758 3.66889 14.5286 3.79657 14.5286 3.9297V4.63246H9.50897V3.9297C9.50897 3.79657 9.56185 3.66889 9.65599 3.57476C9.75012 3.48062 9.8778 3.42773 10.0109 3.42773H14.0267ZM9.50897 9.45135H10.7137L11.2157 18.4868H10.0109L9.50897 9.45135ZM13.3239 9.45135H14.5286L14.0267 18.4868H12.822L13.3239 9.45135Z" fill="white"/>
</svg>
