<svg width="20" height="20" viewBox="0 0 20 20" fill="none" xmlns="http://www.w3.org/2000/svg">
<path d="M14.6149 4.18497C14.7458 4.05031 14.9143 3.83605 15.0745 3.6321L15.1118 3.58465C15.2725 3.37989 15.4445 3.16088 15.62 2.9537L15.6251 2.94774V8.33268C15.6251 8.67786 15.9049 8.95768 16.2501 8.95768C16.5953 8.95768 16.8751 8.67786 16.8751 8.33268V2.94774L16.8801 2.9537C17.0557 3.1609 17.2276 3.37987 17.3884 3.58464L17.4256 3.6321C17.5858 3.83605 17.7544 4.05031 17.8852 4.18497C18.1258 4.43249 18.5215 4.43811 18.769 4.19752C19.0166 3.95694 19.0222 3.56125 18.7816 3.31373C18.7077 3.23768 18.5863 3.08617 18.4087 2.85998L18.3695 2.81006C18.2111 2.60827 18.0252 2.37154 17.8338 2.14561C17.6286 1.90347 17.399 1.65198 17.1694 1.45646C17.0544 1.35848 16.9247 1.26184 16.7852 1.18719C16.6507 1.1152 16.4653 1.04102 16.2501 1.04102C16.0348 1.04102 15.8495 1.1152 15.7149 1.18719C15.5754 1.26184 15.4458 1.35848 15.3307 1.45646C15.1012 1.65198 14.8715 1.90347 14.6664 2.14561C14.4749 2.37154 14.2891 2.60826 14.1307 2.81005L14.0915 2.85998C13.9138 3.08617 13.7925 3.23768 13.7186 3.31373C13.478 3.56125 13.4836 3.95694 13.7311 4.19753C13.9787 4.43811 14.3743 4.43249 14.6149 4.18497Z" fill="#CA72EA"/>
<path fill-rule="evenodd" clip-rule="evenodd" d="M9.58436 1.87435L9.53577 1.87435C7.71018 1.87434 6.27628 1.87433 5.15677 2.02484C4.00955 2.17908 3.09934 2.50161 2.38418 3.21678C1.66901 3.93194 1.34648 4.84215 1.19224 5.98937C1.04173 7.10888 1.04174 8.54278 1.04175 10.3684V10.4637C1.04174 12.2892 1.04173 13.7231 1.19224 14.8427C1.34648 15.9899 1.66901 16.9001 2.38418 17.6153C3.09934 18.3304 4.00955 18.6529 5.15677 18.8072C6.27628 18.9577 7.71017 18.9577 9.53575 18.9577H9.63105C11.4566 18.9577 12.8906 18.9577 14.0101 18.8072C15.1573 18.6529 16.0675 18.3304 16.7827 17.6153C17.4704 16.9275 17.7953 16.0591 17.9563 14.9723C18.1146 13.9037 18.1242 12.547 18.125 10.833C18.1252 10.4878 17.8455 10.2078 17.5003 10.2077C17.1551 10.2075 16.8752 10.4872 16.875 10.8324C16.8746 11.7107 16.8713 12.4655 16.8498 13.121C16.079 12.8474 15.2882 12.7071 14.4897 12.7077C13.1323 12.7027 11.8036 13.1001 10.5568 13.8559C10.2838 13.5934 9.99355 13.3452 9.68709 13.113C7.85662 11.726 5.56519 10.9953 3.22101 11.0432C2.91078 11.0427 2.60083 11.0549 2.29205 11.0797C2.29177 10.8661 2.29175 10.645 2.29175 10.416C2.29175 8.53237 2.29308 7.18251 2.4311 6.15593C2.5667 5.14732 2.82386 4.54486 3.26806 4.10066C3.71226 3.65646 4.31472 3.3993 5.32333 3.2637C6.34991 3.12568 7.69977 3.12435 9.58341 3.12435C10.026 3.12435 10.4404 3.12435 10.8303 3.12627C11.1755 3.12797 11.4567 2.84953 11.4584 2.50436C11.4601 2.15918 11.1817 1.87799 10.8365 1.87629C10.4432 1.87435 10.0259 1.87435 9.58436 1.87435ZM14.4894 13.9577C15.2496 13.9569 16.0126 14.1129 16.7658 14.4281C16.7522 14.553 16.737 14.6732 16.7198 14.7891C16.5804 15.7297 16.3264 16.3037 15.8988 16.7314C15.4546 17.1756 14.8521 17.4327 13.8435 17.5683C13.5707 17.605 13.275 17.632 12.9526 17.652C12.6174 16.6213 12.0962 15.6575 11.4165 14.8009C12.425 14.2323 13.4595 13.9537 14.4863 13.9577L14.4894 13.9577ZM2.29962 12.3336C2.31226 13.2734 2.34522 14.0373 2.4311 14.6761C2.5667 15.6847 2.82386 16.2872 3.26806 16.7314C3.71226 17.1756 4.31472 17.4327 5.32333 17.5683C6.34991 17.7064 7.69977 17.7077 9.58341 17.7077C10.3551 17.7077 11.0371 17.7075 11.6441 17.6977C11.117 16.3035 10.1843 15.0581 8.93217 14.1093C7.3305 12.8957 5.31318 12.2493 3.24003 12.2931L3.22527 12.2932C2.91599 12.2925 2.60707 12.306 2.29962 12.3336Z" fill="#CA72EA"/>
</svg>
