<svg width="80" height="80" viewBox="0 0 80 80" fill="none" xmlns="http://www.w3.org/2000/svg">
<path d="M13.0994 38.2064H35.816C36.8059 38.2064 37.6094 37.403 37.6094 36.413C37.6094 35.4231 36.8059 34.6196 35.816 34.6196H13.0994C12.1094 34.6196 11.306 35.4231 11.306 36.413C11.306 37.403 12.1094 38.2064 13.0994 38.2064Z" fill="url(#paint0_linear_2140_5245)"/>
<path d="M26.8477 47.1737C26.6121 47.1743 26.3788 47.1281 26.1612 47.0378C25.9436 46.9476 25.7461 46.8151 25.5801 46.6479C24.8796 45.9469 24.8796 44.8112 25.5801 44.1106L33.2801 36.4111L25.5801 28.7139C24.8796 28.0129 24.8796 26.8771 25.5801 26.1766C26.2806 25.476 27.4164 25.476 28.1174 26.1766L37.0844 35.1436C37.785 35.8441 37.785 36.9799 37.0844 37.6809L28.1174 46.6479C27.9508 46.8149 27.7529 46.9473 27.535 47.0375C27.3171 47.1277 27.0835 47.174 26.8477 47.1737ZM49.5638 68.6946C46.9263 68.6946 44.7817 66.5496 44.7817 63.912V20.8703C44.7817 18.8261 46.0825 17.0015 48.0192 16.3294L62.3857 11.5399C65.5994 10.5547 68.6936 12.9388 68.6936 16.0882V59.1299C68.6936 61.172 67.3928 62.9939 65.4584 63.6681L51.0871 68.4603C50.5634 68.6228 50.0783 68.6946 49.5638 68.6946ZM63.9111 14.8925C63.7556 14.8925 63.6242 14.9118 63.4833 14.9547L49.1768 19.7249C48.7078 19.8878 48.3685 20.3611 48.3685 20.8703V63.912C48.3685 64.7277 49.2529 65.2777 49.992 65.0456L64.2986 60.2753C64.7648 60.1125 65.1068 59.6391 65.1068 59.1299V16.0882C65.1068 15.4306 64.5714 14.8925 63.9111 14.8925Z" fill="url(#paint1_linear_2140_5245)"/>
<path d="M32.227 23.2618C31.237 23.2618 30.4336 22.4584 30.4336 21.4684V17.8816C30.4336 14.2541 33.3815 11.3057 37.0091 11.3057H63.9102C64.9001 11.3057 65.7036 12.1091 65.7036 13.0991C65.7036 14.089 64.9001 14.8925 63.9102 14.8925H37.0091C35.3614 14.8925 34.0204 16.234 34.0204 17.8816V21.4684C34.0204 22.4584 33.217 23.2618 32.227 23.2618ZM46.5742 61.521H37.0091C33.3816 61.521 30.4336 58.5725 30.4336 54.945V51.3582C30.4336 50.3682 31.237 49.5648 32.227 49.5648C33.217 49.5648 34.0204 50.3682 34.0204 51.3582V54.945C34.0204 56.5927 35.3615 57.9342 37.0091 57.9342H46.5742C47.5642 57.9342 48.3676 58.7376 48.3676 59.7276C48.3676 60.7175 47.5642 61.521 46.5742 61.521Z" fill="url(#paint2_linear_2140_5245)"/>
<defs>
<linearGradient id="paint0_linear_2140_5245" x1="33.7283" y1="33.3282" x2="30.0315" y2="44.4375" gradientUnits="userSpaceOnUse">
<stop stop-color="#A719DD"/>
<stop offset="1" stop-color="#4489EB"/>
</linearGradient>
<linearGradient id="paint1_linear_2140_5245" x1="31.4937" y1="-9.34523" x2="87.5689" y2="8.13126" gradientUnits="userSpaceOnUse">
<stop stop-color="#A719DD"/>
<stop offset="1" stop-color="#4489EB"/>
</linearGradient>
<linearGradient id="paint2_linear_2140_5245" x1="35.6377" y1="-6.7749" x2="81.5569" y2="6.44201" gradientUnits="userSpaceOnUse">
<stop stop-color="#A719DD"/>
<stop offset="1" stop-color="#4489EB"/>
</linearGradient>
</defs>
</svg>
