<svg width="20" height="20" viewBox="0 0 20 20" fill="none" xmlns="http://www.w3.org/2000/svg">
<path d="M8.13052 12.8221C8.24302 13.0113 8.44719 13.1263 8.66636 13.1263H8.6672C8.67251 13.1263 8.67803 13.1261 8.68365 13.1259C8.68948 13.1257 8.69542 13.1254 8.70137 13.1254C8.93303 13.1121 9.13886 12.9721 9.23553 12.7613C9.25469 12.7196 11.183 8.55626 13.6339 7.21626C13.9364 7.05043 14.048 6.67041 13.8822 6.36791C13.7164 6.06541 13.3364 5.95375 13.0339 6.11958C10.963 7.25208 9.31636 9.92707 8.5547 11.3387C7.8372 10.5804 7.02136 10.1096 6.97636 10.0838C6.67719 9.91294 6.29636 10.0171 6.12469 10.3162C5.95386 10.6154 6.0572 10.9971 6.35636 11.1687C6.36803 11.1754 7.55886 11.8671 8.13052 12.8221Z" fill="#3260BB"/>
<path fill-rule="evenodd" clip-rule="evenodd" d="M1.0415 10.0013C1.0415 14.9413 5.05984 18.9596 9.99984 18.9596C14.9398 18.9596 18.9582 14.9413 18.9582 10.0013C18.9582 5.0613 14.9398 1.04297 9.99984 1.04297C5.05984 1.04297 1.0415 5.0613 1.0415 10.0013ZM2.2915 10.0013C2.2915 5.7513 5.74984 2.29297 9.99984 2.29297C14.2498 2.29297 17.7082 5.7513 17.7082 10.0013C17.7082 14.2513 14.2498 17.7096 9.99984 17.7096C5.74984 17.7096 2.2915 14.2513 2.2915 10.0013Z" fill="#3260BB"/>
</svg>
