<svg width="18" height="18" viewBox="0 0 18 18" fill="none" xmlns="http://www.w3.org/2000/svg">
<path d="M13.4038 7.52955C13.7083 7.3379 13.9263 7.04323 14.0199 6.69375C14.1183 6.32632 14.0678 5.94252 13.8776 5.61309C13.4943 4.94922 12.6536 4.71084 11.981 5.06527L10.702 2.85004C10.5329 2.55705 10.2588 2.34722 9.93022 2.25917C9.60163 2.17112 9.25929 2.21579 8.96636 2.38498C8.67338 2.55414 8.46354 2.82824 8.3755 3.15677C8.30915 3.40434 8.31825 3.65971 8.39909 3.8959C7.79159 5.42682 6.50587 6.98809 4.76026 8.32001C4.73299 8.30162 4.70288 8.28785 4.67113 8.27924C4.63305 8.26904 4.59334 8.26643 4.55426 8.27158C4.51517 8.27673 4.47748 8.28952 4.44335 8.30923L2.81132 9.25151C2.26227 9.56851 1.86896 10.0824 1.70386 10.6986C1.53875 11.3148 1.62239 11.9565 1.93942 12.5056C2.38016 13.269 3.18245 13.6962 4.00639 13.6962C4.41024 13.6962 4.81931 13.5935 5.19347 13.3775L5.28688 13.3236L7.08671 15.6735C7.21105 15.8358 7.38441 15.9314 7.58818 15.9498C7.61133 15.9519 7.63423 15.953 7.65693 15.953C7.83398 15.953 7.99671 15.8897 8.13099 15.7679L8.62667 15.3181C8.90248 15.0677 8.94037 14.6555 8.71477 14.3591L7.02244 12.1356C9.03253 11.3044 11.0092 10.9787 12.626 11.2163C12.8709 11.4966 13.2237 11.6505 13.5845 11.6504C13.8068 11.6505 14.0253 11.5919 14.2177 11.4805C14.8244 11.1302 15.0331 10.3516 14.6827 9.74478L13.4038 7.52955ZM13.3577 5.91328C13.4677 6.10384 13.4969 6.32584 13.4399 6.53837C13.3878 6.73293 13.269 6.89803 13.1032 7.00901L12.2815 5.5858C12.6668 5.39644 13.1399 5.53606 13.3577 5.91328ZM4.0054 13.0959C3.38919 13.0959 2.78899 12.7763 2.45932 12.2054C2.2225 11.7952 2.16015 11.3153 2.28377 10.854C2.40736 10.3927 2.7013 10.0083 3.11149 9.77147L4.48354 8.97929L6.2653 12.0654L4.89324 12.8576C4.62345 13.0138 4.31717 13.0961 4.0054 13.0959ZM8.22318 14.8735L7.72753 15.3232C7.70133 15.347 7.67728 15.3551 7.64219 15.3518C7.60695 15.3487 7.58485 15.3365 7.56333 15.3084L5.81123 13.0209L6.59659 12.5674L8.23702 14.7227C8.25413 14.745 8.26222 14.7728 8.25965 14.8008C8.25709 14.8288 8.24406 14.8547 8.22318 14.8735ZM6.70091 11.6191L5.08792 8.82526C6.76812 7.5505 8.05099 6.06182 8.76034 4.56929L12.2229 10.5667C10.5757 10.4347 8.64495 10.8014 6.70091 11.6191ZM13.9175 10.9605C13.5973 11.1453 13.1867 11.0352 13.0019 10.7152L9.02121 3.82041C8.83644 3.50034 8.94649 3.08965 9.26653 2.90488C9.36742 2.84642 9.48196 2.81565 9.59857 2.81567C9.65723 2.81567 9.71642 2.82341 9.77481 2.83905C9.94847 2.88558 10.0931 2.99608 10.1821 3.1502L14.1627 10.0449C14.3475 10.365 14.2375 10.7757 13.9175 10.9605ZM14.2439 5.40161C14.161 5.25802 14.2102 5.07443 14.3538 4.99154L15.5589 4.29579C15.7025 4.21288 15.8861 4.26211 15.9689 4.40566C16.0518 4.54924 16.0026 4.73284 15.8591 4.81572L14.654 5.51148C14.6198 5.5312 14.5822 5.54401 14.5431 5.54916C14.504 5.55432 14.4643 5.55172 14.4262 5.54151C14.3881 5.53131 14.3524 5.5137 14.3211 5.4897C14.2899 5.46569 14.2636 5.43576 14.2439 5.40161ZM12.8546 3.46822L13.5885 2.19703C13.6714 2.05348 13.855 2.00422 13.9986 2.08716C14.1422 2.17004 14.1914 2.35364 14.1085 2.49722L13.3746 3.76841C13.3549 3.80256 13.3286 3.83249 13.2973 3.8565C13.2661 3.8805 13.2304 3.89811 13.1923 3.90831C13.1542 3.91851 13.1145 3.92111 13.0754 3.91596C13.0363 3.91081 12.9986 3.89801 12.9645 3.87828C12.8209 3.7954 12.7717 3.6118 12.8546 3.46822ZM16.9917 7.27132C16.9917 7.43712 16.8572 7.57151 16.6915 7.57151H15.2236C15.0579 7.57151 14.9235 7.43712 14.9235 7.27132C14.9235 7.10552 15.0579 6.97113 15.2236 6.97113H16.6915C16.8572 6.97113 16.9917 7.10552 16.9917 7.27132Z" fill="#E43C5C"/>
</svg>
