<svg width="18" height="18" viewBox="0 0 18 18" fill="none" xmlns="http://www.w3.org/2000/svg">
<path d="M4.5 6C4.5 4.80653 4.97411 3.66193 5.81802 2.81802C6.66193 1.97411 7.80653 1.5 9 1.5C10.1935 1.5 11.3381 1.97411 12.182 2.81802C13.0259 3.66193 13.5 4.80653 13.5 6C13.5 11.25 15.75 11.25 15.75 12.75H2.25C2.25 11.25 4.5 11.25 4.5 6Z" stroke="black" stroke-width="1.2" stroke-linecap="round" stroke-linejoin="round"/>
<path d="M7.5 15.75C7.5 16.1478 7.65804 16.5294 7.93934 16.8107C8.22064 17.092 8.60218 17.25 9 17.25C9.39782 17.25 9.77936 17.092 10.0607 16.8107C10.342 16.5294 10.5 16.1478 10.5 15.75" stroke="black" stroke-width="1.2" stroke-linecap="round" stroke-linejoin="round"/>
</svg>
