<svg width="24" height="24" viewBox="0 0 24 24" fill="none" xmlns="http://www.w3.org/2000/svg">
<path fill-rule="evenodd" clip-rule="evenodd" d="M12.0008 1.25C7.4544 1.25 3.72598 4.8216 3.72595 9.27935C3.72585 10.3065 3.6548 11.0726 3.17307 11.7624C3.08478 11.887 2.99131 12.011 2.88894 12.1467L2.80698 12.2556C2.67564 12.4304 2.53396 12.6221 2.40139 12.8237C2.1387 13.2232 1.87921 13.709 1.78984 14.2776C1.49759 16.137 2.8458 17.3245 4.15309 17.8501C8.79538 19.7166 15.2063 19.7166 19.8486 17.8501C21.1558 17.3245 22.5041 16.137 22.2118 14.2776C22.1224 13.709 21.8629 13.2232 21.6002 12.8237C21.4677 12.6221 21.326 12.4304 21.1947 12.2556L21.1128 12.1468C21.0105 12.0111 20.9169 11.887 20.8286 11.7624C20.3468 11.0727 20.2758 10.3066 20.2757 9.27941C20.2757 4.82164 16.5473 1.25 12.0008 1.25ZM5.22595 9.27941C5.22595 5.69657 8.23552 2.75 12.0008 2.75C15.7661 2.75 18.7757 5.69657 18.7757 9.27941C18.7758 10.332 18.8292 11.5212 19.6007 12.6239L19.6031 12.6274C19.7061 12.7728 19.8173 12.9203 19.9216 13.0586L19.9954 13.1565C20.1239 13.3277 20.2418 13.4879 20.3469 13.6478C20.5597 13.9714 20.6887 14.2476 20.73 14.5105C20.8631 15.3571 20.3098 16.0479 19.289 16.4584C15.0058 18.1805 8.99588 18.1805 4.71266 16.4584C3.69184 16.0479 3.13859 15.3571 3.27165 14.5105C3.31296 14.2476 3.44193 13.9714 3.65472 13.6478C3.75989 13.4879 3.8777 13.3277 4.00627 13.1565L4.08007 13.0586C4.18436 12.9203 4.29555 12.7728 4.39851 12.6274L4.40099 12.6239C5.1724 11.5212 5.22585 10.332 5.22595 9.27941Z" fill="#76869E"/>
<path d="M9.46318 20.409C9.13675 20.154 8.66542 20.2119 8.41044 20.5384C8.15546 20.8648 8.21338 21.3361 8.53982 21.5911C9.47085 22.3183 10.6856 22.75 12.0015 22.75C13.3174 22.75 14.5321 22.3183 15.4632 21.5911C15.7896 21.3361 15.8475 20.8648 15.5926 20.5384C15.3376 20.2119 14.8662 20.154 14.5398 20.409C13.8786 20.9255 12.9906 21.25 12.0015 21.25C11.0124 21.25 10.1244 20.9255 9.46318 20.409Z" fill="#76869E"/>
</svg>
