<svg width="20" height="20" viewBox="0 0 20 20" fill="none" xmlns="http://www.w3.org/2000/svg">
<path d="M7.42498 17.2253C7.26665 17.2253 7.10831 17.1669 6.98331 17.0419C6.74165 16.8003 6.74165 16.4003 6.98331 16.1586L12.4166 10.7253C12.8166 10.3253 12.8166 9.67526 12.4166 9.27526L6.98331 3.84193C6.74165 3.60026 6.74165 3.20026 6.98331 2.95859C7.22498 2.71693 7.62498 2.71693 7.86665 2.95859L13.3 8.39193C13.725 8.81693 13.9666 9.39193 13.9666 10.0003C13.9666 10.6086 13.7333 11.1836 13.3 11.6086L7.86665 17.0419C7.74165 17.1586 7.58331 17.2253 7.42498 17.2253Z" fill="#4489EB"/>
</svg>
