<svg width="16" height="16" viewBox="0 0 16 16" fill="none" xmlns="http://www.w3.org/2000/svg">
<path fill-rule="evenodd" clip-rule="evenodd" d="M0.835938 7.9987C0.835938 11.9567 4.0446 15.1654 8.0026 15.1654C11.9606 15.1654 15.1693 11.9567 15.1693 7.9987C15.1693 4.0407 11.9606 0.832031 8.0026 0.832031C4.0446 0.832031 0.835938 4.0407 0.835938 7.9987ZM11.1199 5.50736C11.3913 5.75602 11.4093 6.17802 11.1606 6.44935L7.49395 10.4493C7.37128 10.5833 7.1986 10.6614 7.01727 10.6654C6.83527 10.6694 6.65993 10.5987 6.53127 10.4701L4.8646 8.80338C4.60393 8.54339 4.60393 8.12068 4.8646 7.86068C5.1246 7.60001 5.54728 7.60001 5.80728 7.86068L6.98193 9.0347L10.1779 5.54805C10.4266 5.27671 10.8486 5.25869 11.1199 5.50736Z" fill="#9AC473"/>
</svg>
