<svg width="40" height="40" viewBox="0 0 40 40" fill="none" xmlns="http://www.w3.org/2000/svg">
<path fill-rule="evenodd" clip-rule="evenodd" d="M6.66683 11.2487C4.87516 11.2487 3.79181 11.2487 2.93848 10.3937C2.0835 9.53872 2.0835 8.45708 2.0835 6.66549C2.0835 4.87389 2.0835 3.79034 2.93848 2.93536C3.79348 2.08203 4.87516 2.08203 6.66683 2.08203C8.4585 2.08203 9.54185 2.08203 10.3952 2.93536C11.2502 3.79034 11.2502 4.87198 11.2502 6.66524C11.2502 8.4585 11.2502 9.54039 10.3952 10.3954C9.54018 11.2487 8.4585 11.2487 6.66683 11.2487ZM6.66683 4.58203C5.83185 4.58203 4.88515 4.58203 4.70516 4.70369C4.5835 4.88369 4.5835 5.83032 4.5835 6.6653C4.5835 7.50028 4.5835 8.44703 4.70516 8.62702C4.88516 8.74869 5.83016 8.7487 6.66683 8.7487C7.5035 8.7487 8.4485 8.74869 8.6285 8.62702C8.75016 8.44703 8.75016 7.50041 8.75016 6.66543C8.75016 5.83045 8.75016 4.88369 8.6285 4.70369C8.4485 4.58203 7.50348 4.58203 6.66683 4.58203Z" fill="#70A3C4"/>
<path fill-rule="evenodd" clip-rule="evenodd" d="M6.66683 24.582C4.87516 24.582 3.79181 24.582 2.93848 23.727C2.0835 22.872 2.0835 21.7904 2.0835 19.9988C2.0835 18.2072 2.0835 17.1237 2.93848 16.2687C3.79348 15.4154 4.87516 15.4154 6.66683 15.4154C8.4585 15.4154 9.54185 15.4154 10.3952 16.2687C11.2502 17.1237 11.2502 18.2053 11.2502 19.9986C11.2502 21.7918 11.2502 22.8737 10.3952 23.7287C9.54018 24.582 8.4585 24.582 6.66683 24.582ZM6.66683 17.9154C5.83185 17.9154 4.88515 17.9154 4.70516 18.037C4.5835 18.217 4.5835 19.1636 4.5835 19.9986C4.5835 20.8336 4.5835 21.7804 4.70516 21.9604C4.88515 22.082 5.83011 22.082 6.66676 22.082C7.50341 22.082 8.4485 22.082 8.6285 21.9604C8.75016 21.7804 8.75016 20.8337 8.75016 19.9988C8.75016 19.1638 8.75016 18.217 8.6285 18.037C8.4485 17.9154 7.50348 17.9154 6.66683 17.9154Z" fill="#70A3C4"/>
<path fill-rule="evenodd" clip-rule="evenodd" d="M16.2718 10.3937C17.1251 11.2487 18.2085 11.2487 20.0002 11.2487C21.7918 11.2487 22.8735 11.2487 23.7285 10.3954C24.5835 9.54038 24.5835 8.45875 24.5835 6.66549C24.5835 4.87222 24.5835 3.79034 23.7285 2.93536C22.8752 2.08203 21.7918 2.08203 20.0002 2.08203C18.2085 2.08203 17.1268 2.08203 16.2718 2.93536C15.4168 3.79034 15.4168 4.87365 15.4168 6.66524C15.4168 8.45683 15.4168 9.53872 16.2718 10.3937ZM20.0001 4.58203C20.8367 4.58203 21.7818 4.58203 21.9618 4.70369C22.0835 4.88369 22.0835 5.83032 22.0835 6.6653C22.0835 7.50028 22.0835 8.44703 21.9618 8.62702C21.7818 8.74869 20.8368 8.7487 20.0002 8.7487C19.1635 8.7487 18.2185 8.74869 18.0385 8.62702C17.9168 8.44703 17.9168 7.50041 17.9168 6.66543C17.9168 5.83045 17.9168 4.88369 18.0385 4.70369C18.2185 4.58203 19.1651 4.58203 20.0001 4.58203Z" fill="#70A3C4"/>
<path fill-rule="evenodd" clip-rule="evenodd" d="M20.0002 24.582C18.2085 24.582 17.1251 24.582 16.2718 23.727C15.4168 22.872 15.4168 21.7904 15.4168 19.9988C15.4168 18.2072 15.4168 17.1237 16.2718 16.2687C17.1268 15.4154 18.2085 15.4154 20.0002 15.4154C21.7918 15.4154 22.8752 15.4154 23.7285 16.2687C24.5835 17.1237 24.5835 18.2053 24.5835 19.9986C24.5835 21.7918 24.5835 22.8737 23.7285 23.7287C22.8735 24.582 21.7918 24.582 20.0002 24.582ZM20.0002 17.9154C19.1652 17.9154 18.2185 17.9154 18.0385 18.037C17.9168 18.217 17.9168 19.1636 17.9168 19.9986C17.9168 20.8336 17.9168 21.7804 18.0385 21.9604C18.2185 22.082 19.1634 22.082 20.0001 22.082C20.8367 22.082 21.7818 22.082 21.9618 21.9604C22.0835 21.7804 22.0835 20.8337 22.0835 19.9988C22.0835 19.1638 22.0835 18.217 21.9618 18.037C21.7818 17.9154 20.8368 17.9154 20.0002 17.9154Z" fill="#70A3C4"/>
<path fill-rule="evenodd" clip-rule="evenodd" d="M16.2718 37.0604C17.1251 37.9154 18.2085 37.9154 20.0002 37.9154C21.7918 37.9154 22.8735 37.9154 23.7285 37.062C24.5835 36.2071 24.5835 35.1254 24.5835 33.3322C24.5835 31.5389 24.5835 30.457 23.7285 29.602C22.8752 28.7487 21.7918 28.7487 20.0002 28.7487C18.2085 28.7487 17.1268 28.7487 16.2718 29.602C15.4168 30.457 15.4168 31.5403 15.4168 33.3319C15.4168 35.1235 15.4168 36.2054 16.2718 37.0604ZM20.0001 31.2487C20.8367 31.2487 21.7818 31.2487 21.9618 31.3704C22.0835 31.5504 22.0835 32.497 22.0835 33.332C22.0835 34.167 22.0835 35.1137 21.9618 35.2937C21.7818 35.4154 20.8369 35.4154 20.0002 35.4154C19.1636 35.4154 18.2185 35.4154 18.0385 35.2937C17.9168 35.1137 17.9168 34.1671 17.9168 33.3321C17.9168 32.4971 17.9168 31.5504 18.0385 31.3704C18.2185 31.2487 19.1651 31.2487 20.0001 31.2487Z" fill="#70A3C4"/>
<path fill-rule="evenodd" clip-rule="evenodd" d="M33.3335 11.2487C31.5418 11.2487 30.4585 11.2487 29.6051 10.3937C28.7502 9.53872 28.7502 8.45708 28.7502 6.66548C28.7502 4.87389 28.7502 3.79034 29.6051 2.93536C30.4601 2.08203 31.5418 2.08203 33.3335 2.08203C35.1252 2.08203 36.2085 2.08203 37.0618 2.93536C37.9168 3.79034 37.9168 4.87198 37.9168 6.66525C37.9168 8.45851 37.9168 9.54038 37.0618 10.3954C36.2069 11.2487 35.1252 11.2487 33.3335 11.2487ZM33.3335 4.58203C32.4985 4.58203 31.5518 4.58203 31.3718 4.70369C31.2502 4.88369 31.2502 5.83032 31.2502 6.6653C31.2502 7.50028 31.2502 8.44703 31.3718 8.62702C31.5518 8.74869 32.4968 8.7487 33.3335 8.7487C34.1702 8.7487 35.1152 8.74869 35.2952 8.62702C35.4168 8.44703 35.4168 7.50041 35.4168 6.66543C35.4168 5.83045 35.4168 4.88369 35.2952 4.70369C35.1152 4.58203 34.1702 4.58203 33.3335 4.58203Z" fill="#70A3C4"/>
<path fill-rule="evenodd" clip-rule="evenodd" d="M29.6051 23.727C30.4585 24.582 31.5418 24.582 33.3335 24.582C35.1252 24.582 36.2069 24.582 37.0618 23.7287C37.9168 22.8737 37.9168 21.7921 37.9168 19.9988C37.9168 18.2055 37.9168 17.1237 37.0618 16.2687C36.2085 15.4154 35.1252 15.4154 33.3335 15.4154C31.5418 15.4154 30.4601 15.4154 29.6051 16.2687C28.7502 17.1237 28.7502 18.207 28.7502 19.9986C28.7502 21.7902 28.7502 22.872 29.6051 23.727ZM33.3334 17.9154C34.1701 17.9154 35.1152 17.9154 35.2952 18.037C35.4168 18.217 35.4168 19.1636 35.4168 19.9986C35.4168 20.8336 35.4168 21.7804 35.2952 21.9604C35.1152 22.082 34.1702 22.082 33.3336 22.082C32.4969 22.082 31.5518 22.082 31.3718 21.9604C31.2502 21.7804 31.2502 20.8337 31.2502 19.9988C31.2502 19.1638 31.2502 18.217 31.3718 18.037C31.5518 17.9154 32.4984 17.9154 33.3334 17.9154Z" fill="#70A3C4"/>
</svg>
