<svg width="40" height="40" viewBox="0 0 40 40" fill="none" xmlns="http://www.w3.org/2000/svg">
<rect x="1" y="1" width="38" height="38" rx="19" fill="url(#paint0_linear_471_857)"/>
<rect x="1" y="1" width="38" height="38" rx="19" stroke="white" stroke-width="2"/>
<path d="M17.75 21C17.75 20.5858 17.4142 20.25 17 20.25C16.5858 20.25 16.25 20.5858 16.25 21V22C16.25 22.4142 16.5858 22.75 17 22.75C17.4142 22.75 17.75 22.4142 17.75 22V21Z" fill="white"/>
<path d="M23 20.25C23.4142 20.25 23.75 20.5858 23.75 21V22C23.75 22.4142 23.4142 22.75 23 22.75C22.5858 22.75 22.25 22.4142 22.25 22V21C22.25 20.5858 22.5858 20.25 23 20.25Z" fill="white"/>
<path fill-rule="evenodd" clip-rule="evenodd" d="M18.4428 24.8947C18.45 24.8994 18.4666 24.9098 18.4927 24.9245C18.545 24.9539 18.6352 24.9997 18.7634 25.0478C19.0183 25.1434 19.4293 25.25 20 25.25C20.5708 25.25 20.9818 25.1434 21.2367 25.0478C21.3649 24.9997 21.4551 24.9539 21.5073 24.9245C21.5335 24.9098 21.5502 24.8992 21.5573 24.8945L21.56 24.8927C21.8907 24.6529 22.354 24.722 22.6 25.05C22.8486 25.3814 22.7814 25.8515 22.45 26.1L22.4489 26.1009L22.4477 26.1018L22.445 26.1038L22.4389 26.1082L22.4236 26.1192C22.412 26.1274 22.3976 26.1372 22.3803 26.1486C22.3458 26.1712 22.2999 26.1997 22.2427 26.2319C22.1284 26.2962 21.9686 26.3753 21.7634 26.4523C21.3516 26.6067 20.7626 26.75 20 26.75C19.2375 26.75 18.6485 26.6067 18.2367 26.4523C18.0315 26.3753 17.8717 26.2962 17.7573 26.2319C17.7002 26.1997 17.6543 26.1712 17.6198 26.1486C17.6025 26.1372 17.5881 26.1274 17.5765 26.1192L17.5612 26.1082L17.5551 26.1038L17.5524 26.1018L17.55 26.1C17.2187 25.8515 17.1515 25.3814 17.4 25.05C17.6461 24.722 18.1093 24.6529 18.4401 24.8927L18.4392 24.8921L18.4428 24.8947ZM18.446 24.897L18.4479 24.8984L18.4428 24.8947L18.446 24.897Z" fill="white"/>
<path fill-rule="evenodd" clip-rule="evenodd" d="M22.25 11.5C22.25 12.4797 21.6239 13.3131 20.75 13.622V15.25H21.0549C22.4225 15.25 23.5248 15.25 24.3918 15.3665C25.2919 15.4875 26.0497 15.7464 26.6517 16.3484C27.2536 16.9503 27.5125 17.7081 27.6335 18.6082C27.6606 18.8101 27.6814 19.0247 27.6974 19.2524C28.0922 19.2571 28.4437 19.271 28.7458 19.3116C29.2375 19.3777 29.7087 19.5268 30.091 19.909C30.4732 20.2913 30.6223 20.7625 30.6884 21.2542C30.7501 21.7129 30.75 22.2857 30.75 22.9506V23.0494C30.75 23.7142 30.7501 24.2871 30.6884 24.7458C30.6223 25.2375 30.4732 25.7087 30.091 26.091C29.7087 26.4732 29.2375 26.6223 28.7458 26.6884C28.4437 26.729 28.0922 26.7429 27.6974 26.7476C27.6814 26.9753 27.6606 27.1899 27.6335 27.3918C27.5125 28.2919 27.2536 29.0497 26.6517 29.6517C26.0497 30.2536 25.2919 30.5125 24.3918 30.6335C23.5248 30.75 22.4225 30.75 21.0549 30.75H18.9451C17.5775 30.75 16.4752 30.75 15.6083 30.6335C14.7081 30.5125 13.9503 30.2536 13.3484 29.6517C12.7464 29.0497 12.4875 28.2919 12.3665 27.3918C12.3394 27.1899 12.3186 26.9753 12.3026 26.7476C11.9078 26.7429 11.5563 26.729 11.2542 26.6884C10.7625 26.6223 10.2913 26.4732 9.90902 26.091C9.52677 25.7087 9.37771 25.2375 9.31161 24.7458C9.24994 24.2871 9.24997 23.7143 9.25 23.0494V22.9506C9.24997 22.2858 9.24994 21.7129 9.31161 21.2542C9.37771 20.7625 9.52677 20.2913 9.90901 19.909C10.2913 19.5268 10.7625 19.3777 11.2542 19.3116C11.5563 19.271 11.9078 19.2571 12.3026 19.2524C12.3186 19.0247 12.3394 18.8101 12.3665 18.6082C12.4875 17.7081 12.7464 16.9503 13.3484 16.3484C13.9503 15.7464 14.7081 15.4875 15.6083 15.3665C16.4752 15.25 17.5775 15.25 18.9451 15.25H19.25V13.622C18.3761 13.3131 17.75 12.4797 17.75 11.5C17.75 10.2574 18.7574 9.25 20 9.25C21.2426 9.25 22.25 10.2574 22.25 11.5ZM19.25 11.5C19.25 11.0858 19.5858 10.75 20 10.75C20.4142 10.75 20.75 11.0858 20.75 11.5C20.75 11.9142 20.4142 12.25 20 12.25C19.5858 12.25 19.25 11.9142 19.25 11.5ZM11.454 20.7982C11.6648 20.7699 11.9212 20.7582 12.2534 20.7534C12.25 21.1259 12.25 21.5229 12.25 21.9451V24.0549C12.25 24.4771 12.25 24.8741 12.2534 25.2466C11.9212 25.2418 11.6648 25.2301 11.454 25.2018C11.1287 25.158 11.0268 25.0874 10.9697 25.0303C10.9126 24.9732 10.842 24.8713 10.7982 24.546C10.7516 24.1991 10.75 23.7283 10.75 23C10.75 22.2717 10.7516 21.8009 10.7982 21.454C10.842 21.1287 10.9126 21.0268 10.9697 20.9697C11.0268 20.9126 11.1287 20.842 11.454 20.7982ZM27.7466 20.7534C27.75 21.1259 27.75 21.5229 27.75 21.9451V24.0549C27.75 24.4771 27.75 24.8741 27.7466 25.2466C28.0788 25.2418 28.3352 25.2301 28.546 25.2018C28.8713 25.158 28.9732 25.0874 29.0303 25.0303C29.0874 24.9732 29.158 24.8713 29.2018 24.546C29.2484 24.1991 29.25 23.7283 29.25 23C29.25 22.2717 29.2484 21.8009 29.2018 21.454C29.158 21.1287 29.0874 21.0268 29.0303 20.9697C28.9732 20.9126 28.8713 20.842 28.546 20.7982C28.3352 20.7699 28.0788 20.7582 27.7466 20.7534ZM14.409 17.409C14.6858 17.1322 15.0743 16.9518 15.8081 16.8531C16.5635 16.7516 17.5646 16.75 19 16.75H21C22.4354 16.75 23.4365 16.7516 24.1919 16.8531C24.9257 16.9518 25.3142 17.1322 25.591 17.409C25.8678 17.6858 26.0482 18.0743 26.1469 18.8081C26.2484 19.5635 26.25 20.5646 26.25 22V24C26.25 25.4354 26.2484 26.4365 26.1469 27.1919C26.0482 27.9257 25.8678 28.3142 25.591 28.591C25.3142 28.8678 24.9257 29.0482 24.1919 29.1469C23.4365 29.2484 22.4354 29.25 21 29.25H19C17.5646 29.25 16.5635 29.2484 15.8081 29.1469C15.0743 29.0482 14.6858 28.8678 14.409 28.591C14.1322 28.3142 13.9518 27.9257 13.8532 27.1919C13.7516 26.4365 13.75 25.4354 13.75 24V22C13.75 20.5646 13.7516 19.5635 13.8532 18.8081C13.9518 18.0743 14.1322 17.6858 14.409 17.409Z" fill="white"/>
<defs>
<linearGradient id="paint0_linear_471_857" x1="0.992366" y1="40" x2="40" y2="40" gradientUnits="userSpaceOnUse">
<stop stop-color="#A719DD"/>
<stop offset="0.45" stop-color="#623BD8"/>
<stop offset="1" stop-color="#4489EB"/>
</linearGradient>
</defs>
</svg>
