<svg width="18" height="18" viewBox="0 0 18 18" fill="none" xmlns="http://www.w3.org/2000/svg">
<path d="M14.25 6H3.75C2.92157 6 2.25 6.67157 2.25 7.5V14.25C2.25 15.0784 2.92157 15.75 3.75 15.75H14.25C15.0784 15.75 15.75 15.0784 15.75 14.25V7.5C15.75 6.67157 15.0784 6 14.25 6Z" stroke="#0E101A" stroke-opacity="0.6" stroke-width="1.125"/>
<path d="M9 6V15.75" stroke="#0E101A" stroke-opacity="0.6" stroke-width="1.125"/>
<path d="M2.25 9H15.75" stroke="#0E101A" stroke-opacity="0.6" stroke-width="1.125"/>
<path d="M9.00065 6.00014C9.00065 6.00014 7.50065 3.00014 9.00065 2.25014C10.5007 1.50014 11.2507 3.75014 9.00065 6.00014Z" stroke="#0E101A" stroke-opacity="0.6" stroke-width="1.125" stroke-linecap="round"/>
<path d="M9.00012 6.00014C9.00012 6.00014 10.5001 3.00014 9.00012 2.25014C7.50012 1.50014 6.75012 3.75014 9.00012 6.00014Z" stroke="#0E101A" stroke-opacity="0.6" stroke-width="1.125" stroke-linecap="round"/>
</svg>
