<svg width="20" height="20" viewBox="0 0 20 20" fill="none" xmlns="http://www.w3.org/2000/svg">
<path d="M5.83333 7.49935L8.95833 9.99935C9.25394 10.236 9.62132 10.365 10 10.365C10.3787 10.365 10.7461 10.236 11.0417 9.99935L14.1667 7.49935M17.5 14.166V5.83268C17.5 5.39065 17.3244 4.96673 17.0118 4.65417C16.6993 4.34161 16.2754 4.16602 15.8333 4.16602H4.16667C3.72464 4.16602 3.30072 4.34161 2.98816 4.65417C2.67559 4.96673 2.5 5.39065 2.5 5.83268V14.166C2.5 14.608 2.67559 15.032 2.98816 15.3445C3.30072 15.6571 3.72464 15.8327 4.16667 15.8327H15.8333C16.2754 15.8327 16.6993 15.6571 17.0118 15.3445C17.3244 15.032 17.5 14.608 17.5 14.166Z" stroke="#3260BB" stroke-width="1.66667" stroke-linecap="round" stroke-linejoin="round"/>
</svg>
