<svg width="11" height="12" viewBox="0 0 11 12" fill="none" xmlns="http://www.w3.org/2000/svg">
<path d="M2.37035 11.5501C2.37035 11.4201 2.34535 11.3551 2.29535 11.3551L1.95035 11.5201C1.95035 11.4501 1.91035 11.4001 1.83035 11.3701L1.71035 11.3551C1.63035 11.3551 1.53035 11.3901 1.41035 11.4601C1.39035 11.4101 1.36535 11.3601 1.33535 11.3101C1.30535 11.2601 1.28035 11.2151 1.26035 11.1751C1.13035 10.9251 1.00035 10.6501 0.870352 10.3501C0.750352 10.0401 0.635352 9.74514 0.525352 9.46514C0.425352 9.18514 0.345352 8.96514 0.285352 8.80514C0.245352 8.67514 0.200352 8.48014 0.150352 8.22014C0.100352 7.96014 0.0503516 7.63014 0.000351604 7.23014C0.110352 7.30014 0.195352 7.33514 0.255352 7.33514C0.325352 7.33514 0.390352 7.23014 0.450352 7.02014C0.480352 7.06014 0.535352 7.08014 0.615352 7.08014C0.675352 7.08014 0.720352 7.06014 0.750352 7.02014L0.990352 6.66014L1.26035 6.75014H1.27535C1.29535 6.75014 1.31535 6.74014 1.33535 6.72014C1.35535 6.70014 1.38535 6.68014 1.42535 6.66014C1.50535 6.61014 1.56535 6.58514 1.60535 6.58514L1.65035 6.60014C1.90035 6.72014 2.06035 6.94014 2.13035 7.26014C2.31035 8.02014 2.49035 8.40014 2.67035 8.40014C2.85035 8.40014 3.06035 8.21014 3.30035 7.83014C3.42035 7.64014 3.54035 7.42014 3.66035 7.17014C3.79035 6.92014 3.92035 6.64014 4.05035 6.33014C4.07035 6.45014 4.09035 6.51014 4.11035 6.51014C4.16035 6.51014 4.24535 6.38514 4.36535 6.13514C4.49535 5.88514 4.70035 5.54014 4.98035 5.10014C5.14035 4.83014 5.34035 4.52514 5.58035 4.18514C5.83035 3.84514 6.09535 3.49514 6.37535 3.13514C6.65535 2.77514 6.92535 2.43514 7.18535 2.11514C7.45535 1.79514 7.69535 1.52014 7.90535 1.29014C8.11535 1.06014 8.27035 0.910136 8.37035 0.840136C8.75035 0.580136 9.05035 0.330136 9.27035 0.0901363C9.26035 0.160136 9.24535 0.225136 9.22535 0.285136C9.21535 0.335136 9.21035 0.370136 9.21035 0.390136C9.21035 0.430136 9.23035 0.450136 9.27035 0.450136L9.69035 0.240136V0.300136C9.69035 0.380136 9.71035 0.420137 9.75035 0.420137C9.78035 0.420137 9.84035 0.375136 9.93035 0.285136C10.0204 0.195136 10.0704 0.130136 10.0804 0.0901363L10.0504 0.300136L10.5604 0.000136554L10.4404 0.270137C10.6004 0.160136 10.7154 0.105136 10.7854 0.105136C10.8254 0.105136 10.8554 0.130136 10.8754 0.180136C10.8954 0.220136 10.9054 0.260136 10.9054 0.300136C10.9054 0.360136 10.8804 0.430136 10.8304 0.510136C10.7804 0.590136 10.7154 0.685136 10.6354 0.795136C10.5754 0.875136 10.4754 0.995136 10.3354 1.15514C10.2054 1.30514 10.0054 1.53014 9.73535 1.83014C9.46535 2.12014 9.10535 2.52514 8.65535 3.04514C8.53535 3.17514 8.35035 3.40514 8.10035 3.73514C7.85035 4.05514 7.56535 4.43014 7.24535 4.86014C6.93535 5.28014 6.62535 5.70514 6.31535 6.13514C6.00535 6.56514 5.73035 6.95514 5.49035 7.30514C5.25035 7.64514 5.08035 7.90014 4.98035 8.07014L4.05035 9.64514C3.85035 9.98514 3.68535 10.2651 3.55535 10.4851C3.42535 10.6951 3.32535 10.8401 3.25535 10.9201C3.10535 11.1001 2.94035 11.2601 2.76035 11.4001L2.62535 11.3251L2.50535 11.4001L2.37035 11.5501Z" fill="#0EA870"/>
</svg>
