<svg width="20" height="20" viewBox="0 0 20 20" fill="none" xmlns="http://www.w3.org/2000/svg">
<path fill-rule="evenodd" clip-rule="evenodd" d="M9.99966 1.04102C6.19322 1.04102 3.10395 4.11708 3.10393 7.91596C3.10385 8.79958 3.04458 9.46651 2.63823 10.0659C2.58172 10.1481 2.50675 10.2509 2.42484 10.3634C2.28256 10.5586 2.11932 10.7826 1.9955 10.9766C1.77697 11.319 1.56347 11.732 1.49007 12.2131C1.25061 13.7829 2.35448 14.7992 3.45383 15.2546C4.27226 15.5937 5.1566 15.8611 6.07898 16.0568C6.55738 17.7405 8.14037 18.9576 9.99885 18.9576C11.8572 18.9576 13.4401 17.7407 13.9186 16.0571C14.8416 15.8614 15.7265 15.5939 16.5455 15.2546C17.6448 14.7992 18.7487 13.7829 18.5092 12.2131C18.4358 11.732 18.2223 11.319 18.0038 10.9766C17.88 10.7826 17.7168 10.5586 17.5745 10.3634C17.4926 10.251 17.4176 10.1481 17.3611 10.066C16.9547 9.46654 16.8955 8.79969 16.8954 7.91602C16.8954 4.11711 13.8061 1.04102 9.99966 1.04102ZM4.35393 7.91602C4.35393 4.81136 6.87965 2.29102 9.99966 2.29102C13.1197 2.29102 15.6454 4.81142 15.6454 7.91607C15.6455 8.81809 15.69 9.82991 16.3279 10.7695L16.3299 10.7724C16.4348 10.9251 16.5269 11.0502 16.6136 11.1681C16.7292 11.3251 16.8355 11.4695 16.9501 11.6491C17.1278 11.9275 17.238 12.1688 17.2735 12.4016C17.3885 13.1552 16.9078 13.7515 16.0671 14.0998C12.5013 15.577 7.49804 15.577 3.93223 14.0998C3.09149 13.7515 2.61081 13.1552 2.72578 12.4016C2.76129 12.1688 2.8715 11.9275 3.0492 11.6491C3.16383 11.4695 3.27005 11.3252 3.38565 11.1681C3.47231 11.0504 3.5647 10.9248 3.66941 10.7725L3.67141 10.7695C4.30936 9.82991 4.35385 8.81804 4.35393 7.91602ZM12.4688 16.3021C10.845 16.5096 9.15256 16.5095 7.52882 16.3019C8.00508 17.1342 8.92677 17.7076 9.99885 17.7076C11.0708 17.7076 11.9925 17.1343 12.4688 16.3021Z" fill="#3260BB"/>
</svg>
