<svg width="24" height="24" viewBox="0 0 24 24" fill="none" xmlns="http://www.w3.org/2000/svg">
<path fill-rule="evenodd" clip-rule="evenodd" d="M16.5 5.25C15.2574 5.25 14.25 6.25736 14.25 7.5C14.25 8.74264 15.2574 9.75 16.5 9.75C17.7426 9.75 18.75 8.74264 18.75 7.5C18.75 6.25736 17.7426 5.25 16.5 5.25ZM15.75 7.5C15.75 7.08579 16.0858 6.75 16.5 6.75C16.9142 6.75 17.25 7.08579 17.25 7.5C17.25 7.91421 16.9142 8.25 16.5 8.25C16.0858 8.25 15.75 7.91421 15.75 7.5Z" fill="#C5711C"/>
<path fill-rule="evenodd" clip-rule="evenodd" d="M12.0572 1.75H11.9428C9.75212 1.74999 8.03144 1.74998 6.68802 1.93059C5.31137 2.11568 4.21911 2.50272 3.36091 3.36091C2.50272 4.21911 2.11568 5.31137 1.93059 6.68802C1.74998 8.03144 1.74999 9.75212 1.75 11.9428V12.0572C1.74999 14.2479 1.74998 15.9686 1.93059 17.312C2.11568 18.6886 2.50272 19.7809 3.36091 20.6391C4.21911 21.4973 5.31137 21.8843 6.68802 22.0694C8.03144 22.25 9.7521 22.25 11.9428 22.25H12.0572C14.2479 22.25 15.9686 22.25 17.312 22.0694C18.6886 21.8843 19.7809 21.4973 20.6391 20.6391C21.4973 19.7809 21.8843 18.6886 22.0694 17.312C22.25 15.9686 22.25 14.2479 22.25 12.0572V11.9428C22.25 9.75214 22.25 8.03144 22.0694 6.68802C21.8843 5.31137 21.4973 4.21911 20.6391 3.36091C19.7809 2.50272 18.6886 2.11568 17.312 1.93059C15.9686 1.74998 14.2479 1.74999 12.0572 1.75ZM4.42157 4.42157C4.95462 3.88853 5.67757 3.57994 6.8879 3.41722C8.11979 3.25159 9.73963 3.25 12 3.25C14.2604 3.25 15.8802 3.25159 17.1121 3.41722C18.3224 3.57994 19.0454 3.88853 19.5784 4.42157C20.1115 4.95462 20.4201 5.67757 20.5828 6.8879C20.7484 8.11979 20.75 9.73963 20.75 12C20.75 13.4282 20.7494 14.6006 20.7071 15.5811C19.9451 15.3613 19.1692 15.2494 18.3875 15.2501C16.7114 15.2438 15.0717 15.7489 13.5381 16.7079C13.1547 16.357 12.7442 16.0271 12.3088 15.7208C9.95443 14.0642 7.01351 13.1954 4.00992 13.2527C3.75685 13.2522 3.50393 13.2579 3.25145 13.2697C3.25006 12.8703 3.25 12.4477 3.25 12C3.25 9.73963 3.25159 8.11979 3.41722 6.8879C3.57994 5.67757 3.88853 4.95462 4.42157 4.42157ZM14.6024 17.8175C15.3298 18.6841 15.9142 19.6419 16.3333 20.6631C16.6094 20.6419 16.8683 20.6156 17.1121 20.5828C18.3224 20.4201 19.0454 20.1115 19.5784 19.5784C20.1114 19.0455 20.4199 18.3228 20.5827 17.1129C19.8543 16.8699 19.12 16.7493 18.3872 16.7501L18.3835 16.7501C17.1183 16.7451 15.8433 17.0978 14.6024 17.8175ZM11.4457 16.9476C12.9005 17.9712 14.0173 19.2766 14.7225 20.7335C13.9328 20.7497 13.0333 20.75 12 20.75C9.73963 20.75 8.11979 20.7484 6.8879 20.5828C5.67757 20.4201 4.95462 20.1115 4.42157 19.5784C3.88853 19.0454 3.57994 18.3224 3.41722 17.1121C3.32885 16.4549 3.28718 15.6872 3.26753 14.7707C3.51617 14.7581 3.76533 14.7521 4.01466 14.7527L4.03112 14.7525C6.73654 14.6994 9.36436 15.4832 11.4457 16.9476Z" fill="#C5711C"/>
</svg>
