<svg width="20" height="20" viewBox="0 0 20 20" fill="none" xmlns="http://www.w3.org/2000/svg">
<path fill-rule="evenodd" clip-rule="evenodd" d="M8.76227 1.70315C8.91184 1.89775 8.93366 2.16189 8.81805 2.3784C8.33142 3.28976 8.0553 4.33074 8.0553 5.43806C8.0553 9.03123 10.9681 11.9441 14.5613 11.9441C15.6686 11.9441 16.7096 11.668 17.621 11.1813C17.8375 11.0657 18.1016 11.0875 18.2962 11.2371C18.4908 11.3867 18.5799 11.6363 18.5239 11.8753C17.6283 15.6965 14.1995 18.5423 10.1044 18.5423C5.3286 18.5423 1.45703 14.6708 1.45703 9.89494C1.45703 5.79989 4.30291 2.37105 8.12411 1.4755C8.36308 1.41949 8.61271 1.50854 8.76227 1.70315ZM7.16235 3.10552C4.54057 4.24318 2.70703 6.85551 2.70703 9.89494C2.70703 13.9804 6.01896 17.2923 10.1044 17.2923C13.1439 17.2923 15.7562 15.4588 16.8939 12.837C16.1573 13.069 15.3735 13.1941 14.5613 13.1941C10.2778 13.1941 6.8053 9.72159 6.8053 5.43806C6.8053 4.62583 6.93034 3.84211 7.16235 3.10552Z" fill="#76869E"/>
</svg>
