<svg width="228" height="158" viewBox="0 0 228 158" fill="none" xmlns="http://www.w3.org/2000/svg">
<path d="M136.56 6.58C139.75 6.58 142.33 9.16 142.33 12.35C142.33 15.54 139.75 18.12 136.56 18.12H87.88C85.03 18.12 82.43 19.3 80.54 21.18C78.65 23.07 77.48 25.67 77.48 28.52C77.48 30.96 78.3 33.19 79.67 34.95H79.69C81.1 36.75 83.06 38.07 85.25 38.59L85.36 38.64L124.99 48.99C129.68 49.99 134.1 52.84 137.29 56.78C140.32 60.52 142.32 65.28 142.44 70.41C142.46 71.16 142.48 70.48 142.48 70.93C142.48 76.83 140.02 82.17 136.08 86.06C132.2 89.91 126.85 92.35 121.02 92.49C120.27 92.51 120.88 92.53 120.49 92.53H71.81C68.62 92.53 66.04 89.95 66.04 86.76C66.04 83.57 68.62 80.99 71.81 80.99H120.49C121.15 80.99 120.28 81.03 120.76 81.01C123.54 80.94 126.09 79.76 127.96 77.93C129.78 76.13 130.92 73.67 130.92 70.96C130.92 70.27 130.96 71.21 130.94 70.71C130.89 68.27 129.89 65.93 128.37 64.06C126.78 62.12 124.72 60.73 122.61 60.28L122.34 60.21L82.62 49.84V49.86C77.83 48.72 73.6 45.9 70.61 42.06L70.63 42.04C67.73 38.3 65.96 33.59 65.96 28.53C65.96 22.49 68.44 16.98 72.41 13.01C76.38 9.04 81.89 6.56 87.93 6.56H136.61L136.57 6.58H136.56Z" fill="#4489EB"/>
<path d="M140.92 16.27L115.99 44.91L103.5 41.65L123.97 18.15H105.97V6.58H136.65C139.84 6.58 142.42 9.16 142.42 12.35C142.42 13.86 141.83 15.24 140.89 16.27H140.91H140.92Z" fill="url(#paint0_linear_213_2627)"/>
<path d="M113.62 92.52C112.87 92.54 113.48 92.56 113.09 92.56H71.6999C68.5099 92.56 65.9299 89.98 65.9299 86.79C65.9299 85.28 66.5199 83.9 67.4599 82.87L92.4199 54.2L104.91 57.46L84.3999 81.02H113.11C113.77 81.02 112.9 81.06 113.38 81.04L113.65 92.55L113.63 92.53L113.62 92.52Z" fill="url(#paint1_linear_213_2627)"/>
<path d="M41.12 138.44C41.12 140.85 40.5 143 39.25 144.93C38.02 146.85 36.2 148.35 33.82 149.44C31.44 150.53 28.6 151.06 25.32 151.06C21.38 151.06 18.14 150.31 15.59 148.85C13.79 147.78 12.31 146.36 11.19 144.57C10.07 142.78 9.5 141.06 9.5 139.37C9.5 138.39 9.84 137.57 10.52 136.86C11.2 136.17 12.05 135.83 13.1 135.83C13.96 135.83 14.67 136.1 15.26 136.65C15.85 137.18 16.35 137.99 16.77 139.07C17.27 140.34 17.82 141.4 18.41 142.24C19 143.1 19.84 143.79 20.89 144.36C21.96 144.91 23.37 145.18 25.11 145.18C27.5 145.18 29.44 144.63 30.94 143.5C32.44 142.4 33.19 141.01 33.19 139.33C33.19 138.01 32.8 136.92 31.98 136.1C31.18 135.28 30.13 134.64 28.84 134.21C27.57 133.78 25.85 133.32 23.73 132.82C20.88 132.16 18.47 131.36 16.55 130.47C14.63 129.58 13.09 128.35 11.95 126.8C10.83 125.25 10.26 123.33 10.26 121.03C10.26 118.73 10.85 116.9 12.04 115.19C13.23 113.5 14.96 112.18 17.23 111.27C19.49 110.36 22.15 109.9 25.21 109.9C27.65 109.9 29.75 110.2 31.55 110.81C33.33 111.42 34.81 112.24 35.99 113.23C37.17 114.22 38.02 115.28 38.57 116.38C39.1 117.48 39.39 118.57 39.39 119.62C39.39 120.58 39.05 121.44 38.37 122.22C37.69 122.99 36.84 123.38 35.82 123.38C34.89 123.38 34.2 123.15 33.72 122.7C33.24 122.24 32.72 121.47 32.17 120.44C31.44 118.94 30.58 117.77 29.55 116.91C28.53 116.07 26.91 115.64 24.65 115.64C22.57 115.64 20.89 116.09 19.62 117.01C18.34 117.92 17.7 119.02 17.7 120.31C17.7 121.11 17.91 121.79 18.34 122.38C18.77 122.95 19.37 123.45 20.14 123.88C20.91 124.29 21.67 124.63 22.46 124.86C23.24 125.09 24.53 125.43 26.31 125.89C28.56 126.42 30.59 126.99 32.4 127.64C34.22 128.26 35.77 129.05 37.05 129.96C38.33 130.85 39.31 132.01 40.04 133.38C40.75 134.77 41.11 136.46 41.11 138.48L41.13 138.44H41.12ZM66.69 146.87V145.91C65.8 147.03 64.87 147.98 63.89 148.74C62.91 149.51 61.86 150.06 60.7 150.43C59.54 150.8 58.22 150.98 56.74 150.98C54.94 150.98 53.34 150.61 51.91 149.88C50.48 149.13 49.4 148.12 48.61 146.82C47.68 145.25 47.22 142.99 47.22 140.03V125.35C47.22 123.85 47.56 122.75 48.22 122.02C48.88 121.29 49.77 120.92 50.88 120.92C51.99 120.92 52.89 121.29 53.59 122.02C54.27 122.77 54.62 123.87 54.62 125.33V137.2C54.62 138.91 54.76 140.35 55.05 141.53C55.34 142.71 55.85 143.61 56.6 144.27C57.35 144.93 58.36 145.27 59.66 145.27C60.96 145.27 62.08 144.9 63.19 144.17C64.29 143.42 65.1 142.46 65.61 141.27C66.02 140.22 66.23 137.92 66.23 134.37V125.35C66.23 123.87 66.57 122.77 67.26 122.04C67.95 121.29 68.85 120.94 69.95 120.94C71.05 120.94 71.95 121.31 72.61 122.04C73.29 122.77 73.63 123.88 73.63 125.37V146.84C73.63 148.25 73.31 149.3 72.67 150.01C72.03 150.72 71.19 151.06 70.18 151.06C69.17 151.06 68.33 150.69 67.67 149.96C67.01 149.23 66.67 148.2 66.67 146.88H66.69V146.87ZM87.89 114.14V125.47C89.28 124.01 90.71 122.9 92.15 122.14C93.59 121.37 95.39 120.98 97.53 120.98C99.99 120.98 102.16 121.57 104.02 122.73C105.87 123.91 107.32 125.6 108.33 127.81C109.36 130.02 109.86 132.66 109.86 135.7C109.86 137.95 109.57 139.99 109 141.87C108.43 143.74 107.59 145.38 106.52 146.75C105.43 148.14 104.11 149.19 102.56 149.94C101.01 150.69 99.3 151.06 97.45 151.06C96.31 151.06 95.24 150.92 94.22 150.65C93.22 150.38 92.35 150.03 91.65 149.58C90.94 149.15 90.35 148.69 89.85 148.21C89.35 147.75 88.69 147.03 87.89 146.09V146.82C87.89 148.21 87.55 149.26 86.89 149.97C86.21 150.68 85.36 151.04 84.32 151.04C83.28 151.04 82.43 150.68 81.81 149.97C81.19 149.26 80.87 148.21 80.87 146.82V114.46C80.87 112.96 81.17 111.82 81.78 111.06C82.39 110.3 83.24 109.9 84.33 109.9C85.47 109.9 86.34 110.27 86.97 111C87.6 111.73 87.9 112.78 87.9 114.14H87.88H87.89ZM88.25 136.16C88.25 139.1 88.93 141.36 90.26 142.95C91.61 144.54 93.38 145.32 95.57 145.32C97.44 145.32 99.04 144.52 100.4 142.9C101.74 141.28 102.41 138.96 102.41 135.93C102.41 133.99 102.12 132.29 101.57 130.89C101.02 129.49 100.22 128.4 99.18 127.61C98.15 126.84 96.95 126.45 95.56 126.45C94.17 126.45 92.9 126.82 91.8 127.61C90.7 128.38 89.82 129.5 89.2 130.94C88.56 132.4 88.24 134.13 88.24 136.14V136.16H88.25ZM135.95 129.42L122.37 144.6H136.89C138.07 144.6 138.96 144.89 139.55 145.42C140.16 145.97 140.44 146.69 140.44 147.56C140.44 148.43 140.14 149.07 139.57 149.59C138.98 150.12 138.09 150.37 136.9 150.37H116.8C115.39 150.37 114.34 150.07 113.65 149.44C112.96 148.83 112.6 147.98 112.6 146.93C112.6 146.31 112.85 145.66 113.33 145.01C113.83 144.37 114.83 143.19 116.38 141.46C118.02 139.66 119.5 138 120.82 136.54C122.16 135.08 123.39 133.71 124.53 132.42C125.67 131.15 126.61 130.07 127.36 129.18C128.11 128.29 128.71 127.52 129.16 126.9H118.13C116.62 126.9 115.46 126.76 114.67 126.49C113.88 126.22 113.49 125.51 113.49 124.35C113.49 123.51 113.78 122.82 114.36 122.32C114.95 121.8 115.79 121.55 116.87 121.55H133.91C135.48 121.55 136.69 121.78 137.53 122.24C138.37 122.69 138.8 123.52 138.8 124.72C138.8 125.11 138.71 125.54 138.55 125.95C138.39 126.38 138.21 126.73 138 127C137.8 127.27 137.52 127.61 137.18 128C136.84 128.39 136.41 128.86 135.91 129.41H135.96L135.95 129.42ZM152.18 125.13V146.57C152.18 148.05 151.82 149.17 151.13 149.94C150.42 150.71 149.54 151.08 148.46 151.08C147.38 151.08 146.5 150.69 145.82 149.9C145.14 149.12 144.8 148.01 144.8 146.57V125.37C144.8 123.89 145.14 122.79 145.82 122.06C145.93 121.94 146.05 121.83 146.18 121.72L147.27 124.3C147.38 124.55 147.54 124.75 147.73 124.87C147.92 124.99 148.16 125.07 148.39 125.05C148.62 125.05 148.84 124.98 149.03 124.85C149.22 124.72 149.37 124.55 149.48 124.3L150.64 121.61C150.82 121.73 151 121.9 151.16 122.06C151.87 122.81 152.21 123.84 152.21 125.16L152.19 125.14L152.18 125.13ZM159.86 146.57V114.42C159.86 112.94 160.2 111.82 160.86 111.05C161.52 110.28 162.41 109.91 163.53 109.91C164.65 109.91 165.54 110.28 166.24 111.03C166.93 111.78 167.27 112.9 167.27 114.4V146.55C167.27 148.05 166.91 149.17 166.22 149.92C165.53 150.67 164.63 151.04 163.53 151.04C162.43 151.04 161.57 150.65 160.89 149.86C160.21 149.08 159.87 147.97 159.87 146.53L159.85 146.57H159.86ZM174.94 146.57V114.42C174.94 112.94 175.28 111.82 175.94 111.05C176.6 110.28 177.49 109.91 178.61 109.91C179.73 109.91 180.62 110.28 181.32 111.03C182 111.78 182.35 112.9 182.35 114.4V146.55C182.35 148.05 181.99 149.17 181.3 149.92C180.61 150.67 179.71 151.04 178.61 151.04C177.51 151.04 176.65 150.65 175.97 149.86C175.29 149.08 174.95 147.97 174.95 146.53L174.93 146.57H174.94ZM217.76 136C217.76 138.21 217.42 140.24 216.73 142.11C216.04 143.98 215.04 145.58 213.74 146.9C212.44 148.24 210.87 149.27 209.07 149.98C207.27 150.69 205.22 151.05 202.96 151.05C200.7 151.05 198.68 150.69 196.9 149.96C195.12 149.23 193.55 148.2 192.23 146.84C190.93 145.5 189.91 143.9 189.24 142.06C188.56 140.21 188.22 138.19 188.22 135.97C188.22 133.75 188.56 131.68 189.25 129.8C189.94 127.93 190.93 126.34 192.21 125.02C193.49 123.7 195.06 122.69 196.88 121.97C198.7 121.26 200.73 120.9 202.94 120.9C205.15 120.9 207.22 121.26 209.05 121.99C210.87 122.72 212.44 123.75 213.75 125.09C215.05 126.43 216.05 128.01 216.73 129.87C217.41 131.73 217.75 133.75 217.75 135.98H217.77L217.76 136ZM210.31 136C210.31 132.97 209.65 130.64 208.31 128.94C206.97 127.26 205.19 126.43 202.95 126.43C201.49 126.43 200.22 126.8 199.12 127.55C198.02 128.3 197.16 129.42 196.57 130.88C195.96 132.34 195.68 134.05 195.68 136.01C195.68 137.97 195.98 139.65 196.55 141.09C197.14 142.53 197.98 143.66 199.06 144.42C200.14 145.18 201.45 145.58 202.93 145.58C205.18 145.58 206.96 144.74 208.29 143.03C209.61 141.34 210.29 139 210.29 136.01L210.31 135.99V136Z" fill="#0F192E"/>
<path fill-rule="evenodd" clip-rule="evenodd" d="M148.62 110.09L150.08 113.56C150.4 114.34 151.06 114.99 151.88 115.27L155.27 116.73C155.54 116.82 155.54 117.16 155.27 117.25L151.8 118.71C151.02 119.03 150.37 119.69 150.09 120.51L148.63 123.9C148.54 124.17 148.2 124.17 148.11 123.9L146.65 120.43C146.33 119.65 145.67 119 144.85 118.72L141.46 117.26C141.19 117.17 141.19 116.83 141.46 116.74L144.93 115.28C145.71 114.96 146.36 114.3 146.64 113.48L148.1 110.09C148.19 109.82 148.53 109.82 148.62 110.09Z" fill="black"/>
<defs>
<linearGradient id="paint0_linear_213_2627" x1="122" y1="19.5" x2="113" y2="12" gradientUnits="userSpaceOnUse">
<stop stop-color="#A719DD"/>
<stop offset="1" stop-color="#4489EB"/>
</linearGradient>
<linearGradient id="paint1_linear_213_2627" x1="98.0002" y1="60" x2="112" y2="71.5" gradientUnits="userSpaceOnUse">
<stop stop-color="#A719DD"/>
<stop offset="1" stop-color="#4489EB"/>
</linearGradient>
</defs>
</svg>
