<svg width="20" height="20" viewBox="0 0 20 20" fill="none" xmlns="http://www.w3.org/2000/svg">
<path d="M11.225 6.27575C11.3422 6.39279 11.501 6.45854 11.6666 6.45854C11.8323 6.45854 11.9911 6.39279 12.1083 6.27575L12.7083 5.67575V14.1674C12.7083 14.3332 12.7741 14.4922 12.8914 14.6094C13.0086 14.7266 13.1675 14.7924 13.3333 14.7924C13.4991 14.7924 13.658 14.7266 13.7752 14.6094C13.8925 14.4922 13.9583 14.3332 13.9583 14.1674V5.67575L14.5583 6.27575C14.6155 6.33716 14.6845 6.38641 14.7612 6.42057C14.8378 6.45473 14.9206 6.4731 15.0045 6.47458C15.0884 6.47606 15.1718 6.46062 15.2496 6.42919C15.3275 6.39775 15.3981 6.35097 15.4575 6.29162C15.5168 6.23227 15.5636 6.16157 15.5951 6.08375C15.6265 6.00593 15.6419 5.92257 15.6405 5.83865C15.639 5.75473 15.6206 5.67197 15.5864 5.5953C15.5523 5.51864 15.503 5.44964 15.4416 5.39242L13.775 3.72575C13.6578 3.60871 13.4989 3.54297 13.3333 3.54297C13.1677 3.54297 13.0088 3.60871 12.8916 3.72575L11.225 5.39242C11.1079 5.50961 11.0422 5.66846 11.0422 5.83409C11.0422 5.99971 11.1079 6.15856 11.225 6.27575ZM7.29163 14.3258L7.89163 13.7258C7.94885 13.6643 8.01785 13.6151 8.09452 13.5809C8.17118 13.5468 8.25394 13.5284 8.33786 13.5269C8.42178 13.5254 8.50514 13.5409 8.58296 13.5723C8.66079 13.6038 8.73148 13.6505 8.79083 13.7099C8.85018 13.7692 8.89697 13.8399 8.9284 13.9178C8.95984 13.9956 8.97527 14.0789 8.97379 14.1629C8.97231 14.2468 8.95394 14.3295 8.91978 14.4062C8.88562 14.4829 8.83637 14.5519 8.77496 14.6091L7.1083 16.2758C6.99111 16.3928 6.83226 16.4585 6.66663 16.4585C6.50101 16.4585 6.34215 16.3928 6.22496 16.2758L4.5583 14.6091C4.49689 14.5519 4.44764 14.4829 4.41348 14.4062C4.37932 14.3295 4.36095 14.2468 4.35947 14.1629C4.35799 14.0789 4.37343 13.9956 4.40486 13.9178C4.4363 13.8399 4.48308 13.7692 4.54243 13.7099C4.60178 13.6505 4.67248 13.6038 4.7503 13.5723C4.82812 13.5409 4.91148 13.5254 4.9954 13.5269C5.07932 13.5284 5.16208 13.5468 5.23875 13.5809C5.31541 13.6151 5.38441 13.6643 5.44163 13.7258L6.04163 14.3258V5.83409C6.04163 5.66833 6.10748 5.50935 6.22469 5.39214C6.3419 5.27493 6.50087 5.20909 6.66663 5.20909C6.83239 5.20909 6.99136 5.27493 7.10857 5.39214C7.22578 5.50935 7.29163 5.66833 7.29163 5.83409V14.3258Z" fill="#3260BB"/>
</svg>
