<svg width="100" height="100" viewBox="0 0 100 100" fill="none" xmlns="http://www.w3.org/2000/svg">
<path d="M57.3304 54.2627C61.6297 54.2856 65.7473 56.004 68.7875 59.0439C71.8275 62.084 73.5456 66.2009 73.5687 70.5C73.587 73.9282 72.5245 77.253 70.5687 80.0176L78.5892 88.0371C79.608 89.0559 79.6079 90.7086 78.5892 91.7275C77.5704 92.7464 75.9177 92.7464 74.8988 91.7275L66.9125 83.7412C65.8908 84.4917 64.7838 85.1236 63.6117 85.6201C61.6243 86.4619 59.4888 86.9006 57.3304 86.9121C55.1725 86.9235 53.0334 86.507 51.0375 85.6865C49.0413 84.8658 47.2267 83.658 45.7006 82.1318C44.1743 80.6056 42.9656 78.7912 42.1449 76.7949C41.3243 74.7987 40.9078 72.6583 40.9193 70.5C40.9309 68.342 41.3706 66.2078 42.2123 64.2207C43.0542 62.2333 44.2822 60.4318 45.8246 58.9219C48.8968 55.9146 53.0314 54.24 57.3304 54.2627ZM47.889 7.50781C50.3082 7.50785 52.6536 8.34408 54.5267 9.875C56.3998 11.406 57.6859 13.5384 58.1674 15.9092H70.9359C72.0483 15.9093 73.1161 16.3511 73.9027 17.1377C74.6893 17.9244 75.1312 18.992 75.1312 20.1045V55.5107C75.1312 56.4124 74.0375 56.9047 73.3129 56.3682C72.1167 55.4825 70.8278 54.7149 69.4633 54.083C69.0867 53.9087 68.8374 53.536 68.8373 53.1211V22.2021H58.3773V28.4951H37.4008V22.2021H26.9398V78.7021H37.8217C38.3102 78.7021 38.7299 79.044 38.85 79.5176C39.1923 80.87 39.6594 82.1733 40.2386 83.4131C40.5748 84.1328 40.0701 84.9951 39.2758 84.9951H24.8422C23.7296 84.9951 22.6621 84.5533 21.8754 83.7666C21.0887 82.9799 20.6469 81.9124 20.6469 80.7998V20.1045C20.6469 18.992 21.0889 17.9244 21.8754 17.1377C22.6621 16.3512 23.7297 15.9092 24.8422 15.9092H37.6107C38.0922 13.5383 39.3791 11.4061 41.2523 9.875C43.1254 8.34428 45.47 7.50784 47.889 7.50781ZM57.3031 59.4814C54.3782 59.466 51.5652 60.6044 49.475 62.6504C48.4256 63.6777 47.5898 64.9037 47.017 66.2559C46.4443 67.6078 46.1459 69.0601 46.1381 70.5283C46.1302 71.9968 46.4137 73.4533 46.972 74.8115C47.5304 76.1695 48.3527 77.4032 49.391 78.4414C50.4293 79.4797 51.6628 80.302 53.0209 80.8604C54.379 81.4187 55.8347 81.7021 57.3031 81.6943C58.7715 81.6865 60.2244 81.3881 61.5765 80.8154C62.9301 80.242 64.1558 79.4077 65.182 78.3594C67.2279 76.2693 68.3665 73.4537 68.351 70.5283C68.3353 67.6033 67.1663 64.8027 65.098 62.7344C63.0296 60.6659 60.2283 59.497 57.3031 59.4814ZM47.889 13.8115C46.7766 13.8116 45.7099 14.2536 44.9232 15.04C44.1365 15.8268 43.6937 16.8942 43.6937 18.0068C43.6938 19.1193 44.1366 20.186 44.9232 20.9727C45.7099 21.7592 46.7765 22.2021 47.889 22.2021C49.0016 22.2021 50.0681 21.7593 50.8549 20.9727C51.6415 20.186 52.0843 19.1194 52.0844 18.0068C52.0843 16.8942 51.6416 15.8268 50.8549 15.04C50.0682 14.2535 49.0015 13.8116 47.889 13.8115Z" fill="url(#paint0_linear_63211_19422)"/>
<defs>
<linearGradient id="paint0_linear_63211_19422" x1="73.238" y1="-11.9677" x2="73.238" y2="92.4917" gradientUnits="userSpaceOnUse">
<stop stop-color="#A719DD"/>
<stop offset="0.630117" stop-color="#623BD8"/>
<stop offset="1" stop-color="#4489EB"/>
</linearGradient>
</defs>
</svg>
