<svg width="24" height="24" viewBox="0 0 24 24" fill="none" xmlns="http://www.w3.org/2000/svg">
<path fill-rule="evenodd" clip-rule="evenodd" d="M6.64014 9.78798C6.83209 9.83954 6.99573 9.96518 7.0951 10.1373C7.19448 10.3094 7.22147 10.514 7.17014 10.706C6.91419 11.6612 6.94725 12.6709 7.26516 13.6074C7.58307 14.5438 8.17153 15.365 8.95614 15.967C9.74075 16.569 10.6862 16.9248 11.6731 16.9894C12.6599 17.054 13.6437 16.8245 14.5001 16.33C14.5855 16.2807 14.6797 16.2488 14.7774 16.236C14.8751 16.2231 14.9744 16.2297 15.0696 16.2552C15.1648 16.2807 15.254 16.3248 15.3322 16.3848C15.4103 16.4448 15.4759 16.5196 15.5251 16.605C15.5744 16.6903 15.6063 16.7846 15.6192 16.8823C15.632 16.98 15.6255 17.0793 15.5999 17.1744C15.5744 17.2696 15.5304 17.3588 15.4703 17.437C15.4103 17.5152 15.3355 17.5807 15.2501 17.63C14.1367 18.2725 12.8578 18.5704 11.575 18.4862C10.2922 18.402 9.06326 17.9393 8.04339 17.1567C7.02353 16.3741 6.25858 15.3068 5.84523 14.0895C5.43188 12.8722 5.3887 11.5598 5.72114 10.318C5.74667 10.2228 5.79069 10.1336 5.85069 10.0555C5.91069 9.97736 5.9855 9.91181 6.07084 9.86259C6.15619 9.81338 6.25039 9.78145 6.34807 9.76865C6.44575 9.75585 6.545 9.76242 6.64014 9.78798ZM8.75014 6.36998C9.86354 5.72697 11.1426 5.4286 12.4256 5.51261C13.7086 5.59663 14.9378 6.05925 15.9579 6.84196C16.9779 7.62468 17.7429 8.69232 18.1561 9.90985C18.5693 11.1274 18.6121 12.4401 18.2791 13.682C18.2277 13.8743 18.102 14.0382 17.9296 14.1378C17.7573 14.2374 17.5524 14.2644 17.3601 14.213C17.1679 14.1615 17.0039 14.0358 16.9043 13.8635C16.8047 13.6911 16.7777 13.4863 16.8291 13.294C17.0844 12.339 17.0509 11.3297 16.7329 10.3937C16.4148 9.45771 15.8265 8.63697 15.0422 8.03516C14.258 7.43335 13.313 7.07746 12.3265 7.01247C11.3401 6.94747 10.3566 7.17628 9.50014 7.66998C9.32775 7.76944 9.12291 7.79634 8.93069 7.74476C8.73846 7.69319 8.5746 7.56737 8.47514 7.39498C8.37569 7.22259 8.34878 7.01775 8.40036 6.82553C8.45193 6.6333 8.57775 6.46944 8.75014 6.36998Z" fill="#7C5CFF"/>
<path fill-rule="evenodd" clip-rule="evenodd" d="M5.72082 9.46995C5.86145 9.3295 6.05207 9.25061 6.25082 9.25061C6.44957 9.25061 6.6402 9.3295 6.78082 9.46995L9.28082 11.97C9.35451 12.0386 9.41361 12.1214 9.4546 12.2134C9.4956 12.3054 9.51764 12.4047 9.51941 12.5054C9.52119 12.6061 9.50267 12.7062 9.46495 12.7995C9.42722 12.8929 9.37108 12.9778 9.29986 13.049C9.22864 13.1202 9.14381 13.1764 9.05042 13.2141C8.95703 13.2518 8.857 13.2703 8.7563 13.2685C8.6556 13.2668 8.55628 13.2447 8.46428 13.2037C8.37229 13.1627 8.28949 13.1036 8.22082 13.03L6.25082 11.06L4.28082 13.03C4.13865 13.1624 3.9506 13.2346 3.7563 13.2311C3.562 13.2277 3.37661 13.149 3.2392 13.0116C3.10179 12.8742 3.02308 12.6888 3.01965 12.4945C3.01622 12.3002 3.08834 12.1121 3.22082 11.97L5.72082 9.46995ZM14.7208 10.97C14.8614 10.8295 15.0521 10.7506 15.2508 10.7506C15.4496 10.7506 15.6402 10.8295 15.7808 10.97L17.7508 12.9399L19.7208 10.97C19.7895 10.8963 19.8723 10.8372 19.9643 10.7962C20.0563 10.7552 20.1556 10.7331 20.2563 10.7314C20.357 10.7296 20.457 10.7481 20.5504 10.7858C20.6438 10.8235 20.7286 10.8797 20.7999 10.9509C20.8711 11.0221 20.9272 11.107 20.9649 11.2004C21.0027 11.2937 21.0212 11.3938 21.0194 11.4945C21.0176 11.5952 20.9956 11.6945 20.9546 11.7865C20.9136 11.8785 20.8545 11.9613 20.7808 12.03L18.2808 14.53C18.1402 14.6704 17.9496 14.7493 17.7508 14.7493C17.5521 14.7493 17.3614 14.6704 17.2208 14.53L14.7208 12.03C14.5804 11.8893 14.5015 11.6987 14.5015 11.5C14.5015 11.3012 14.5804 11.1106 14.7208 10.97Z" fill="#7C5CFF"/>
</svg>
