<svg width="42" height="42" viewBox="0 0 42 42" fill="none" xmlns="http://www.w3.org/2000/svg">
<path d="M26.25 10.5C26.25 7.60051 23.8995 5.25 21 5.25C18.1005 5.25 15.75 7.60051 15.75 10.5V21C15.75 23.8995 18.1005 26.25 21 26.25C23.8995 26.25 26.25 23.8995 26.25 21V10.5Z" stroke="white" stroke-width="2.8" stroke-linecap="round" stroke-linejoin="round"/>
<path d="M8.75 19.25C8.75 22.4989 10.0406 25.6147 12.3379 27.9121C14.6353 30.2094 17.7511 31.5 21 31.5M21 31.5C24.2489 31.5 27.3647 30.2094 29.6621 27.9121C31.9594 25.6147 33.25 22.4989 33.25 19.25M21 31.5V36.75" stroke="white" stroke-width="2.8" stroke-linecap="round" stroke-linejoin="round"/>
</svg>
