<svg width="80" height="80" viewBox="0 0 80 80" fill="none" xmlns="http://www.w3.org/2000/svg">
<path d="M26.6667 53.3333C26.6667 51.5652 27.369 49.8695 28.6193 48.6193C29.8695 47.369 31.5652 46.6667 33.3333 46.6667H46.6667C48.4348 46.6667 50.1305 47.369 51.3807 48.6193C52.631 49.8695 53.3333 51.5652 53.3333 53.3333M10 23.3333V16.6667C10 14.8986 10.7024 13.2029 11.9526 11.9526C13.2029 10.7024 14.8986 10 16.6667 10H23.3333M10 56.6667V63.3333C10 65.1014 10.7024 66.7971 11.9526 68.0474C13.2029 69.2976 14.8986 70 16.6667 70H23.3333M56.6667 10H63.3333C65.1014 10 66.7971 10.7024 68.0474 11.9526C69.2976 13.2029 70 14.8986 70 16.6667V23.3333M56.6667 70H63.3333C65.1014 70 66.7971 69.2976 68.0474 68.0474C69.2976 66.7971 70 65.1014 70 63.3333V56.6667M33.3333 30C33.3333 31.7681 34.0357 33.4638 35.286 34.714C36.5362 35.9643 38.2319 36.6667 40 36.6667C41.7681 36.6667 43.4638 35.9643 44.714 34.714C45.9643 33.4638 46.6667 31.7681 46.6667 30C46.6667 28.2319 45.9643 26.5362 44.714 25.286C43.4638 24.0357 41.7681 23.3333 40 23.3333C38.2319 23.3333 36.5362 24.0357 35.286 25.286C34.0357 26.5362 33.3333 28.2319 33.3333 30Z" stroke="url(#paint0_linear_2295_4117)" stroke-width="4" stroke-linecap="round" stroke-linejoin="round"/>
<defs>
<linearGradient id="paint0_linear_2295_4117" x1="18.8531" y1="-11.6037" x2="91.2783" y2="18.0758" gradientUnits="userSpaceOnUse">
<stop stop-color="#A719DD"/>
<stop offset="1" stop-color="#4489EB"/>
</linearGradient>
</defs>
</svg>
