<svg width="18" height="18" viewBox="0 0 18 18" fill="none" xmlns="http://www.w3.org/2000/svg">
<g clip-path="url(#clip0_1909_7998)">
<mask id="path-1-inside-1_1909_7998" fill="white">
<path d="M8.41064 3.43799C8.41064 2.8857 7.96079 2.43084 7.41385 2.50747C6.34672 2.65699 5.32242 3.04533 4.41938 3.64872C3.23797 4.43812 2.31716 5.56012 1.77342 6.87284C1.22967 8.18556 1.0874 9.63004 1.3646 11.0236C1.6418 12.4172 2.32602 13.6973 3.33073 14.702C4.33544 15.7067 5.61552 16.3909 7.0091 16.6681C8.40268 16.9453 9.84715 16.803 11.1599 16.2593C12.4726 15.7156 13.5946 14.7947 14.384 13.6133C14.9874 12.7103 15.3757 11.686 15.5252 10.6189C15.6019 10.0719 15.147 9.62207 14.5947 9.62207H9.41064C8.85836 9.62207 8.41064 9.17436 8.41064 8.62207V3.43799Z"/>
</mask>
<path d="M8.41064 3.43799C8.41064 2.8857 7.96079 2.43084 7.41385 2.50747C6.34672 2.65699 5.32242 3.04533 4.41938 3.64872C3.23797 4.43812 2.31716 5.56012 1.77342 6.87284C1.22967 8.18556 1.0874 9.63004 1.3646 11.0236C1.6418 12.4172 2.32602 13.6973 3.33073 14.702C4.33544 15.7067 5.61552 16.3909 7.0091 16.6681C8.40268 16.9453 9.84715 16.803 11.1599 16.2593C12.4726 15.7156 13.5946 14.7947 14.384 13.6133C14.9874 12.7103 15.3757 11.686 15.5252 10.6189C15.6019 10.0719 15.147 9.62207 14.5947 9.62207H9.41064C8.85836 9.62207 8.41064 9.17436 8.41064 8.62207V3.43799Z" stroke="#E0A218" stroke-width="2.14" stroke-linejoin="round" mask="url(#path-1-inside-1_1909_7998)"/>
<mask id="path-2-inside-2_1909_7998" fill="white">
<path d="M15.8692 8.86178C16.4213 8.85012 16.8662 8.39099 16.7819 7.84519C16.6817 7.1966 16.4972 6.56239 16.2322 5.9589C15.8328 5.04944 15.2582 4.22755 14.5411 3.54016C13.8241 2.85277 12.9787 2.31334 12.0532 1.95268C11.439 1.71335 10.7976 1.55585 10.1454 1.48308C9.59647 1.42185 9.15654 1.88575 9.16819 2.43791L9.28563 8.00055C9.29729 8.55271 9.75436 8.99087 10.3065 8.97922L15.8692 8.86178Z"/>
</mask>
<path d="M15.8692 8.86178C16.4213 8.85012 16.8662 8.39099 16.7819 7.84519C16.6817 7.1966 16.4972 6.56239 16.2322 5.9589C15.8328 5.04944 15.2582 4.22755 14.5411 3.54016C13.8241 2.85277 12.9787 2.31334 12.0532 1.95268C11.439 1.71335 10.7976 1.55585 10.1454 1.48308C9.59647 1.42185 9.15654 1.88575 9.16819 2.43791L9.28563 8.00055C9.29729 8.55271 9.75436 8.99087 10.3065 8.97922L15.8692 8.86178Z" stroke="#E0A218" stroke-width="2.14" stroke-linejoin="round" mask="url(#path-2-inside-2_1909_7998)"/>
</g>
<defs>
<clipPath id="clip0_1909_7998">
<rect width="18" height="18" fill="white"/>
</clipPath>
</defs>
</svg>
