<svg width="40" height="40" viewBox="0 0 40 40" fill="none" xmlns="http://www.w3.org/2000/svg">
<path fill-rule="evenodd" clip-rule="evenodd" d="M14.9993 12.0846C13.3885 12.0846 12.0827 13.3905 12.0827 15.0013C12.0827 16.6121 13.3885 17.918 14.9993 17.918C16.6102 17.918 17.916 16.6121 17.916 15.0013C17.916 13.3905 16.6102 12.0846 14.9993 12.0846ZM14.5827 15.0013C14.5827 14.7712 14.7692 14.5846 14.9993 14.5846C15.2295 14.5846 15.416 14.7712 15.416 15.0013C15.416 15.2314 15.2295 15.418 14.9993 15.418C14.7692 15.418 14.5827 15.2314 14.5827 15.0013Z" fill="url(#paint0_linear_62507_14304)"/>
<path d="M27.5499 14.2185C28.0381 13.7304 28.0381 12.9389 27.5499 12.4508C27.0617 11.9626 26.2703 11.9626 25.7821 12.4508L12.4488 25.7841C11.9606 26.2722 11.9606 27.0637 12.4488 27.5518C12.937 28.04 13.7284 28.04 14.2166 27.5518L27.5499 14.2185Z" fill="url(#paint1_linear_62507_14304)"/>
<path fill-rule="evenodd" clip-rule="evenodd" d="M24.9993 21.7986C23.3885 21.7986 22.0827 23.1044 22.0827 24.7152C22.0827 26.3261 23.3885 27.6319 24.9993 27.6319C26.6102 27.6319 27.916 26.3261 27.916 24.7152C27.916 23.1044 26.6102 21.7986 24.9993 21.7986ZM24.5827 24.7152C24.5827 24.4851 24.7692 24.2986 24.9993 24.2986C25.2295 24.2986 25.416 24.4851 25.416 24.7152C25.416 24.9454 25.2295 25.1319 24.9993 25.1319C24.7692 25.1319 24.5827 24.9454 24.5827 24.7152Z" fill="url(#paint2_linear_62507_14304)"/>
<path fill-rule="evenodd" clip-rule="evenodd" d="M20.0946 2.91797H19.9041C16.2529 2.91795 13.3851 2.91793 11.1461 3.21896C8.85163 3.52744 7.0312 4.17249 5.60087 5.60282C4.17054 7.03315 3.52548 8.85358 3.21701 11.148C2.91598 13.387 2.91599 16.2548 2.91602 19.906V20.0966C2.91599 23.7478 2.91598 26.6156 3.21701 28.8546C3.52548 31.149 4.17054 32.9694 5.60087 34.3998C7.0312 35.8301 8.85163 36.4752 11.1461 36.7836C13.3851 37.0847 16.2529 37.0847 19.904 37.0846H20.0946C23.7458 37.0847 26.6136 37.0847 28.8526 36.7836C31.1471 36.4752 32.9675 35.8301 34.3978 34.3998C35.8282 32.9694 36.4732 31.149 36.7817 28.8546C37.0827 26.6156 37.0827 23.7478 37.0827 20.0966V19.906C37.0827 16.2549 37.0827 13.387 36.7817 11.148C36.4732 8.85358 35.8282 7.03315 34.3978 5.60282C32.9675 4.17249 31.1471 3.52744 28.8526 3.21896C26.6136 2.91793 23.7458 2.91795 20.0946 2.91797ZM7.36864 7.37059C8.25705 6.48218 9.46197 5.96787 11.4792 5.69667C13.5323 5.42062 16.2321 5.41797 19.9993 5.41797C23.7666 5.41797 26.4664 5.42062 28.5195 5.69667C30.5367 5.96787 31.7416 6.48218 32.6301 7.37059C33.5185 8.259 34.0328 9.46392 34.304 11.4811C34.58 13.5343 34.5827 16.234 34.5827 20.0013C34.5827 23.7686 34.58 26.4683 34.304 28.5215C34.0328 30.5387 33.5185 31.7436 32.6301 32.632C31.7416 33.5204 30.5367 34.0347 28.5195 34.3059C26.4664 34.582 23.7666 34.5846 19.9993 34.5846C16.2321 34.5846 13.5323 34.582 11.4792 34.3059C9.46197 34.0347 8.25705 33.5204 7.36864 32.632C6.48023 31.7436 5.96592 30.5387 5.69471 28.5215C5.41867 26.4683 5.41602 23.7686 5.41602 20.0013C5.41602 16.234 5.41867 13.5343 5.69471 11.4811C5.96592 9.46392 6.48023 8.259 7.36864 7.37059Z" fill="url(#paint3_linear_62507_14304)"/>
<defs>
<linearGradient id="paint0_linear_62507_14304" x1="3.76366" y1="37.0846" x2="37.0827" y2="37.0846" gradientUnits="userSpaceOnUse">
<stop stop-color="#A719DD"/>
<stop offset="0.45" stop-color="#623BD8"/>
<stop offset="1" stop-color="#4489EB"/>
</linearGradient>
<linearGradient id="paint1_linear_62507_14304" x1="3.76366" y1="37.0846" x2="37.0827" y2="37.0846" gradientUnits="userSpaceOnUse">
<stop stop-color="#A719DD"/>
<stop offset="0.45" stop-color="#623BD8"/>
<stop offset="1" stop-color="#4489EB"/>
</linearGradient>
<linearGradient id="paint2_linear_62507_14304" x1="3.76366" y1="37.0846" x2="37.0827" y2="37.0846" gradientUnits="userSpaceOnUse">
<stop stop-color="#A719DD"/>
<stop offset="0.45" stop-color="#623BD8"/>
<stop offset="1" stop-color="#4489EB"/>
</linearGradient>
<linearGradient id="paint3_linear_62507_14304" x1="3.76366" y1="37.0846" x2="37.0827" y2="37.0846" gradientUnits="userSpaceOnUse">
<stop stop-color="#A719DD"/>
<stop offset="0.45" stop-color="#623BD8"/>
<stop offset="1" stop-color="#4489EB"/>
</linearGradient>
</defs>
</svg>
