<svg width="16" height="16" viewBox="0 0 16 16" fill="none" xmlns="http://www.w3.org/2000/svg">
<path d="M2.66675 4.6665H13.3334M6.66675 7.33317V11.3332M9.33341 7.33317V11.3332" stroke="#E43C5C" stroke-width="1.06667" stroke-linecap="round" stroke-linejoin="round"/>
<path d="M4 4.6665L4.66667 13.3332C4.66667 13.6868 4.80714 14.0259 5.05719 14.276C5.30724 14.526 5.64638 14.6665 6 14.6665H10C10.3536 14.6665 10.6928 14.526 10.9428 14.276C11.1929 14.0259 11.3333 13.6868 11.3333 13.3332L12 4.6665" stroke="#E43C5C" stroke-width="1.06667" stroke-linecap="round" stroke-linejoin="round"/>
<path d="M6 4.66667V2.66667C6 2.48986 6.07024 2.32029 6.19526 2.19526C6.32029 2.07024 6.48986 2 6.66667 2H9.33333C9.51014 2 9.67971 2.07024 9.80474 2.19526C9.92976 2.32029 10 2.48986 10 2.66667V4.66667" stroke="#E43C5C" stroke-width="1.06667" stroke-linecap="round" stroke-linejoin="round"/>
</svg>
