<svg width="24" height="24" viewBox="0 0 24 24" fill="none" xmlns="http://www.w3.org/2000/svg">
<path fill-rule="evenodd" clip-rule="evenodd" d="M6.06549 6.40893C4.92914 7.54519 4.38954 9.4462 4.38954 12.6296C4.38954 15.8129 4.92914 17.714 6.06549 18.8502C7.20186 19.9865 9.10288 20.5259 12.2858 20.5259C15.4692 20.5259 17.3705 19.9865 18.507 18.8502C19.6434 17.7139 20.183 15.8129 20.183 12.6296C20.183 9.4462 19.6434 7.54521 18.507 6.40896C17.3705 5.27267 15.4692 4.73329 12.2858 4.73329C9.10288 4.73329 7.20186 5.27267 6.06549 6.40893ZM5.08298 5.42634C6.63143 3.87802 9.02593 3.34375 12.2858 3.34375C15.5461 3.34375 17.9409 3.87801 19.4894 5.42632C21.0381 6.97466 21.5726 9.36919 21.5726 12.6296C21.5726 15.8899 21.0381 18.2845 19.4894 19.8328C17.9409 21.3811 15.5461 21.9154 12.2858 21.9154C9.02593 21.9154 6.63143 21.3811 5.08298 19.8328C3.53451 18.2845 3 15.8899 3 12.6296C3 9.36919 3.53451 6.97467 5.08298 5.42634Z" fill="#AAB9CC"/>
<path fill-rule="evenodd" clip-rule="evenodd" d="M3.25488 9.43305C3.25488 9.04934 3.56594 8.73828 3.94965 8.73828H20.6315C21.0152 8.73828 21.3263 9.04934 21.3263 9.43305C21.3263 9.81676 21.0152 10.1278 20.6315 10.1278H3.94965C3.56594 10.1278 3.25488 9.81676 3.25488 9.43305Z" fill="#AAB9CC"/>
<path fill-rule="evenodd" clip-rule="evenodd" d="M15.6719 13.0795C15.6719 12.6958 15.9829 12.3848 16.3666 12.3848H16.375C16.7587 12.3848 17.0698 12.6958 17.0698 13.0795C17.0698 13.4632 16.7587 13.7743 16.375 13.7743H16.3666C15.9829 13.7743 15.6719 13.4632 15.6719 13.0795Z" fill="#AAB9CC"/>
<path fill-rule="evenodd" clip-rule="evenodd" d="M11.5957 13.0795C11.5957 12.6958 11.9068 12.3848 12.2905 12.3848H12.2988C12.6825 12.3848 12.9936 12.6958 12.9936 13.0795C12.9936 13.4632 12.6825 13.7743 12.2988 13.7743H12.2905C11.9068 13.7743 11.5957 13.4632 11.5957 13.0795Z" fill="#AAB9CC"/>
<path fill-rule="evenodd" clip-rule="evenodd" d="M7.5127 13.0795C7.5127 12.6958 7.82375 12.3848 8.20746 12.3848H8.2158C8.59951 12.3848 8.91057 12.6958 8.91057 13.0795C8.91057 13.4632 8.59951 13.7743 8.2158 13.7743H8.20746C7.82375 13.7743 7.5127 13.4632 7.5127 13.0795Z" fill="#AAB9CC"/>
<path fill-rule="evenodd" clip-rule="evenodd" d="M15.6719 16.6498C15.6719 16.2661 15.9829 15.9551 16.3666 15.9551H16.375C16.7587 15.9551 17.0698 16.2661 17.0698 16.6498C17.0698 17.0336 16.7587 17.3446 16.375 17.3446H16.3666C15.9829 17.3446 15.6719 17.0336 15.6719 16.6498Z" fill="#AAB9CC"/>
<path fill-rule="evenodd" clip-rule="evenodd" d="M11.5957 16.6498C11.5957 16.2661 11.9068 15.9551 12.2905 15.9551H12.2988C12.6825 15.9551 12.9936 16.2661 12.9936 16.6498C12.9936 17.0336 12.6825 17.3446 12.2988 17.3446H12.2905C11.9068 17.3446 11.5957 17.0336 11.5957 16.6498Z" fill="#AAB9CC"/>
<path fill-rule="evenodd" clip-rule="evenodd" d="M7.5127 16.6498C7.5127 16.2661 7.82375 15.9551 8.20746 15.9551H8.2158C8.59951 15.9551 8.91057 16.2661 8.91057 16.6498C8.91057 17.0336 8.59951 17.3446 8.2158 17.3446H8.20746C7.82375 17.3446 7.5127 17.0336 7.5127 16.6498Z" fill="#AAB9CC"/>
<path fill-rule="evenodd" clip-rule="evenodd" d="M15.9995 2C16.3832 2 16.6942 2.31106 16.6942 2.69477V5.71655C16.6942 6.10026 16.3832 6.41132 15.9995 6.41132C15.6157 6.41132 15.3047 6.10026 15.3047 5.71655V2.69477C15.3047 2.31106 15.6157 2 15.9995 2Z" fill="#AAB9CC"/>
<path fill-rule="evenodd" clip-rule="evenodd" d="M8.58149 2C8.9652 2 9.27626 2.31106 9.27626 2.69477V5.71655C9.27626 6.10026 8.9652 6.41132 8.58149 6.41132C8.19778 6.41132 7.88672 6.10026 7.88672 5.71655V2.69477C7.88672 2.31106 8.19778 2 8.58149 2Z" fill="#AAB9CC"/>
</svg>
