<svg width="84" height="84" viewBox="0 0 84 84" fill="none" xmlns="http://www.w3.org/2000/svg">
<path d="M20.125 31.5C20.125 19.4188 29.9188 9.625 42 9.625C54.0812 9.625 63.875 19.4188 63.875 31.5C63.875 39.8152 58.8739 47.1747 51.8075 52.0959C48.3625 54.4951 46.1309 57.604 45.0877 62.4473C43.4015 70.276 38.3538 74.375 32.5769 74.375C29.7812 74.375 27.7196 73.2135 26.2845 71.316C24.7943 69.3457 23.8942 66.4454 23.8942 63C23.8942 61.5503 22.719 60.375 21.2692 60.375C19.8195 60.375 18.6442 61.5503 18.6442 63C18.6442 67.2866 19.7551 71.3863 22.0972 74.483C24.4945 77.6525 28.0867 79.625 32.5769 79.625C41.3718 79.625 48.137 73.224 50.22 63.5527C50.9841 60.0051 52.4559 58.0421 54.8079 56.4041C62.8184 50.8253 69.125 42.031 69.125 31.5C69.125 16.5193 56.9807 4.375 42 4.375C27.0193 4.375 14.875 16.5193 14.875 31.5C14.875 32.9497 16.0503 34.125 17.5 34.125C18.9497 34.125 20.125 32.9497 20.125 31.5Z" fill="url(#paint0_linear_61011_22968)"/>
<path d="M35.7757 27.3968C34.816 29.3264 34.354 31.8166 34.1935 34.4248C39.038 35.5169 42.9024 39.4895 42.9024 44.625C42.9024 50.6846 37.5223 55.125 31.5 55.125C30.0503 55.125 28.875 53.9497 28.875 52.5C28.875 51.0503 30.0503 49.875 31.5 49.875C35.1729 49.875 37.6524 47.2639 37.6524 44.625C37.6524 41.9861 35.1729 39.375 31.5 39.375C30.0503 39.375 28.875 38.1997 28.875 36.75C28.875 33.108 29.2785 28.6708 31.075 25.0588C31.9937 23.2119 33.3118 21.509 35.1849 20.2758C37.0714 19.0338 39.3596 18.375 42.0329 18.375C45.9024 18.375 49.1036 19.8878 51.3768 22.4332C53.6051 24.9283 54.8159 28.2647 55.1156 31.8035C55.238 33.248 54.1661 34.5183 52.7215 34.6406C51.277 34.763 50.0067 33.6911 49.8844 32.2465C49.6577 29.5699 48.7681 27.3938 47.4611 25.9302C46.1989 24.517 44.4298 23.625 42.0329 23.625C40.2514 23.625 38.9956 24.0526 38.0719 24.6607C37.1348 25.2777 36.3766 26.1887 35.7757 27.3968Z" fill="url(#paint1_linear_61011_22968)"/>
<defs>
<linearGradient id="paint0_linear_61011_22968" x1="63.474" y1="-12.8698" x2="63.474" y2="79.625" gradientUnits="userSpaceOnUse">
<stop stop-color="#A719DD"/>
<stop offset="0.630117" stop-color="#623BD8"/>
<stop offset="1" stop-color="#4489EB"/>
</linearGradient>
<linearGradient id="paint1_linear_61011_22968" x1="63.474" y1="-12.8698" x2="63.474" y2="79.625" gradientUnits="userSpaceOnUse">
<stop stop-color="#A719DD"/>
<stop offset="0.630117" stop-color="#623BD8"/>
<stop offset="1" stop-color="#4489EB"/>
</linearGradient>
</defs>
</svg>
