<svg width="16" height="16" viewBox="0 0 16 16" fill="none" xmlns="http://www.w3.org/2000/svg">
<path d="M12.6667 4.6665H3.33333C2.59695 4.6665 2 5.26346 2 5.99984V11.9998C2 12.7362 2.59695 13.3332 3.33333 13.3332H12.6667C13.403 13.3332 14 12.7362 14 11.9998V5.99984C14 5.26346 13.403 4.6665 12.6667 4.6665Z" stroke="#7C5CFF" stroke-width="1.2" stroke-linecap="round" stroke-linejoin="round"/>
<path d="M5.3335 4.6665L6.66683 2.6665H9.3335L10.6668 4.6665" stroke="#7C5CFF" stroke-width="1.2" stroke-linecap="round" stroke-linejoin="round"/>
<path d="M7.99984 11.0002C9.2885 11.0002 10.3332 9.95549 10.3332 8.66683C10.3332 7.37816 9.2885 6.3335 7.99984 6.3335C6.71117 6.3335 5.6665 7.37816 5.6665 8.66683C5.6665 9.95549 6.71117 11.0002 7.99984 11.0002Z" stroke="#7C5CFF" stroke-width="1.2" stroke-linecap="round" stroke-linejoin="round"/>
</svg>
