<svg width="20" height="20" viewBox="0 0 20 20" fill="none" xmlns="http://www.w3.org/2000/svg">
<path fill-rule="evenodd" clip-rule="evenodd" d="M1.03906 9.99935C1.03906 14.9468 5.0499 18.9577 9.9974 18.9577C14.9449 18.9577 18.9557 14.9468 18.9557 9.99935C18.9557 5.05185 14.9449 1.04102 9.9974 1.04102C5.0499 1.04102 1.03906 5.05185 1.03906 9.99935ZM13.8941 6.88517C14.2332 7.19601 14.2557 7.7235 13.9449 8.06266L9.36157 13.0627C9.20824 13.2302 8.99239 13.3277 8.76573 13.3327C8.53823 13.3377 8.31906 13.2494 8.15822 13.0885L6.07489 11.0052C5.74906 10.6802 5.74906 10.1518 6.07489 9.82682C6.39989 9.50099 6.92823 9.50099 7.25323 9.82682L8.72156 11.2944L12.7166 6.93603C13.0274 6.59687 13.5549 6.57434 13.8941 6.88517Z" fill="#3260BB"/>
</svg>
