<svg width="24" height="24" viewBox="0 0 24 24" fill="none" xmlns="http://www.w3.org/2000/svg">
<path fill-rule="evenodd" clip-rule="evenodd" d="M8.5 6.25C7.25736 6.25 6.25 7.25736 6.25 8.5C6.25 9.74264 7.25736 10.75 8.5 10.75C9.74264 10.75 10.75 9.74264 10.75 8.5C10.75 7.25736 9.74264 6.25 8.5 6.25ZM7.75 8.5C7.75 8.08579 8.08579 7.75 8.5 7.75C8.91421 7.75 9.25 8.08579 9.25 8.5C9.25 8.91421 8.91421 9.25 8.5 9.25C8.08579 9.25 7.75 8.91421 7.75 8.5Z" fill="#4489EB"/>
<path fill-rule="evenodd" clip-rule="evenodd" d="M4.75 2C4.75 1.58579 4.41421 1.25 4 1.25C3.58579 1.25 3.25 1.58579 3.25 2V3.25H2C1.58579 3.25 1.25 3.58579 1.25 4C1.25 4.41421 1.58579 4.75 2 4.75L3.25 4.75L3.25 14.0549C3.24998 15.4225 3.24996 16.5248 3.36652 17.3918C3.48754 18.2919 3.74643 19.0497 4.34835 19.6517C4.95027 20.2536 5.70814 20.5125 6.60825 20.6335C7.47522 20.75 8.57754 20.75 9.94513 20.75H19.25V22C19.25 22.4142 19.5858 22.75 20 22.75C20.4142 22.75 20.75 22.4142 20.75 22V20.75H22C22.4142 20.75 22.75 20.4142 22.75 20C22.75 19.5858 22.4142 19.25 22 19.25H20.75L20.75 9.94513C20.75 8.57754 20.75 7.47522 20.6335 6.60825C20.5125 5.70814 20.2536 4.95027 19.6517 4.34835C19.0497 3.74643 18.2919 3.48754 17.3918 3.36652C16.5248 3.24996 15.4225 3.24998 14.0549 3.25L4.75 3.25V2ZM4.75 14V4.75L14 4.75C15.4354 4.75 16.4365 4.75159 17.1919 4.85315C17.9257 4.9518 18.3142 5.13225 18.591 5.40901C18.8678 5.68577 19.0482 6.07435 19.1469 6.80812C19.2484 7.56347 19.25 8.56459 19.25 10V14.0345C18.022 13.4937 16.8493 13.2498 15.7246 13.25C14.2641 13.2503 12.9338 13.6625 11.7181 14.2972C9.63892 15.3827 7.81407 17.1729 6.19228 18.7639L5.99413 18.9582C5.74158 18.8625 5.5589 18.7409 5.40901 18.591C5.13225 18.3142 4.9518 17.9257 4.85315 17.1919C4.75159 16.4365 4.75 15.4354 4.75 14ZM15.725 14.75C16.7884 14.7498 17.9549 15.0207 19.25 15.6988L19.25 19.25H10C9.14882 19.25 8.45035 19.2494 7.86528 19.2278C9.30777 17.8269 10.7765 16.4809 12.4123 15.6269C13.4641 15.0777 14.5571 14.7503 15.725 14.75Z" fill="#4489EB"/>
</svg>
