<svg width="24" height="24" viewBox="0 0 24 24" fill="none" xmlns="http://www.w3.org/2000/svg">
<path d="M17.5378 5.02274C17.6949 4.86115 17.8971 4.60404 18.0893 4.35931L18.1341 4.30236C18.327 4.05665 18.5333 3.79384 18.7439 3.54522L18.75 3.53807V10C18.75 10.4142 19.0858 10.75 19.5 10.75C19.9142 10.75 20.25 10.4142 20.25 10V3.53807L20.2561 3.54522C20.4667 3.79386 20.673 4.05663 20.866 4.30235L20.9107 4.3593C21.1029 4.60404 21.3051 4.86115 21.4622 5.02274C21.7509 5.31977 22.2257 5.32651 22.5227 5.03781C22.8198 4.74911 22.8265 4.27428 22.5378 3.97726C22.4491 3.886 22.3035 3.70419 22.0903 3.43276L22.0433 3.37285C21.8532 3.1307 21.6302 2.84663 21.4005 2.57551C21.1543 2.28495 20.8787 1.98316 20.6032 1.74854C20.4652 1.63096 20.3096 1.51499 20.1422 1.42541C19.9807 1.33902 19.7583 1.25 19.5 1.25C19.2417 1.25 19.0193 1.33902 18.8578 1.42541C18.6904 1.51499 18.5348 1.63096 18.3968 1.74854C18.1213 1.98316 17.8457 2.28495 17.5995 2.57551C17.3698 2.84663 17.1468 3.13069 16.9568 3.37284L16.9097 3.43276C16.6965 3.70419 16.5509 3.886 16.4622 3.97726C16.1735 4.27428 16.1802 4.74911 16.4773 5.03781C16.7743 5.32651 17.2491 5.31977 17.5378 5.02274Z" fill="#AAB9CC"/>
<path fill-rule="evenodd" clip-rule="evenodd" d="M11.5011 2.25L11.4428 2.25C9.25212 2.24999 7.53144 2.24998 6.18802 2.43059C4.81137 2.61568 3.71911 3.00271 2.86091 3.86091C2.00272 4.71911 1.61568 5.81137 1.43059 7.18802C1.24998 8.53144 1.24999 10.2521 1.25 12.4428V12.5572C1.24999 14.7479 1.24998 16.4686 1.43059 17.812C1.61568 19.1886 2.00272 20.2809 2.86091 21.1391C3.71911 21.9973 4.81137 22.3843 6.18802 22.5694C7.53144 22.75 9.2521 22.75 11.4428 22.75H11.5572C13.7479 22.75 15.4686 22.75 16.812 22.5694C18.1886 22.3843 19.2809 21.9973 20.1391 21.1391C20.9644 20.3138 21.3542 19.2717 21.5474 17.9675C21.7374 16.6852 21.749 15.0572 21.7499 13.0003C21.7501 12.5861 21.4145 12.2502 21.0003 12.25C20.5861 12.2498 20.2501 12.5854 20.2499 12.9997C20.2494 14.0536 20.2454 14.9594 20.2197 15.7459C19.2947 15.4176 18.3458 15.2493 17.3875 15.2501C15.7587 15.244 14.1642 15.7208 12.6681 16.6279C12.3405 16.3129 11.9922 16.0151 11.6244 15.7364C9.42785 14.072 6.67813 13.1952 3.86512 13.2527C3.49284 13.252 3.1209 13.2666 2.75036 13.2965C2.75002 13.0401 2.75 12.7748 2.75 12.5C2.75 10.2396 2.75159 8.6198 2.91722 7.3879C3.07994 6.17757 3.38853 5.45462 3.92157 4.92157C4.45462 4.38853 5.17757 4.07994 6.3879 3.91722C7.6198 3.75159 9.23963 3.75 11.5 3.75C12.0311 3.75 12.5284 3.75 12.9963 3.75231C13.4105 3.75435 13.748 3.42022 13.75 3.00601C13.752 2.5918 13.4179 2.25436 13.0037 2.25232C12.5317 2.25 12.031 2.25 11.5011 2.25ZM17.3872 16.7501C18.2994 16.7491 19.215 16.9362 20.1189 17.3145C20.1026 17.4644 20.0842 17.6086 20.0636 17.7476C19.8964 18.8765 19.5916 19.5652 19.0784 20.0784C18.5454 20.6115 17.8224 20.9201 16.6121 21.0828C16.2847 21.1268 15.93 21.1592 15.543 21.1831C15.1408 19.9463 14.5153 18.7898 13.6997 17.7619C14.9099 17.0796 16.1513 16.7452 17.3835 16.7501L17.3872 16.7501ZM2.75944 14.8011C2.77461 15.9289 2.81416 16.8456 2.91722 17.6121C3.07994 18.8224 3.38853 19.5454 3.92157 20.0784C4.45462 20.6115 5.17757 20.9201 6.3879 21.0828C7.6198 21.2484 9.23963 21.25 11.5 21.25C12.426 21.25 13.2445 21.2497 13.9728 21.238C13.3403 19.565 12.221 18.0705 10.7185 16.932C8.7965 15.4756 6.37572 14.6999 3.88794 14.7525L3.87022 14.7527C3.49909 14.7517 3.12838 14.7679 2.75944 14.8011Z" fill="#AAB9CC"/>
</svg>
