<svg width="62" height="62" viewBox="0 0 62 62" fill="none" xmlns="http://www.w3.org/2000/svg">
<path d="M17.4375 42.625C17.4375 32.9375 23.25 25.1875 31 25.1875C38.75 25.1875 44.5625 32.9375 44.5625 42.625" stroke="white" stroke-width="1.9375" stroke-linecap="round" stroke-linejoin="round"/>
<path d="M21.3125 48.4375C21.3125 42.625 25.1875 36.8125 31 36.8125C36.8125 36.8125 40.6875 42.625 40.6875 48.4375" stroke="white" stroke-width="1.9375" stroke-linecap="round" stroke-linejoin="round"/>
<path d="M26.1562 50.375C26.1562 47.4688 28.0938 44.5625 31 44.5625C33.9062 44.5625 35.8438 47.4688 35.8438 50.375" stroke="white" stroke-width="1.9375" stroke-linecap="round" stroke-linejoin="round"/>
<path d="M13.5625 31C15.5 21.3125 22.2812 13.5625 31 13.5625C39.7188 13.5625 46.5 21.3125 48.4375 31" stroke="white" stroke-width="1.9375" stroke-linecap="round" stroke-linejoin="round"/>
<path d="M31 19.375V21.3125" stroke="white" stroke-width="1.9375" stroke-linecap="round" stroke-linejoin="round"/>
<path d="M31 27.125V29.0625" stroke="white" stroke-width="1.9375" stroke-linecap="round" stroke-linejoin="round"/>
</svg>
