<svg width="40" height="40" viewBox="0 0 40 40" fill="none" xmlns="http://www.w3.org/2000/svg">
<path fill-rule="evenodd" clip-rule="evenodd" d="M14.1451 3.98626C16.6421 2.83113 18.2571 2.08398 20 2.08398C21.7429 2.08398 23.3579 2.83113 25.8549 3.98626L29.0602 5.46796C31.1638 6.44023 32.8714 7.2295 34.0417 7.99249C35.2127 8.75587 36.25 9.74968 36.25 11.2507C36.25 12.7516 35.2127 13.7454 34.0417 14.5088C32.8714 15.2718 31.1638 16.0611 29.0602 17.0334L25.8549 18.515C23.3579 19.6702 21.7429 20.4173 20 20.4173C18.2571 20.4173 16.6421 19.6702 14.1451 18.515L10.9398 17.0334C8.83623 16.0611 7.12863 15.2718 5.95825 14.5088C4.78728 13.7454 3.75 12.7516 3.75 11.2507C3.75 9.74968 4.78728 8.75587 5.95825 7.99249C7.12863 7.2295 8.83623 6.44023 10.9398 5.46795L14.1451 3.98626ZM20 4.58398C18.8749 4.58398 17.7879 5.05667 14.9294 6.37796L12.0881 7.69133C9.86151 8.72052 8.32267 9.43541 7.32355 10.0868C6.30665 10.7497 6.25 11.0916 6.25 11.2507C6.25 11.4097 6.30665 11.7516 7.32355 12.4145C8.32268 13.0659 9.86151 13.7808 12.0881 14.81L14.9294 16.1233C17.7879 17.4446 18.8749 17.9173 20 17.9173C21.1251 17.9173 22.2121 17.4446 25.0706 16.1233L27.9119 14.81C30.1385 13.7808 31.6773 13.0659 32.6764 12.4145C33.6933 11.7516 33.75 11.4097 33.75 11.2507C33.75 11.0916 33.6933 10.7497 32.6764 10.0868C31.6773 9.43541 30.1385 8.72052 27.9119 7.69133L25.0706 6.37795C22.2121 5.05667 21.1251 4.58398 20 4.58398Z" fill="#A719DD"/>
<path d="M6.07772 17.4773C6.64033 17.8774 6.77211 18.6578 6.37204 19.2204C6.27113 19.3623 6.25 19.4582 6.25 19.5522C6.25 19.6909 6.29492 20.0236 7.31669 20.6802C8.31612 21.3225 9.85545 22.0274 12.0819 23.0419L14.9233 24.3366C17.7801 25.6383 18.8704 26.1062 20 26.1062C21.1296 26.1062 22.2199 25.6383 25.0767 24.3366L27.9181 23.0419C30.1446 22.0274 31.6839 21.3225 32.6833 20.6802C33.7051 20.0236 33.75 19.6909 33.75 19.5522C33.75 19.4582 33.7289 19.3623 33.628 19.2204C33.2279 18.6578 33.3597 17.8774 33.9223 17.4773C34.4849 17.0773 35.2653 17.209 35.6654 17.7716C36.0356 18.2923 36.25 18.8869 36.25 19.5522C36.25 21.0499 35.201 22.034 34.0349 22.7833C32.8648 23.5353 31.1576 24.3131 29.0538 25.2717L25.8516 26.7309C23.3516 27.8709 21.7392 28.6062 20 28.6062C18.2608 28.6062 16.6484 27.8709 14.1484 26.7308L10.9462 25.2717C8.84243 24.3132 7.13523 23.5353 5.96512 22.7833C4.79902 22.034 3.75 21.0499 3.75 19.5522C3.75 18.8869 3.96443 18.2923 4.33462 17.7716C4.73469 17.209 5.5151 17.0773 6.07772 17.4773Z" fill="#A719DD"/>
<path d="M6.81767 28.0886C7.35767 27.6585 7.44676 26.8721 7.01665 26.3321C6.58655 25.7921 5.80012 25.703 5.26012 26.1331C4.41633 26.8052 3.75 27.6772 3.75 28.8634C3.75 30.3611 4.79902 31.3451 5.96512 32.0945C7.13523 32.8465 8.84243 33.6243 10.9462 34.5829L14.1484 36.042C16.6484 37.182 18.2608 37.9173 20 37.9173C21.7392 37.9173 23.3516 37.1821 25.8516 36.042L29.0538 34.5829C31.1576 33.6243 32.8648 32.8465 34.0349 32.0945C35.201 31.3451 36.25 30.3611 36.25 28.8634C36.25 27.6772 35.5837 26.8052 34.7399 26.1331C34.1999 25.703 33.4135 25.7921 32.9833 26.3321C32.5532 26.8721 32.6423 27.6585 33.1823 28.0886C33.7237 28.5199 33.75 28.7475 33.75 28.8634C33.75 29.0021 33.7051 29.3347 32.6833 29.9914C31.6839 30.6336 30.1446 31.3386 27.9181 32.353L25.0767 33.6477C22.2199 34.9494 21.1296 35.4173 20 35.4173C18.8704 35.4173 17.7801 34.9494 14.9233 33.6477L12.0819 32.3531C9.85545 31.3386 8.31612 30.6336 7.31669 29.9914C6.29492 29.3347 6.25 29.0021 6.25 28.8634C6.25 28.7475 6.27627 28.5199 6.81767 28.0886Z" fill="#A719DD"/>
</svg>
