<svg width="24" height="24" viewBox="0 0 24 24" fill="none" xmlns="http://www.w3.org/2000/svg">
<path d="M8.55772 6.60384C8.71909 6.72573 9.20084 7.08964 9.47855 7.30637C10.0348 7.74044 10.7738 8.33355 11.5107 8.97336C12.2514 9.6164 12.9727 10.2919 13.5029 10.892C13.7688 11.1929 13.9708 11.4573 14.1023 11.6754C14.226 11.8806 14.2517 12.0017 14.2517 12.0017C14.2517 12.0017 14.226 12.1194 14.1023 12.3245C13.9708 12.5426 13.7688 12.807 13.5029 13.1079C12.9727 13.708 12.2514 14.3835 11.5107 15.0265C10.7738 15.6663 10.0347 16.2595 9.47851 16.6935C9.2008 16.9103 8.71974 17.2737 8.55836 17.3955C8.22484 17.6412 8.1529 18.1112 8.39853 18.4447C8.64417 18.7782 9.11366 18.8495 9.44719 18.6038L9.44973 18.6019C9.61899 18.4741 10.118 18.0972 10.4014 17.8761C10.9701 17.4322 11.731 16.8217 12.4941 16.1592C13.2535 15.4999 14.0322 14.7742 14.627 14.1011C14.9236 13.7654 15.1903 13.4251 15.3869 13.0989C15.5712 12.7934 15.7524 12.4065 15.7524 11.9999C15.7524 11.5934 15.5711 11.2065 15.3869 10.901C15.1903 10.5748 14.9236 10.2345 14.627 9.89882C14.0322 9.2257 13.2535 8.50003 12.4942 7.84071C11.7311 7.17815 10.9702 6.56772 10.4014 6.12385C10.1178 5.90256 9.61881 5.52563 9.4499 5.39806L9.44772 5.39641C9.11419 5.15077 8.64422 5.22167 8.39859 5.55519C8.15296 5.8887 8.22422 6.3582 8.55772 6.60384Z" fill="#70A3C4"/>
</svg>
