<svg width="40" height="40" viewBox="0 0 40 40" fill="none" xmlns="http://www.w3.org/2000/svg">
<path d="M29.2298 8.37189C29.4916 8.10257 29.8287 7.67405 30.149 7.26616L30.2236 7.17124C30.5451 6.76173 30.889 6.32371 31.2401 5.90935L31.2502 5.89744V16.6673C31.2502 17.3577 31.8098 17.9173 32.5002 17.9173C33.1905 17.9173 33.7502 17.3577 33.7502 16.6673V5.89744L33.7603 5.90935C34.1114 6.32375 34.4552 6.7617 34.7767 7.17124L34.8513 7.26616C35.1717 7.67405 35.5087 8.10257 35.7705 8.37189C36.2516 8.86693 37.043 8.87817 37.5381 8.397C38.0331 7.91583 38.0444 7.12446 37.5632 6.62941C37.4153 6.47732 37.1726 6.1743 36.8173 5.72192L36.7389 5.62207C36.4221 5.21849 36.0505 4.74504 35.6676 4.29316C35.2573 3.8089 34.798 3.30591 34.3389 2.91488C34.1088 2.71892 33.8494 2.52564 33.5705 2.37634C33.3014 2.23235 32.9306 2.08398 32.5002 2.08398C32.0697 2.08398 31.6989 2.23235 31.4299 2.37634C31.1509 2.52564 30.8916 2.71892 30.6615 2.91488C30.2024 3.30591 29.7431 3.8089 29.3327 4.29316C28.9498 4.74504 28.5782 5.21847 28.2614 5.62205L28.183 5.72192C27.8277 6.1743 27.585 6.47732 27.4371 6.62941C26.956 7.12446 26.9672 7.91583 27.4623 8.397C27.9573 8.87817 28.7487 8.86693 29.2298 8.37189Z" fill="#5532A1"/>
<path fill-rule="evenodd" clip-rule="evenodd" d="M19.1687 3.75065L19.0715 3.75065C15.4204 3.75063 12.5526 3.75061 10.3135 4.05164C8.01911 4.36012 6.19868 5.00518 4.76835 6.43551C3.33802 7.86584 2.69296 9.68626 2.38449 11.9807C2.08346 14.2197 2.08347 17.0875 2.0835 20.7387V20.9293C2.08347 24.5805 2.08346 27.4483 2.38449 29.6873C2.69296 31.9817 3.33802 33.8021 4.76835 35.2325C6.19868 36.6628 8.01911 37.3078 10.3135 37.6163C12.5526 37.9174 15.4203 37.9173 19.0715 37.9173H19.2621C22.9133 37.9173 25.7811 37.9174 28.0201 37.6163C30.3146 37.3078 32.135 36.6628 33.5653 35.2325C34.9408 33.857 35.5905 32.1201 35.9126 29.9465C36.2292 27.8093 36.2484 25.096 36.25 21.6679C36.2504 20.9775 35.691 20.4176 35.0006 20.4173C34.3103 20.417 33.7504 20.9764 33.75 21.6667C33.7492 23.4234 33.7425 24.933 33.6997 26.2439C32.158 25.6967 30.5765 25.4161 28.9794 25.4174C26.2646 25.4073 23.6072 26.2021 21.1137 27.7138C20.5677 27.1888 19.9871 26.6924 19.3742 26.228C15.7132 23.454 11.1304 21.9926 6.44203 22.0884C5.82156 22.0873 5.20166 22.1117 4.5841 22.1614C4.58354 21.7342 4.5835 21.292 4.5835 20.834C4.5835 17.0667 4.58615 14.367 4.86219 12.3138C5.1334 10.2966 5.64771 9.09168 6.53612 8.20327C7.42453 7.31487 8.62945 6.80055 10.6467 6.52935C12.6998 6.25331 15.3995 6.25065 19.1668 6.25065C20.052 6.25065 20.8808 6.25065 21.6607 6.2545C22.351 6.25789 22.9134 5.70101 22.9168 5.01067C22.9202 4.32032 22.3633 3.75792 21.673 3.75453C20.8864 3.75065 20.0518 3.75065 19.1687 3.75065ZM28.9788 27.9174C30.4992 27.9159 32.0251 28.2277 33.5316 28.8582C33.5045 29.1079 33.4739 29.3483 33.4396 29.5801C33.1608 31.4614 32.6528 32.6094 31.7975 33.4647C30.9091 34.3531 29.7042 34.8674 27.687 35.1386C27.1414 35.212 26.5501 35.266 25.9052 35.3059C25.2348 33.2445 24.1924 31.317 22.833 29.6038C24.85 28.4666 26.919 27.9093 28.9726 27.9174L28.9788 27.9174ZM4.59923 24.6692C4.62452 26.5488 4.69043 28.0766 4.86219 29.3542C5.1334 31.3714 5.64771 32.5763 6.53612 33.4647C7.42453 34.3531 8.62945 34.8674 10.6467 35.1386C12.6998 35.4147 15.3995 35.4173 19.1668 35.4173C20.7101 35.4173 22.0743 35.4169 23.2882 35.3974C22.234 32.6089 20.3685 30.1181 17.8643 28.2206C14.661 25.7933 10.6264 24.5005 6.48007 24.5882L6.45053 24.5884C5.83199 24.5869 5.21413 24.6139 4.59923 24.6692Z" fill="#5532A1"/>
</svg>
