<svg width="22" height="22" viewBox="0 0 22 22" fill="none" xmlns="http://www.w3.org/2000/svg">
<path d="M17.4167 6.41667H4.58333C3.57081 6.41667 2.75 7.23748 2.75 8.25V16.5C2.75 17.5125 3.57081 18.3333 4.58333 18.3333H17.4167C18.4292 18.3333 19.25 17.5125 19.25 16.5V8.25C19.25 7.23748 18.4292 6.41667 17.4167 6.41667Z" stroke="#7C5CFF" stroke-width="1.46667" stroke-linecap="round" stroke-linejoin="round"/>
<path d="M7.33333 6.41667L9.16667 3.66667H12.8333L14.6667 6.41667" stroke="#7C5CFF" stroke-width="1.46667" stroke-linecap="round" stroke-linejoin="round"/>
<path d="M11 15.125C12.7719 15.125 14.2083 13.6886 14.2083 11.9167C14.2083 10.1448 12.7719 8.70833 11 8.70833C9.22809 8.70833 7.79167 10.1448 7.79167 11.9167C7.79167 13.6886 9.22809 15.125 11 15.125Z" stroke="#7C5CFF" stroke-width="1.46667" stroke-linecap="round" stroke-linejoin="round"/>
</svg>
