<svg width="20" height="20" viewBox="0 0 20 20" fill="none" xmlns="http://www.w3.org/2000/svg">
<path d="M8.33464 12.709C7.98946 12.709 7.70964 12.9888 7.70964 13.334C7.70964 13.6792 7.98946 13.959 8.33464 13.959H9.58464C9.92981 13.959 10.2096 13.6792 10.2096 13.334C10.2096 12.9888 9.92981 12.709 9.58464 12.709H8.33464Z" fill="#76869E"/>
<path d="M11.4596 13.334C11.4596 12.9888 11.7395 12.709 12.0846 12.709H15.0013C15.3465 12.709 15.6263 12.9888 15.6263 13.334C15.6263 13.6792 15.3465 13.959 15.0013 13.959H12.0846C11.7395 13.959 11.4596 13.6792 11.4596 13.334Z" fill="#76869E"/>
<path fill-rule="evenodd" clip-rule="evenodd" d="M11.2909 2.70898H8.71169C7.17918 2.70898 5.97561 2.70897 5.02679 2.81615C4.05832 2.92555 3.27297 3.15367 2.62016 3.66922C2.42473 3.82356 2.24353 3.99403 2.07879 4.17882C1.52364 4.8015 1.27574 5.55623 1.15766 6.48219C1.04295 7.38171 1.04296 8.52003 1.04297 9.9567V10.0446C1.04296 11.4813 1.04295 12.6196 1.15766 13.5191C1.27574 14.4451 1.52364 15.1998 2.07879 15.8225C2.24353 16.0073 2.42473 16.1777 2.62016 16.3321C3.27297 16.8476 4.05832 17.0758 5.02679 17.1852C5.97561 17.2923 7.17918 17.2923 8.71168 17.2923H11.2909C12.8234 17.2923 14.027 17.2923 14.9758 17.1852C15.9443 17.0758 16.7296 16.8476 17.3824 16.3321C17.5779 16.1777 17.7591 16.0073 17.9238 15.8225C18.479 15.1998 18.7269 14.4451 18.8449 13.5191C18.9597 12.6196 18.9596 11.4813 18.9596 10.0446V9.95669C18.9596 8.52002 18.9597 7.38171 18.8449 6.48219C18.7269 5.55623 18.479 4.8015 17.9238 4.17882C17.7591 3.99403 17.5779 3.82356 17.3824 3.66922C16.7296 3.15367 15.9443 2.92555 14.9758 2.81615C14.027 2.70897 12.8234 2.70898 11.2909 2.70898ZM3.39487 4.6502C3.78762 4.34003 4.3081 4.15528 5.1671 4.05825C6.03758 3.95992 7.17056 3.95898 8.7513 3.95898H11.2513C12.832 3.95898 13.965 3.95992 14.8355 4.05825C15.6945 4.15528 16.215 4.34003 16.6077 4.6502C16.7468 4.76 16.8749 4.88066 16.9908 5.01065C17.313 5.37203 17.5037 5.84631 17.605 6.64031C17.6147 6.71653 17.6235 6.79492 17.6315 6.87565H2.37108C2.37908 6.79492 2.3879 6.71653 2.39762 6.64031C2.49887 5.84631 2.68963 5.37204 3.01182 5.01065C3.12772 4.88065 3.25584 4.76 3.39487 4.6502ZM2.30512 8.12565C2.29325 8.66408 2.29297 9.28219 2.29297 10.0007C2.29297 11.4911 2.29416 12.5497 2.39762 13.361C2.49887 14.155 2.68963 14.6293 3.01182 14.9906C3.12772 15.1206 3.25584 15.2413 3.39487 15.3511C3.78762 15.6613 4.3081 15.846 5.1671 15.9431C6.03758 16.0414 7.17056 16.0423 8.7513 16.0423H11.2513C12.832 16.0423 13.965 16.0414 14.8355 15.9431C15.6945 15.846 16.215 15.6613 16.6077 15.3511C16.7468 15.2413 16.8749 15.1206 16.9908 14.9906C17.313 14.6293 17.5037 14.155 17.605 13.361C17.7084 12.5497 17.7096 11.4911 17.7096 10.0007C17.7096 9.28219 17.7094 8.66408 17.6975 8.12565H2.30512Z" fill="#76869E"/>
</svg>
