<svg width="18" height="18" viewBox="0 0 18 18" fill="none" xmlns="http://www.w3.org/2000/svg">
<path d="M7.80566 8.625C9.46252 8.625 10.8057 7.28185 10.8057 5.625C10.8057 3.96815 9.46252 2.625 7.80566 2.625C6.14881 2.625 4.80566 3.96815 4.80566 5.625C4.80566 7.28185 6.14881 8.625 7.80566 8.625Z" stroke="#7C5CFF" stroke-width="1.06667" stroke-linecap="round" stroke-linejoin="round"/>
<path d="M1.80566 15.375C1.80566 13.7837 2.43781 12.2576 3.56302 11.1324C4.68824 10.0071 6.21437 9.375 7.80566 9.375C9.39696 9.375 10.9231 10.0071 12.0483 11.1324C13.1735 12.2576 13.8057 13.7837 13.8057 15.375" stroke="#7C5CFF" stroke-width="1.06667" stroke-linecap="round" stroke-linejoin="round"/>
<path d="M14.42 5.07617V8.62512M12.6455 6.85065H16.1945" stroke="#7C5CFF" stroke-width="1.06667" stroke-linecap="round" stroke-linejoin="round"/>
</svg>
