<svg width="40" height="40" viewBox="0 0 40 40" fill="none" xmlns="http://www.w3.org/2000/svg">
<path d="M16.2497 21.6673C16.2497 20.977 15.69 20.4173 14.9997 20.4173C14.3093 20.4173 13.7497 20.977 13.7497 21.6673V23.334C13.7497 24.0243 14.3093 24.584 14.9997 24.584C15.69 24.584 16.2497 24.0243 16.2497 23.334V21.6673Z" fill="#4489EB"/>
<path d="M24.9997 20.4173C25.69 20.4173 26.2497 20.977 26.2497 21.6673V23.334C26.2497 24.0243 25.69 24.584 24.9997 24.584C24.3093 24.584 23.7497 24.0243 23.7497 23.334V21.6673C23.7497 20.977 24.3093 20.4173 24.9997 20.4173Z" fill="#4489EB"/>
<path fill-rule="evenodd" clip-rule="evenodd" d="M17.4044 28.1585C17.4163 28.1663 17.444 28.1836 17.4876 28.2081C17.5747 28.2572 17.7251 28.3336 17.9387 28.4136C18.3635 28.573 19.0485 28.7507 19.9998 28.7507C20.951 28.7507 21.636 28.573 22.0608 28.4136C22.2744 28.3336 22.4248 28.2572 22.5119 28.2081C22.5555 28.1836 22.5833 28.166 22.5952 28.1581L22.5996 28.1552C23.1509 27.7554 23.923 27.8706 24.3331 28.4174C24.7473 28.9697 24.6354 29.7532 24.0831 30.1674L24.0812 30.1688L24.0791 30.1704L24.0747 30.1736L24.0646 30.181L24.039 30.1993C24.0197 30.2129 23.9956 30.2294 23.9668 30.2483C23.9093 30.286 23.8329 30.3335 23.7376 30.3871C23.547 30.4943 23.2806 30.6262 22.9387 30.7545C22.2524 31.0118 21.2707 31.2507 19.9998 31.2507C18.7288 31.2507 17.7471 31.0118 17.0608 30.7545C16.7189 30.6262 16.4525 30.4943 16.2619 30.3871C16.1666 30.3335 16.0902 30.286 16.0327 30.2483C16.0039 30.2294 15.9798 30.2129 15.9605 30.1993L15.9349 30.181L15.9248 30.1736L15.9204 30.1704L15.9164 30.1674C15.3641 29.7532 15.2522 28.9697 15.6664 28.4174C16.0765 27.8706 16.8486 27.7554 17.3999 28.1552L17.3984 28.1542L17.4044 28.1585ZM17.4097 28.1624L17.4129 28.1647L17.4044 28.1585L17.4097 28.1624Z" fill="#4489EB"/>
<path fill-rule="evenodd" clip-rule="evenodd" d="M23.7497 5.83398C23.7497 7.46676 22.7062 8.85581 21.2497 9.3706V12.084H21.7578C24.0371 12.084 25.8743 12.0839 27.3193 12.2782C28.8194 12.4799 30.0826 12.9114 31.0858 13.9146C32.089 14.9178 32.5205 16.1809 32.7221 17.6811C32.7674 18.0175 32.8021 18.3751 32.8287 18.7547C33.4866 18.7625 34.0726 18.7856 34.5761 18.8533C35.3955 18.9635 36.1809 19.2119 36.818 19.849C37.4551 20.4861 37.7035 21.2715 37.8137 22.0909C37.9165 22.8555 37.9164 23.8102 37.9163 24.9183V25.0829C37.9164 26.191 37.9165 27.1458 37.8137 27.9104C37.7035 28.7298 37.4551 29.5152 36.818 30.1523C36.1809 30.7894 35.3955 31.0378 34.5761 31.148C34.0726 31.2157 33.4866 31.2388 32.8287 31.2466C32.8021 31.6262 32.7674 31.9838 32.7221 32.3202C32.5205 33.8204 32.089 35.0835 31.0858 36.0867C30.0826 37.0899 28.8194 37.5214 27.3193 37.7231C25.8743 37.9174 24.0371 37.9174 21.7578 37.9173H18.2416C15.9622 37.9174 14.125 37.9174 12.6801 37.7231C11.1799 37.5214 9.91679 37.0899 8.9136 36.0867C7.9104 35.0835 7.47891 33.8204 7.27722 32.3202C7.23199 31.9838 7.19729 31.6262 7.17068 31.2466C6.51275 31.2388 5.92677 31.2157 5.42328 31.148C4.60388 31.0378 3.81844 30.7894 3.18137 30.1523C2.54429 29.5152 2.29586 28.7298 2.18569 27.9104C2.0829 27.1458 2.08295 26.1911 2.08301 25.083V24.9184C2.08295 23.8103 2.0829 22.8555 2.18569 22.0909C2.29586 21.2715 2.54429 20.4861 3.18137 19.849C3.81844 19.2119 4.60388 18.9635 5.42328 18.8533C5.92677 18.7856 6.51275 18.7625 7.17067 18.7547C7.19729 18.3751 7.23199 18.0175 7.27722 17.6811C7.47891 16.1809 7.9104 14.9178 8.9136 13.9146C9.91679 12.9114 11.1799 12.4799 12.6801 12.2782C14.125 12.0839 15.9622 12.084 18.2416 12.084H18.7497V9.3706C17.2932 8.85581 16.2497 7.46676 16.2497 5.83398C16.2497 3.76292 17.9286 2.08398 19.9997 2.08398C22.0707 2.08398 23.7497 3.76292 23.7497 5.83398ZM18.7497 5.83398C18.7497 5.14363 19.3093 4.58398 19.9997 4.58398C20.69 4.58398 21.2497 5.14363 21.2497 5.83398C21.2497 6.52434 20.69 7.08398 19.9997 7.08398C19.3093 7.08398 18.7497 6.52434 18.7497 5.83398ZM5.7564 21.331C6.10763 21.2838 6.53509 21.2643 7.0887 21.2563C7.08299 21.8772 7.083 22.5388 7.08301 23.2425V26.7588C7.083 27.4625 7.08299 28.1241 7.0887 28.7451C6.53509 28.737 6.10763 28.7175 5.7564 28.6703C5.21422 28.5974 5.04429 28.4797 4.94913 28.3845C4.85398 28.2894 4.73629 28.1195 4.6634 27.5773C4.58567 26.9991 4.58302 26.2145 4.58302 25.0007C4.58302 23.7868 4.58567 23.0022 4.6634 22.424C4.73629 21.8819 4.85398 21.7119 4.94913 21.6168C5.04429 21.5216 5.21422 21.4039 5.7564 21.331ZM32.9107 21.2563C32.9164 21.8772 32.9164 22.5388 32.9163 23.2425V26.7588C32.9164 27.4625 32.9164 28.1241 32.9107 28.7451C33.4643 28.737 33.8917 28.7175 34.243 28.6703C34.7851 28.5974 34.9551 28.4797 35.0502 28.3845C35.1454 28.2894 35.2631 28.1195 35.336 27.5773C35.4137 26.9991 35.4163 26.2145 35.4163 25.0007C35.4163 23.7868 35.4137 23.0022 35.336 22.424C35.2631 21.8819 35.1454 21.7119 35.0502 21.6168C34.9551 21.5216 34.7851 21.4039 34.243 21.331C33.8917 21.2838 33.4643 21.2643 32.9107 21.2563ZM10.6814 15.6823C11.1426 15.2211 11.7903 14.9203 13.0132 14.7559C14.2721 14.5866 15.9407 14.584 18.333 14.584H21.6663C24.0587 14.584 25.7272 14.5866 26.9861 14.7559C28.2091 14.9203 28.8567 15.2211 29.318 15.6823C29.7793 16.1436 30.08 16.7912 30.2444 18.0142C30.4137 19.2731 30.4163 20.9416 30.4163 23.334V26.6673C30.4163 29.0597 30.4137 30.7282 30.2444 31.9871C30.08 33.2101 29.7793 33.8577 29.318 34.319C28.8567 34.7802 28.2091 35.081 26.9861 35.2454C25.7272 35.4147 24.0587 35.4173 21.6663 35.4173H18.333C15.9407 35.4173 14.2721 35.4147 13.0132 35.2454C11.7903 35.081 11.1426 34.7802 10.6814 34.319C10.2201 33.8577 9.91935 33.2101 9.75493 31.9871C9.58567 30.7282 9.58301 29.0597 9.58301 26.6673V23.334C9.58301 20.9416 9.58567 19.2731 9.75493 18.0142C9.91935 16.7912 10.2201 16.1436 10.6814 15.6823Z" fill="#4489EB"/>
</svg>
