<svg width="20" height="20" viewBox="0 0 20 20" fill="none" xmlns="http://www.w3.org/2000/svg">
<path d="M5.24117 6.92508C5.31712 6.84296 5.40733 6.77781 5.50665 6.73335C5.60596 6.6889 5.71242 6.66602 5.81994 6.66602C5.92746 6.66602 6.03393 6.6889 6.13324 6.73335C6.23256 6.77781 6.32277 6.84296 6.39872 6.92508L9.58405 10.3622L12.7694 6.92508C12.9229 6.75944 13.1311 6.66639 13.3482 6.66639C13.5652 6.66639 13.7734 6.75944 13.9269 6.92508C14.0804 7.09072 14.1667 7.31537 14.1667 7.54962C14.1667 7.78386 14.0804 8.00852 13.9269 8.17415L10.1587 12.2403C10.0828 12.3224 9.99256 12.3876 9.89324 12.432C9.79393 12.4765 9.68746 12.4993 9.57994 12.4993C9.47242 12.4993 9.36596 12.4765 9.26665 12.432C9.16733 12.3876 9.07712 12.3224 9.00117 12.2403L5.23296 8.17415C4.92099 7.83753 4.92099 7.27057 5.24117 6.92508Z" fill="white"/>
</svg>
