<svg width="24" height="24" viewBox="0 0 24 24" fill="none" xmlns="http://www.w3.org/2000/svg">
<path fill-rule="evenodd" clip-rule="evenodd" d="M13.6544 16.6953L14.3167 18.2407C14.4798 18.6215 14.9208 18.7978 15.3015 18.6347C15.6822 18.4715 15.8586 18.0306 15.6954 17.6499L13.2879 12.0326C13.066 11.5144 12.5534 11.1953 12.0061 11.1953C11.4587 11.1953 10.9463 11.5141 10.7243 12.0323L8.31669 17.6499C8.15353 18.0306 8.32989 18.4715 8.71061 18.6347C9.09134 18.7978 9.53224 18.6215 9.69541 18.2408L10.3577 16.6953H13.6544ZM12.0061 12.8494L11.0006 15.1953H13.0115L12.0061 12.8494Z" fill="#4489EB"/>
<path fill-rule="evenodd" clip-rule="evenodd" d="M18.4971 1.25L6.30779 1.25002C5.75935 1.25002 5.05345 1.32541 4.45703 1.76322C3.69721 2.32097 3.00236 3.23271 2.80511 4.33131C2.75669 4.60099 2.73939 4.87593 2.75634 5.15303L2.75622 5.16833L2.78977 18.0923L2.79079 18.1113C2.86272 19.4587 3.35882 20.6246 4.19933 21.4576C5.04176 22.2925 6.18763 22.75 7.47258 22.75H16.5028C19.1284 22.75 21.2501 20.6112 21.2501 17.9812V10.5273C21.2501 9.16935 20.8445 8.26373 20.1309 7.74415C19.4651 7.2594 18.691 7.24082 18.2836 7.24082H18.2559V6.44531C18.2559 5.20266 17.2485 4.19531 16.0059 4.19531H7.50586C7.09165 4.19531 6.75586 4.5311 6.75586 4.94531C6.75586 5.35953 7.09165 5.69531 7.50586 5.69531H16.0059C16.4201 5.69531 16.7559 6.03111 16.7559 6.44531V7.24082H6.72705C6.06893 7.24082 5.50977 7.07392 5.14425 6.72678C4.3184 5.94244 4.17342 5.19836 4.2815 4.59639C4.39792 3.94799 4.83073 3.34965 5.34463 2.97242C5.55163 2.82047 5.86232 2.75002 6.30779 2.75002L18.4971 2.75C18.9113 2.75 19.2471 2.41421 19.2471 2C19.2471 1.58579 18.9113 1.25 18.4971 1.25ZM4.28967 18.0496L4.26345 7.94946C4.99077 8.55226 5.91356 8.74082 6.72705 8.74082H18.2836C18.6697 8.74082 19.0038 8.77903 19.248 8.95678C19.4443 9.0997 19.7501 9.46231 19.7501 10.5273V17.9812C19.7501 19.7903 18.2925 21.25 16.5028 21.25H7.47258C6.55393 21.25 5.79667 20.9288 5.25522 20.3922C4.7151 19.8569 4.34772 19.0647 4.28967 18.0496Z" fill="#4489EB"/>
</svg>
