<svg width="24" height="24" viewBox="0 0 24 24" fill="none" xmlns="http://www.w3.org/2000/svg">
<path d="M18.466 14.641C18.587 14.716 18.722 14.751 18.855 14.751L18.857 14.75C19.11 14.75 19.357 14.622 19.498 14.39C20.317 13.045 20.75 11.499 20.75 9.91899C20.75 5.13899 16.825 1.25 12 1.25C7.175 1.25 3.25 5.13899 3.25 9.91899C3.25 11.498 3.683 13.044 4.502 14.39C4.718 14.744 5.17901 14.856 5.53301 14.641C5.88701 14.425 5.99901 13.964 5.78401 13.61C5.10701 12.499 4.75 11.223 4.75 9.91899C4.75 5.96599 8.002 2.75 12 2.75C15.998 2.75 19.25 5.96599 19.25 9.91899C19.25 11.224 18.892 12.5 18.216 13.61C18 13.964 18.112 14.426 18.466 14.641Z" fill="#4489EB"/>
<path fill-rule="evenodd" clip-rule="evenodd" d="M16.8656 18.472C16.5703 18.9387 16.151 19.2984 15.6579 19.5167L15.5987 19.813L15.5957 19.8279C15.4466 20.5685 15.3642 20.9775 15.1477 21.358C14.8107 21.953 14.2667 22.398 13.6167 22.612C13.1977 22.751 12.7707 22.751 11.9957 22.751H11.9987C11.2227 22.751 10.7957 22.751 10.3757 22.612C9.7277 22.399 9.1837 21.953 8.8457 21.358C8.6287 20.976 8.5457 20.563 8.3957 19.814L8.33599 19.515C7.84413 19.2967 7.42671 18.9381 7.13365 18.475C6.95465 18.19 6.85365 17.888 6.67165 17.341L7.38165 17.1L6.67065 17.337C6.56065 17.008 6.48864 16.791 6.49964 16.539C6.52664 16.001 6.86564 15.5329 7.36164 15.3419C7.59256 15.251 7.80949 15.251 8.17025 15.251H15.8266C16.1874 15.251 16.4057 15.251 16.6416 15.3439C17.1326 15.5329 17.4706 16 17.4976 16.534C17.5086 16.79 17.4406 16.996 17.3266 17.336C17.1436 17.887 17.0426 18.189 16.8656 18.472ZM14.0818 19.751C13.9898 20.204 13.9292 20.4689 13.8447 20.618C13.6917 20.888 13.4447 21.09 13.1487 21.188C12.9587 21.251 12.6178 21.251 11.998 21.251C11.3782 21.251 11.0357 21.251 10.8447 21.188C10.5497 21.091 10.3027 20.889 10.1497 20.618C10.0652 20.4689 10.0045 20.2038 9.91248 19.751H14.0818ZM8.06784 16.7873L8.05565 16.751L8.05665 16.752H15.9406C15.9286 16.789 15.9156 16.8289 15.9026 16.8669C15.7576 17.3039 15.6776 17.545 15.5976 17.672C15.4246 17.945 15.1586 18.1379 14.8486 18.2149C14.7006 18.2519 14.4466 18.252 13.9866 18.252H10.0106C9.55064 18.252 9.29664 18.2519 9.14964 18.2149C8.83864 18.1379 8.57264 17.945 8.40164 17.675C8.31964 17.545 8.23965 17.3039 8.09465 16.8669L8.09265 16.862C8.08468 16.8374 8.07611 16.8119 8.06784 16.7873Z" fill="#4489EB"/>
<path d="M10.4911 12.0001C10.6391 12.1661 10.8441 12.2511 11.0511 12.2511L11.0491 12.2501C11.2271 12.2501 11.4051 12.1871 11.5481 12.0601L13.4351 10.3791C13.7671 10.0851 13.8981 9.63813 13.7791 9.21113C13.6601 8.78313 13.3141 8.46813 12.8771 8.38813L12.0051 8.2291L13.1081 7.00112C13.3851 6.69312 13.3591 6.21909 13.0511 5.94209C12.7431 5.66509 12.2691 5.69112 11.9921 5.99912L10.4711 7.69311C10.1931 8.00211 10.1041 8.43813 10.2381 8.83213C10.3731 9.22713 10.7111 9.51911 11.1211 9.59311L11.9041 9.73613L10.5521 10.9411C10.2431 11.2171 10.2151 11.6911 10.4911 12.0001Z" fill="#4489EB"/>
</svg>
