<svg width="80" height="80" viewBox="0 0 80 80" fill="none" xmlns="http://www.w3.org/2000/svg">
<path d="M14.5625 51.3052L27.1952 38.6724C27.6702 38.1973 28.2342 37.8204 28.8549 37.5633C29.4755 37.3062 30.1408 37.1738 30.8126 37.1738C31.4845 37.1738 32.1497 37.3062 32.7704 37.5633C33.3911 37.8204 33.9551 38.1973 34.4301 38.6724L45.6497 49.8921M45.6497 49.8921L49.8889 54.1313M45.6497 49.8921L51.2172 44.3247C51.6922 43.8496 52.2561 43.4727 52.8768 43.2155C53.4975 42.9584 54.1628 42.8261 54.8346 42.8261C55.5064 42.8261 56.1717 42.9584 56.7924 43.2155C57.4131 43.4727 57.977 43.8496 58.452 44.3247L65.4325 51.3052" stroke="url(#paint0_linear_2057_6435)" stroke-width="4" stroke-linecap="round" stroke-linejoin="round"/>
<circle cx="48.9658" cy="27.5078" r="4.62598" stroke="url(#paint1_linear_2057_6435)" stroke-width="4"/>
<path d="M18.1065 16.5375C22.0687 13.1519 28.046 13.1519 40.0004 13.1519C51.9549 13.1519 57.9321 13.1519 61.8943 16.5375C62.4576 17.018 62.9805 17.5408 63.4628 18.106C66.8485 22.0682 66.8485 28.0455 66.8485 39.9999C66.8485 51.9544 66.8485 57.9316 63.4628 61.8938C62.9823 62.4571 62.4595 62.9799 61.8943 63.4623C57.9321 66.8479 51.9549 66.8479 40.0004 66.8479C28.046 66.8479 22.0687 66.8479 18.1065 63.4623C17.5432 62.9818 17.0203 62.459 16.538 61.8938C13.1523 57.9316 13.1523 51.9544 13.1523 39.9999C13.1523 28.0455 13.1523 22.0682 16.538 18.106C17.0185 17.5427 17.5413 17.0199 18.1065 16.5375Z" stroke="url(#paint2_linear_2057_6435)" stroke-width="4" stroke-linecap="round" stroke-linejoin="round"/>
<defs>
<linearGradient id="paint0_linear_2057_6435" x1="22.0684" y1="31.0681" x2="50.6264" y2="66.1753" gradientUnits="userSpaceOnUse">
<stop stop-color="#A719DD"/>
<stop offset="1" stop-color="#4489EB"/>
</linearGradient>
<linearGradient id="paint1_linear_2057_6435" x1="44.2952" y1="16.1103" x2="60.2914" y2="22.6655" gradientUnits="userSpaceOnUse">
<stop stop-color="#A719DD"/>
<stop offset="1" stop-color="#4489EB"/>
</linearGradient>
<linearGradient id="paint2_linear_2057_6435" x1="21.0753" y1="-6.18201" x2="85.8911" y2="20.3792" gradientUnits="userSpaceOnUse">
<stop stop-color="#A719DD"/>
<stop offset="1" stop-color="#4489EB"/>
</linearGradient>
</defs>
</svg>
