<svg width="24" height="24" viewBox="0 0 24 24" fill="none" xmlns="http://www.w3.org/2000/svg">
<path d="M12 2.75C7.98871 2.75 4.75 5.9668 4.75 9.91886C4.75 11.27 5.1273 12.532 5.7835 13.61C5.99887 13.9638 5.88665 14.4253 5.53283 14.6406C5.17902 14.856 4.7176 14.7438 4.50222 14.39C3.7074 13.0843 3.25 11.5535 3.25 9.91886C3.25 5.12399 7.17474 1.25 12 1.25C16.8253 1.25 20.75 5.12399 20.75 9.91886C20.75 11.5535 20.2926 13.0843 19.4978 14.39C19.2824 14.7438 18.821 14.856 18.4672 14.6406C18.1134 14.4253 18.0011 13.9638 18.2165 13.61C18.8727 12.532 19.25 11.27 19.25 9.91886C19.25 5.9668 16.0113 2.75 12 2.75Z" fill="white"/>
<path fill-rule="evenodd" clip-rule="evenodd" d="M12 10.25C12.4412 10.25 12.9342 10.0317 13.4569 9.4828C13.7425 9.18283 14.2172 9.17121 14.5172 9.45685C14.8172 9.74249 14.8288 10.2172 14.5431 10.5172C14.0261 11.0602 13.4235 11.472 12.75 11.6513V15.25H15.8457C15.9759 15.25 16.1044 15.25 16.2126 15.2564C16.3268 15.2631 16.4803 15.2793 16.6402 15.3415C17.1379 15.5351 17.4733 16.0038 17.4987 16.5355C17.5069 16.7063 17.4739 16.8567 17.4442 16.9673C17.4161 17.0721 17.3755 17.1942 17.3343 17.3183L17.303 17.4128C17.1589 17.8475 17.0465 18.1867 16.8653 18.473C16.5737 18.9339 16.1539 19.2945 15.6623 19.5134L15.5844 19.9029C15.465 20.5024 15.3719 20.9698 15.1526 21.3565C14.8158 21.9505 14.27 22.3979 13.6215 22.6117C13.1993 22.7509 12.7227 22.7505 12.1114 22.7501L12.0001 22.75L11.8888 22.7501C11.2774 22.7505 10.8009 22.7509 10.3786 22.6117C9.73014 22.3979 9.18439 21.9505 8.84756 21.3565C8.62825 20.9698 8.53516 20.5024 8.41575 19.9029L8.33793 19.5135C7.84618 19.2946 7.42628 18.934 7.13467 18.473C6.95351 18.1867 6.84109 17.8475 6.697 17.4128L6.66566 17.3183C6.62443 17.1942 6.58387 17.0721 6.55577 16.9673C6.5261 16.8567 6.4931 16.7063 6.50126 16.5355C6.52666 16.0038 6.86202 15.5351 7.35973 15.3415C7.51965 15.2793 7.67317 15.2631 7.78741 15.2564C7.89562 15.25 8.02402 15.25 8.15425 15.25L11.25 15.25V11.6513C10.5765 11.472 9.97394 11.0602 9.45685 10.5172C9.17121 10.2172 9.18283 9.74249 9.4828 9.45685C9.78277 9.17121 10.2575 9.18283 10.5431 9.4828C11.0658 10.0317 11.5588 10.25 12 10.25ZM10.1524 20.6166C10.078 20.4855 10.0298 20.3098 9.91542 19.75H14.0848C13.9704 20.3098 13.9221 20.4855 13.8478 20.6166C13.6947 20.8866 13.4466 21.09 13.1519 21.1871C12.9893 21.2407 12.7768 21.25 12.0001 21.25C11.2233 21.25 11.0108 21.2407 10.8483 21.1871C10.5535 21.09 10.3055 20.8866 10.1524 20.6166ZM8.09463 16.8618L8.05768 16.7501L8.17156 16.75H15.8284L15.9423 16.7501L15.9053 16.8618C15.7227 17.4117 15.6677 17.5604 15.5977 17.6711C15.4262 17.9422 15.1578 18.1359 14.8488 18.2131C14.7229 18.2446 14.5659 18.25 13.9881 18.25H10.0119C9.43402 18.25 9.27707 18.2446 9.15121 18.2131C8.84216 18.1359 8.5738 17.9422 8.4023 17.6711C8.33228 17.5604 8.27725 17.4117 8.09463 16.8618Z" fill="white"/>
</svg>
