<svg width="20" height="20" viewBox="0 0 20 20" fill="none" xmlns="http://www.w3.org/2000/svg">
<path d="M14.0929 2.05205C13.8455 1.81134 13.4498 1.81675 13.2091 2.06415C12.9684 2.31154 12.9738 2.70723 13.2212 2.94795L13.8314 3.54167H7.66187C4.02188 3.54167 1.04169 6.41715 1.04169 10C1.04169 11.3754 1.48309 12.651 2.23331 13.6975C2.43442 13.978 2.82488 14.0424 3.10542 13.8413C3.38596 13.6402 3.45034 13.2497 3.24923 12.9692C2.64476 12.126 2.29169 11.1033 2.29169 10C2.29169 7.13953 4.67977 4.79167 7.66187 4.79167L14.1656 4.79167C14.3976 4.79174 14.6331 4.79181 14.8168 4.76654C14.9804 4.74403 15.3872 4.668 15.5621 4.25715C15.7408 3.83743 15.5008 3.49052 15.399 3.35881C15.2862 3.21289 15.1183 3.04967 14.9549 2.89078L14.0929 2.05205Z" fill="#3260BB"/>
<path d="M17.7664 6.30252C17.5653 6.02198 17.1749 5.95759 16.8943 6.1587C16.6138 6.35981 16.5494 6.75027 16.7505 7.03081C17.355 7.87401 17.7081 8.8967 17.7081 10C17.7081 12.8605 15.32 15.2083 12.3379 15.2083L5.83422 15.2083C5.60217 15.2083 5.36667 15.2082 5.183 15.2335C5.01938 15.256 4.61255 15.332 4.43765 15.7429C4.25898 16.1626 4.49894 16.5095 4.60076 16.6412C4.71357 16.7871 4.88143 16.9503 5.04484 17.1092L5.90685 17.9479C6.15424 18.1887 6.54993 18.1832 6.79065 17.9359C7.03136 17.6885 7.02595 17.2928 6.77855 17.052L6.16836 16.4583H12.3379C15.9779 16.4583 18.9581 13.5829 18.9581 10C18.9581 8.62455 18.5167 7.34904 17.7664 6.30252Z" fill="#3260BB"/>
</svg>
