<svg width="91" height="93" viewBox="0 0 91 93" fill="none" xmlns="http://www.w3.org/2000/svg">
<g filter="url(#filter0_f_60906_24501)">
<path d="M15.106 60.283L45.5045 79.8925L75.7218 59.042L45.5045 45.959L15.106 60.283Z" fill="black" fill-opacity="0.3"/>
</g>
<path d="M8.46021 6.21432L39.7817 0L45.8051 16.8443L14.7848 25.6753L8.46021 6.21432Z" fill="url(#paint0_linear_60906_24501)"/>
<path d="M45.8058 39.2498V16.7401V16.6816L45.7052 16.7108L45.6048 16.6816V16.7401L14.936 25.6762L45.6048 39.1614V39.2498L45.7052 39.2055L45.8058 39.2498Z" fill="url(#paint1_linear_60906_24501)"/>
<path d="M45.8501 39.3203V17.0189V16.9609L45.9479 16.9899L46.0457 16.9609V17.0189L64.0171 22.2014L75.8955 25.8723L46.0457 39.2328V39.3203L45.9479 39.2765L45.8501 39.3203Z" fill="url(#paint2_linear_60906_24501)"/>
<path d="M82.9498 6.21431L51.6281 0L45.6047 16.8443L76.3328 25.7566L82.9498 6.21431Z" fill="url(#paint3_linear_60906_24501)"/>
<path d="M44.8048 26.5607C44.7098 26.5591 44.5999 26.5591 44.4643 26.5591C43.8975 26.5591 43.438 26.0996 43.438 25.5328C43.438 24.966 43.8975 24.5066 44.4643 24.5066L44.5114 24.5065C44.7921 24.5064 45.0956 24.5063 45.3518 24.5408C45.6519 24.5811 46.0353 24.6849 46.3579 25.0075C46.6806 25.3302 46.7843 25.7136 46.8247 26.0137C46.8591 26.2699 46.859 26.5734 46.8589 26.854L46.8589 33.7429C46.8589 34.3097 46.3994 34.7692 45.8326 34.7692C45.2658 34.7692 44.8064 34.3097 44.8064 33.7429V26.9012C44.8064 26.7656 44.8063 26.6557 44.8048 26.5607Z" fill="#A719DD"/>
<path d="M45.4905 20.0594C44.7348 20.0594 44.1222 20.672 44.1222 21.4278C44.1222 22.1835 44.7348 22.7961 45.4905 22.7961H45.5028C46.2586 22.7961 46.8712 22.1835 46.8712 21.4278C46.8712 20.672 46.2586 20.0594 45.5028 20.0594H45.4905Z" fill="#A719DD"/>
<path fill-rule="evenodd" clip-rule="evenodd" d="M30.7915 26.9011C30.7915 35.0251 37.3773 41.6109 45.5012 41.6109C53.6252 41.6109 60.211 35.0251 60.211 26.9011C60.211 18.7772 53.6252 12.1914 45.5012 12.1914C37.3773 12.1914 30.7915 18.7772 30.7915 26.9011ZM45.5012 39.5584C38.5109 39.5584 32.844 33.8915 32.844 26.9011C32.844 19.9108 38.5109 14.2439 45.5012 14.2439C52.4916 14.2439 58.1584 19.9108 58.1584 26.9011C58.1584 33.8915 52.4916 39.5584 45.5012 39.5584Z" fill="#A719DD"/>
<path d="M45.8058 39.2867L45.5045 73.6031L15.6888 52.7526L14.936 21.2598L45.8058 39.2867Z" fill="#ECECEC"/>
<path d="M45.6046 39.2867L45.5044 73.6031L75.7217 52.7526L76.4746 21.2598L45.6046 39.2867Z" fill="#DBDBDB"/>
<path d="M90.6998 12.8262L59.2274 26.2362L45.1729 39.885L75.6413 26.5632L90.6998 12.8262Z" fill="url(#paint4_linear_60906_24501)"/>
<path d="M46.2927 39.4432L45.0723 39.9733L59.2273 26.2362L91.0005 12.8262L90.2628 13.5615L59.2273 26.8904L46.2927 39.4432Z" fill="#F4F4F4"/>
<path d="M0.163818 12.7246L31.9372 26.1346L46.0921 39.8717L15.2223 26.4617L0.163818 12.7246Z" fill="#E2E0E0"/>
<path d="M45.1107 39.3525L46.0918 39.7824L31.7733 25.8065L0 12.3965L0.737702 13.1319L31.7733 26.4607L45.1107 39.3525Z" fill="#F4F4F4"/>
<defs>
<filter id="filter0_f_60906_24501" x="2.10596" y="32.959" width="86.6157" height="59.9336" filterUnits="userSpaceOnUse" color-interpolation-filters="sRGB">
<feFlood flood-opacity="0" result="BackgroundImageFix"/>
<feBlend mode="normal" in="SourceGraphic" in2="BackgroundImageFix" result="shape"/>
<feGaussianBlur stdDeviation="6.5" result="effect1_foregroundBlur_60906_24501"/>
</filter>
<linearGradient id="paint0_linear_60906_24501" x1="21.7082" y1="0.315935" x2="31.8361" y2="23.0637" gradientUnits="userSpaceOnUse">
<stop offset="0.0061" stop-color="#F4F4F4"/>
<stop offset="1" stop-color="#C7C7C7"/>
</linearGradient>
<linearGradient id="paint1_linear_60906_24501" x1="45.7054" y1="16.6816" x2="45.7054" y2="39.2498" gradientUnits="userSpaceOnUse">
<stop offset="0.0061" stop-color="#EDEDED"/>
<stop offset="1" stop-color="#969696"/>
</linearGradient>
<linearGradient id="paint2_linear_60906_24501" x1="45.9478" y1="16.9609" x2="45.9478" y2="39.3203" gradientUnits="userSpaceOnUse">
<stop offset="0.0061" stop-color="#E6E6E6"/>
<stop offset="1" stop-color="#7C7C7C"/>
</linearGradient>
<linearGradient id="paint3_linear_60906_24501" x1="64.7882" y1="26.1598" x2="63.8598" y2="-0.427113" gradientUnits="userSpaceOnUse">
<stop offset="0.2378" stop-color="#EDEDED"/>
<stop offset="1" stop-color="#D9D9D9"/>
</linearGradient>
<linearGradient id="paint4_linear_60906_24501" x1="68.1794" y1="12.4331" x2="67.6933" y2="40.278" gradientUnits="userSpaceOnUse">
<stop offset="0.2378" stop-color="#EDEDED"/>
<stop offset="1" stop-color="#BAB9B9"/>
</linearGradient>
</defs>
</svg>
