<svg width="32" height="32" viewBox="0 0 32 32" fill="none" xmlns="http://www.w3.org/2000/svg">
<path d="M22.7 22.1C22.4 22.6 21.8 22.7 21.3 22.4C17.6 20.1 12.9 19.6 7.4 20.9C6.9 21 6.4 20.7 6.2 20.2C6.1 19.6 6.4 19.1 6.9 19C12.9 17.6 18.1 18.2 22.3 20.7C22.8 21 22.9 21.6 22.7 22.1ZM24.5 18.1C24.2 18.7 23.4 18.9 22.8 18.6C18.5 16 12 15.2 7 16.8C6.3 17 5.6 16.6 5.4 15.9C5.2 15.2 5.6 14.5 6.3 14.3C12.1 12.6 19.3 13.4 24.2 16.4C24.8 16.8 25 17.5 24.5 18.1ZM24.7 13.9C19.6 10.9 11.2 10.6 6.4 12.1C5.6 12.3 4.7 11.9 4.5 11.1C4.3 10.3 4.7 9.4 5.5 9.2C11.1 7.5 20.4 7.8 26.3 11.3C27 11.7 27.3 12.7 26.8 13.4C26.4 14.2 25.4 14.4 24.7 13.9Z" fill="black"/>
</svg>
