<svg width="100" height="100" viewBox="0 0 100 100" fill="none" xmlns="http://www.w3.org/2000/svg">
<path d="M84.4384 40.7537V33.8661C84.4384 32.0394 83.7128 30.2875 82.4211 28.9958C81.1294 27.7042 79.3775 26.9785 77.5508 26.9785H22.4501C20.6234 26.9785 18.8715 27.7042 17.5798 28.9958C16.2882 30.2875 15.5625 32.0394 15.5625 33.8661V68.3041C15.5625 70.1308 16.2882 71.8827 17.5798 73.1743C18.8715 74.466 20.6234 75.1917 22.4501 75.1917H50.0005M84.4384 40.7537H29.3377M84.4384 40.7537V54.5289M80.9946 65.0325C79.8866 63.9018 78.5668 63.0005 77.1104 62.38C75.6541 61.7595 74.0898 61.4318 72.5069 61.4159C70.9239 61.3999 69.3534 61.6958 67.8848 62.2868C66.4162 62.8778 65.0784 63.7523 63.9478 64.8603C62.8172 65.9683 61.9159 67.2881 61.2954 68.7444C60.6748 70.2008 60.3472 71.7651 60.3312 73.348C60.2989 76.5449 61.5379 79.6237 63.7756 81.9071M80.9946 65.0325C83.2323 67.3158 84.4713 70.3946 84.439 73.5915C84.4067 76.7884 83.1058 79.8415 80.8224 82.0792C78.5391 84.317 75.4603 85.556 72.2634 85.5237C69.0665 85.4914 66.0134 84.1904 63.7756 81.9071M80.9946 65.0325L63.7756 81.9071" stroke="url(#paint0_linear_65505_18607)" stroke-width="5" stroke-linecap="round" stroke-linejoin="round"/>
<defs>
<linearGradient id="paint0_linear_65505_18607" x1="77.265" y1="13.5618" x2="77.265" y2="85.5243" gradientUnits="userSpaceOnUse">
<stop stop-color="#A719DD"/>
<stop offset="0.630117" stop-color="#623BD8"/>
<stop offset="1" stop-color="#4489EB"/>
</linearGradient>
</defs>
</svg>
