<svg width="84" height="84" viewBox="0 0 84 84" fill="none" xmlns="http://www.w3.org/2000/svg">
<path d="M8.85616 5.14384C7.83103 4.11872 6.16897 4.11872 5.14384 5.14384C4.11872 6.16897 4.11872 7.83103 5.14384 8.85616L16.0542 19.7666C12.6868 21.7747 8.86895 24.7367 5.30646 27.745C4.19881 28.6803 4.05913 30.3365 4.99447 31.4442C5.92982 32.5518 7.586 32.6915 8.69365 31.7562C12.7371 28.3417 16.7726 25.2893 19.9048 23.6171L28.0459 31.7583C24.3747 33.3176 20.8482 35.5002 17.5696 38.2324C16.4559 39.1605 16.3054 40.8158 17.2335 41.9295C18.1616 43.0432 19.8168 43.1937 20.9305 42.2656C24.4596 39.3247 28.2442 37.1564 32.1044 35.8167L39.3462 43.0585C35.0543 43.6452 31.2045 45.6294 27.907 48.8805C26.8747 49.8983 26.8629 51.5603 27.8807 52.5927C28.8986 53.6251 30.5606 53.6368 31.593 52.619C34.9986 49.2612 38.9522 47.7896 43.5215 48.1889C43.8265 48.2156 44.1239 48.1889 44.4044 48.1167L75.1438 78.8562C76.169 79.8813 77.831 79.8813 78.8562 78.8562C79.8813 77.831 79.8813 76.169 78.8562 75.1438L8.85616 5.14384Z" fill="url(#paint0_linear_60885_16417)"/>
<path d="M32.7579 14.0056C48.4848 11.0011 64.4421 15.71 78.6941 27.7447C79.8017 28.68 79.9414 30.3362 79.0061 31.4439C78.0707 32.5515 76.4146 32.6912 75.3069 31.7559C62.0607 20.5705 47.6694 16.5018 33.7431 19.1623C32.3191 19.4344 30.9442 18.5006 30.6721 17.0766C30.4001 15.6526 31.3339 14.2777 32.7579 14.0056Z" fill="url(#paint1_linear_60885_16417)"/>
<path d="M44.6558 31.1018C44.876 29.6688 46.216 28.6857 47.649 28.9058C54.4977 29.958 60.9756 33.4054 66.4898 38.284C67.5756 39.2446 67.677 40.9036 66.7164 41.9894C65.7557 43.0751 64.0968 43.1766 63.011 42.216C58.0765 37.8503 52.4963 34.9621 46.8518 34.0949C45.4188 33.8748 44.4357 32.5347 44.6558 31.1018Z" fill="url(#paint2_linear_60885_16417)"/>
<path fill-rule="evenodd" clip-rule="evenodd" d="M34.125 63C34.125 58.6508 37.6508 55.125 42 55.125C46.3492 55.125 49.875 58.6508 49.875 63C49.875 67.3492 46.3492 70.875 42 70.875C37.6508 70.875 34.125 67.3492 34.125 63ZM42 60.375C40.5503 60.375 39.375 61.5503 39.375 63C39.375 64.4497 40.5503 65.625 42 65.625C43.4497 65.625 44.625 64.4497 44.625 63C44.625 61.5503 43.4497 60.375 42 60.375Z" fill="url(#paint3_linear_60885_16417)"/>
<defs>
<linearGradient id="paint0_linear_60885_16417" x1="71.7869" y1="-12.8698" x2="71.7869" y2="79.625" gradientUnits="userSpaceOnUse">
<stop stop-color="#A719DD"/>
<stop offset="0.630117" stop-color="#623BD8"/>
<stop offset="1" stop-color="#4489EB"/>
</linearGradient>
<linearGradient id="paint1_linear_60885_16417" x1="71.7869" y1="-12.8698" x2="71.7869" y2="79.625" gradientUnits="userSpaceOnUse">
<stop stop-color="#A719DD"/>
<stop offset="0.630117" stop-color="#623BD8"/>
<stop offset="1" stop-color="#4489EB"/>
</linearGradient>
<linearGradient id="paint2_linear_60885_16417" x1="71.7869" y1="-12.8698" x2="71.7869" y2="79.625" gradientUnits="userSpaceOnUse">
<stop stop-color="#A719DD"/>
<stop offset="0.630117" stop-color="#623BD8"/>
<stop offset="1" stop-color="#4489EB"/>
</linearGradient>
<linearGradient id="paint3_linear_60885_16417" x1="71.7869" y1="-12.8698" x2="71.7869" y2="79.625" gradientUnits="userSpaceOnUse">
<stop stop-color="#A719DD"/>
<stop offset="0.630117" stop-color="#623BD8"/>
<stop offset="1" stop-color="#4489EB"/>
</linearGradient>
</defs>
</svg>
