<svg width="24" height="24" viewBox="0 0 24 24" fill="none" xmlns="http://www.w3.org/2000/svg">
<path fill-rule="evenodd" clip-rule="evenodd" d="M11.1707 13.1741C11.1906 13.1904 11.207 13.2062 11.2213 13.2216C11.3108 13.318 11.4104 13.5007 11.5288 14.0391C12.0798 16.5447 12.5073 18.4888 12.9623 19.8071C13.1892 20.4645 13.4445 21.0336 13.7678 21.4533C14.1052 21.8913 14.5642 22.2222 15.1683 22.2489C15.5444 22.2655 15.8571 22.0938 16.0715 21.9344C16.2975 21.7666 16.51 21.5414 16.7071 21.2953C17.1031 20.8005 17.5192 20.1159 17.9332 19.3247C18.7652 17.7347 19.6462 15.6028 20.3917 13.4096C21.1368 11.2173 21.7577 8.9306 22.0568 7.0301C22.206 6.0823 22.2798 5.20207 22.2388 4.46477C22.1999 3.76556 22.0509 3.03106 21.5973 2.54257C21.1299 2.03918 20.397 1.85063 19.6968 1.78314C18.9611 1.71223 18.08 1.75939 17.1313 1.88382C15.2288 2.13337 12.9302 2.71102 10.7222 3.42176C8.51281 4.13295 6.35914 4.98865 4.74626 5.80847C3.94355 6.21648 3.24734 6.62932 2.74121 7.02586C2.48919 7.22331 2.25922 7.436 2.08623 7.66237C1.92123 7.87829 1.74764 8.18549 1.75002 8.55582C1.75629 9.5279 2.41829 10.2149 3.12327 10.676C3.84284 11.1467 4.77998 11.5014 5.71161 11.7792C6.65324 12.06 7.64346 12.2776 8.49473 12.454C8.70087 12.4967 8.89638 12.5365 9.08018 12.574C9.67786 12.6958 10.1518 12.7924 10.4646 12.8802C10.7392 12.9572 10.9131 13.0237 11.0284 13.0832C11.073 13.1194 11.1208 13.1497 11.1707 13.1741ZM3.2361 8.63711C3.23595 8.63747 3.23608 8.63712 3.2361 8.63711L3.23701 8.63514C3.23657 8.63604 3.23627 8.6367 3.2361 8.63711ZM3.27807 8.57315C3.26793 8.58643 3.26003 8.59759 3.25397 8.6067C3.28018 8.81737 3.44258 9.0925 3.94437 9.42072C4.48117 9.77184 5.25315 10.0772 6.14027 10.3417C7.01739 10.6033 7.95552 10.8104 8.79906 10.9852C8.97988 11.0226 9.15867 11.059 9.33263 11.0945C9.94591 11.2193 10.4994 11.332 10.8698 11.4359C11.0345 11.4821 11.1952 11.5318 11.3498 11.5896L14.4697 8.46967C14.7626 8.17678 15.2374 8.17678 15.5303 8.46967C15.8232 8.76256 15.8232 9.23744 15.5303 9.53033L12.5542 12.5065C12.7765 12.8604 12.8965 13.2742 12.9938 13.717C13.5539 16.2638 13.9608 18.1024 14.3802 19.3177C14.5905 19.9271 14.7825 20.3126 14.956 20.5378C15.0528 20.6634 15.123 20.7143 15.1704 20.7352L15.1771 20.7303C15.2598 20.6688 15.3808 20.5519 15.5361 20.3579C15.8447 19.9723 16.209 19.3845 16.6042 18.6293C17.3904 17.1266 18.2429 15.0704 18.9715 12.9269C19.7003 10.7825 20.2939 8.58376 20.5751 6.79691C20.716 5.90104 20.7738 5.1371 20.7411 4.5481C20.7062 3.921 20.5759 3.64704 20.4981 3.56326C20.4211 3.48026 20.1655 3.33527 19.5529 3.27622C18.9758 3.2206 18.2198 3.2539 17.3264 3.37108C15.545 3.60474 13.3402 4.15486 11.1818 4.84961C9.02487 5.54391 6.94915 6.37141 5.42593 7.14564C4.66058 7.53466 4.06206 7.89656 3.66631 8.20662C3.4674 8.36246 3.34464 8.48604 3.27807 8.57315Z" fill="#AAB9CC"/>
</svg>
