<svg width="24" height="24" viewBox="0 0 24 24" fill="none" xmlns="http://www.w3.org/2000/svg">
<path d="M15 13.75C14.59 13.75 14.25 13.41 14.25 13V12C14.25 11.59 14.59 11.25 15 11.25C15.41 11.25 15.75 11.59 15.75 12V13C15.75 13.41 15.41 13.75 15 13.75Z" fill="url(#paint0_linear_192_3808)"/>
<path d="M9 13.75C8.59 13.75 8.25 13.41 8.25 13V12C8.25 11.59 8.59 11.25 9 11.25C9.41 11.25 9.75 11.59 9.75 12V13C9.75 13.41 9.41 13.75 9 13.75Z" fill="url(#paint1_linear_192_3808)"/>
<path d="M9.55029 17.0999C9.64019 17.1699 10.4585 17.7487 11.9952 17.75C11.9936 17.75 11.9919 17.75 11.9902 17.75H12.0002C11.9986 17.75 11.9969 17.75 11.9952 17.75C13.532 17.7487 14.3503 17.1699 14.4402 17.0999C14.7702 16.8599 14.8402 16.4 14.6002 16.07C14.3602 15.73 13.9003 15.66 13.5603 15.89C13.5403 15.91 13.0102 16.25 12.0002 16.25C10.9902 16.25 10.4802 15.92 10.4402 15.89C10.1102 15.65 9.64026 15.7199 9.40026 16.0499C9.15026 16.3799 9.22029 16.8499 9.55029 17.0999Z" fill="url(#paint2_linear_192_3808)"/>
<path fill-rule="evenodd" clip-rule="evenodd" d="M11.25 5.62132C10.3772 5.31155 9.75 4.47719 9.75 3.5C9.75 2.26 10.76 1.25 12 1.25C13.24 1.25 14.25 2.26 14.25 3.5C14.25 4.47719 13.6228 5.31155 12.75 5.62132V7.25H13C16.0299 7.25 17.55 7.25 18.65 8.34998C19.2515 8.95146 19.5241 9.70843 19.6476 10.75C20.5855 10.7507 21.1254 10.7646 21.62 11.05C21.96 11.25 22.25 11.53 22.45 11.88C22.75 12.4 22.75 12.97 22.75 14C22.75 15.03 22.75 15.6 22.45 16.12C22.26 16.46 21.97 16.75 21.62 16.95C21.1254 17.2354 20.5855 17.2493 19.6476 17.25C19.5241 18.2916 19.2515 19.0485 18.65 19.65C17.55 20.75 16.0301 20.75 13.0002 20.75H12.48C12.04 21.51 10.87 22.75 8 22.75C7.7 22.75 7.42006 22.57 7.31006 22.29C7.20006 22.01 7.25997 21.69 7.46997 21.47C7.58997 21.35 7.85004 21.03 8.04004 20.68C6.87004 20.58 6.01998 20.32 5.34998 19.65C4.74771 19.0478 4.4752 18.2926 4.3519 17.25C3.41428 17.2493 2.87453 17.2353 2.38 16.95C2.04 16.75 1.75005 16.47 1.55005 16.12C1.25005 15.6 1.25 15.03 1.25 14C1.25 12.97 1.25005 12.4 1.55005 11.88C1.74005 11.54 2.03 11.25 2.38 11.05C2.87453 10.7647 3.41428 10.7507 4.3519 10.75C4.4752 9.7074 4.74771 8.95224 5.34998 8.34998C6.44995 7.25 7.96993 7.25 10.9998 7.25H11.25V5.62132ZM11.8789 8.73999H11.01L11 8.75C8.38021 8.75 7.07001 8.75 6.41003 9.40997C5.75003 10.07 5.75 11.38 5.75 14C5.75 16.62 5.75003 17.93 6.41003 18.59C6.84003 19.02 7.52002 19.19 9.02002 19.23C9.43002 19.24 9.75 19.57 9.75 19.98C9.75 20.39 9.65001 20.74 9.51001 21.08C10.946 20.7258 11.2456 19.9041 11.2773 19.8171L11.28 19.81C11.36 19.48 11.66 19.24 12.01 19.24H13.01C15.6298 19.24 16.94 19.24 17.6 18.58C18.26 17.92 18.26 16.61 18.26 13.99C18.26 11.37 18.26 10.06 17.6 9.40002C16.94 8.74002 15.63 8.73999 13.01 8.73999H12.1211C12.0816 8.74657 12.0412 8.75 12 8.75C11.9588 8.75 11.9184 8.74657 11.8789 8.73999ZM12 4.25C12.41 4.25 12.75 3.91 12.75 3.5C12.75 3.09 12.41 2.75 12 2.75C11.59 2.75 11.25 3.09 11.25 3.5C11.25 3.91 11.59 4.25 12 4.25ZM4.26157 12.2502C3.67373 12.2513 3.27933 12.2615 3.12 12.35C3 12.42 2.90998 12.51 2.84998 12.62C2.75 12.8 2.75 13.2798 2.75 13.9995V14.0005C2.75 14.7202 2.75 15.2 2.84998 15.38C2.90998 15.49 3.01 15.59 3.12 15.65C3.27933 15.7385 3.67373 15.7487 4.26157 15.7498C4.25 15.2247 4.25 14.6444 4.25 14.0002C4.25 13.356 4.25 12.7753 4.26157 12.2502ZM19.75 13.9998C19.75 13.3562 19.75 12.7757 19.7383 12.2502C20.3262 12.2513 20.7207 12.2615 20.88 12.35C20.99 12.41 21.09 12.51 21.15 12.62C21.25 12.8 21.25 13.2798 21.25 13.9995V14.0005C21.25 14.7202 21.25 15.2 21.15 15.38C21.09 15.49 21 15.58 20.88 15.65C20.7207 15.7385 20.3262 15.7487 19.7383 15.7498C19.75 15.2243 19.75 14.6434 19.75 13.9998Z" fill="url(#paint3_linear_192_3808)"/>
<defs>
<linearGradient id="paint0_linear_192_3808" x1="1.7834" y1="22.75" x2="22.75" y2="22.75" gradientUnits="userSpaceOnUse">
<stop stop-color="#A719DD"/>
<stop offset="0.45" stop-color="#623BD8"/>
<stop offset="1" stop-color="#4489EB"/>
</linearGradient>
<linearGradient id="paint1_linear_192_3808" x1="1.7834" y1="22.75" x2="22.75" y2="22.75" gradientUnits="userSpaceOnUse">
<stop stop-color="#A719DD"/>
<stop offset="0.45" stop-color="#623BD8"/>
<stop offset="1" stop-color="#4489EB"/>
</linearGradient>
<linearGradient id="paint2_linear_192_3808" x1="1.7834" y1="22.75" x2="22.75" y2="22.75" gradientUnits="userSpaceOnUse">
<stop stop-color="#A719DD"/>
<stop offset="0.45" stop-color="#623BD8"/>
<stop offset="1" stop-color="#4489EB"/>
</linearGradient>
<linearGradient id="paint3_linear_192_3808" x1="1.7834" y1="22.75" x2="22.75" y2="22.75" gradientUnits="userSpaceOnUse">
<stop stop-color="#A719DD"/>
<stop offset="0.45" stop-color="#623BD8"/>
<stop offset="1" stop-color="#4489EB"/>
</linearGradient>
</defs>
</svg>
