<svg width="40" height="40" viewBox="0 0 40 40" fill="none" xmlns="http://www.w3.org/2000/svg">
<path d="M29.2299 8.36993C29.4916 8.10062 29.8287 7.6721 30.1491 7.26421L30.2236 7.16929C30.5451 6.75978 30.889 6.32176 31.2401 5.90739L31.2502 5.89548V16.6654C31.2502 17.3557 31.8098 17.9154 32.5002 17.9154C33.1905 17.9154 33.7502 17.3557 33.7502 16.6654V5.89548L33.7603 5.90739C34.1114 6.3218 34.4552 6.75974 34.7768 7.16929L34.8513 7.26421C35.1717 7.6721 35.5087 8.10062 35.7705 8.36993C36.2517 8.86497 37.043 8.87622 37.5381 8.39505C38.0331 7.91388 38.0444 7.1225 37.5632 6.62746C37.4154 6.47536 37.1726 6.17234 36.8173 5.71997L36.7389 5.62011C36.4221 5.21653 36.0505 4.74309 35.6676 4.29121C35.2573 3.80695 34.798 3.30396 34.3389 2.91293C34.1088 2.71697 33.8494 2.52368 33.5705 2.37439C33.3014 2.2304 32.9306 2.08203 32.5002 2.08203C32.0697 2.08203 31.6989 2.2304 31.4299 2.37439C31.1509 2.52368 30.8916 2.71697 30.6615 2.91293C30.2024 3.30396 29.7431 3.80695 29.3327 4.29121C28.9498 4.74308 28.5782 5.21652 28.2614 5.6201L28.183 5.71997C27.8277 6.17234 27.585 6.47536 27.4371 6.62746C26.956 7.1225 26.9672 7.91388 27.4623 8.39505C27.9573 8.87622 28.7487 8.86498 29.2299 8.36993Z" fill="#8766CE"/>
<path d="M22.4437 6.30355C20.4581 6.21376 18.4224 6.23432 16.4654 6.3644C10.1331 6.78533 5.06533 11.9057 4.64796 18.3639C4.56201 19.6938 4.56201 21.0729 4.64796 22.4029C4.79447 24.6699 5.8059 26.8397 7.08708 28.7635C7.10622 28.7923 7.12417 28.8218 7.14087 28.852C8.25476 30.8688 7.438 33.1685 6.60603 34.7451C6.46974 35.0034 6.35777 35.2157 6.26503 35.4009C6.39083 35.4052 6.53244 35.4087 6.69629 35.4127C8.47753 35.4561 9.60684 34.9635 10.5061 34.3004L10.5355 34.2787C10.8249 34.0652 11.0872 33.8718 11.3042 33.7314C11.4927 33.6094 11.8375 33.3943 12.2567 33.3427C12.6956 33.2887 13.1213 33.438 13.3338 33.5127C13.6056 33.6082 13.9508 33.7504 14.3497 33.9147L14.3829 33.9284C15.0152 34.1888 15.7722 34.3562 16.4654 34.4023C18.7839 34.5564 21.2117 34.5568 23.5349 34.4023C29.8672 33.9814 34.935 28.8611 35.3524 22.4029C35.3862 21.8797 35.4067 21.3485 35.4139 20.8152C35.4232 20.1249 35.9904 19.5728 36.6807 19.5821C37.371 19.5915 37.923 20.1586 37.9137 20.8489C37.9059 21.4238 37.8838 21.9975 37.8472 22.5641C37.3506 30.2471 31.3118 36.3909 23.7008 36.8968C21.267 37.0586 18.7284 37.0583 16.2996 36.8968C15.358 36.8342 14.3331 36.6116 13.4308 36.24C13.034 36.0765 12.7646 35.966 12.5675 35.8937C12.432 35.9869 12.252 36.1192 11.9898 36.3125C10.6691 37.2864 9.00169 37.9696 6.63545 37.912L6.55923 37.9101C6.10275 37.8992 5.61617 37.8876 5.21937 37.8108C4.74142 37.7183 4.1501 37.4873 3.78001 36.8563C3.37721 36.1695 3.53871 35.475 3.69497 35.0377C3.84243 34.6249 4.09806 34.1408 4.3592 33.6462L4.395 33.5783C5.17222 32.1055 5.38873 30.9019 4.97317 30.0994C3.58596 28.0054 2.33804 25.4247 2.15316 22.5641C2.06027 21.1267 2.06027 19.64 2.15316 18.2026C2.64969 10.5197 8.6885 4.37584 16.2996 3.86991C18.3508 3.73356 20.4796 3.71218 22.5566 3.8061C23.2463 3.83729 23.7801 4.42165 23.7489 5.1113C23.7177 5.80095 23.1333 6.33474 22.4437 6.30355Z" fill="#8766CE"/>
<path d="M11.6664 20.832C11.6664 19.9116 12.4126 19.1654 13.3331 19.1654H13.348C14.2685 19.1654 15.0147 19.9116 15.0147 20.832C15.0147 21.7525 14.2685 22.4987 13.348 22.4987H13.3331C12.4126 22.4987 11.6664 21.7525 11.6664 20.832Z" fill="#8766CE"/>
<path d="M18.3256 20.832C18.3256 19.9116 19.0718 19.1654 19.9923 19.1654H20.0072C20.9277 19.1654 21.6739 19.9116 21.6739 20.832C21.6739 21.7525 20.9277 22.4987 20.0072 22.4987H19.9923C19.0718 22.4987 18.3256 21.7525 18.3256 20.832Z" fill="#8766CE"/>
<path d="M24.9848 20.832C24.9848 19.9116 25.731 19.1654 26.6515 19.1654H26.6664C27.5869 19.1654 28.3331 19.9116 28.3331 20.832C28.3331 21.7525 27.5869 22.4987 26.6664 22.4987H26.6515C25.731 22.4987 24.9848 21.7525 24.9848 20.832Z" fill="#8766CE"/>
</svg>
