<svg width="18" height="17" viewBox="0 0 18 17" fill="none" xmlns="http://www.w3.org/2000/svg">
<path fill-rule="evenodd" clip-rule="evenodd" d="M8.95833 4.84253C7.00233 4.84253 5.41667 6.42819 5.41667 8.3842C5.41667 10.3402 7.00233 11.9259 8.95833 11.9259C10.9143 11.9259 12.5 10.3402 12.5 8.3842C12.5 6.42819 10.9143 4.84253 8.95833 4.84253ZM6.66667 8.3842C6.66667 7.11854 7.69268 6.09253 8.95833 6.09253C10.224 6.09253 11.25 7.11854 11.25 8.3842C11.25 9.64985 10.224 10.6759 8.95833 10.6759C7.69268 10.6759 6.66667 9.64985 6.66667 8.3842Z" fill="white"/>
<path fill-rule="evenodd" clip-rule="evenodd" d="M6.21007 0.00808222C5.97307 -0.0238458 5.77327 0.045128 5.63724 0.104846C5.5122 0.159744 5.37113 0.239882 5.23427 0.317625L3.75539 1.15729C3.61567 1.23658 3.47251 1.31782 3.35997 1.39792C3.23846 1.4844 3.07428 1.62207 2.98004 1.84485C2.87715 2.08807 2.91035 2.3332 2.93479 2.47498C2.96123 2.62841 3.01012 2.81663 3.06263 3.01877L3.06861 3.04179C3.39881 4.3135 2.59221 5.68153 1.28648 6.0336L1.26348 6.0398C1.06593 6.09304 0.880827 6.14293 0.736056 6.19545C0.600618 6.24457 0.374269 6.33679 0.214767 6.545C0.068184 6.73634 0.0293284 6.94603 0.0140366 7.09444C-6.90979e-05 7.23134 -3.22428e-05 7.3951 3.61935e-06 7.55442L3.61935e-06 9.21376C-3.22428e-05 9.37308 -6.90979e-05 9.53683 0.0140355 9.67372C0.0293259 9.82213 0.0681781 10.0318 0.21475 10.2232C0.374244 10.4314 0.600591 10.5236 0.73602 10.5727C0.880787 10.6252 1.06589 10.6751 1.26344 10.7284L1.28645 10.7346C2.59169 11.0866 3.39776 12.4544 3.06735 13.7263L3.06137 13.7493C3.00885 13.9514 2.95993 14.1396 2.93347 14.293C2.90902 14.4348 2.87581 14.68 2.97868 14.9232C3.07291 15.146 3.23711 15.2837 3.35863 15.3702C3.47119 15.4503 3.61437 15.5315 3.75411 15.6108L5.23293 16.4505C5.36978 16.5282 5.51091 16.6084 5.63596 16.6633C5.77199 16.723 5.97181 16.792 6.20883 16.76C6.46648 16.7253 6.65745 16.5773 6.76727 16.485C6.88387 16.3869 7.01785 16.2531 7.16031 16.111L7.17707 16.0942C8.14981 15.1236 9.76822 15.1235 10.7409 16.0942L10.7577 16.1109C10.9002 16.2531 11.0341 16.3868 11.1507 16.4849C11.2606 16.5773 11.4515 16.7252 11.7092 16.7599C11.9462 16.7919 12.146 16.7229 12.282 16.6632C12.4071 16.6083 12.5482 16.5282 12.685 16.4504L14.164 15.6107C14.3037 15.5314 14.4469 15.4502 14.5594 15.3701C14.6809 15.2836 14.8451 15.1459 14.9394 14.923C15.0422 14.6798 15.009 14.4347 14.9845 14.2929C14.9581 14.1395 14.9091 13.9513 14.8566 13.7493L14.8506 13.7261C14.52 12.4541 15.3255 11.0865 16.6303 10.7346L16.6532 10.7284C16.8508 10.6751 17.0359 10.6252 17.1807 10.5727C17.3161 10.5236 17.5425 10.4313 17.702 10.2231C17.8485 10.0318 17.8874 9.82211 17.9026 9.67371C17.9168 9.53681 17.9167 9.37307 17.9167 9.21376V7.55443C17.9167 7.39511 17.9168 7.23136 17.9026 7.09446C17.8874 6.94605 17.8485 6.73637 17.7019 6.54503C17.5424 6.33683 17.3161 6.2446 17.1807 6.19547C17.0359 6.14295 16.8508 6.09305 16.6532 6.03979L16.6302 6.03359C15.325 5.68158 14.5189 4.31378 14.8493 3.04193L14.8553 3.01894C14.9078 2.81682 14.9567 2.62858 14.9832 2.47516C15.0077 2.33336 15.0409 2.08823 14.938 1.845C14.8438 1.62219 14.6796 1.48451 14.5581 1.39801C14.4455 1.31791 14.3023 1.23667 14.1626 1.15738L12.6837 0.317716C12.5469 0.23997 12.4058 0.159828 12.2808 0.104927C12.1447 0.0452098 11.9449 -0.0237642 11.7079 0.00816209C11.4503 0.0428694 11.2593 0.190802 11.1495 0.283165C11.0329 0.381235 10.8989 0.514923 10.7564 0.657087L10.7396 0.673857C9.76756 1.6436 8.15047 1.64357 7.17837 0.673785L7.16158 0.657027C7.0191 0.514858 6.88511 0.381164 6.76851 0.283091C6.65869 0.190725 6.4677 0.0427912 6.21007 0.00808222ZM5.83071 1.41642C5.9098 1.37151 5.97194 1.33626 6.02587 1.30701L6.03421 1.30249C6.09715 1.36118 6.17903 1.44249 6.29554 1.55872C7.75552 3.01523 10.1624 3.01531 11.6225 1.5588C11.739 1.44257 11.8209 1.36126 11.8838 1.30257L11.8921 1.30709C11.9461 1.33634 12.0082 1.37159 12.0873 1.4165L13.5245 2.23252C13.6051 2.27827 13.6686 2.31432 13.7225 2.34631L13.7333 2.35276C13.7136 2.4412 13.6833 2.55913 13.6395 2.72763C13.131 4.68517 14.3594 6.71583 16.3048 7.24047C16.4673 7.28431 16.5812 7.3153 16.6652 7.34109L16.6654 7.35198C16.6667 7.4141 16.6667 7.48644 16.6667 7.57841V9.18977C16.6667 9.28174 16.6667 9.35408 16.6654 9.41619L16.6652 9.42708C16.5812 9.45288 16.4673 9.48388 16.3047 9.52773C14.3594 10.0525 13.1321 12.0833 13.6408 14.0406C13.6846 14.209 13.7149 14.3269 13.7346 14.4153L13.7238 14.4218C13.6699 14.4538 13.6064 14.4898 13.5259 14.5356L12.0886 15.3516C12.0095 15.3965 11.9474 15.4318 11.8934 15.461L11.8851 15.4655C11.8222 15.4068 11.7403 15.3255 11.6239 15.2093C10.1632 13.7518 7.75477 13.7519 6.29413 15.2094C6.17767 15.3256 6.09581 15.4069 6.03289 15.4656L6.02456 15.4611C5.97063 15.4318 5.90849 15.3966 5.82939 15.3517L4.39214 14.5357C4.31157 14.4899 4.24812 14.4539 4.19422 14.4219L4.18339 14.4154C4.20307 14.327 4.23342 14.209 4.2772 14.0405C4.78573 12.083 3.55732 10.0524 1.61193 9.52771C1.44937 9.48387 1.33552 9.45288 1.25146 9.42709L1.25123 9.4162C1.25003 9.35409 1.25001 9.28174 1.25001 9.18977L1.25001 7.57841C1.25001 7.48643 1.25003 7.41409 1.25123 7.35197L1.25146 7.34109C1.33551 7.3153 1.44935 7.28432 1.6119 7.2405C3.55733 6.71595 4.78683 4.68543 4.27849 2.72764C4.23472 2.5591 4.20438 2.44114 4.18471 2.35268L4.19555 2.34622C4.24945 2.31424 4.31289 2.27819 4.39346 2.23245L5.83071 1.41642Z" fill="white"/>
</svg>
