<svg width="14" height="14" viewBox="0 0 14 14" fill="none" xmlns="http://www.w3.org/2000/svg">
<path d="M2.33398 4.08317V5.24984H11.6673V4.08317C11.6673 3.77375 11.5444 3.47701 11.3256 3.25821C11.1068 3.03942 10.8101 2.9165 10.5007 2.9165H3.50065C3.19123 2.9165 2.89449 3.03942 2.67569 3.25821C2.4569 3.47701 2.33398 3.77375 2.33398 4.08317Z" fill="#0E101A"/>
<path d="M9.33398 2.91667H10.5007C10.8101 2.91667 11.1068 3.03958 11.3256 3.25838C11.5444 3.47717 11.6673 3.77391 11.6673 4.08333V5.25H2.33398V4.08333C2.33398 3.77391 2.4569 3.47717 2.67569 3.25838C2.89449 3.03958 3.19123 2.91667 3.50065 2.91667H4.66732M9.33398 2.91667V1.75M9.33398 2.91667H4.66732M4.66732 2.91667V1.75M2.33398 5.54167V11.0833C2.33398 11.3928 2.4569 11.6895 2.67569 11.9083C2.89449 12.1271 3.19123 12.25 3.50065 12.25H10.5007C10.8101 12.25 11.1068 12.1271 11.3256 11.9083C11.5444 11.6895 11.6673 11.3928 11.6673 11.0833V5.54167" stroke="#0E101A" stroke-linecap="round" stroke-linejoin="round"/>
</svg>
