<svg width="38" height="38" viewBox="0 0 38 38" fill="none" xmlns="http://www.w3.org/2000/svg">
<rect width="38" height="38" rx="10.64" fill="#656172"/>
<path d="M15.25 10H19V16H15.25C14.4544 16 13.6913 15.6839 13.1287 15.1213C12.5661 14.5587 12.25 13.7956 12.25 13C12.25 12.2044 12.5661 11.4413 13.1287 10.8787C13.6913 10.3161 14.4544 10 15.25 10Z" fill="#322D3F"/>
<path d="M19 10H22.75C23.5456 10 24.3087 10.3161 24.8713 10.8787C25.4339 11.4413 25.75 12.2044 25.75 13C25.75 13.7956 25.4339 14.5587 24.8713 15.1213C24.3087 15.6839 23.5456 16 22.75 16H19V10Z" fill="#3E3A4A"/>
<path d="M19 16H22.75C23.5456 16 24.3087 16.3161 24.8713 16.8787C25.4339 17.4413 25.75 18.2044 25.75 19C25.75 19.7956 25.4339 20.5587 24.8713 21.1213C24.3087 21.6839 23.5456 22 22.75 22H19V16Z" fill="#353142"/>
<path d="M22 25C22 25.5933 21.8241 26.1734 21.4944 26.6667C21.1648 27.1601 20.6962 27.5446 20.1481 27.7716C19.5999 27.9987 18.9967 28.0581 18.4147 27.9424C17.8328 27.8266 17.2982 27.5409 16.8787 27.1213C16.4591 26.7018 16.1734 26.1672 16.0576 25.5853C15.9419 25.0033 16.0013 24.4001 16.2284 23.852C16.4554 23.3038 16.8399 22.8352 17.3333 22.5056C17.8266 22.1759 18.4067 22 19 22C19.7957 22 20.5587 22.3161 21.1213 22.8787C21.6839 23.4413 22 24.2044 22 25Z" fill="#433F50"/>
<path d="M15.25 16H19V22H15.25C14.4544 22 13.6913 21.6839 13.1287 21.1213C12.5661 20.5587 12.25 19.7956 12.25 19C12.25 18.2044 12.5661 17.4413 13.1287 16.8787C13.6913 16.3161 14.4544 16 15.25 16Z" fill="#433F4F"/>
</svg>
