<svg width="14" height="16" viewBox="0 0 14 16" fill="none" xmlns="http://www.w3.org/2000/svg">
<path d="M9.33333 7.41667H4.66667C3.70017 7.41667 2.91667 8.20017 2.91667 9.16667V11.5C2.91667 12.4665 3.70017 13.25 4.66667 13.25H9.33333C10.2998 13.25 11.0833 12.4665 11.0833 11.5V9.16667C11.0833 8.20017 10.2998 7.41667 9.33333 7.41667Z" fill="#7C5CFF"/>
<path d="M4.66667 7.41667V5.08333C4.66667 4.46449 4.9125 3.871 5.35008 3.43342C5.78767 2.99583 6.38116 2.75 7 2.75C7.61884 2.75 8.21233 2.99583 8.64992 3.43342C9.0875 3.871 9.33333 4.46449 9.33333 5.08333V7.41667" stroke="#7C5CFF" stroke-width="1.16667" stroke-linecap="round"/>
</svg>
