<svg width="20" height="20" viewBox="0 0 20 20" fill="none" xmlns="http://www.w3.org/2000/svg">
<path fill-rule="evenodd" clip-rule="evenodd" d="M2.30474 7.95432C2.32899 6.81684 2.34804 5.98217 2.43433 5.32182L7.11897 7.98136C8.19042 8.58964 9.06975 8.95899 10 8.95899C10.9303 8.95899 11.8096 8.58964 12.8811 7.98136L17.5658 5.32175C17.6521 5.98211 17.6712 6.8168 17.6954 7.95434L17.6977 8.05978C17.7043 8.36909 17.7078 8.53044 17.7083 8.75223C17.7092 9.09741 17.9897 9.37652 18.3349 9.37565C18.6801 9.37478 18.9592 9.09425 18.9583 8.74907C18.9577 8.51494 18.954 8.34159 18.9474 8.03508L18.9441 7.87882C18.9178 6.64236 18.8965 5.64427 18.757 4.84021C18.6104 3.99583 18.3254 3.30829 17.7389 2.71918C17.1498 2.12756 16.4525 1.84081 15.5946 1.6913C14.7751 1.54851 13.7526 1.52282 12.4819 1.49089L12.4334 1.48967C10.8059 1.44876 9.19427 1.44875 7.56673 1.48967L7.51824 1.49089C6.24757 1.52281 5.22506 1.5485 4.4056 1.69129C3.54762 1.8408 2.85034 2.12755 2.2613 2.71917C1.67477 3.30828 1.38975 3.99582 1.2432 4.8402C1.10365 5.64425 1.0824 6.6423 1.05607 7.87876L1.05503 7.92769C1.03732 8.75845 1.03732 9.58435 1.05503 10.4151L1.05607 10.464C1.0824 11.7005 1.10366 12.6986 1.24321 13.5026C1.38975 14.347 1.67477 15.0345 2.2613 15.6236C2.85034 16.2152 3.54763 16.502 4.40561 16.6515C5.22507 16.7943 6.24757 16.82 7.51824 16.8519L7.56673 16.8531C7.95922 16.863 8.3508 16.8705 8.74192 16.8756C9.08707 16.8801 9.37052 16.604 9.37503 16.2588C9.37954 15.9137 9.10339 15.6302 8.75824 15.6257C8.37219 15.6207 7.98564 15.6133 7.59815 15.6035C6.26758 15.5701 5.33786 15.5451 4.62019 15.4201C3.93065 15.2999 3.50069 15.0968 3.14712 14.7417C2.79105 14.384 2.59114 13.9592 2.4748 13.2889C2.35329 12.5888 2.33239 11.6855 2.30474 10.3885C2.28742 9.57547 2.28742 8.76733 2.30474 7.95432ZM12.402 2.73928C10.7954 2.69889 9.20474 2.69889 7.59814 2.73927C6.26758 2.77272 5.33785 2.79768 4.62019 2.92273C3.93064 3.04289 3.50069 3.246 3.14712 3.60112C3.00213 3.74674 2.88303 3.90351 2.78492 4.08347L7.73609 6.89432C8.76934 7.4809 9.41014 7.70899 10 7.70899C10.5899 7.70899 11.2307 7.4809 12.2639 6.89432L17.2152 4.08341C17.1171 3.90349 16.998 3.74674 16.853 3.60113C16.4995 3.24601 16.0695 3.0429 15.38 2.92275C14.6623 2.79769 13.7326 2.77273 12.402 2.73928Z" fill="#4489EB"/>
<path fill-rule="evenodd" clip-rule="evenodd" d="M11.4584 14.1673C11.4584 12.4414 12.8575 11.0423 14.5834 11.0423C16.3093 11.0423 17.7084 12.4414 17.7084 14.1673V14.584C17.7084 14.9292 17.4286 15.209 17.0834 15.209C16.7382 15.209 16.4584 14.9292 16.4584 14.584V14.1673C16.4584 13.1318 15.6189 12.2923 14.5834 12.2923C13.5479 12.2923 12.7084 13.1318 12.7084 14.1673C12.7084 15.2029 13.5479 16.0423 14.5834 16.0423C14.9608 16.0423 15.3121 15.9308 15.6063 15.739C15.9495 16.1773 16.4836 16.459 17.0834 16.459C18.1189 16.459 18.9584 15.6195 18.9584 14.584V14.1673C18.9584 11.7511 16.9997 9.79232 14.5834 9.79232C12.1672 9.79232 10.2084 11.7511 10.2084 14.1673C10.2084 16.5836 12.1672 18.5423 14.5834 18.5423C14.9286 18.5423 15.2084 18.2625 15.2084 17.9173C15.2084 17.5721 14.9286 17.2923 14.5834 17.2923C12.8575 17.2923 11.4584 15.8932 11.4584 14.1673ZM14.5834 13.5423C14.9286 13.5423 15.2084 13.8221 15.2084 14.1673C15.2084 14.5125 14.9286 14.7923 14.5834 14.7923C14.2382 14.7923 13.9584 14.5125 13.9584 14.1673C13.9584 13.8221 14.2382 13.5423 14.5834 13.5423Z" fill="#4489EB"/>
</svg>
