<svg width="40" height="40" viewBox="0 0 40 40" fill="none" xmlns="http://www.w3.org/2000/svg">
<path fill-rule="evenodd" clip-rule="evenodd" d="M19.9998 27.9154C25.2926 27.9154 29.5832 23.6248 29.5832 18.332V11.6654C29.5832 6.37264 25.2926 2.08203 19.9998 2.08203C14.7071 2.08203 10.4165 6.37264 10.4165 11.6654V18.332C10.4165 23.6248 14.7071 27.9154 19.9998 27.9154ZM19.9998 4.58203C16.0878 4.58203 12.9165 7.75335 12.9165 11.6654V18.332C12.9165 22.244 16.0878 25.4154 19.9998 25.4154C23.4853 25.4154 26.3828 22.8979 26.9732 19.582H23.3332C22.6428 19.582 22.0832 19.0224 22.0832 18.332C22.0832 17.6417 22.6428 17.082 23.3332 17.082H27.0832V12.9154H23.3332C22.6428 12.9154 22.0832 12.3557 22.0832 11.6654C22.0832 10.975 22.6428 10.4154 23.3332 10.4154H26.9732C26.3828 7.09952 23.4853 4.58203 19.9998 4.58203Z" fill="#20368A"/>
<path d="M7.9165 18.332C7.9165 17.6417 7.35686 17.082 6.6665 17.082C5.97615 17.082 5.4165 17.6417 5.4165 18.332C5.4165 25.9651 11.2808 32.2285 18.7498 32.8625V35.4154H14.9998C14.3095 35.4154 13.7498 35.975 13.7498 36.6654C13.7498 37.3557 14.3095 37.9154 14.9998 37.9154H24.9998C25.6902 37.9154 26.2498 37.3557 26.2498 36.6654C26.2498 35.975 25.6902 35.4154 24.9998 35.4154H21.2498V32.8625C28.7188 32.2285 34.5832 25.9651 34.5832 18.332C34.5832 17.6417 34.0235 17.082 33.3332 17.082C32.6428 17.082 32.0832 17.6417 32.0832 18.332C32.0832 25.0055 26.6733 30.4154 19.9998 30.4154C13.3264 30.4154 7.9165 25.0055 7.9165 18.332Z" fill="#20368A"/>
</svg>
