<svg width="22" height="22" viewBox="0 0 22 22" fill="none" xmlns="http://www.w3.org/2000/svg">
<path d="M13.75 5.5C13.75 3.98122 12.5188 2.75 11 2.75C9.48122 2.75 8.25 3.98122 8.25 5.5V11C8.25 12.5188 9.48122 13.75 11 13.75C12.5188 13.75 13.75 12.5188 13.75 11V5.5Z" stroke="#7C5CFF" stroke-width="1.46667" stroke-linecap="round" stroke-linejoin="round"/>
<path d="M4.58333 10.0833C4.58333 11.7851 5.25937 13.4172 6.46273 14.6206C7.66609 15.824 9.29819 16.5 11 16.5M11 16.5C12.7018 16.5 14.3339 15.824 15.5373 14.6206C16.7406 13.4172 17.4167 11.7851 17.4167 10.0833M11 16.5V19.25" stroke="#7C5CFF" stroke-width="1.46667" stroke-linecap="round" stroke-linejoin="round"/>
</svg>
