<svg width="24" height="24" viewBox="0 0 24 24" fill="none" xmlns="http://www.w3.org/2000/svg">
<path fill-rule="evenodd" clip-rule="evenodd" d="M7.75 14C7.75 11.6528 9.65279 9.75 12 9.75C14.3472 9.75 16.25 11.6528 16.25 14C16.25 16.3472 14.3472 18.25 12 18.25C9.65279 18.25 7.75 16.3472 7.75 14ZM12 11.25C10.4812 11.25 9.25 12.4812 9.25 14C9.25 15.5188 10.4812 16.75 12 16.75C13.5188 16.75 14.75 15.5188 14.75 14C14.75 12.4812 13.5188 11.25 12 11.25Z" fill="#4489EB"/>
<path d="M12 5C11.4477 5 11 5.44772 11 6C11 6.55229 11.4477 7 12 7H12.009C12.5613 7 13.009 6.55229 13.009 6C13.009 5.44772 12.5613 5 12.009 5H12Z" fill="#4489EB"/>
<path fill-rule="evenodd" clip-rule="evenodd" d="M12.0316 1.25H11.9688C11.3647 1.24999 10.8646 1.24998 10.4517 1.28515C10.019 1.32201 9.62795 1.40069 9.25079 1.58742C8.57885 1.92009 8.15407 2.44877 7.85587 2.979C7.6247 3.39004 7.44527 3.8517 7.29315 4.24306C7.25724 4.33545 7.22286 4.42392 7.18967 4.50689L6.89243 5.25C5.80078 5.24998 5.0143 5.25095 4.40786 5.33452C3.72467 5.42866 3.23063 5.63092 2.71715 6.02493C2.45715 6.22443 2.22443 6.45715 2.02493 6.71715C1.59808 7.27343 1.41725 7.92195 1.33222 8.67622C1.24998 9.40571 1.24999 10.3204 1.25 11.4548V16.0549C1.24998 17.4225 1.24996 18.5248 1.36652 19.3918C1.48754 20.2919 1.74643 21.0497 2.34835 21.6517C2.95027 22.2536 3.70814 22.5125 4.60825 22.6335C5.47522 22.75 6.57754 22.75 7.94513 22.75H16.0549C17.4225 22.75 18.5248 22.75 19.3918 22.6335C20.2919 22.5125 21.0497 22.2536 21.6517 21.6517C22.2536 21.0497 22.5125 20.2919 22.6335 19.3918C22.75 18.5248 22.75 17.4225 22.75 16.0549V11.4548C22.75 10.3204 22.75 9.40571 22.6678 8.67622C22.5828 7.92195 22.4019 7.27343 21.9751 6.71715C21.7756 6.45715 21.5429 6.22443 21.2829 6.02493C20.7694 5.63092 20.2753 5.42866 19.5921 5.33452C18.9858 5.25096 18.1994 5.24998 17.108 5.25L16.8107 4.50689C16.7775 4.42392 16.7432 4.33545 16.7072 4.24306C16.5551 3.8517 16.3757 3.39004 16.1445 2.979C15.8463 2.44877 15.4215 1.92008 14.7496 1.58742C14.3725 1.40069 13.9814 1.32201 13.5487 1.28515C13.1358 1.24998 12.6357 1.24999 12.0316 1.25ZM17.7076 6.75091C17.8407 7.12807 17.6535 7.54644 17.2787 7.69636C16.8942 7.85019 16.4577 7.66313 16.3038 7.27854L15.418 5.06397C15.373 4.95144 15.3307 4.84296 15.2898 4.73806C15.1412 4.35721 15.011 4.02349 14.8371 3.71429C14.6278 3.34209 14.3949 3.08557 14.0841 2.93169C13.937 2.85887 13.7505 2.80777 13.4214 2.77974C13.0796 2.75063 12.6436 2.75 12.0002 2.75C11.3568 2.75 10.9208 2.75063 10.579 2.77974C10.2499 2.80777 10.0634 2.85887 9.91632 2.93169C9.6055 3.08557 9.37261 3.34209 9.16329 3.71429C8.9894 4.02348 8.85922 4.35719 8.71065 4.73804C8.66974 4.84291 8.62738 4.95148 8.58239 5.06398L7.69656 7.27854C7.54272 7.66313 7.10624 7.85019 6.72166 7.69636C6.34685 7.54644 6.15965 7.12807 6.29276 6.7509C5.5132 6.75388 5.0037 6.76659 4.61262 6.82048C4.17105 6.88132 3.92473 6.98903 3.63029 7.21496C3.47429 7.33466 3.33466 7.47429 3.21496 7.63029C3.02187 7.88193 2.89273 8.22376 2.82277 8.84426C2.75112 9.47987 2.75 10.3098 2.75 11.5V16C2.75 17.4354 2.75159 18.4365 2.85315 19.1919C2.9518 19.9257 3.13225 20.3142 3.40901 20.591C3.68577 20.8678 4.07435 21.0482 4.80812 21.1469C5.56347 21.2484 6.56459 21.25 8 21.25H16C17.4354 21.25 18.4365 21.2484 19.1919 21.1469C19.9257 21.0482 20.3142 20.8678 20.591 20.591C20.8678 20.3142 21.0482 19.9257 21.1469 19.1919C21.2484 18.4365 21.25 17.4354 21.25 16V11.5C21.25 10.3098 21.2489 9.47987 21.1772 8.84426C21.1073 8.22376 20.9781 7.88193 20.785 7.63029C20.6653 7.47429 20.5257 7.33466 20.3697 7.21496C20.0753 6.98903 19.829 6.88132 19.3874 6.82048C18.9964 6.7666 18.487 6.75388 17.7076 6.75091Z" fill="#4489EB"/>
</svg>
