<svg width="18" height="18" viewBox="0 0 18 18" fill="none" xmlns="http://www.w3.org/2000/svg">
<path d="M8.93605 5.00016C8.92753 4.99997 8.919 4.99995 8.91048 5.00011C8.2313 5.01264 7.64879 5.04181 7.16233 5.10226C6.68217 5.16194 6.25408 5.25662 5.90579 5.42229C5.54204 5.59531 5.24109 5.85862 5.08052 6.24892C4.928 6.61962 4.9376 7.02108 5.00985 7.40675C5.07341 7.74603 5.39998 7.96954 5.73925 7.90598C6.07853 7.84242 6.30204 7.51586 6.23848 7.17658C6.18828 6.90863 6.21322 6.78112 6.23651 6.72452C6.25173 6.6875 6.28705 6.62514 6.44272 6.5511C6.61384 6.46971 6.88829 6.39594 7.31649 6.34272C7.59382 6.30826 7.91857 6.28428 8.29701 6.26842V11.6667H7.68532C7.34014 11.6667 7.06032 11.9465 7.06032 12.2917C7.06032 12.6368 7.34014 12.9167 7.68532 12.9167H10.1587C10.5039 12.9167 10.7837 12.6368 10.7837 12.2917C10.7837 11.9465 10.5039 11.6667 10.1587 11.6667H9.54701V6.26935C9.89036 6.2834 10.1917 6.30299 10.4552 6.3318C10.8771 6.37792 11.1604 6.44375 11.346 6.52376C11.5185 6.59811 11.5664 6.66626 11.5876 6.71097C11.6158 6.77054 11.6494 6.90478 11.6029 7.1916C11.5477 7.53232 11.7791 7.85334 12.1198 7.9086C12.4605 7.96387 12.7815 7.73246 12.8368 7.39174C12.9048 6.97244 12.8956 6.55231 12.7172 6.17576C12.5318 5.78434 12.2092 5.53461 11.8408 5.37584C11.4855 5.22273 11.0575 5.14019 10.5911 5.0892C10.1188 5.03758 9.56386 5.01427 8.93605 5.00016Z" fill="#3260BB"/>
<path fill-rule="evenodd" clip-rule="evenodd" d="M4.58333 16.25H13.3333V16.4583C13.3333 17.2638 13.9863 17.9167 14.7917 17.9167H16.4583C17.2638 17.9167 17.9167 17.2638 17.9167 16.4583V14.7917C17.9167 13.9863 17.2638 13.3333 16.4583 13.3333H16.25V4.58333H16.4583C17.2638 4.58333 17.9167 3.93042 17.9167 3.125V1.45833C17.9167 0.652918 17.2638 0 16.4583 0H14.7917C13.9863 0 13.3333 0.652918 13.3333 1.45833V1.66667H4.58333V1.45833C4.58333 0.652918 3.93042 0 3.125 0H1.45833C0.652918 0 0 0.652918 0 1.45833V3.125C0 3.93042 0.652918 4.58333 1.45833 4.58333H1.66667V13.3333H1.45833C0.652918 13.3333 0 13.9863 0 14.7917V16.4583C0 17.2638 0.652918 17.9167 1.45833 17.9167H3.125C3.93042 17.9167 4.58333 17.2638 4.58333 16.4583V16.25ZM1.25 1.45833C1.25 1.34327 1.34327 1.25 1.45833 1.25H3.125C3.24006 1.25 3.33333 1.34327 3.33333 1.45833V3.125C3.33333 3.24006 3.24006 3.33333 3.125 3.33333H1.45833C1.34327 3.33333 1.25 3.24006 1.25 3.125V1.45833ZM1.45833 14.5833C1.34327 14.5833 1.25 14.6766 1.25 14.7917V16.4583C1.25 16.5734 1.34327 16.6667 1.45833 16.6667H3.125C3.24006 16.6667 3.33333 16.5734 3.33333 16.4583V14.7917C3.33333 14.6766 3.24006 14.5833 3.125 14.5833H1.45833ZM2.91667 13.3333V4.58333H3.125C3.93042 4.58333 4.58333 3.93042 4.58333 3.125V2.91667H13.3333V3.125C13.3333 3.93042 13.9863 4.58333 14.7917 4.58333H15V13.3333H14.7917C13.9863 13.3333 13.3333 13.9863 13.3333 14.7917V15H4.58333V14.7917C4.58333 13.9863 3.93042 13.3333 3.125 13.3333H2.91667ZM14.5833 16.4583V14.7917C14.5833 14.6766 14.6766 14.5833 14.7917 14.5833H16.4583C16.5734 14.5833 16.6667 14.6766 16.6667 14.7917V16.4583C16.6667 16.5734 16.5734 16.6667 16.4583 16.6667H14.7917C14.6766 16.6667 14.5833 16.5734 14.5833 16.4583ZM14.7917 1.25C14.6766 1.25 14.5833 1.34327 14.5833 1.45833V3.125C14.5833 3.24006 14.6766 3.33333 14.7917 3.33333H16.4583C16.5734 3.33333 16.6667 3.24006 16.6667 3.125V1.45833C16.6667 1.34327 16.5734 1.25 16.4583 1.25H14.7917Z" fill="#3260BB"/>
</svg>
