<svg width="24" height="24" viewBox="0 0 24 24" fill="none" xmlns="http://www.w3.org/2000/svg">
<path d="M14.7364 6.00439C14.7364 5.59018 14.4006 5.25439 13.9864 5.25439C13.5721 5.25439 13.2364 5.59018 13.2364 6.00439V6.24443C13.0983 6.2867 12.9583 6.34034 12.817 6.40621C11.9049 6.83138 11.3239 7.75014 11.374 8.6819C11.3998 9.16189 11.5961 9.6347 11.9873 10.0004C12.3739 10.3617 12.9015 10.5738 13.5226 10.6392C13.6923 10.6571 13.8507 10.6656 13.9939 10.6702C14.0709 10.6727 14.1435 10.6741 14.2111 10.6752L14.2553 10.6759C14.4362 10.6789 14.5621 10.681 14.6775 10.6927C14.8763 10.7128 14.9686 10.7518 15.0821 10.8742C15.1676 10.9664 15.2927 11.2726 15.2399 11.6242C15.196 11.9161 15.0434 12.1638 14.6671 12.2828C14.4381 12.3552 14.2365 12.385 13.9963 12.3821C13.7768 12.3822 13.492 12.3218 13.2914 12.2326C12.9143 12.0649 12.7675 11.8287 12.7434 11.6722C12.6805 11.2628 12.2976 10.9819 11.8882 11.0449C11.4787 11.1078 11.1979 11.4907 11.2608 11.9001C11.3854 12.7103 11.9951 13.2978 12.6819 13.6032C12.8569 13.681 13.0427 13.7438 13.2364 13.79V14.0044C13.2364 14.4186 13.5721 14.7544 13.9864 14.7544C14.4006 14.7544 14.7364 14.4186 14.7364 14.0044V13.8118C14.8639 13.7862 14.9917 13.7533 15.1193 13.713C16.121 13.3963 16.6074 12.6179 16.7232 11.8471C16.83 11.1362 16.6356 10.3434 16.182 9.8543C15.7564 9.39538 15.2849 9.24652 14.8287 9.2003C14.6461 9.1818 14.455 9.17883 14.2901 9.17627L14.2362 9.17541C14.1535 9.17402 14.0727 9.17233 13.9918 9.16916C13.8891 9.16513 13.7864 9.1587 13.6797 9.14746C13.3018 9.10765 13.1064 8.99314 13.0116 8.90458C12.9216 8.82038 12.8782 8.71995 12.8719 8.60137C12.8576 8.33601 13.0419 7.95632 13.4508 7.76574C13.6431 7.6761 13.8238 7.63309 13.9897 7.62592C14.5571 7.6014 14.951 7.9962 15.0416 8.37837C15.1371 8.78142 15.5413 9.03073 15.9443 8.93521C16.3474 8.8397 16.5967 8.43553 16.5012 8.03248C16.3076 7.21584 15.6386 6.47427 14.7364 6.21651V6.00439Z" fill="#AAB9CC"/>
<path fill-rule="evenodd" clip-rule="evenodd" d="M5.25 10C5.25 5.16751 9.16751 1.25 14 1.25C18.8325 1.25 22.75 5.16751 22.75 10C22.75 14.8325 18.8325 18.75 14 18.75C9.16751 18.75 5.25 14.8325 5.25 10ZM14 2.75C9.99593 2.75 6.75 5.99593 6.75 10C6.75 14.0041 9.99593 17.25 14 17.25C18.0041 17.25 21.25 14.0041 21.25 10C21.25 5.99593 18.0041 2.75 14 2.75Z" fill="#AAB9CC"/>
<path d="M3.56724 10.3725C3.91384 10.5993 4.01095 11.0642 3.78414 11.4108C3.13023 12.41 2.75 13.6039 2.75 14.8889C2.75 18.4021 5.598 21.2501 9.11116 21.2501C10.3962 21.2501 11.5901 20.8699 12.5893 20.2159C12.9359 19.9891 13.4007 20.0862 13.6276 20.4328C13.8544 20.7794 13.7573 21.2442 13.4107 21.471C12.1747 22.2799 10.6968 22.7501 9.11116 22.7501C4.76956 22.7501 1.25 19.2305 1.25 14.8889C1.25 13.3033 1.72023 11.8253 2.529 10.5894C2.75581 10.2428 3.22064 10.1457 3.56724 10.3725Z" fill="#AAB9CC"/>
</svg>
