<svg width="24" height="24" viewBox="0 0 24 24" fill="none" xmlns="http://www.w3.org/2000/svg">
<path d="M11.4909 11.7512C11.4215 11.7501 11.3411 11.75 11.2421 11.75C10.8279 11.75 10.4921 11.4142 10.4921 11C10.4921 10.5858 10.8279 10.25 11.2421 10.25L11.2765 10.25C11.4816 10.2499 11.7034 10.2498 11.8906 10.275C12.11 10.3045 12.3901 10.3803 12.6259 10.6161C12.8617 10.8519 12.9376 11.1321 12.9671 11.3514C12.9922 11.5387 12.9922 11.7605 12.9921 11.9656L12.9921 17C12.9921 17.4142 12.6563 17.75 12.2421 17.75C11.8279 17.75 11.4921 17.4142 11.4921 17V12C11.4921 11.9009 11.492 11.8206 11.4909 11.7512Z" fill="#3260BB"/>
<path d="M11.9921 7C11.4398 7 10.9921 7.44772 10.9921 8C10.9921 8.55228 11.4398 9 11.9921 9H12.001C12.5533 9 13.001 8.55228 13.001 8C13.001 7.44772 12.5533 7 12.001 7H11.9921Z" fill="#3260BB"/>
<path fill-rule="evenodd" clip-rule="evenodd" d="M1.24988 12C1.24988 17.9371 6.06282 22.75 11.9999 22.75C17.9369 22.75 22.7499 17.9371 22.7499 12C22.7499 6.06294 17.9369 1.25 11.9999 1.25C6.06282 1.25 1.24988 6.06294 1.24988 12ZM11.9999 21.25C6.89124 21.25 2.74988 17.1086 2.74988 12C2.74988 6.89137 6.89124 2.75 11.9999 2.75C17.1085 2.75 21.2499 6.89137 21.2499 12C21.2499 17.1086 17.1085 21.25 11.9999 21.25Z" fill="#3260BB"/>
</svg>
