<svg width="84" height="84" viewBox="0 0 84 84" fill="none" xmlns="http://www.w3.org/2000/svg">
<path d="M54.3562 5.14384C53.331 4.11872 51.669 4.11872 50.6438 5.14384C49.6187 6.16897 49.6187 7.83103 50.6438 8.85616L61.0377 19.25L50.6438 29.6438C49.6187 30.669 49.6187 32.331 50.6438 33.3562C51.669 34.3813 53.331 34.3813 54.3562 33.3562L64.75 22.9623L75.1438 33.3562C76.169 34.3813 77.831 34.3813 78.8562 33.3562C79.8813 32.331 79.8813 30.669 78.8562 29.6438L68.4623 19.25L78.8562 8.85616C79.8813 7.83103 79.8813 6.16897 78.8562 5.14384C77.831 4.11872 76.169 4.11872 75.1438 5.14384L64.75 15.5377L54.3562 5.14384Z" fill="url(#paint0_linear_60905_15535)"/>
<path fill-rule="evenodd" clip-rule="evenodd" d="M40.25 7.875L40.0499 7.875C32.3824 7.87495 26.36 7.87492 21.6581 8.50708C16.8398 9.15488 13.0169 10.5095 10.0132 13.5132C7.0095 16.5169 5.65488 20.3398 5.00708 25.1581C4.37492 29.86 4.37495 35.8824 4.375 43.5499V43.9501C4.37495 51.6176 4.37492 57.64 5.00708 62.3419C5.65488 67.1602 7.0095 70.9831 10.0132 73.9868C13.0169 76.9905 16.8398 78.3451 21.6581 78.9929C26.36 79.6251 32.3824 79.625 40.0498 79.625H40.4501C48.1175 79.625 54.14 79.6251 58.8419 78.9929C63.6602 78.3451 67.4831 76.9905 70.4868 73.9868C73.4905 70.9831 74.8451 67.1602 75.4929 62.3419C76.1251 57.64 76.125 51.6176 76.125 43.9502V43.75C76.125 42.3003 74.9497 41.125 73.5 41.125C72.0503 41.125 70.875 42.3003 70.875 43.75C70.875 48.1913 70.8732 51.9261 70.7691 55.1108C67.5317 53.9617 64.2103 53.3725 60.8564 53.3752C55.1554 53.354 49.5747 55.023 44.3384 58.1976C43.1918 57.095 41.9726 56.0527 40.6854 55.0774C32.9975 49.2521 23.3735 46.1831 13.5279 46.3843C12.2249 46.3819 10.9231 46.4331 9.62627 46.5377C9.62508 45.6405 9.625 44.7118 9.625 43.75C9.625 35.8387 9.63058 30.1693 10.2103 25.8576C10.7798 21.6215 11.8599 19.0912 13.7255 17.2255C15.5912 15.3598 18.1215 14.2798 22.3576 13.7103C26.6693 13.1306 32.3387 13.125 40.25 13.125C41.6997 13.125 42.875 11.9497 42.875 10.5C42.875 9.05025 41.6997 7.875 40.25 7.875ZM60.8552 58.6252C64.0479 58.6219 67.2524 59.2767 70.416 60.6007C70.3773 60.9566 70.3353 61.3037 70.2897 61.6424C69.7202 65.8785 68.6402 68.4088 66.7745 70.2745C64.9088 72.1402 62.3785 73.2202 58.1424 73.7897C56.9965 73.9438 55.7548 74.0573 54.4007 74.1409C52.9928 69.812 50.8037 65.7644 47.9489 62.1665C52.1846 59.7786 56.5296 58.6082 60.8422 58.6252L60.8552 58.6252ZM9.65804 51.804C9.71115 55.7511 9.84957 58.9596 10.2103 61.6424C10.7798 65.8785 11.8599 68.4088 13.7255 70.2745C15.5912 72.1402 18.1215 73.2202 22.3576 73.7897C26.6693 74.3694 32.3387 74.375 40.25 74.375C43.4909 74.375 46.3556 74.3741 48.9049 74.3331C46.6911 68.4774 42.7736 63.2466 37.5148 59.2619C30.7877 54.1647 22.315 51.4498 13.6078 51.6338L13.5458 51.6343C12.2468 51.6311 10.9493 51.6878 9.65804 51.804Z" fill="url(#paint1_linear_60905_15535)"/>
<defs>
<linearGradient id="paint0_linear_60905_15535" x1="71.7865" y1="-12.8698" x2="71.7865" y2="79.625" gradientUnits="userSpaceOnUse">
<stop stop-color="#A719DD"/>
<stop offset="0.630117" stop-color="#623BD8"/>
<stop offset="1" stop-color="#4489EB"/>
</linearGradient>
<linearGradient id="paint1_linear_60905_15535" x1="71.7865" y1="-12.8698" x2="71.7865" y2="79.625" gradientUnits="userSpaceOnUse">
<stop stop-color="#A719DD"/>
<stop offset="0.630117" stop-color="#623BD8"/>
<stop offset="1" stop-color="#4489EB"/>
</linearGradient>
</defs>
</svg>
