<svg width="58" height="58" viewBox="0 0 58 58" fill="none" xmlns="http://www.w3.org/2000/svg">
<path d="M3.41211 40.1528L16.0448 27.5201C16.5198 27.045 17.0838 26.6681 17.7045 26.411C18.3252 26.1538 18.9904 26.0215 19.6623 26.0215C20.3341 26.0215 20.9993 26.1538 21.62 26.411C22.2407 26.6681 22.8047 27.045 23.2797 27.5201L34.4993 38.7398M34.4993 38.7398L38.7385 42.9789M34.4993 38.7398L40.0668 33.1723C40.5418 32.6972 41.1057 32.3203 41.7264 32.0632C42.3471 31.8061 43.0124 31.6737 43.6842 31.6737C44.356 31.6737 45.0213 31.8061 45.642 32.0632C46.2627 32.3203 46.8266 32.6972 47.3016 33.1723L54.2821 40.1528" stroke="url(#paint0_linear_1996_5539)" stroke-width="4" stroke-linecap="round" stroke-linejoin="round"/>
<path d="M28.8481 2C16.8936 2 10.9164 2 6.95417 5.38568C6.38895 5.868 5.86612 6.39084 5.38568 6.95417C2 10.9164 2 16.8936 2 28.8481C2 40.8025 2 46.7797 5.38568 50.7419C5.868 51.3072 6.39084 51.83 6.95417 52.3104C10.9164 55.6961 16.8936 55.6961 28.8481 55.6961C40.8025 55.6961 46.7797 55.6961 50.7419 52.3104C51.3072 51.8281 51.83 51.3053 52.3104 50.7419C55.6961 46.7797 55.6961 40.8025 55.6961 28.8481M55.6961 18.9567L47.2178 10.4783M47.2178 10.4783L38.7395 2M47.2178 10.4783L55.6961 2M47.2178 10.4783L38.7395 18.9567" stroke="url(#paint1_linear_1996_5539)" stroke-width="4" stroke-linecap="round" stroke-linejoin="round"/>
<defs>
<linearGradient id="paint0_linear_1996_5539" x1="10.918" y1="19.9158" x2="39.476" y2="55.023" gradientUnits="userSpaceOnUse">
<stop stop-color="#A719DD"/>
<stop offset="1" stop-color="#4489EB"/>
</linearGradient>
<linearGradient id="paint1_linear_1996_5539" x1="9.92293" y1="-17.3339" x2="74.7388" y2="9.22735" gradientUnits="userSpaceOnUse">
<stop stop-color="#A719DD"/>
<stop offset="1" stop-color="#4489EB"/>
</linearGradient>
</defs>
</svg>
