<svg width="38" height="38" viewBox="0 0 38 38" fill="none" xmlns="http://www.w3.org/2000/svg">
<rect width="38" height="38" rx="10.64" fill="white"/>
<rect x="0.5" y="0.5" width="37" height="37" rx="10.14" stroke="black" stroke-opacity="0.06"/>
<path d="M12.9969 22.837V16.571H14.1929V22.837H12.9969ZM10.4619 20.302V19.106H16.7279V20.302H10.4619ZM20.0367 22.304C19.612 22.304 19.2264 22.213 18.8797 22.031C18.533 21.8403 18.26 21.5717 18.0607 21.225C17.8614 20.8697 17.7617 20.4537 17.7617 19.977C17.7617 19.509 17.8614 19.1017 18.0607 18.755C18.26 18.4083 18.533 18.1397 18.8797 17.949C19.2264 17.7497 19.612 17.65 20.0367 17.65C20.5827 17.65 21.0767 17.7843 21.5187 18.053C21.9607 18.313 22.342 18.69 22.6627 19.184C23.0094 18.664 23.382 18.2783 23.7807 18.027C24.1794 17.7757 24.6734 17.65 25.2627 17.65C25.7047 17.65 26.0947 17.754 26.4327 17.962C26.7794 18.17 27.048 18.4517 27.2387 18.807C27.438 19.1537 27.5377 19.5437 27.5377 19.977C27.5377 20.4017 27.4467 20.7917 27.2647 21.147C27.0827 21.5023 26.8227 21.784 26.4847 21.992C26.1554 22.2 25.7524 22.304 25.2757 22.304C24.747 22.304 24.2704 22.1957 23.8457 21.979C23.4297 21.7537 23.0354 21.3507 22.6627 20.77C22.3507 21.2727 21.9694 21.654 21.5187 21.914C21.068 22.174 20.574 22.304 20.0367 22.304ZM20.2317 21.186C20.5784 21.186 20.9164 21.082 21.2457 20.874C21.5837 20.666 21.8697 20.367 22.1037 19.977C21.861 19.5957 21.575 19.301 21.2457 19.093C20.925 18.8763 20.587 18.768 20.2317 18.768C19.8764 18.768 19.5904 18.8893 19.3737 19.132C19.1657 19.366 19.0617 19.6477 19.0617 19.977C19.0617 20.3583 19.1657 20.6573 19.3737 20.874C19.5904 21.082 19.8764 21.186 20.2317 21.186ZM25.0937 21.186C25.449 21.1773 25.7264 21.056 25.9257 20.822C26.1337 20.588 26.2377 20.3063 26.2377 19.977C26.2377 19.6477 26.1337 19.3703 25.9257 19.145C25.7264 18.911 25.449 18.7897 25.0937 18.781C24.7384 18.7723 24.396 18.8763 24.0667 19.093C23.746 19.301 23.4514 19.6043 23.1827 20.003C23.356 20.2457 23.5424 20.458 23.7417 20.64C23.9497 20.822 24.1664 20.9607 24.3917 21.056C24.6257 21.1427 24.8597 21.186 25.0937 21.186Z" fill="#0E101A" fill-opacity="0.6"/>
</svg>
