<svg width="44" height="45" viewBox="0 0 44 45" fill="none" xmlns="http://www.w3.org/2000/svg">
<g filter="url(#filter0_dd_68616_11977)">
<rect x="2" y="1" width="40" height="40" rx="20" fill="url(#paint0_linear_68616_11977)"/>
<rect x="3" y="2" width="38" height="38" rx="19" stroke="white" stroke-width="2"/>
<path d="M19.75 22C19.75 21.5858 19.4142 21.25 19 21.25C18.5858 21.25 18.25 21.5858 18.25 22V23C18.25 23.4142 18.5858 23.75 19 23.75C19.4142 23.75 19.75 23.4142 19.75 23V22Z" fill="white"/>
<path d="M25 21.25C25.4142 21.25 25.75 21.5858 25.75 22V23C25.75 23.4142 25.4142 23.75 25 23.75C24.5858 23.75 24.25 23.4142 24.25 23V22C24.25 21.5858 24.5858 21.25 25 21.25Z" fill="white"/>
<path fill-rule="evenodd" clip-rule="evenodd" d="M20.4428 25.8947C20.45 25.8994 20.4666 25.9098 20.4927 25.9245C20.545 25.9539 20.6352 25.9997 20.7634 26.0478C21.0183 26.1434 21.4293 26.25 22 26.25C22.5708 26.25 22.9818 26.1434 23.2367 26.0478C23.3649 25.9997 23.4551 25.9539 23.5073 25.9245C23.5335 25.9098 23.5502 25.8992 23.5573 25.8945L23.56 25.8927C23.8907 25.6529 24.354 25.722 24.6 26.05C24.8486 26.3814 24.7814 26.8515 24.45 27.1L24.4489 27.1009L24.4477 27.1018L24.445 27.1038L24.4389 27.1082L24.4236 27.1192C24.412 27.1274 24.3976 27.1372 24.3803 27.1486C24.3458 27.1712 24.2999 27.1997 24.2427 27.2319C24.1284 27.2962 23.9686 27.3753 23.7634 27.4523C23.3516 27.6067 22.7626 27.75 22 27.75C21.2375 27.75 20.6485 27.6067 20.2367 27.4523C20.0315 27.3753 19.8717 27.2962 19.7573 27.2319C19.7002 27.1997 19.6543 27.1712 19.6198 27.1486C19.6025 27.1372 19.5881 27.1274 19.5765 27.1192L19.5612 27.1082L19.5551 27.1038L19.5524 27.1018L19.55 27.1C19.2187 26.8515 19.1515 26.3814 19.4 26.05C19.6461 25.722 20.1093 25.6529 20.4401 25.8927L20.4392 25.8921L20.4428 25.8947ZM20.446 25.897L20.4479 25.8984L20.4428 25.8947L20.446 25.897Z" fill="white"/>
<path fill-rule="evenodd" clip-rule="evenodd" d="M24.25 12.5C24.25 13.4797 23.6239 14.3131 22.75 14.622V16.25H23.0549C24.4225 16.25 25.5248 16.25 26.3918 16.3665C27.2919 16.4875 28.0497 16.7464 28.6517 17.3484C29.2536 17.9503 29.5125 18.7081 29.6335 19.6082C29.6606 19.8101 29.6814 20.0247 29.6974 20.2524C30.0922 20.2571 30.4437 20.271 30.7458 20.3116C31.2375 20.3777 31.7087 20.5268 32.091 20.909C32.4732 21.2913 32.6223 21.7625 32.6884 22.2542C32.7501 22.7129 32.75 23.2857 32.75 23.9506V24.0494C32.75 24.7142 32.7501 25.2871 32.6884 25.7458C32.6223 26.2375 32.4732 26.7087 32.091 27.091C31.7087 27.4732 31.2375 27.6223 30.7458 27.6884C30.4437 27.729 30.0922 27.7429 29.6974 27.7476C29.6814 27.9753 29.6606 28.1899 29.6335 28.3918C29.5125 29.2919 29.2536 30.0497 28.6517 30.6517C28.0497 31.2536 27.2919 31.5125 26.3918 31.6335C25.5248 31.75 24.4225 31.75 23.0549 31.75H20.9451C19.5775 31.75 18.4752 31.75 17.6083 31.6335C16.7081 31.5125 15.9503 31.2536 15.3484 30.6517C14.7464 30.0497 14.4875 29.2919 14.3665 28.3918C14.3394 28.1899 14.3186 27.9753 14.3026 27.7476C13.9078 27.7429 13.5563 27.729 13.2542 27.6884C12.7625 27.6223 12.2913 27.4732 11.909 27.091C11.5268 26.7087 11.3777 26.2375 11.3116 25.7458C11.2499 25.2871 11.25 24.7143 11.25 24.0494V23.9506C11.25 23.2858 11.2499 22.7129 11.3116 22.2542C11.3777 21.7625 11.5268 21.2913 11.909 20.909C12.2913 20.5268 12.7625 20.3777 13.2542 20.3116C13.5563 20.271 13.9078 20.2571 14.3026 20.2524C14.3186 20.0247 14.3394 19.8101 14.3665 19.6082C14.4875 18.7081 14.7464 17.9503 15.3484 17.3484C15.9503 16.7464 16.7081 16.4875 17.6083 16.3665C18.4752 16.25 19.5775 16.25 20.9451 16.25H21.25V14.622C20.3761 14.3131 19.75 13.4797 19.75 12.5C19.75 11.2574 20.7574 10.25 22 10.25C23.2426 10.25 24.25 11.2574 24.25 12.5ZM21.25 12.5C21.25 12.0858 21.5858 11.75 22 11.75C22.4142 11.75 22.75 12.0858 22.75 12.5C22.75 12.9142 22.4142 13.25 22 13.25C21.5858 13.25 21.25 12.9142 21.25 12.5ZM13.454 21.7982C13.6648 21.7699 13.9212 21.7582 14.2534 21.7534C14.25 22.1259 14.25 22.5229 14.25 22.9451V25.0549C14.25 25.4771 14.25 25.8741 14.2534 26.2466C13.9212 26.2418 13.6648 26.2301 13.454 26.2018C13.1287 26.158 13.0268 26.0874 12.9697 26.0303C12.9126 25.9732 12.842 25.8713 12.7982 25.546C12.7516 25.1991 12.75 24.7283 12.75 24C12.75 23.2717 12.7516 22.8009 12.7982 22.454C12.842 22.1287 12.9126 22.0268 12.9697 21.9697C13.0268 21.9126 13.1287 21.842 13.454 21.7982ZM29.7466 21.7534C29.75 22.1259 29.75 22.5229 29.75 22.9451V25.0549C29.75 25.4771 29.75 25.8741 29.7466 26.2466C30.0788 26.2418 30.3352 26.2301 30.546 26.2018C30.8713 26.158 30.9732 26.0874 31.0303 26.0303C31.0874 25.9732 31.158 25.8713 31.2018 25.546C31.2484 25.1991 31.25 24.7283 31.25 24C31.25 23.2717 31.2484 22.8009 31.2018 22.454C31.158 22.1287 31.0874 22.0268 31.0303 21.9697C30.9732 21.9126 30.8713 21.842 30.546 21.7982C30.3352 21.7699 30.0788 21.7582 29.7466 21.7534ZM16.409 18.409C16.6858 18.1322 17.0743 17.9518 17.8081 17.8531C18.5635 17.7516 19.5646 17.75 21 17.75H23C24.4354 17.75 25.4365 17.7516 26.1919 17.8531C26.9257 17.9518 27.3142 18.1322 27.591 18.409C27.8678 18.6858 28.0482 19.0743 28.1469 19.8081C28.2484 20.5635 28.25 21.5646 28.25 23V25C28.25 26.4354 28.2484 27.4365 28.1469 28.1919C28.0482 28.9257 27.8678 29.3142 27.591 29.591C27.3142 29.8678 26.9257 30.0482 26.1919 30.1469C25.4365 30.2484 24.4354 30.25 23 30.25H21C19.5646 30.25 18.5635 30.2484 17.8081 30.1469C17.0743 30.0482 16.6858 29.8678 16.409 29.591C16.1322 29.3142 15.9518 28.9257 15.8532 28.1919C15.7516 27.4365 15.75 26.4354 15.75 25V23C15.75 21.5646 15.7516 20.5635 15.8532 19.8081C15.9518 19.0743 16.1322 18.6858 16.409 18.409Z" fill="white"/>
</g>
<defs>
<filter id="filter0_dd_68616_11977" x="0" y="0" width="44" height="45" filterUnits="userSpaceOnUse" color-interpolation-filters="sRGB">
<feFlood flood-opacity="0" result="BackgroundImageFix"/>
<feColorMatrix in="SourceAlpha" type="matrix" values="0 0 0 0 0 0 0 0 0 0 0 0 0 0 0 0 0 0 127 0" result="hardAlpha"/>
<feOffset/>
<feGaussianBlur stdDeviation="0.5"/>
<feColorMatrix type="matrix" values="0 0 0 0 0.129412 0 0 0 0 0.145098 0 0 0 0 0.160784 0 0 0 0.08 0"/>
<feBlend mode="normal" in2="BackgroundImageFix" result="effect1_dropShadow_68616_11977"/>
<feColorMatrix in="SourceAlpha" type="matrix" values="0 0 0 0 0 0 0 0 0 0 0 0 0 0 0 0 0 0 127 0" result="hardAlpha"/>
<feOffset dy="2"/>
<feGaussianBlur stdDeviation="1"/>
<feColorMatrix type="matrix" values="0 0 0 0 0.129412 0 0 0 0 0.145098 0 0 0 0 0.160784 0 0 0 0.06 0"/>
<feBlend mode="normal" in2="effect1_dropShadow_68616_11977" result="effect2_dropShadow_68616_11977"/>
<feBlend mode="normal" in="SourceGraphic" in2="effect2_dropShadow_68616_11977" result="shape"/>
</filter>
<linearGradient id="paint0_linear_68616_11977" x1="2.99237" y1="41" x2="42" y2="41" gradientUnits="userSpaceOnUse">
<stop stop-color="#A719DD"/>
<stop offset="0.45" stop-color="#623BD8"/>
<stop offset="1" stop-color="#4489EB"/>
</linearGradient>
</defs>
</svg>
