<svg width="16" height="16" viewBox="0 0 16 16" fill="none" xmlns="http://www.w3.org/2000/svg">
<path d="M10 1.66699V2.66699C10 3.60966 10 4.08099 10.2933 4.37366C10.5853 4.66699 11.0567 4.66699 12 4.66699H13" stroke="#7C5CFF" stroke-width="1.07" stroke-linecap="round" stroke-linejoin="round"/>
<path d="M5.33268 7.3335H10.666M5.33268 9.3335H10.666M5.33268 11.3335H8.11268M2.66602 10.6668V5.3335C2.66602 3.44816 2.66602 2.50483 3.25202 1.9195C3.83735 1.3335 4.78068 1.3335 6.66602 1.3335H9.44735C9.71935 1.3335 9.85602 1.3335 9.97868 1.38416C10.1007 1.43483 10.1973 1.53083 10.39 1.72416L12.942 4.27616C13.1353 4.4695 13.2313 4.5655 13.282 4.68816C13.3327 4.81016 13.3327 4.94683 13.3327 5.21883V10.6668C13.3327 12.5522 13.3327 13.4955 12.7467 14.0808C12.1613 14.6668 11.218 14.6668 9.33268 14.6668H6.66602C4.78068 14.6668 3.83735 14.6668 3.25202 14.0808C2.66602 13.4955 2.66602 12.5522 2.66602 10.6668Z" stroke="#7C5CFF" stroke-width="1.07" stroke-linecap="round" stroke-linejoin="round"/>
</svg>
