<svg width="100" height="100" viewBox="0 0 100 100" fill="none" xmlns="http://www.w3.org/2000/svg">
<path d="M29.166 37.5L49.9994 52.0833L70.8327 37.5" stroke="url(#paint0_linear_65801_18761)" stroke-width="5" stroke-linecap="round" stroke-linejoin="round"/>
<path d="M83.333 18.334C86.2061 18.334 88.9615 19.4753 90.9932 21.5068C93.0247 23.5384 94.1659 26.2939 94.166 29.167V64.5566C92.8165 62.5084 91.1229 60.707 89.166 59.2363V29.167C89.1659 27.6202 88.5517 26.1368 87.458 25.043C86.364 23.949 84.8801 23.334 83.333 23.334H16.666C15.119 23.3341 13.6359 23.9491 12.542 25.043C11.4481 26.1369 10.8331 27.62 10.833 29.167V70.834C10.833 72.3811 11.448 73.865 12.542 74.959C13.6358 76.0527 15.1192 76.6669 16.666 76.667H55.1816C55.2167 78.3921 55.4571 80.0664 55.8799 81.667H16.666C13.793 81.6669 11.0374 80.5257 9.00586 78.4941C6.97432 76.4625 5.83301 73.7071 5.83301 70.834V29.167C5.83309 26.2939 6.97429 23.5384 9.00586 21.5068C11.0374 19.4753 13.793 18.3341 16.666 18.334H83.333Z" fill="url(#paint1_linear_65801_18761)"/>
<path d="M86.1347 67.3457C85.0267 66.2151 83.7069 65.3138 82.2505 64.6933C80.7942 64.0727 79.2299 63.7451 77.647 63.7291C76.064 63.7131 74.4934 64.0091 73.0249 64.6001C71.5563 65.1911 70.2185 66.0655 69.0879 67.1735C67.9573 68.2815 67.056 69.6014 66.4355 71.0577C65.8149 72.514 65.4873 74.0783 65.4713 75.6613C65.439 78.8582 66.678 81.937 68.9157 84.2203M86.1347 67.3457C88.3724 69.6291 89.6114 72.7079 89.5791 75.9048C89.5468 79.1017 88.2459 82.1548 85.9625 84.3925C83.6791 86.6302 80.6004 87.8692 77.4035 87.8369C74.2066 87.8046 71.1534 86.5037 68.9157 84.2203M86.1347 67.3457L68.9157 84.2203" stroke="url(#paint2_linear_65801_18761)" stroke-width="5" stroke-linecap="round" stroke-linejoin="round"/>
<defs>
<linearGradient id="paint0_linear_65801_18761" x1="66.4924" y1="34.158" x2="66.4924" y2="52.0833" gradientUnits="userSpaceOnUse">
<stop stop-color="#A719DD"/>
<stop offset="0.630117" stop-color="#623BD8"/>
<stop offset="1" stop-color="#4489EB"/>
</linearGradient>
<linearGradient id="paint1_linear_65801_18761" x1="84.9647" y1="3.82017" x2="84.9647" y2="81.667" gradientUnits="userSpaceOnUse">
<stop stop-color="#A719DD"/>
<stop offset="0.630117" stop-color="#623BD8"/>
<stop offset="1" stop-color="#4489EB"/>
</linearGradient>
<linearGradient id="paint2_linear_65801_18761" x1="87.0684" y1="58.2035" x2="87.0684" y2="87.8375" gradientUnits="userSpaceOnUse">
<stop stop-color="#A719DD"/>
<stop offset="0.630117" stop-color="#623BD8"/>
<stop offset="1" stop-color="#4489EB"/>
</linearGradient>
</defs>
</svg>
