<svg width="102" height="89" viewBox="0 0 102 89" fill="none" xmlns="http://www.w3.org/2000/svg">
<rect y="42" width="4" height="5" rx="2" fill="white"/>
<rect x="7" y="42" width="4" height="5" rx="2" fill="white"/>
<rect x="14" y="42" width="4" height="5" rx="2" fill="white"/>
<rect x="21" y="42" width="4" height="5" rx="2" fill="white"/>
<rect x="28" y="40" width="4" height="9" rx="2" fill="white"/>
<rect x="35" y="33" width="4" height="23" rx="2" fill="white"/>
<rect x="42" y="25" width="4" height="39" rx="2" fill="white"/>
<rect x="49" y="8" width="4" height="73" rx="2" fill="white"/>
<rect x="56" y="25" width="4" height="39" rx="2" fill="white"/>
<rect x="63" y="33" width="4" height="23" rx="2" fill="white"/>
<rect x="70" y="40" width="4" height="9" rx="2" fill="white"/>
<rect x="77" y="42" width="4" height="5" rx="2" fill="white"/>
<rect x="84" y="42" width="4" height="5" rx="2" fill="white"/>
<rect x="91" y="42" width="4" height="5" rx="2" fill="white"/>
<rect x="98" y="42" width="4" height="5" rx="2" fill="white"/>
</svg>
