<svg width="20" height="20" viewBox="0 0 20 20" fill="none" xmlns="http://www.w3.org/2000/svg">
<path d="M8.12508 10.8327C8.12508 10.4875 7.84526 10.2077 7.50008 10.2077C7.15491 10.2077 6.87508 10.4875 6.87508 10.8327V11.666C6.87508 12.0112 7.15491 12.291 7.50008 12.291C7.84526 12.291 8.12508 12.0112 8.12508 11.666V10.8327Z" fill="white"/>
<path d="M12.5001 10.2077C12.8453 10.2077 13.1251 10.4875 13.1251 10.8327V11.666C13.1251 12.0112 12.8453 12.291 12.5001 12.291C12.1549 12.291 11.8751 12.0112 11.8751 11.666V10.8327C11.8751 10.4875 12.1549 10.2077 12.5001 10.2077Z" fill="white"/>
<path fill-rule="evenodd" clip-rule="evenodd" d="M8.70245 14.0783C8.70841 14.0822 8.72224 14.0908 8.74403 14.1031C8.78761 14.1276 8.86278 14.1658 8.96957 14.2058C9.18198 14.2855 9.52448 14.3744 10.0001 14.3744C10.4758 14.3744 10.8183 14.2855 11.0307 14.2058C11.1375 14.1658 11.2126 14.1276 11.2562 14.1031C11.278 14.0908 11.2919 14.082 11.2978 14.0781L11.3001 14.0766C11.5757 13.8767 11.9617 13.9343 12.1668 14.2077C12.3739 14.4839 12.3179 14.8756 12.0418 15.0827L12.0408 15.0834L12.0398 15.0842L12.0376 15.0858L12.0325 15.0895L12.0198 15.0987C12.0101 15.1055 11.998 15.1137 11.9837 15.1232C11.9549 15.142 11.9167 15.1658 11.869 15.1926C11.7737 15.2462 11.6406 15.3121 11.4696 15.3763C11.1264 15.5049 10.6356 15.6244 10.0001 15.6244C9.36465 15.6244 8.87381 15.5049 8.53067 15.3763C8.35968 15.3121 8.22651 15.2462 8.13121 15.1926C8.08356 15.1658 8.04535 15.142 8.01658 15.1232C8.0022 15.1137 7.99016 15.1055 7.98048 15.0987L7.96771 15.0895L7.96264 15.0858L7.96044 15.0842L7.95845 15.0827C7.68231 14.8756 7.62635 14.4839 7.83345 14.2077C8.0385 13.9343 8.42453 13.8767 8.70018 14.0766L8.69945 14.0761L8.70245 14.0783ZM8.70508 14.0802L8.70667 14.0814L8.70245 14.0783L8.70508 14.0802Z" fill="white"/>
<path fill-rule="evenodd" clip-rule="evenodd" d="M11.8751 2.91602C11.8751 3.7324 11.3533 4.42693 10.6251 4.68432V6.04102H10.8791C12.0188 6.041 12.9374 6.04099 13.6599 6.13812C14.41 6.23897 15.0415 6.45471 15.5431 6.95631C16.0447 7.4579 16.2605 8.08947 16.3613 8.83956C16.3839 9.00776 16.4013 9.18659 16.4146 9.37637C16.7436 9.3803 17.0365 9.39184 17.2883 9.42569C17.698 9.48077 18.0907 9.60499 18.4092 9.92353C18.7278 10.2421 18.852 10.6348 18.9071 11.0445C18.9585 11.4268 18.9584 11.9041 18.9584 12.4582V12.5405C18.9584 13.0945 18.9585 13.5719 18.9071 13.9542C18.852 14.3639 18.7278 14.7566 18.4092 15.0752C18.0907 15.3937 17.698 15.5179 17.2883 15.573C17.0365 15.6069 16.7436 15.6184 16.4146 15.6223C16.4013 15.8121 16.3839 15.9909 16.3613 16.1591C16.2605 16.9092 16.0447 17.5408 15.5431 18.0424C15.0415 18.544 14.41 18.7597 13.6599 18.8606C12.9374 18.9577 12.0188 18.9577 10.8791 18.9577H9.12103C7.98137 18.9577 7.06276 18.9577 6.34029 18.8606C5.5902 18.7597 4.95864 18.544 4.45704 18.0424C3.95545 17.5408 3.7397 16.9092 3.63885 16.1591C3.61624 15.9909 3.59889 15.8121 3.58558 15.6223C3.25662 15.6184 2.96363 15.6069 2.71188 15.573C2.30219 15.5179 1.90947 15.3937 1.59093 15.0752C1.27239 14.7566 1.14817 14.3639 1.09309 13.9542C1.04169 13.5719 1.04172 13.0946 1.04175 12.5405V12.4582C1.04172 11.9042 1.04169 11.4268 1.09309 11.0445C1.14817 10.6348 1.27239 10.2421 1.59093 9.92353C1.90947 9.60499 2.30219 9.48077 2.71188 9.42569C2.96363 9.39184 3.25662 9.3803 3.58558 9.37637C3.59889 9.18659 3.61624 9.00776 3.63885 8.83956C3.7397 8.08947 3.95544 7.45791 4.45704 6.95631C4.95864 6.45471 5.5902 6.23897 6.34029 6.13812C7.06276 6.04099 7.98136 6.041 9.12102 6.04102H9.37508V4.68432C8.64684 4.42693 8.12508 3.7324 8.12508 2.91602C8.12508 1.88048 8.96455 1.04102 10.0001 1.04102C11.0356 1.04102 11.8751 1.88048 11.8751 2.91602ZM9.37508 2.91602C9.37508 2.57084 9.65491 2.29102 10.0001 2.29102C10.3453 2.29102 10.6251 2.57084 10.6251 2.91602C10.6251 3.26119 10.3453 3.54102 10.0001 3.54102C9.65491 3.54102 9.37508 3.26119 9.37508 2.91602ZM2.87844 10.6645C3.05406 10.6409 3.26779 10.6312 3.54459 10.6272C3.54174 10.9376 3.54174 11.2684 3.54175 11.6203V13.3784C3.54174 13.7303 3.54174 14.0611 3.54459 14.3715C3.26779 14.3675 3.05406 14.3578 2.87844 14.3342C2.60736 14.2977 2.52239 14.2389 2.47481 14.1913C2.42723 14.1437 2.36839 14.0588 2.33194 13.7877C2.29308 13.4986 2.29175 13.1063 2.29175 12.4994C2.29175 11.8924 2.29308 11.5001 2.33194 11.211C2.36839 10.94 2.42723 10.855 2.47481 10.8074C2.52239 10.7598 2.60736 10.701 2.87844 10.6645ZM16.4556 10.6272C16.4584 10.9376 16.4584 11.2684 16.4584 11.6203V13.3784C16.4584 13.7303 16.4584 14.0611 16.4556 14.3715C16.7324 14.3675 16.9461 14.3578 17.1217 14.3342C17.3928 14.2977 17.4778 14.2389 17.5254 14.1913C17.5729 14.1437 17.6318 14.0588 17.6682 13.7877C17.7071 13.4986 17.7084 13.1063 17.7084 12.4994C17.7084 11.8924 17.7071 11.5001 17.6682 11.211C17.6318 10.94 17.5729 10.855 17.5254 10.8074C17.4778 10.7598 17.3928 10.701 17.1217 10.6645C16.9461 10.6409 16.7324 10.6312 16.4556 10.6272ZM5.34093 7.84019C5.57156 7.60956 5.89537 7.45918 6.50685 7.37697C7.13631 7.29234 7.97057 7.29102 9.16675 7.29102H10.8334C12.0296 7.29102 12.8639 7.29234 13.4933 7.37697C14.1048 7.45918 14.4286 7.60956 14.6592 7.84019C14.8899 8.07083 15.0403 8.39464 15.1225 9.00612C15.2071 9.63558 15.2084 10.4698 15.2084 11.666V13.3327C15.2084 14.5289 15.2071 15.3631 15.1225 15.9926C15.0403 16.6041 14.8899 16.9279 14.6592 17.1585C14.4286 17.3891 14.1048 17.5395 13.4933 17.6217C12.8639 17.7064 12.0296 17.7077 10.8334 17.7077H9.16675C7.97057 17.7077 7.13631 17.7064 6.50685 17.6217C5.89537 17.5395 5.57156 17.3891 5.34093 17.1585C5.11029 16.9279 4.95992 16.6041 4.87771 15.9926C4.79308 15.3631 4.79175 14.5289 4.79175 13.3327V11.666C4.79175 10.4698 4.79308 9.63558 4.87771 9.00612C4.95992 8.39464 5.11029 8.07083 5.34093 7.84019Z" fill="white"/>
</svg>
