<svg width="20" height="20" viewBox="0 0 20 20" fill="none" xmlns="http://www.w3.org/2000/svg">
<path d="M16.6551 3.34485C14.6953 1.38505 11.5179 1.38505 9.55806 3.34485L7.38344 5.51948C7.13936 5.76355 7.13936 6.15928 7.38344 6.40336C7.62751 6.64744 8.02324 6.64744 8.26732 6.40336L10.4419 4.22874C11.9136 2.75709 14.2996 2.75709 15.7713 4.22874C17.2429 5.70039 17.2429 8.08641 15.7713 9.55806L13.5966 11.7327C13.3526 11.9768 13.3526 12.3725 13.5966 12.6166C13.8407 12.8606 14.2364 12.8606 14.4805 12.6166L16.6551 10.4419C18.615 8.48214 18.615 5.30466 16.6551 3.34485Z" fill="#76869E"/>
<path d="M6.40336 8.26732C6.64744 8.02324 6.64744 7.62751 6.40336 7.38344C6.15928 7.13936 5.76355 7.13936 5.51948 7.38344L3.34485 9.55806C1.38505 11.5179 1.38505 14.6953 3.34485 16.6551C5.30466 18.615 8.48213 18.615 10.4419 16.6551L12.6166 14.4805C12.8606 14.2364 12.8606 13.8407 12.6166 13.5966C12.3725 13.3526 11.9768 13.3526 11.7327 13.5966L9.55806 15.7713C8.08641 17.2429 5.70039 17.2429 4.22874 15.7713C2.75709 14.2996 2.75709 11.9136 4.22874 10.4419L6.40336 8.26732Z" fill="#76869E"/>
<path d="M12.5253 8.35861C12.7694 8.11453 12.7694 7.7188 12.5253 7.47472C12.2812 7.23065 11.8855 7.23065 11.6414 7.47472L7.47472 11.6414C7.23065 11.8855 7.23065 12.2812 7.47472 12.5253C7.7188 12.7694 8.11453 12.7694 8.35861 12.5253L12.5253 8.35861Z" fill="#76869E"/>
</svg>
