<svg width="18" height="15" viewBox="0 0 18 15" fill="none" xmlns="http://www.w3.org/2000/svg">
<path fill-rule="evenodd" clip-rule="evenodd" d="M7.66872 1.33005e-07H10.2479C11.7805 -7.6778e-06 12.984 -1.38829e-05 13.9328 0.107166C14.9013 0.216565 15.6867 0.444684 16.3395 0.960238C16.5349 1.11458 16.7161 1.28504 16.8808 1.46983C17.3803 2.03006 17.6317 2.69791 17.7629 3.50334C17.8915 4.29204 17.912 5.26234 17.9158 6.45632C17.9169 6.80149 17.638 7.08222 17.2928 7.08333C16.9477 7.08444 16.6669 6.80553 16.6658 6.46035C16.6646 6.08079 16.6615 5.73432 16.6545 5.41667H1.26215C1.25028 5.9551 1.25 6.5732 1.25 7.29167C1.25 8.78214 1.25119 9.84071 1.35465 10.652C1.4559 11.446 1.64666 11.9203 1.96885 12.2817C2.08475 12.4117 2.21288 12.5323 2.35191 12.6421C2.74466 12.9523 3.26513 13.137 4.12413 13.2341C4.99461 13.3324 6.12759 13.3333 7.70833 13.3333H8.125C8.47018 13.3333 8.75 13.6132 8.75 13.9583C8.75 14.3035 8.47018 14.5833 8.125 14.5833H7.66871C6.13621 14.5833 4.93264 14.5833 3.98382 14.4762C3.01535 14.3668 2.23 14.1387 1.57719 13.6231C1.38176 13.4688 1.20057 13.2983 1.03582 13.1135C0.480673 12.4908 0.232768 11.7361 0.114688 10.8101C-2.06133e-05 9.91061 -1.1397e-05 8.77229 2.33485e-07 7.33562V7.24772C-1.1397e-05 5.81105 -2.06133e-05 4.67273 0.114688 3.77321C0.232768 2.84724 0.480673 2.09251 1.03582 1.46983C1.20057 1.28504 1.38176 1.11458 1.57719 0.960238C2.23 0.444684 3.01535 0.216565 3.98382 0.107166C4.93264 -1.38829e-05 6.13621 -7.6778e-06 7.66872 1.33005e-07ZM16.5292 3.70445C16.5528 3.84904 16.5724 4.00266 16.5886 4.16667H1.32811C1.33611 4.08594 1.34493 4.00754 1.35465 3.93133C1.4559 3.13732 1.64666 2.66305 1.96885 2.30167C2.08475 2.17167 2.21287 2.05101 2.35191 1.94121C2.74466 1.63104 3.26513 1.4463 4.12413 1.34927C4.99461 1.25094 6.12759 1.25 7.70833 1.25H10.2083C11.7891 1.25 12.9221 1.25094 13.7925 1.34927C14.6515 1.4463 15.172 1.63104 15.5648 1.94121C15.7038 2.05101 15.8319 2.17167 15.9478 2.30167C16.2388 2.62805 16.4218 3.04566 16.5292 3.70445Z" fill="#3260BB"/>
<path d="M17.4789 9.55459C17.8082 9.45117 17.9914 9.10036 17.888 8.77104C17.7845 8.44172 17.4337 8.25859 17.1044 8.36201C15.5605 8.84684 14.2109 10.2304 13.2886 11.3872C12.9111 11.8607 12.5902 12.3157 12.3409 12.6914C12.0239 12.2421 11.4621 11.6666 10.625 11.6666C10.2798 11.6666 10 11.9465 10 12.2916C10 12.6368 10.2798 12.9166 10.625 12.9166C10.8571 12.9166 11.1107 13.0948 11.3593 13.4701C11.4717 13.6398 11.5581 13.814 11.6169 13.9483C11.6458 14.0145 11.6671 14.0688 11.6806 14.1051C11.6874 14.1232 11.6921 14.1366 11.6949 14.1446L11.6973 14.1517L11.6977 14.1529C11.775 14.3889 11.9848 14.5567 12.232 14.5804C12.4798 14.6042 12.718 14.4787 12.8385 14.2609L12.8393 14.2595L12.8433 14.2524L12.8609 14.2213C12.8769 14.1933 12.9013 14.151 12.9337 14.0962C12.9984 13.9867 13.0947 13.8276 13.219 13.6333C13.4681 13.244 13.8269 12.7172 14.266 12.1664C15.1675 11.0356 16.3179 9.9192 17.4789 9.55459Z" fill="#3260BB"/>
</svg>
