<svg width="100" height="100" viewBox="0 0 100 100" fill="none" xmlns="http://www.w3.org/2000/svg">
<path d="M42.9211 62.7423C43.4919 63.2589 44.2337 63.5382 45.0003 63.5382C45.0753 63.5382 45.1503 63.5342 45.2253 63.53C46.0712 63.4675 46.8545 63.0675 47.3962 62.4216L64.8962 41.5883C66.0045 40.2675 65.8337 38.2965 64.5129 37.184C63.192 36.0757 61.2169 36.2465 60.1086 37.5673L44.6795 55.934L39.5837 51.384C38.2962 50.234 36.3212 50.3464 35.1712 51.6339C34.0212 52.9214 34.1336 54.8963 35.4211 56.0463L42.9211 62.7423Z" fill="url(#paint0_linear_60924_25262)"/>
<path fill-rule="evenodd" clip-rule="evenodd" d="M39.4256 88.3346C41.9589 91.0595 45.4254 94.7882 50 94.7882C54.5747 94.7882 58.0411 91.0595 60.5744 88.3346L60.6398 88.2644C61.0742 87.7984 61.4851 87.3575 61.8543 86.9884C64.1584 84.6884 65.2792 84.2214 68.5333 84.2214C69.0124 84.2214 69.5265 84.237 70.0568 84.2531L70.1125 84.2548C73.525 84.3548 78.1958 84.4883 81.3292 81.3841C84.4875 78.2508 84.3542 73.5467 84.2542 70.1134L84.2525 70.0576C84.2364 69.5273 84.2208 69.0132 84.2208 68.5342C84.2208 65.28 84.7208 64.1214 87.2083 61.6339C92.0958 56.7506 94.7876 54.0548 94.7876 50.0006C94.7876 45.9467 92.096 43.2551 87.209 38.3681C84.7257 35.8806 84.2208 34.7217 84.2208 31.4675C84.2208 30.9885 84.2364 30.4744 84.2525 29.9441L84.2542 29.8883C84.3542 26.4508 84.4875 21.7508 81.3292 18.6133C78.1958 15.5092 73.5291 15.6424 70.1166 15.7424L70.0379 15.7448C69.5123 15.7606 69.0096 15.7758 68.5333 15.7758C65.6833 15.7758 63.8125 14.9675 61.6333 12.7883C56.75 7.90083 54.0542 5.20898 50 5.20898C45.9461 5.20898 43.2545 7.90055 38.3675 12.7876C36.1883 14.9667 34.3167 15.7758 31.4667 15.7758C30.9868 15.7758 30.4801 15.7604 29.9539 15.7444L29.8875 15.7424C26.45 15.6424 21.75 15.5091 18.6125 18.6674C15.5083 21.8008 15.6416 26.4717 15.7416 29.88L15.744 29.9593C15.7598 30.4847 15.775 30.987 15.775 31.4631C15.775 34.3131 14.9667 36.1841 12.7875 38.3633C7.89999 43.2466 5.20834 45.9424 5.20834 49.9966C5.20834 54.0507 7.89998 56.7424 12.7875 61.6299C15.2708 64.1174 15.775 65.2759 15.775 68.5301C15.775 69.009 15.7594 69.5225 15.7433 70.0526L15.7416 70.1089C15.6416 73.5422 15.5084 78.2466 18.6709 81.3841C21.8042 84.4883 26.475 84.3548 29.8875 84.2548L29.9432 84.2531C30.4735 84.237 30.9876 84.2214 31.4667 84.2214C34.7209 84.2214 35.8458 84.6839 38.1458 86.9839C38.5333 87.3755 38.9673 87.8388 39.4256 88.3346ZM42.5625 82.5633C39.0791 79.0883 36.3834 77.9714 31.4667 77.9714L31.4583 77.9674C30.9248 77.9674 30.3563 77.9828 29.7681 77.9989L29.6723 78.0015C27.2646 78.068 24.287 78.1503 23.0626 76.9383C21.8292 75.7092 21.9124 72.7006 21.9832 70.2798L21.9851 70.2119C22.0011 69.6236 22.0166 69.0552 22.0166 68.5216C22.0166 63.6049 20.7792 60.7923 17.1959 57.2048L17.1454 57.1543C13.5922 53.597 11.45 51.4524 11.45 49.9884C11.45 48.5176 13.6125 46.355 17.1959 42.7716C20.5292 39.4425 22.0166 35.9507 22.0166 31.4549C22.0166 30.9205 22.0013 30.3554 21.9854 29.7672L21.9832 29.6882C21.9124 27.284 21.825 24.2883 23.0459 23.0591C24.275 21.8258 27.2834 21.909 29.7042 21.9798L29.7721 21.9817C30.3604 21.9977 30.9288 22.0132 31.4624 22.0132C35.9541 22.0132 39.4458 20.5258 42.7791 17.1924C46.3625 13.6091 48.5251 11.4466 49.9959 11.4466C51.4667 11.4466 53.6289 13.6088 57.2119 17.1918C60.5411 20.5251 64.0334 22.0132 68.5293 22.0132C69.0635 22.0132 69.6282 21.9979 70.2162 21.982L70.2958 21.9798C72.7 21.909 75.6959 21.8216 76.9251 23.0424C78.1584 24.2716 78.075 27.2799 78.0042 29.7008L78.0023 29.7695C77.9863 30.3575 77.9708 30.9256 77.9708 31.459C77.9708 36.3757 79.2084 39.1882 82.7918 42.7757L82.8393 42.8233C86.3942 46.3823 88.5376 48.5282 88.5376 49.9925C88.5376 51.4633 86.4418 53.5631 82.7918 57.2089C79.1418 60.8547 77.9708 63.6048 77.9708 68.5256C77.9708 69.0594 77.9863 69.6282 78.0023 70.2167L78.0042 70.2843C78.075 72.7009 78.1584 75.7092 76.9251 76.9383C75.6959 78.1591 72.6958 78.0716 70.2875 78.0007L70.2187 77.9989C69.6307 77.9828 69.0627 77.9674 68.5293 77.9674C63.6126 77.9674 60.9166 79.0841 57.4333 82.5633C56.9936 83.003 56.5503 83.4797 56.0822 83.9829L55.9788 84.0941C54.2303 85.9717 51.844 88.5342 50 88.5342C48.15 88.5342 45.7541 85.9591 44.0041 84.0758C43.9338 84.0008 43.8641 83.9263 43.7949 83.8523C43.3717 83.4003 42.9671 82.968 42.5625 82.5633Z" fill="url(#paint1_linear_60924_25262)"/>
<defs>
<linearGradient id="paint0_linear_60924_25262" x1="85.4564" y1="-15.3196" x2="85.4564" y2="94.7882" gradientUnits="userSpaceOnUse">
<stop stop-color="#A719DD"/>
<stop offset="0.630117" stop-color="#623BD8"/>
<stop offset="1" stop-color="#4489EB"/>
</linearGradient>
<linearGradient id="paint1_linear_60924_25262" x1="85.4564" y1="-15.3196" x2="85.4564" y2="94.7882" gradientUnits="userSpaceOnUse">
<stop stop-color="#A719DD"/>
<stop offset="0.630117" stop-color="#623BD8"/>
<stop offset="1" stop-color="#4489EB"/>
</linearGradient>
</defs>
</svg>
