<svg width="16" height="16" viewBox="0 0 16 16" fill="none" xmlns="http://www.w3.org/2000/svg">
<path d="M11.666 1.3335H5.33268C3.85992 1.3335 2.66602 2.5274 2.66602 4.00016V12.0002C2.66602 13.4729 3.85992 14.6668 5.33268 14.6668H11.666C13.1388 14.6668 14.3327 13.4729 14.3327 12.0002V4.00016C14.3327 2.5274 13.1388 1.3335 11.666 1.3335Z" stroke="#7C5CFF" stroke-width="1.07"/>
<path d="M7.05983 9.16033C6.6405 9.44166 5.54183 10.015 6.21117 10.7323C6.53783 11.083 6.9025 11.3337 7.35983 11.3337H9.97316C10.4305 11.3337 10.7952 11.083 11.1218 10.7323C11.7912 10.015 10.6925 9.44166 10.2732 9.16099C9.79917 8.83913 9.23944 8.66705 8.6665 8.66705C8.09356 8.66705 7.63064 8.88318 7.05983 9.16033ZM9.99983 6.00033C9.99983 6.35395 9.85936 6.69309 9.60931 6.94313C9.35926 7.19318 9.02012 7.33366 8.6665 7.33366C8.31288 7.33366 7.97374 7.19318 7.72369 6.94313C7.47364 6.69309 7.33316 6.35395 7.33316 6.00033C7.33316 5.6467 7.47364 5.30756 7.72369 5.05752C7.97374 4.80747 8.31288 4.66699 8.6665 4.66699C9.02012 4.66699 9.35926 4.80747 9.60931 5.05752C9.85936 5.30756 9.99983 5.6467 9.99983 6.00033Z" stroke="#7C5CFF" stroke-width="1.07"/>
<path d="M3.33268 4H1.66602M3.33268 8H1.66602M3.33268 12H1.66602" stroke="#7C5CFF" stroke-width="1.07" stroke-linecap="round" stroke-linejoin="round"/>
</svg>
