<svg width="38" height="38" viewBox="0 0 38 38" fill="none" xmlns="http://www.w3.org/2000/svg">
<rect width="38" height="38" rx="10.64" fill="#3C3744"/>
<path d="M19 29.5C24.799 29.5 29.5 24.799 29.5 19C29.5 13.201 24.799 8.5 19 8.5C13.201 8.5 8.5 13.201 8.5 19C8.5 24.799 13.201 29.5 19 29.5Z" fill="#3C3744"/>
<path d="M24.0242 23.575C23.7992 23.95 23.3492 24.025 22.9742 23.8C20.1992 22.075 16.6742 21.7 12.5492 22.675C12.1742 22.75 11.7992 22.525 11.6492 22.15C11.5742 21.7 11.7992 21.325 12.1742 21.25C16.6742 20.2 20.5742 20.65 23.7242 22.525C24.0992 22.75 24.1742 23.2 24.0242 23.575ZM25.3742 20.575C25.1492 21.025 24.5492 21.175 24.0992 20.95C20.8742 19 15.9992 18.4 12.2492 19.6C11.7242 19.75 11.1992 19.45 11.0492 18.925C10.8992 18.4 11.1992 17.875 11.7242 17.725C16.0742 16.45 21.4742 17.05 25.1492 19.3C25.5992 19.6 25.7492 20.125 25.3742 20.575ZM25.5242 17.425C21.6992 15.175 15.3992 14.95 11.7992 16.075C11.1992 16.225 10.5242 15.925 10.3742 15.325C10.2242 14.725 10.5242 14.05 11.1242 13.9C15.3242 12.625 22.2992 12.85 26.7242 15.475C27.2492 15.775 27.4742 16.525 27.0992 17.05C26.7992 17.65 26.0492 17.8 25.5242 17.425Z" fill="#0A0512"/>
</svg>
