<svg width="40" height="40" viewBox="0 0 40 40" fill="none" xmlns="http://www.w3.org/2000/svg">
<path fill-rule="evenodd" clip-rule="evenodd" d="M4.60949 15.9086C4.65797 13.6337 4.69609 11.9643 4.86866 10.6436L14.2379 15.9627C16.3808 17.1793 18.1395 17.918 20 17.918C21.8605 17.918 23.6192 17.1793 25.7621 15.9627L35.1316 10.6435C35.3042 11.9642 35.3424 13.6336 35.3908 15.9087L35.3954 16.1196C35.4086 16.7382 35.4156 17.0609 35.4167 17.5045C35.4184 18.1948 35.9795 18.753 36.6698 18.7513C37.3602 18.7496 37.9184 18.1885 37.9167 17.4981C37.9155 17.0299 37.908 16.6832 37.8949 16.0702L37.8882 15.7576C37.8355 13.2847 37.793 11.2885 37.5139 9.68042C37.2208 7.99166 36.6508 6.61658 35.4777 5.43836C34.2997 4.25513 32.9051 3.68162 31.1891 3.38261C29.5502 3.09701 27.5052 3.04563 24.9639 2.98178L24.8669 2.97935C21.6118 2.89751 18.3885 2.89751 15.1335 2.97934L15.0365 2.98177C12.4951 3.04562 10.4501 3.09699 8.81121 3.38258C7.09525 3.6816 5.70068 4.2551 4.5226 5.43834C3.34953 6.61655 2.7795 7.99164 2.48641 9.68039C2.20731 11.2885 2.1648 13.2846 2.11214 15.7575L2.11005 15.8554C2.07464 17.5169 2.07464 19.1687 2.11006 20.8302L2.11214 20.9281C2.16481 23.401 2.20732 25.3971 2.48641 27.0052C2.77951 28.694 3.34954 30.069 4.52261 31.2473C5.70068 32.4305 7.09525 33.004 8.81121 33.303C10.4501 33.5886 12.4951 33.64 15.0365 33.7038L15.1335 33.7063C15.9184 33.726 16.7016 33.741 17.4838 33.7512C18.1741 33.7602 18.741 33.2079 18.7501 32.5176C18.7591 31.8273 18.2068 31.2604 17.5165 31.2514C16.7444 31.2413 15.9713 31.2265 15.1963 31.2071C12.5352 31.1402 10.6757 31.0902 9.24038 30.8401C7.86129 30.5998 7.00138 30.1936 6.29424 29.4834C5.5821 28.7681 5.18228 27.9184 4.94959 26.5777C4.70658 25.1775 4.66478 23.3709 4.60949 20.7769C4.57483 19.1509 4.57483 17.5347 4.60949 15.9086ZM24.804 5.47856C21.5908 5.39778 18.4095 5.39777 15.1963 5.47855C12.5352 5.54544 10.6757 5.59536 9.24037 5.84547C7.86129 6.08578 7.00138 6.49199 6.29423 7.20223C6.00425 7.49349 5.76606 7.80703 5.56984 8.16693L15.4722 13.7886C17.5387 14.9618 18.8203 15.418 20 15.418C21.1798 15.418 22.4614 14.9618 24.5279 13.7886L34.4304 8.16682C34.2342 7.80697 33.996 7.49347 33.7061 7.20226C32.999 6.49202 32.139 6.08581 30.76 5.84549C29.3246 5.59538 27.4652 5.54546 24.804 5.47856Z" fill="#A719DD"/>
<path fill-rule="evenodd" clip-rule="evenodd" d="M22.9168 28.3346C22.9168 24.8829 25.7151 22.0846 29.1668 22.0846C32.6186 22.0846 35.4168 24.8829 35.4168 28.3346V29.168C35.4168 29.8583 34.8572 30.418 34.1668 30.418C33.4765 30.418 32.9168 29.8583 32.9168 29.168V28.3346C32.9168 26.2636 31.2379 24.5846 29.1668 24.5846C27.0958 24.5846 25.4168 26.2636 25.4168 28.3346C25.4168 30.4057 27.0958 32.0846 29.1668 32.0846C29.9216 32.0846 30.6243 31.8617 31.2126 31.478C31.899 32.3546 32.9671 32.918 34.1668 32.918C36.2379 32.918 37.9168 31.239 37.9168 29.168V28.3346C37.9168 23.5021 33.9993 19.5846 29.1668 19.5846C24.3343 19.5846 20.4168 23.5021 20.4168 28.3346C20.4168 33.1671 24.3343 37.0846 29.1668 37.0846C29.8572 37.0846 30.4168 36.525 30.4168 35.8346C30.4168 35.1443 29.8572 34.5846 29.1668 34.5846C25.7151 34.5846 22.9168 31.7864 22.9168 28.3346ZM29.1668 27.0846C29.8572 27.0846 30.4168 27.6443 30.4168 28.3346C30.4168 29.025 29.8572 29.5846 29.1668 29.5846C28.4765 29.5846 27.9168 29.025 27.9168 28.3346C27.9168 27.6443 28.4765 27.0846 29.1668 27.0846Z" fill="#A719DD"/>
</svg>
