<svg width="20" height="20" viewBox="0 0 20 20" fill="none" xmlns="http://www.w3.org/2000/svg">
<path fill-rule="evenodd" clip-rule="evenodd" d="M5.00004 1.04102C5.34522 1.04102 5.62504 1.32084 5.62504 1.66602V1.97093C6.57176 1.87432 7.73673 1.87434 9.15774 1.87435H10.8423C12.2634 1.87434 13.4283 1.87432 14.375 1.97093V1.66602C14.375 1.32084 14.6549 1.04102 15 1.04102C15.3452 1.04102 15.625 1.32084 15.625 1.66602V2.19501C16.2957 2.38508 16.8613 2.69401 17.3321 3.20298C17.9803 3.9038 18.2685 4.78928 18.4065 5.89894C18.5417 6.98627 18.5417 8.37975 18.5417 10.1577V10.6743C18.5417 12.4523 18.5417 13.8458 18.4065 14.9331C18.2685 16.0427 17.9803 16.9282 17.3321 17.629C16.6774 18.3368 15.8394 18.6577 14.7906 18.8102C13.7756 18.9577 12.4788 18.9577 10.8423 18.9577H9.15774C7.52133 18.9577 6.22447 18.9577 5.20945 18.8102C4.16068 18.6577 3.32266 18.3368 2.66799 17.629C2.01974 16.9282 1.73158 16.0427 1.59358 14.9331C1.45836 13.8458 1.45837 12.4523 1.45837 10.6743V10.1577C1.45837 8.37974 1.45836 6.98627 1.59358 5.89894C1.73158 4.78928 2.01974 3.9038 2.66799 3.20298C3.13879 2.69401 3.70441 2.38508 4.37504 2.19501V1.66602C4.37504 1.32084 4.65486 1.04102 5.00004 1.04102ZM5.00004 3.95768C4.71435 3.95768 4.47343 3.766 4.39887 3.50422C4.05945 3.63927 3.80173 3.81815 3.58562 4.05179C3.19207 4.47724 2.95881 5.06048 2.83555 6.04102H17.1645C17.0413 5.06048 16.808 4.47724 16.4145 4.05179C16.1983 3.81815 15.9406 3.63928 15.6012 3.50422C15.5267 3.766 15.2857 3.95768 15 3.95768C14.6549 3.95768 14.375 3.67786 14.375 3.33268V3.22817C13.4909 3.12565 12.3481 3.12435 10.7917 3.12435H9.20837C7.65202 3.12435 6.50921 3.12565 5.62504 3.22817V3.33268C5.62504 3.67786 5.34522 3.95768 5.00004 3.95768ZM17.2593 7.29102H2.74081C2.70883 8.08842 2.70837 9.04169 2.70837 10.2021V10.63C2.70837 12.4619 2.70951 13.7776 2.83403 14.7788C2.95688 15.7667 3.19045 16.353 3.58562 16.7802C3.97439 17.2005 4.49777 17.4436 5.38924 17.5732C6.30401 17.7061 7.50994 17.7077 9.20837 17.7077H10.7917C12.4901 17.7077 13.6961 17.7061 14.6108 17.5732C15.5023 17.4436 16.0257 17.2005 16.4145 16.7802C16.8096 16.353 17.0432 15.7667 17.1661 14.7788C17.2906 13.7776 17.2917 12.4619 17.2917 10.63V10.2021C17.2917 9.04169 17.2913 8.08842 17.2593 7.29102Z" fill="#3260BB"/>
</svg>
