<svg width="20" height="20" viewBox="0 0 20 20" fill="none" xmlns="http://www.w3.org/2000/svg">
<path d="M3.33333 3.33398C2.8731 3.33398 2.5 3.70708 2.5 4.16732C2.5 4.62755 2.8731 5.00065 3.33333 5.00065H3.34082C3.80106 5.00065 4.17415 4.62755 4.17415 4.16732C4.17415 3.70708 3.80106 3.33398 3.34082 3.33398H3.33333Z" fill="white"/>
<path d="M6.66667 3.54232C6.32149 3.54232 6.04167 3.82214 6.04167 4.16732C6.04167 4.5125 6.32149 4.79232 6.66667 4.79232L16.6667 4.79232C17.0118 4.79232 17.2917 4.5125 17.2917 4.16732C17.2917 3.82214 17.0118 3.54232 16.6667 3.54232L6.66667 3.54232Z" fill="white"/>
<path d="M2.5 10.0007C2.5 9.54041 2.8731 9.16732 3.33333 9.16732H3.34082C3.80106 9.16732 4.17415 9.54041 4.17415 10.0007C4.17415 10.4609 3.80106 10.834 3.34082 10.834H3.33333C2.8731 10.834 2.5 10.4609 2.5 10.0007Z" fill="white"/>
<path d="M3.33333 15.0007C2.8731 15.0007 2.5 15.3737 2.5 15.834C2.5 16.2942 2.8731 16.6673 3.33333 16.6673H3.34082C3.80106 16.6673 4.17415 16.2942 4.17415 15.834C4.17415 15.3737 3.80106 15.0007 3.34082 15.0007H3.33333Z" fill="white"/>
<path d="M6.04167 10.0007C6.04167 9.65547 6.32149 9.37565 6.66667 9.37565L16.6667 9.37565C17.0118 9.37565 17.2917 9.65547 17.2917 10.0007C17.2917 10.3458 17.0118 10.6257 16.6667 10.6257L6.66667 10.6257C6.32149 10.6257 6.04167 10.3458 6.04167 10.0007Z" fill="white"/>
<path d="M6.66667 15.209C6.32149 15.209 6.04167 15.4888 6.04167 15.834C6.04167 16.1792 6.32149 16.459 6.66667 16.459L16.6667 16.459C17.0118 16.459 17.2917 16.1792 17.2917 15.834C17.2917 15.4888 17.0118 15.209 16.6667 15.209L6.66667 15.209Z" fill="white"/>
</svg>
