<svg width="104" height="104" viewBox="0 0 104 104" fill="none" xmlns="http://www.w3.org/2000/svg">
<path d="M17.334 30.3334H86.6673M43.334 47.6667V73.6667M60.6673 47.6667V73.6667" stroke="#FF5A7A" stroke-width="6" stroke-linecap="round" stroke-linejoin="round"/>
<path d="M26 30.3334L30.3333 86.6667C30.3333 88.9653 31.2464 91.1697 32.8717 92.795C34.4971 94.4203 36.7015 95.3334 39 95.3334H65C67.2985 95.3334 69.5029 94.4203 71.1283 92.795C72.7536 91.1697 73.6667 88.9653 73.6667 86.6667L78 30.3334" stroke="#FF5A7A" stroke-width="6" stroke-linecap="round" stroke-linejoin="round"/>
<path d="M39 30.3333V17.3333C39 16.1841 39.4565 15.0819 40.2692 14.2692C41.0819 13.4565 42.1841 13 43.3333 13H60.6667C61.8159 13 62.9181 13.4565 63.7308 14.2692C64.5435 15.0819 65 16.1841 65 17.3333V30.3333" stroke="#FF5A7A" stroke-width="6" stroke-linecap="round" stroke-linejoin="round"/>
</svg>
