<svg width="24" height="24" viewBox="0 0 24 24" fill="none" xmlns="http://www.w3.org/2000/svg">
<g clip-path="url(#clip0_488_848)">
<path d="M18 0H6C2.68629 0 0 2.68629 0 6V18C0 21.3137 2.68629 24 6 24H18C21.3137 24 24 21.3137 24 18V6C24 2.68629 21.3137 0 18 0Z" fill="#3693F3"/>
<path d="M17.5 10.5C17.5 8.01 15.49 6 13 6C11.12 6 9.51 7.15 8.83 8.79C7.47 9.03 6 10.6 6 12.5C6 14.43 7.57 16 9.5 16H17.5C19.16 16 20.5 14.66 20.5 13C20.5 11.45 19.32 10.18 17.79 10.03C17.6838 10.1806 17.587 10.3376 17.5 10.5Z" fill="white"/>
</g>
<defs>
<clipPath id="clip0_488_848">
<rect width="24" height="24" fill="white"/>
</clipPath>
</defs>
</svg>
