<svg width="24" height="24" viewBox="0 0 24 24" fill="none" xmlns="http://www.w3.org/2000/svg">
<g clip-path="url(#clip0_488_832)">
<path d="M24 5.457V19.366C24 20.27 23.268 21.002 22.364 21.002H18.545V11.73L12 16.364L5.455 11.728V21.001H1.636C1.20228 21.001 0.786308 20.8288 0.479527 20.5222C0.172746 20.2156 0.000265111 19.7997 0 19.366L0 5.457C0 3.434 2.309 2.279 3.927 3.493L5.455 4.64L12 9.273L18.545 4.637L20.073 3.492C21.69 2.28 24 3.434 24 5.457Z" fill="#EA4335"/>
<path d="M0 5.457V19.366C0 20.27 0.732 21.002 1.636 21.002H5.455V11.73L12 16.364V9.273L5.455 4.64L3.927 3.493C2.309 2.28 0 3.434 0 5.457Z" fill="#34A853"/>
<path d="M18.545 11.73V21.003H22.364C22.5789 21.003 22.7917 20.9607 22.9903 20.8784C23.1889 20.7961 23.3693 20.6755 23.5212 20.5235C23.6731 20.3715 23.7936 20.191 23.8758 19.9924C23.9579 19.7938 24.0001 19.5809 24 19.366V5.457C24 3.434 21.691 2.279 20.073 3.493L18.545 4.64V11.73Z" fill="#4285F4"/>
<path d="M12 9.273L18.545 4.637L17.017 3.492C15.4 2.28 12 3.5 12 5.457V9.273Z" fill="#FBBC05"/>
<path d="M0 5.457C0 3.434 2.309 2.279 3.927 3.493L5.455 4.64L12 9.273V5.457C12 3.5 8.6 2.28 6.982 3.492L5.455 4.64L3.927 3.493C3.66656 2.97225 3.20991 2.57628 2.65753 2.39222C2.10514 2.20815 1.50225 2.25106 0.9815 2.5115C0.460747 2.77194 0.0647839 3.22859 -0.119283 3.78097C-0.30335 4.33336 -0.260443 4.93625 0 5.457Z" fill="#EA4335"/>
</g>
<defs>
<clipPath id="clip0_488_832">
<rect width="24" height="24" fill="white"/>
</clipPath>
</defs>
</svg>
