<svg width="24" height="24" viewBox="0 0 24 24" fill="none" xmlns="http://www.w3.org/2000/svg">
<g clip-path="url(#clip0_908_2247)">
<path d="M24 5.457V19.366C24 20.27 23.268 21.002 22.364 21.002H18.545V11.73L12 16.364L5.455 11.728V21.001H1.636C1.20228 21.001 0.786308 20.8288 0.479527 20.5222C0.172746 20.2156 0.000265111 19.7997 0 19.366L0 5.457C0 3.434 2.309 2.279 3.927 3.493L5.455 4.64L12 9.273L18.545 4.637L20.073 3.492C21.69 2.28 24 3.434 24 5.457Z" fill="#EA4335"/>
<path d="M0 5.45699V19.366C0 20.27 0.732 21.002 1.636 21.002H5.455V11.73L12 16.364V9.27299L5.455 4.63999L3.927 3.49299C2.309 2.27999 0 3.43399 0 5.45699Z" fill="#34A853"/>
<path d="M18.5449 11.73V21.003H22.3639C22.5788 21.003 22.7917 20.9606 22.9902 20.8784C23.1888 20.7961 23.3692 20.6755 23.5211 20.5235C23.673 20.3714 23.7935 20.191 23.8757 19.9924C23.9578 19.7938 24.0001 19.5809 23.9999 19.366V5.457C23.9999 3.434 21.6909 2.279 20.0729 3.493L18.5449 4.64V11.73Z" fill="#4285F4"/>
</g>
<defs>
<clipPath id="clip0_908_2247">
<rect width="24" height="24" fill="white"/>
</clipPath>
</defs>
</svg>
