<svg width="24" height="24" viewBox="0 0 24 24" fill="none" xmlns="http://www.w3.org/2000/svg">
<path d="M4.4084 10.299L8.5124 8.80598L10.0054 4.70198C10.0399 4.60826 10.1023 4.52737 10.1842 4.47022C10.2661 4.41308 10.3635 4.38245 10.4634 4.38245C10.5633 4.38245 10.6607 4.41308 10.7426 4.47022C10.8245 4.52737 10.8869 4.60826 10.9214 4.70198L12.4144 8.80598L16.5184 10.299C16.6121 10.3335 16.693 10.3959 16.7502 10.4778C16.8073 10.5597 16.8379 10.6571 16.8379 10.757C16.8379 10.8568 16.8073 10.9543 16.7502 11.0362C16.693 11.1181 16.6121 11.1805 16.5184 11.215L12.4144 12.708L10.9214 16.812C10.8869 16.9057 10.8245 16.9866 10.7426 17.0437C10.6607 17.1009 10.5633 17.1315 10.4634 17.1315C10.3635 17.1315 10.2661 17.1009 10.1842 17.0437C10.1023 16.9866 10.0399 16.9057 10.0054 16.812L8.5124 12.708L4.4084 11.215C4.31468 11.1805 4.23379 11.1181 4.17665 11.0362C4.11951 10.9543 4.08887 10.8568 4.08887 10.757C4.08887 10.6571 4.11951 10.5597 4.17665 10.4778C4.23379 10.3959 4.31468 10.3335 4.4084 10.299Z" stroke="#7A7698" stroke-width="1.25" stroke-linecap="round" stroke-linejoin="round"/>
<path d="M13.9188 16.3239L15.8973 15.6041L16.6171 13.6256C16.6337 13.5804 16.6638 13.5414 16.7033 13.5139C16.7428 13.4863 16.7898 13.4716 16.8379 13.4716C16.8861 13.4716 16.933 13.4863 16.9725 13.5139C17.012 13.5414 17.0421 13.5804 17.0587 13.6256L17.7785 15.6041L19.757 16.3239C19.8022 16.3405 19.8412 16.3706 19.8687 16.4101C19.8963 16.4496 19.9111 16.4966 19.9111 16.5447C19.9111 16.5928 19.8963 16.6398 19.8687 16.6793C19.8412 16.7188 19.8022 16.7489 19.757 16.7655L17.7785 17.4853L17.0587 19.4638C17.0421 19.509 17.012 19.548 16.9725 19.5755C16.933 19.6031 16.8861 19.6178 16.8379 19.6178C16.7898 19.6178 16.7428 19.6031 16.7033 19.5755C16.6638 19.548 16.6337 19.509 16.6171 19.4638L15.8973 17.4853L13.9188 16.7655C13.8736 16.7489 13.8346 16.7188 13.8071 16.6793C13.7795 16.6398 13.7648 16.5928 13.7648 16.5447C13.7648 16.4966 13.7795 16.4496 13.8071 16.4101C13.8346 16.3706 13.8736 16.3405 13.9188 16.3239Z" stroke="#7A7698" stroke-width="1.25" stroke-linecap="round" stroke-linejoin="round"/>
</svg>
