<svg width="34" height="34" viewBox="0 0 34 34" fill="none" xmlns="http://www.w3.org/2000/svg">
<path d="M18.0623 5.66602C18.0623 5.07921 17.5866 4.60352 16.9998 4.60352C16.413 4.60352 15.9373 5.07921 15.9373 5.66602V15.9368H5.6665C5.0797 15.9368 4.604 16.4125 4.604 16.9993C4.604 17.5862 5.0797 18.0618 5.6665 18.0618H15.9373V28.3327C15.9373 28.9195 16.413 29.3952 16.9998 29.3952C17.5866 29.3952 18.0623 28.9195 18.0623 28.3327V18.0618H28.3332C28.92 18.0618 29.3957 17.5862 29.3957 16.9993C29.3957 16.4125 28.92 15.9368 28.3332 15.9368H18.0623V5.66602Z" fill="white"/>
</svg>
