<svg width="24" height="24" viewBox="0 0 24 24" fill="none" xmlns="http://www.w3.org/2000/svg">
<g clip-path="url(#clip0_488_841)">
<path d="M20 0H4C1.79086 0 0 1.79086 0 4V20C0 22.2091 1.79086 24 4 24H20C22.2091 24 24 22.2091 24 20V4C24 1.79086 22.2091 0 20 0Z" fill="#0078D4"/>
<path opacity="0.8" d="M13 6H20C20.2652 6 20.5196 6.10536 20.7071 6.29289C20.8946 6.48043 21 6.73478 21 7V17C21 17.2652 20.8946 17.5196 20.7071 17.7071C20.5196 17.8946 20.2652 18 20 18H13V6Z" fill="#50E6FF"/>
<path opacity="0.4" d="M13 12L21 7.5V17L13 12Z" fill="#0078D4"/>
<path d="M11 6H5C3.89543 6 3 6.89543 3 8V16C3 17.1046 3.89543 18 5 18H11C12.1046 18 13 17.1046 13 16V8C13 6.89543 12.1046 6 11 6Z" fill="white"/>
<path d="M8 9.5C6.62 9.5 5.5 10.62 5.5 12C5.5 13.38 6.62 14.5 8 14.5C9.38 14.5 10.5 13.38 10.5 12C10.5 10.62 9.38 9.5 8 9.5ZM8 13.5C7.17 13.5 6.5 12.83 6.5 12C6.5 11.17 7.17 10.5 8 10.5C8.83 10.5 9.5 11.17 9.5 12C9.5 12.83 8.83 13.5 8 13.5Z" fill="#0078D4"/>
</g>
<defs>
<clipPath id="clip0_488_841">
<rect width="24" height="24" fill="white"/>
</clipPath>
</defs>
</svg>
