<svg width="20" height="20" viewBox="0 0 20 20" fill="none" xmlns="http://www.w3.org/2000/svg">
<path d="M8.75107 10.2075H8.71774C8.50107 10.1992 8.30941 10.0742 8.20941 9.89085C7.83688 9.22944 7.51985 9.11593 7.46078 9.09478C7.4551 9.09274 7.45181 9.09157 7.45108 9.09083C7.10941 9.09083 6.85107 8.81583 6.85107 8.46583C6.85107 8.11583 7.15941 7.84083 7.50107 7.84083C7.62607 7.84083 8.17607 7.88251 8.76774 8.53252C9.51774 7.62418 10.9344 6.08255 12.3094 5.64921C12.6427 5.54921 12.9927 5.73254 13.0927 6.05754C13.1927 6.39087 13.0094 6.74087 12.6844 6.84087C11.4011 7.24087 9.77607 9.21585 9.25107 9.94085C9.13441 10.1075 8.94274 10.1992 8.74274 10.1992L8.75107 10.2075Z" fill="#76869E"/>
<path fill-rule="evenodd" clip-rule="evenodd" d="M14.7188 12.5388C15.3772 12.1471 15.7944 11.8252 16.0763 11.341C16.4596 10.6827 16.4596 9.95768 16.4596 8.64102V7.19102C16.4596 5.87436 16.4596 5.14936 16.0763 4.49103C15.6997 3.84426 15.0818 3.4951 13.9698 2.86669L12.4513 2.00766C11.3513 1.38266 10.7346 1.04102 10.0013 1.04102C9.26797 1.04102 8.65963 1.38266 7.5513 2.00766L6.09297 2.8327C4.94297 3.47437 4.30963 3.83269 3.9263 4.49103C3.54297 5.14936 3.54297 5.87435 3.54297 7.19102V8.64101C3.54297 9.95768 3.54297 10.6827 3.9263 11.341C4.21424 11.825 4.62828 12.1423 5.28431 12.5347L4.75939 15.0575C4.35939 16.9741 4.1594 17.9408 4.74273 18.5824C5.43909 19.3534 6.36636 18.8461 7.77066 18.0779L9.70106 17.0241C9.72997 17.0079 9.75966 16.9916 9.78827 16.9759C9.89161 16.9193 9.98078 16.8705 9.96773 16.8574C10.0177 16.8658 10.1674 16.949 10.3173 17.0322L12.2094 18.0658C13.1344 18.5741 13.8511 18.9658 14.4344 18.9658C14.7427 18.9658 15.0177 18.8491 15.2594 18.5824C15.8427 17.9408 15.6427 16.9741 15.2427 15.0491L14.7188 12.5388ZM10.0013 14.791C9.25964 14.791 8.6513 14.4494 7.5513 13.8244L6.42674 13.1882L5.9844 15.3075C5.7594 16.3741 5.5094 17.5741 5.66773 17.7408C5.8094 17.7241 6.54273 17.3241 7.19273 16.9658L9.0844 15.9325C9.45106 15.7325 9.68439 15.6074 10.0011 15.6074C10.3177 15.6074 10.5511 15.7324 10.9011 15.9241L12.8094 16.9658C13.4594 17.3241 14.2011 17.7241 14.4011 17.7075C14.4927 17.5658 14.2427 16.3741 14.0177 15.3158L13.5751 13.1886L12.4513 13.8244C11.343 14.4494 10.7346 14.791 10.0013 14.791ZM8.15964 3.09932L6.7013 3.92437C5.64297 4.51603 5.20964 4.77437 5.0013 5.12437C4.79297 5.47437 4.78463 5.98269 4.78463 7.19936V8.64935C4.78463 9.86602 4.78464 10.366 5.0013 10.7243C5.20964 11.0743 5.64297 11.3327 6.7013 11.9243L8.15964 12.7493C9.1763 13.3243 9.6013 13.5577 10.0013 13.5577C10.4013 13.5577 10.8263 13.3243 11.843 12.7493L13.3013 11.9243C14.3596 11.3327 14.793 11.0743 15.0013 10.7243C15.2096 10.3743 15.218 9.86602 15.218 8.64935V7.19936C15.218 5.98269 15.218 5.4827 15.0013 5.12437C14.793 4.77437 14.3596 4.51603 13.3013 3.92437L11.843 3.09932C10.8263 2.52432 10.4013 2.29102 10.0013 2.29102C9.6013 2.29102 9.1763 2.52432 8.15964 3.09932Z" fill="#76869E"/>
</svg>
