<svg width="20" height="20" viewBox="0 0 20 20" fill="none" xmlns="http://www.w3.org/2000/svg">
<path d="M5.20842 9.99935C5.20842 9.65417 5.48824 9.37435 5.83342 9.37435H6.66675C7.01193 9.37435 7.29175 9.65417 7.29175 9.99935C7.29175 10.3445 7.01193 10.6243 6.66675 10.6243H5.83342C5.48824 10.6243 5.20842 10.3445 5.20842 9.99935Z" fill="#8766CE"/>
<path d="M9.58341 9.37435C9.23824 9.37435 8.95841 9.65417 8.95841 9.99935C8.95841 10.3445 9.23824 10.6243 9.58341 10.6243H10.4167C10.7619 10.6243 11.0417 10.3445 11.0417 9.99935C11.0417 9.65417 10.7619 9.37435 10.4167 9.37435H9.58341Z" fill="#8766CE"/>
<path d="M12.7084 9.99935C12.7084 9.65417 12.9882 9.37435 13.3334 9.37435H14.1667C14.5119 9.37435 14.7917 9.65417 14.7917 9.99935C14.7917 10.3445 14.5119 10.6243 14.1667 10.6243H13.3334C12.9882 10.6243 12.7084 10.3445 12.7084 9.99935Z" fill="#8766CE"/>
<path d="M5.83342 13.541C5.48824 13.541 5.20842 13.8208 5.20842 14.166C5.20842 14.5112 5.48824 14.791 5.83342 14.791H14.1667C14.5119 14.791 14.7917 14.5112 14.7917 14.166C14.7917 13.8208 14.5119 13.541 14.1667 13.541H5.83342Z" fill="#8766CE"/>
<path fill-rule="evenodd" clip-rule="evenodd" d="M12.2917 1.66602C12.2917 1.32084 12.0119 1.04102 11.6667 1.04102C11.3216 1.04102 11.0417 1.32084 11.0417 1.66602V2.49935C11.0417 2.61441 10.9485 2.70768 10.8334 2.70768C10.028 2.70768 9.37508 3.3606 9.37508 4.16602V5.20768H7.87599C6.54077 5.20767 5.48297 5.20766 4.64612 5.30658C3.78698 5.40814 3.07973 5.62134 2.48894 6.10618C2.28852 6.27067 2.10473 6.45445 1.94025 6.65488C1.4554 7.24567 1.2422 7.95292 1.14065 8.81206C1.04173 9.64891 1.04174 10.7067 1.04175 12.0419V12.1234C1.04174 13.4587 1.04173 14.5165 1.14065 15.3533C1.2422 16.2125 1.4554 16.9197 1.94025 17.5105C2.10474 17.7109 2.28852 17.8947 2.48894 18.0592C3.07973 18.544 3.78698 18.7572 4.64612 18.8588C5.48294 18.9577 6.54069 18.9577 7.87584 18.9577H12.1242C13.4593 18.9577 14.5172 18.9577 15.354 18.8588C16.2132 18.7572 16.9204 18.544 17.5112 18.0592C17.7116 17.8947 17.8954 17.7109 18.0599 17.5105C18.5448 16.9197 18.758 16.2125 18.8595 15.3533C18.9584 14.5165 18.9584 13.4588 18.9584 12.1236V12.0419C18.9584 10.7068 18.9584 9.64887 18.8595 8.81206C18.758 7.95292 18.5448 7.24567 18.0599 6.65488C17.8954 6.45445 17.7116 6.27067 17.5112 6.10618C16.9204 5.62134 16.2132 5.40814 15.354 5.30658C14.5172 5.20766 13.4594 5.20767 12.1242 5.20768H10.6251V4.16602C10.6251 4.05096 10.7184 3.95768 10.8334 3.95768C11.6388 3.95768 12.2917 3.30476 12.2917 2.49935V1.66602ZM7.91675 6.45768C6.53166 6.45768 5.54778 6.45871 4.79286 6.54794C4.05172 6.63555 3.6131 6.80066 3.28193 7.07245C3.1448 7.18499 3.01906 7.31073 2.90651 7.44787C2.63473 7.77904 2.46961 8.21766 2.38201 8.95879C2.29277 9.71372 2.29175 10.6976 2.29175 12.0827C2.29175 13.4678 2.29277 14.4516 2.38201 15.2066C2.46961 15.9477 2.63473 16.3863 2.90651 16.7175C3.01905 16.8546 3.1448 16.9804 3.28193 17.0929C3.6131 17.3647 4.05172 17.5298 4.79286 17.6174C5.54778 17.7067 6.53166 17.7077 7.91675 17.7077H12.0834C13.4685 17.7077 14.4524 17.7067 15.2073 17.6174C15.9484 17.5298 16.3871 17.3647 16.7182 17.0929C16.8554 16.9804 16.9811 16.8546 17.0937 16.7175C17.3654 16.3863 17.5306 15.9477 17.6182 15.2066C17.7074 14.4516 17.7084 13.4678 17.7084 12.0827C17.7084 10.6976 17.7074 9.71372 17.6182 8.95879C17.5306 8.21766 17.3654 7.77904 17.0936 7.44787C16.9811 7.31073 16.8554 7.18499 16.7182 7.07245C16.3871 6.80066 15.9484 6.63555 15.2073 6.54794C14.4524 6.45871 13.4685 6.45768 12.0834 6.45768H7.91675Z" fill="#8766CE"/>
</svg>
