<svg width="24" height="24" viewBox="0 0 24 24" fill="none" xmlns="http://www.w3.org/2000/svg">
<path d="M10 15.25C9.58579 15.25 9.25 15.5858 9.25 16C9.25 16.4142 9.58579 16.75 10 16.75H11.5C11.9142 16.75 12.25 16.4142 12.25 16C12.25 15.5858 11.9142 15.25 11.5 15.25H10Z" fill="#AAB9CC"/>
<path d="M13.75 16C13.75 15.5858 14.0858 15.25 14.5 15.25H18C18.4142 15.25 18.75 15.5858 18.75 16C18.75 16.4142 18.4142 16.75 18 16.75H14.5C14.0858 16.75 13.75 16.4142 13.75 16Z" fill="#AAB9CC"/>
<path fill-rule="evenodd" clip-rule="evenodd" d="M13.5475 3.25H10.4525C8.61345 3.24999 7.16917 3.24998 6.03058 3.3786C4.86842 3.50988 3.926 3.78362 3.14263 4.40229C2.90811 4.58749 2.69068 4.79205 2.49298 5.0138C1.82681 5.76101 1.52932 6.66669 1.38763 7.77785C1.24998 8.85727 1.24999 10.2233 1.25 11.9473V12.0527C1.24999 13.7767 1.24998 15.1427 1.38763 16.2222C1.52932 17.3333 1.82681 18.239 2.49298 18.9862C2.69068 19.2079 2.90811 19.4125 3.14263 19.5977C3.926 20.2164 4.86842 20.4901 6.03058 20.6214C7.16917 20.75 8.61345 20.75 10.4525 20.75H13.5475C15.3866 20.75 16.8308 20.75 17.9694 20.6214C19.1316 20.4901 20.074 20.2164 20.8574 19.5977C21.0919 19.4125 21.3093 19.208 21.507 18.9862C22.1732 18.239 22.4707 17.3333 22.6124 16.2222C22.75 15.1427 22.75 13.7768 22.75 12.0528V11.9473C22.75 10.2232 22.75 8.85727 22.6124 7.77785C22.4707 6.66669 22.1732 5.76101 21.507 5.0138C21.3093 4.79205 21.0919 4.58749 20.8574 4.40229C20.074 3.78362 19.1316 3.50988 17.9694 3.3786C16.8308 3.24998 15.3865 3.24999 13.5475 3.25ZM4.07229 5.57946C4.54359 5.20725 5.16816 4.98556 6.19895 4.86912C7.24353 4.75112 8.60311 4.75 10.5 4.75H13.5C15.3969 4.75 16.7565 4.75112 17.8011 4.86912C18.8318 4.98556 19.4564 5.20725 19.9277 5.57946C20.0946 5.71122 20.2483 5.856 20.3874 6.012C20.774 6.44566 21.0029 7.01479 21.1244 7.96759C21.1361 8.05905 21.1467 8.15312 21.1563 8.25H2.84374C2.85333 8.15312 2.86391 8.05905 2.87558 7.96759C2.99708 7.01479 3.22599 6.44566 3.61262 6.012C3.7517 5.856 3.90545 5.71122 4.07229 5.57946ZM2.76458 9.75C2.75033 10.3961 2.75 11.1378 2.75 12C2.75 13.7886 2.75143 15.0589 2.87558 16.0324C2.99708 16.9852 3.22599 17.5543 3.61262 17.988C3.7517 18.144 3.90545 18.2888 4.07229 18.4205C4.54359 18.7927 5.16816 19.0144 6.19895 19.1309C7.24353 19.2489 8.60311 19.25 10.5 19.25H13.5C15.3969 19.25 16.7565 19.2489 17.8011 19.1309C18.8318 19.0144 19.4564 18.7927 19.9277 18.4205C20.0946 18.2888 20.2483 18.144 20.3874 17.988C20.774 17.5543 21.0029 16.9852 21.1244 16.0324C21.2486 15.0589 21.25 13.7886 21.25 12C21.25 11.1378 21.2497 10.3961 21.2354 9.75H2.76458Z" fill="#AAB9CC"/>
</svg>
