<svg width="20" height="20" viewBox="0 0 20 20" fill="none" xmlns="http://www.w3.org/2000/svg">
<path fill-rule="evenodd" clip-rule="evenodd" d="M2.29163 2.5C2.29163 2.15482 2.0118 1.875 1.66663 1.875C1.32145 1.875 1.04163 2.15482 1.04163 2.5V11.7131C1.04161 13.0486 1.0416 14.1144 1.15398 14.9503C1.27009 15.8139 1.51634 16.5251 2.07896 17.0877C2.64157 17.6503 3.35275 17.8965 4.2163 18.0126C5.05221 18.125 6.11801 18.125 7.45351 18.125H16.6666C17.0118 18.125 17.2916 17.8452 17.2916 17.5C17.2916 17.1548 17.0118 16.875 16.6666 16.875H7.49996C6.10736 16.875 5.12579 16.8737 4.38286 16.7738C3.67693 16.6789 3.27587 16.5049 2.98601 16.2265C2.99992 16.2093 3.01305 16.1911 3.02532 16.1721L6.63529 10.5711C6.77884 10.6063 6.92889 10.625 7.08329 10.625C7.40126 10.625 7.70074 10.5459 7.9631 10.4062L10.3488 12.2033C10.2582 12.4232 10.2083 12.6641 10.2083 12.9167C10.2083 13.9522 11.0478 14.7917 12.0833 14.7917C13.1188 14.7917 13.9583 13.9522 13.9583 12.9167C13.9583 12.5062 13.8264 12.1265 13.6027 11.8178L15.3918 8.12484L15.4166 8.125C16.4522 8.125 17.2916 7.28553 17.2916 6.25C17.2916 5.21447 16.4522 4.375 15.4166 4.375C14.3811 4.375 13.5416 5.21447 13.5416 6.25C13.5416 6.82791 13.8031 7.34475 14.2141 7.68869L12.5601 11.1028C12.4078 11.0629 12.248 11.0417 12.0833 11.0417C11.7585 11.0417 11.4531 11.1242 11.1867 11.2695L8.81093 9.47987C8.90582 9.25554 8.95829 9.0089 8.95829 8.75C8.95829 7.71447 8.11883 6.875 7.08329 6.875C6.04776 6.875 5.20829 7.71447 5.20829 8.75C5.20829 9.1765 5.35069 9.56973 5.59054 9.88476L2.39995 14.835C2.39753 14.8181 2.39516 14.801 2.39284 14.7838C2.29295 14.0408 2.29163 13.0593 2.29163 11.6667V2.5ZM14.7916 6.25C14.7916 5.90482 15.0714 5.625 15.4166 5.625C15.7618 5.625 16.0416 5.90482 16.0416 6.25C16.0416 6.59518 15.7618 6.875 15.4166 6.875C15.0714 6.875 14.7916 6.59518 14.7916 6.25ZM7.08329 8.125C6.73811 8.125 6.45829 8.40482 6.45829 8.75C6.45829 9.09518 6.73811 9.375 7.08329 9.375C7.42847 9.375 7.70829 9.09518 7.70829 8.75C7.70829 8.40482 7.42847 8.125 7.08329 8.125ZM12.0833 12.2917C11.7381 12.2917 11.4583 12.5715 11.4583 12.9167C11.4583 13.2618 11.7381 13.5417 12.0833 13.5417C12.4285 13.5417 12.7083 13.2618 12.7083 12.9167C12.7083 12.5715 12.4285 12.2917 12.0833 12.2917Z" fill="#3260BB"/>
</svg>
