<svg width="100" height="100" viewBox="0 0 100 100" fill="none" xmlns="http://www.w3.org/2000/svg">
<path d="M26.3953 51.4788C24.8507 50.7088 22.9743 51.3367 22.2043 52.8812C21.4343 54.4258 22.0621 56.3022 23.6067 57.0722L31.9401 61.2267C33.4847 61.9968 35.361 61.3689 36.1311 59.8243C36.9011 58.2797 36.2732 56.4033 34.7286 55.6333L26.3953 51.4788Z" fill="#4489EB"/>
<path fill-rule="evenodd" clip-rule="evenodd" d="M30.5256 23.6472C32.08 22.8972 32.7322 21.0291 31.9822 19.4747C31.2322 17.9203 29.3642 17.2682 27.8097 18.0181L20.9371 21.334C17.7899 22.8523 15.118 24.1412 13.2603 25.3924C11.4023 26.6437 9.37601 28.5 9.37601 31.4258L9.376 71.5636C9.376 76.228 12.788 79.3257 16.9767 81.8318C21.2197 84.3704 27.4616 86.9994 35.3494 90.3216L36.2281 90.6918C42.1422 93.1848 45.9526 94.791 50.001 94.791C54.0495 94.791 57.8598 93.1848 63.7739 90.6919L64.6523 90.3217C72.5403 86.9995 78.7823 84.3705 83.0254 81.8318C87.214 79.3256 90.626 76.228 90.626 71.5636L90.626 31.4258C90.626 28.5 88.5997 26.6437 86.7418 25.3924C84.884 24.1412 82.2122 22.8523 79.0649 21.334L72.1923 18.0181C70.6379 17.2682 68.7698 17.9203 68.0198 19.4747C67.2698 21.0291 67.922 22.8972 69.4764 23.6472L76.1234 26.8542C79.558 28.5113 81.8126 29.6079 83.2504 30.5763C83.8575 30.9851 84.156 31.2643 84.297 31.4257C84.156 31.5872 83.8575 31.8664 83.2504 32.2752C81.8126 33.2436 79.558 34.3402 76.1234 35.9973L63.9517 41.8698C56.17 45.6243 53.16 46.996 50.001 46.996C46.842 46.996 43.8321 45.6243 36.0503 41.8698L23.8786 35.9973C20.444 34.3402 18.1894 33.2436 16.7516 32.2752C16.1445 31.8664 15.846 31.5872 15.705 31.4258C15.846 31.2643 16.1445 30.9852 16.7516 30.5763C18.1894 29.608 20.444 28.5113 23.8786 26.8542L30.5256 23.6472ZM15.626 71.5636L15.626 38.8658C17.1495 39.6903 18.9482 40.558 20.9367 41.5173L34.0245 47.832C39.3578 50.4072 43.1894 52.2572 46.876 52.948L46.876 88.0766C44.8794 87.5292 42.2823 86.46 38.0346 84.6708C29.8312 81.2156 24.0031 78.7525 20.1856 76.4685C16.2674 74.1241 15.626 72.6427 15.626 71.5636ZM53.126 88.0766L53.126 52.9479C56.8126 52.2572 60.6442 50.4071 65.9776 47.832L79.0649 41.5175C81.0535 40.5582 82.8524 39.6904 84.376 38.8658L84.376 71.5636C84.376 72.6427 83.7346 74.1241 79.8164 76.4685C75.9989 78.7525 70.1708 81.2156 61.9675 84.6708C57.7197 86.46 55.1226 87.5292 53.126 88.0766Z" fill="#4489EB"/>
<path d="M60.5441 10.5417C61.7644 9.32127 61.7644 7.34263 60.5441 6.12224C59.3237 4.90185 57.345 4.90185 56.1246 6.12224L50.001 12.2459L43.8774 6.12224C42.657 4.90185 40.6784 4.90185 39.458 6.12224C38.2376 7.34263 38.2376 9.32127 39.458 10.5417L45.5816 16.6653L39.458 22.7889C38.2376 24.0093 38.2376 25.9879 39.458 27.2083C40.6784 28.4287 42.657 28.4287 43.8774 27.2083L50.001 21.0847L56.1246 27.2083C57.345 28.4287 59.3237 28.4287 60.5441 27.2083C61.7644 25.9879 61.7644 24.0093 60.5441 22.7889L54.4204 16.6653L60.5441 10.5417Z" fill="#4489EB"/>
</svg>
