<svg width="12" height="14" viewBox="0 0 12 14" fill="none" xmlns="http://www.w3.org/2000/svg">
<path d="M8 6.5H4C3.17157 6.5 2.5 7.17157 2.5 8V10C2.5 10.8284 3.17157 11.5 4 11.5H8C8.82843 11.5 9.5 10.8284 9.5 10V8C9.5 7.17157 8.82843 6.5 8 6.5Z" fill="white" fill-opacity="0.9"/>
<path d="M4 6.5V4.5C4 3.96957 4.21071 3.46086 4.58579 3.08579C4.96086 2.71071 5.46957 2.5 6 2.5C6.53043 2.5 7.03914 2.71071 7.41421 3.08579C7.78929 3.46086 8 3.96957 8 4.5V6.5" stroke="white" stroke-opacity="0.9" stroke-width="1.25" stroke-linecap="round"/>
</svg>
