<svg width="40" height="40" viewBox="0 0 40 40" fill="none" xmlns="http://www.w3.org/2000/svg">
<path fill-rule="evenodd" clip-rule="evenodd" d="M19.9861 10.4166C16.9929 10.4166 14.5634 12.8401 14.5634 15.8333C14.5634 18.8265 16.9929 21.25 19.9861 21.25C22.9792 21.25 25.4087 18.8265 25.4087 15.8333C25.4087 12.8401 22.9792 10.4166 19.9861 10.4166ZM17.0634 15.8333C17.0634 14.2242 18.3703 12.9166 19.9861 12.9166C21.6018 12.9166 22.9087 14.2242 22.9087 15.8333C22.9087 17.4425 21.6018 18.75 19.9861 18.75C18.3703 18.75 17.0634 17.4425 17.0634 15.8333Z" fill="url(#paint0_linear_471_828)"/>
<path d="M13.4043 29.1965C16.8216 25.6173 23.1708 25.4802 26.581 29.1804C27.0489 29.6881 27.8397 29.7203 28.3473 29.2525C28.8549 28.7846 28.8872 27.9938 28.4193 27.4862C23.9737 22.6625 15.9511 22.9088 11.5961 27.4701C11.1193 27.9694 11.1376 28.7607 11.637 29.2374C12.1363 29.7141 12.9275 29.6958 13.4043 29.1965Z" fill="url(#paint1_linear_471_828)"/>
<path fill-rule="evenodd" clip-rule="evenodd" d="M20.0002 2.08331C10.1051 2.08331 2.0835 10.1049 2.0835 20C2.0835 29.8951 10.1051 37.9166 20.0002 37.9166C29.8953 37.9166 37.9168 29.8951 37.9168 20C37.9168 10.1049 29.8953 2.08331 20.0002 2.08331ZM4.5835 20C4.5835 11.4856 11.4858 4.58331 20.0002 4.58331C28.5146 4.58331 35.4168 11.4856 35.4168 20C35.4168 28.5144 28.5146 35.4166 20.0002 35.4166C11.4858 35.4166 4.5835 28.5144 4.5835 20Z" fill="url(#paint2_linear_471_828)"/>
<defs>
<linearGradient id="paint0_linear_471_828" x1="2.97249" y1="37.9166" x2="37.9168" y2="37.9166" gradientUnits="userSpaceOnUse">
<stop stop-color="#A719DD"/>
<stop offset="0.45" stop-color="#623BD8"/>
<stop offset="1" stop-color="#4489EB"/>
</linearGradient>
<linearGradient id="paint1_linear_471_828" x1="2.97249" y1="37.9166" x2="37.9168" y2="37.9166" gradientUnits="userSpaceOnUse">
<stop stop-color="#A719DD"/>
<stop offset="0.45" stop-color="#623BD8"/>
<stop offset="1" stop-color="#4489EB"/>
</linearGradient>
<linearGradient id="paint2_linear_471_828" x1="2.97249" y1="37.9166" x2="37.9168" y2="37.9166" gradientUnits="userSpaceOnUse">
<stop stop-color="#A719DD"/>
<stop offset="0.45" stop-color="#623BD8"/>
<stop offset="1" stop-color="#4489EB"/>
</linearGradient>
</defs>
</svg>
