<svg width="17" height="18" viewBox="0 0 17 18" fill="none" xmlns="http://www.w3.org/2000/svg">
<path fill-rule="evenodd" clip-rule="evenodd" d="M8.18018 4.79219e-07H8.12681C7.70575 -1.11295e-05 7.34856 -2.09765e-05 7.05215 0.0269629C6.73761 0.0555977 6.44462 0.117616 6.16131 0.268264C6.04949 0.327719 5.9428 0.39634 5.84232 0.473423C5.58773 0.668735 5.40977 0.90961 5.25326 1.18394C5.10576 1.44246 4.95763 1.76746 4.78299 2.15061L4.43379 2.91667H1.87611C1.87577 2.91667 1.87544 2.91667 1.8751 2.91667H0.625C0.279822 2.91667 0 3.19649 0 3.54167C0 3.88685 0.279822 4.16667 0.625 4.16667H1.28661L1.75694 11.9576C1.8198 12.999 1.86969 13.8253 1.97347 14.4854C2.07989 15.1624 2.25101 15.7262 2.59426 16.2194C2.90826 16.6706 3.31281 17.0515 3.78212 17.3377C4.29513 17.6506 4.86821 17.7874 5.55034 17.8529C6.21548 17.9167 7.04332 17.9167 8.08654 17.9167H8.15128C9.19313 17.9167 10.02 17.9167 10.6843 17.853C11.3657 17.7877 11.9381 17.6511 12.4508 17.3388C12.9198 17.0531 13.3242 16.6729 13.6383 16.2224C13.9817 15.73 14.1533 15.167 14.2605 14.491C14.3651 13.8319 14.4161 13.0066 14.4804 11.9668L14.9626 4.16667H15.625C15.9702 4.16667 16.25 3.88685 16.25 3.54167C16.25 3.19649 15.9702 2.91667 15.625 2.91667H14.3756C14.3748 2.91667 14.3741 2.91667 14.3733 2.91667H11.8964L11.4868 2.07175C11.3076 1.70219 11.1556 1.38848 11.0059 1.13907C10.847 0.874311 10.6683 0.64229 10.4168 0.454674C10.3174 0.380533 10.2121 0.314582 10.102 0.257471C9.82346 0.112957 9.53674 0.0534012 9.22918 0.0258928C8.93946 -2.03401e-05 8.59084 -1.07818e-05 8.18018 4.79219e-07ZM13.7102 4.16667H11.5185C11.5097 4.16686 11.5008 4.16686 11.4919 4.16667H4.84916C4.84 4.16687 4.83082 4.16687 4.82163 4.16667H2.53889L3.00272 11.85C3.06798 12.9309 3.11492 13.6973 3.2083 14.2913C3.3001 14.8752 3.42866 15.2301 3.62026 15.5054C3.83511 15.8141 4.1119 16.0747 4.43301 16.2705C4.71937 16.4452 5.08132 16.5521 5.66971 16.6086C6.26821 16.666 7.03614 16.6667 8.11897 16.6667C9.20039 16.6667 9.96728 16.666 10.565 16.6087C11.1527 16.5524 11.5143 16.4456 11.8004 16.2713C12.1213 16.0758 12.3981 15.8157 12.613 15.5074C12.8046 15.2325 12.9335 14.8782 13.026 14.2952C13.1201 13.7021 13.168 12.9367 13.2348 11.8574L13.7102 4.16667ZM10.5072 2.91667H5.80753L5.90921 2.69362C6.09804 2.27935 6.223 2.00665 6.33897 1.80339C6.44906 1.61044 6.52805 1.52282 6.60317 1.46519C6.64884 1.43016 6.69734 1.39896 6.74816 1.37194C6.83176 1.32749 6.94425 1.29196 7.16548 1.27181C7.39853 1.2506 7.6985 1.25 8.15377 1.25C8.59794 1.25 8.89035 1.25058 9.11783 1.27092C9.33366 1.29023 9.44399 1.3243 9.52636 1.36703C9.5764 1.39299 9.62424 1.42297 9.66943 1.45667C9.74382 1.51215 9.8226 1.59657 9.93412 1.78236C10.0517 1.97818 10.1797 2.24105 10.3735 2.64074L10.5072 2.91667Z" fill="#3260BB"/>
</svg>
