<svg width="14" height="14" viewBox="0 0 14 14" fill="none" xmlns="http://www.w3.org/2000/svg">
<path d="M11.0833 4.08325H2.91667C2.27233 4.08325 1.75 4.60559 1.75 5.24992V10.4999C1.75 11.1443 2.27233 11.6666 2.91667 11.6666H11.0833C11.7277 11.6666 12.25 11.1443 12.25 10.4999V5.24992C12.25 4.60559 11.7277 4.08325 11.0833 4.08325Z" stroke="#0E101A" stroke-width="0.933333" stroke-linecap="round" stroke-linejoin="round"/>
<path d="M4.66699 4.08301L5.83366 2.33301H8.16699L9.33366 4.08301" stroke="#0E101A" stroke-width="0.933333" stroke-linecap="round" stroke-linejoin="round"/>
<path d="M6.99967 9.62533C8.12726 9.62533 9.04134 8.71124 9.04134 7.58366C9.04134 6.45608 8.12726 5.54199 6.99967 5.54199C5.87209 5.54199 4.95801 6.45608 4.95801 7.58366C4.95801 8.71124 5.87209 9.62533 6.99967 9.62533Z" stroke="#0E101A" stroke-width="0.933333" stroke-linecap="round" stroke-linejoin="round"/>
</svg>
