<svg width="32" height="32" viewBox="0 0 32 32" fill="none" xmlns="http://www.w3.org/2000/svg">
<path fill-rule="evenodd" clip-rule="evenodd" d="M16.0195 11.75C13.6723 11.75 11.7695 13.6528 11.7695 16C11.7695 18.3472 13.6723 20.25 16.0195 20.25C18.3667 20.25 20.2695 18.3472 20.2695 16C20.2695 13.6528 18.3667 11.75 16.0195 11.75ZM13.2695 16C13.2695 14.4812 14.5007 13.25 16.0195 13.25C17.5383 13.25 18.7695 14.4812 18.7695 16C18.7695 17.5188 17.5383 18.75 16.0195 18.75C14.5007 18.75 13.2695 17.5188 13.2695 16Z" fill="#76869E"/>
<path fill-rule="evenodd" clip-rule="evenodd" d="M16.6553 5.25782H15.4698C15.1531 5.25778 14.8555 5.25774 14.6061 5.28627C14.3281 5.31807 14.0359 5.3916 13.7631 5.58855C13.4905 5.78542 13.3287 6.0397 13.2109 6.29341C13.1051 6.52129 13.0111 6.80401 12.911 7.10516L12.8998 7.13861L12.5721 8.11748C12.4774 8.35626 12.3116 8.55976 12.0977 8.7005L11.7954 8.87498C11.5423 9.00091 11.254 9.03679 10.978 8.97683L9.77769 8.63874L9.74242 8.62873C9.41441 8.53561 9.10768 8.44852 8.84354 8.40659C8.54979 8.35995 8.22843 8.354 7.89612 8.48915C7.56393 8.62426 7.33789 8.85276 7.15992 9.09105C6.99979 9.30544 6.8405 9.58196 6.67003 9.87789L6.14002 10.7977C5.98032 11.0748 5.83046 11.3348 5.72993 11.5669C5.61799 11.8254 5.53542 12.1173 5.57078 12.4539C5.60614 12.7905 5.74758 13.0588 5.91085 13.2883C6.05745 13.4945 6.25808 13.7175 6.47185 13.9552L6.49427 13.9801L6.49558 13.9816L7.50672 15.1121C7.6331 15.2833 7.76522 15.6555 7.76522 16.0077C7.76522 16.3602 7.63313 16.7322 7.50674 16.9035L6.49559 18.0339L6.49427 18.0354L6.47185 18.0603C6.25809 18.298 6.05745 18.5211 5.91085 18.7272C5.74758 18.9568 5.60614 19.2251 5.57078 19.5617C5.53542 19.8983 5.618 20.1901 5.72993 20.4486C5.83046 20.6808 5.98032 20.9408 6.14002 21.2178L6.67003 22.1377C6.84049 22.4336 6.99978 22.7101 7.15991 22.9245C7.33788 23.1628 7.56393 23.3913 7.89613 23.5264C8.22844 23.6615 8.54981 23.6556 8.84357 23.6089C9.1077 23.567 9.41444 23.4799 9.74246 23.3868L9.77713 23.3769L10.978 23.0387C11.254 22.9787 11.5423 23.0146 11.7955 23.1406L12.0978 23.3151C12.3117 23.4558 12.4773 23.6593 12.5721 23.898L12.8998 24.877L12.911 24.9105C13.0111 25.2116 13.1051 25.4943 13.2109 25.7222C13.3287 25.9759 13.4905 26.2302 13.7631 26.4271C14.0359 26.624 14.3282 26.6976 14.6061 26.7294C14.8555 26.7579 15.1531 26.7579 15.4698 26.7578H16.6552C16.9719 26.7579 17.2696 26.7579 17.519 26.7294C17.7969 26.6976 18.0892 26.624 18.3619 26.4271C18.6345 26.2302 18.7963 25.9759 18.9141 25.7222C19.0199 25.4944 19.1139 25.2117 19.2141 24.9105L19.2252 24.877L19.553 23.898C19.6477 23.6593 19.8134 23.4558 20.0273 23.3151L20.3296 23.1406C20.5827 23.0146 20.871 22.9787 21.1471 23.0387L22.348 23.3769L22.3826 23.3868C22.7106 23.4799 23.0174 23.567 23.2815 23.6089C23.5753 23.6556 23.8966 23.6615 24.2289 23.5264C24.5612 23.3913 24.7872 23.1628 24.9652 22.9245C25.1253 22.7101 25.2846 22.4336 25.4551 22.1377L25.985 21.2179C26.1447 20.9408 26.2946 20.6808 26.3951 20.4486C26.5071 20.1901 26.5897 19.8983 26.5543 19.5617C26.5189 19.2251 26.3775 18.9568 26.2142 18.7272C26.0676 18.5211 25.867 18.298 25.6533 18.0604L25.6308 18.0354L24.6183 16.9035C24.492 16.7323 24.3599 16.3602 24.3599 16.0077C24.3599 15.6555 24.492 15.2833 24.6184 15.112L25.6295 13.9816L25.6308 13.9801L25.6532 13.9552C25.867 13.7175 26.0676 13.4945 26.2142 13.2883C26.3775 13.0588 26.5189 12.7905 26.5543 12.4539C26.5897 12.1173 26.5071 11.8254 26.3951 11.5669C26.2946 11.3348 26.1448 11.0748 25.9851 10.7977L25.455 9.87785C25.2846 9.58194 25.1253 9.30543 24.9652 9.09105C24.7872 8.85276 24.5611 8.62426 24.229 8.48915C23.8967 8.354 23.5753 8.35995 23.2815 8.40659C23.0174 8.44852 22.7107 8.53561 22.3827 8.62874L22.348 8.63858L21.1471 8.97683C20.871 9.03679 20.5828 9.00091 20.3297 8.87498L20.0273 8.7005C19.8134 8.55976 19.6477 8.35625 19.553 8.11747L19.2248 7.13723L19.2141 7.10512C19.1139 6.80398 19.0199 6.52128 18.9141 6.29341C18.7963 6.0397 18.6345 5.78542 18.3619 5.58855C18.0892 5.3916 17.7969 5.31807 17.519 5.28627C17.2696 5.25774 16.972 5.25778 16.6553 5.25782ZM14.6405 6.80531L14.6413 6.8046C14.6413 6.8046 14.6464 6.80203 14.6542 6.79942C14.6712 6.79379 14.7072 6.78449 14.7766 6.77655C14.9304 6.75896 15.1407 6.75782 15.5052 6.75782H16.6199C16.9844 6.75782 17.1947 6.75896 17.3485 6.77655C17.4179 6.78449 17.4538 6.79379 17.4709 6.79942C17.4787 6.80203 17.4837 6.8046 17.4837 6.8046L17.4846 6.80531C17.4846 6.80531 17.488 6.80875 17.493 6.81549C17.5038 6.83007 17.5241 6.8615 17.5536 6.92509C17.619 7.06598 17.6867 7.26573 17.8019 7.61212L18.1415 8.62623L18.1473 8.64134C18.3574 9.1892 18.7372 9.65557 19.2312 9.97199L19.2458 9.98136L19.6136 10.1936L19.6298 10.2019C20.2061 10.498 20.8683 10.5806 21.4996 10.435L21.5171 10.431L22.7561 10.082C23.1328 9.97509 23.352 9.91419 23.5167 9.88803C23.5913 9.8762 23.6311 9.8758 23.6501 9.87695C23.6588 9.87748 23.6632 9.87844 23.6632 9.87844L23.6645 9.87894C23.6645 9.87894 23.6684 9.88141 23.6751 9.88718C23.6896 9.89973 23.7181 9.928 23.7634 9.98864C23.8634 10.1226 23.9783 10.3195 24.1741 10.6592L24.6677 11.5158C24.8513 11.8345 24.9564 12.0193 25.0187 12.163C25.0467 12.2278 25.0568 12.2642 25.0605 12.2823C25.0622 12.2906 25.0625 12.2957 25.0625 12.2957L25.0625 12.2971L25.0622 12.2986C25.0622 12.2986 25.0609 12.3034 25.0575 12.3112C25.0501 12.328 25.0328 12.3614 24.9918 12.419C24.9011 12.5465 24.7599 12.7053 24.5141 12.9786L24.5128 12.9801L23.4665 14.1499L23.4522 14.1679C23.0778 14.6419 22.8599 15.3703 22.8599 16.0077C22.8599 16.6452 23.0777 17.3735 23.4522 17.8476L23.4664 17.8656L24.5141 19.0369C24.7599 19.3103 24.9011 19.469 24.9918 19.5966C25.0328 19.6541 25.0501 19.6876 25.0575 19.7044C25.0609 19.7122 25.0622 19.717 25.0622 19.717L25.0625 19.7184L25.0625 19.7199C25.0625 19.7199 25.0622 19.7249 25.0605 19.7333C25.0568 19.7513 25.0467 19.7877 25.0187 19.8526C24.9564 19.9963 24.8513 20.1811 24.6677 20.4997L24.1741 21.3563C23.9784 21.696 23.8634 21.8929 23.7634 22.0269C23.7181 22.0875 23.6896 22.1158 23.6751 22.1284C23.6684 22.1341 23.6645 22.1366 23.6645 22.1366L23.6632 22.1371C23.6632 22.1371 23.6588 22.1381 23.6501 22.1386C23.6311 22.1397 23.5913 22.1393 23.5168 22.1275C23.352 22.1013 23.1328 22.0404 22.7561 21.9335L21.5172 21.5845L21.4997 21.5805C20.8683 21.4349 20.2059 21.5176 19.6296 21.8137L19.6133 21.8221L19.2456 22.0343L19.231 22.0437C18.7371 22.3601 18.3574 22.8264 18.1473 23.3742L18.1415 23.3893L17.8024 24.4021L17.8019 24.4035C17.6867 24.7499 17.619 24.9497 17.5536 25.0906C17.5241 25.1541 17.5038 25.1856 17.493 25.2001C17.4879 25.2069 17.4846 25.2103 17.4846 25.2103L17.4829 25.2115C17.4829 25.2115 17.4815 25.2122 17.4788 25.2133C17.4768 25.2141 17.4742 25.2151 17.4709 25.2162C17.4538 25.2218 17.4179 25.2311 17.3485 25.2391C17.1947 25.2567 16.9844 25.2578 16.6199 25.2578H15.5052C15.1407 25.2578 14.9304 25.2567 14.7766 25.2391C14.7072 25.2311 14.6712 25.2218 14.6542 25.2162C14.6464 25.2136 14.6413 25.211 14.6413 25.211L14.6405 25.2103C14.6405 25.2103 14.6371 25.2069 14.6321 25.2001C14.6213 25.1856 14.601 25.1541 14.5715 25.0906C14.506 24.9497 14.4384 24.7499 14.3232 24.4035L13.9836 23.3893L13.9778 23.3742C13.7677 22.8264 13.388 22.3601 12.8941 22.0437L12.8795 22.0343L12.5118 21.8221L12.4955 21.8137C11.9192 21.5176 11.2568 21.4349 10.6254 21.5805L10.6079 21.5845L9.36902 21.9335C8.99228 22.0404 8.7731 22.1013 8.60833 22.1275C8.53381 22.1393 8.49393 22.1397 8.47496 22.1386C8.46624 22.1381 8.46183 22.1371 8.46183 22.1371L8.46062 22.1366C8.46062 22.1366 8.45668 22.1341 8.44999 22.1284C8.43544 22.1158 8.407 22.0875 8.36171 22.0269C8.26163 21.8929 8.14673 21.696 7.95099 21.3563L7.45742 20.4997C7.2738 20.1811 7.16865 19.9963 7.10643 19.8526C7.07834 19.7877 7.06827 19.7513 7.06457 19.7333C7.06286 19.7249 7.06254 19.7199 7.06254 19.7199L7.06257 19.7184L7.06284 19.717C7.06284 19.717 7.06419 19.7122 7.06759 19.7044C7.07494 19.6876 7.09232 19.6541 7.13325 19.5966C7.22394 19.469 7.36514 19.3103 7.61097 19.0369L7.61229 19.0354L8.65866 17.8656L8.67289 17.8476C9.04736 17.3735 9.26522 16.6452 9.26522 16.0077C9.26522 15.3703 9.04727 14.6419 8.67286 14.1679L8.65863 14.1499L7.61229 12.9801L7.61097 12.9786C7.36514 12.7053 7.22394 12.5465 7.13325 12.419C7.09232 12.3614 7.07493 12.328 7.06759 12.3112C7.06419 12.3034 7.06284 12.2986 7.06284 12.2986L7.06257 12.2971L7.06254 12.2957C7.06254 12.2957 7.06286 12.2906 7.06457 12.2823C7.06827 12.2642 7.07834 12.2278 7.10642 12.163C7.16865 12.0193 7.2738 11.8345 7.45742 11.5158L7.95101 10.6592C8.14675 10.3195 8.26165 10.1226 8.36172 9.98864C8.40701 9.928 8.43545 9.89973 8.44999 9.88718C8.45668 9.88141 8.46062 9.87894 8.46062 9.87894L8.46184 9.87844C8.46184 9.87844 8.46625 9.87748 8.47497 9.87695C8.49394 9.8758 8.53382 9.8762 8.60833 9.88803C8.7731 9.91419 8.99228 9.97509 9.36901 10.082L10.608 10.431L10.6255 10.435C11.2567 10.5806 11.919 10.498 12.4953 10.2019L12.5115 10.1936L12.8793 9.98136L12.8939 9.97199C13.3879 9.65557 13.7677 9.1892 13.9778 8.64134L13.9836 8.62623L14.3232 7.61212C14.4384 7.26573 14.506 7.06598 14.5715 6.92509C14.601 6.8615 14.6213 6.83007 14.6321 6.81549C14.6371 6.80875 14.6405 6.80531 14.6405 6.80531Z" fill="#76869E"/>
</svg>
