<svg width="20" height="20" viewBox="0 0 20 20" fill="none" xmlns="http://www.w3.org/2000/svg">
<path fill-rule="evenodd" clip-rule="evenodd" d="M10.0142 6.96443C8.33765 6.96443 6.97852 8.32356 6.97852 10.0001C6.97852 11.6767 8.33765 13.0359 10.0142 13.0359C11.6908 13.0359 13.0499 11.6767 13.0499 10.0001C13.0499 8.32356 11.6908 6.96443 10.0142 6.96443ZM8.04994 10.0001C8.04994 8.91529 8.92938 8.03585 10.0142 8.03585C11.0991 8.03585 11.9785 8.91529 11.9785 10.0001C11.9785 11.085 11.0991 11.9644 10.0142 11.9644C8.92938 11.9644 8.04994 11.085 8.04994 10.0001Z" fill="#0E101A"/>
<path fill-rule="evenodd" clip-rule="evenodd" d="M10.4683 2.32715H9.62158C9.39537 2.32712 9.18279 2.3271 9.00463 2.34748C8.8061 2.37019 8.59733 2.42271 8.40252 2.56339C8.2078 2.70401 8.09223 2.88564 8.00809 3.06686C7.93252 3.22963 7.86537 3.43157 7.79383 3.64668L7.78589 3.67058L7.55177 4.36977C7.48411 4.54032 7.36574 4.68568 7.21295 4.78621L6.99696 4.91084C6.81618 5.00079 6.6103 5.02642 6.41314 4.98359L5.55577 4.7421L5.53058 4.73495C5.29629 4.66843 5.07719 4.60623 4.88852 4.57627C4.6787 4.54296 4.44916 4.53871 4.21179 4.63525C3.97452 4.73175 3.81306 4.89497 3.68594 5.06517C3.57156 5.21831 3.45778 5.41583 3.33602 5.6272L2.95744 6.28421C2.84336 6.48212 2.73632 6.66784 2.66452 6.83366C2.58456 7.01831 2.52558 7.22677 2.55083 7.46718C2.57609 7.70761 2.67712 7.89925 2.79374 8.06323C2.89845 8.21047 3.04177 8.36981 3.19446 8.53958L3.21047 8.55738L3.21141 8.55843L3.93365 9.36589C4.02392 9.4882 4.11829 9.75405 4.11829 10.0056C4.11829 10.2574 4.02394 10.5232 3.93366 10.6455L3.21141 11.453L3.21047 11.454L3.19446 11.4718C3.04177 11.6416 2.89846 11.8009 2.79374 11.9482C2.67713 12.1121 2.57609 12.3038 2.55084 12.5442C2.52558 12.7846 2.58456 12.9931 2.66452 13.1777C2.73632 13.3436 2.84337 13.5293 2.95744 13.7272L3.33602 14.3842C3.45777 14.5955 3.57155 14.7931 3.68593 14.9462C3.81305 15.1164 3.97451 15.2796 4.2118 15.3761C4.44917 15.4727 4.67871 15.4684 4.88854 15.4351C5.07721 15.4051 5.29631 15.3429 5.53061 15.2764L5.55537 15.2694L6.41311 15.0278C6.61031 14.9849 6.81623 15.0106 6.99705 15.1006L7.21299 15.2252C7.36575 15.3257 7.4841 15.4711 7.55175 15.6416L7.78589 16.3409L7.79383 16.3648C7.86537 16.5799 7.93252 16.7818 8.00809 16.9446C8.09223 17.1258 8.2078 17.3074 8.40252 17.4481C8.59733 17.5887 8.8061 17.6413 9.00463 17.664C9.1828 17.6844 9.39538 17.6843 9.62159 17.6843H10.4683C10.6945 17.6843 10.9071 17.6844 11.0853 17.664C11.2838 17.6413 11.4926 17.5887 11.6874 17.4481C11.8821 17.3074 11.9977 17.1258 12.0818 16.9446C12.1574 16.7818 12.2245 16.5799 12.2961 16.3648L12.304 16.3409L12.5382 15.6416C12.6058 15.4711 12.7241 15.3257 12.8769 15.2252L13.0928 15.1006C13.2737 15.0106 13.4796 14.9849 13.6768 15.0278L14.5345 15.2694L14.5593 15.2764C14.7936 15.3429 15.0127 15.4051 15.2014 15.4351C15.4112 15.4684 15.6407 15.4727 15.8781 15.3761C16.1154 15.2796 16.2769 15.1164 16.404 14.9462C16.5183 14.7931 16.6321 14.5955 16.7539 14.3842L17.1325 13.7272C17.2465 13.5293 17.3536 13.3435 17.4254 13.1777C17.5053 12.9931 17.5643 12.7846 17.5391 12.5442C17.5138 12.3038 17.4128 12.1121 17.2962 11.9482C17.1915 11.8009 17.0482 11.6416 16.8955 11.4718L16.8794 11.454L16.1562 10.6455C16.066 10.5232 15.9716 10.2574 15.9716 10.0056C15.9716 9.75404 16.066 9.4882 16.1563 9.36589L16.8785 8.55843L16.8794 8.55738L16.8954 8.53958C17.0481 8.36981 17.1914 8.21047 17.2962 8.06323C17.4128 7.89925 17.5138 7.70761 17.5391 7.46718C17.5643 7.22677 17.5053 7.01831 17.4254 6.83366C17.3536 6.66785 17.2465 6.48214 17.1325 6.28425L16.7539 5.62717C16.6321 5.41581 16.5183 5.21831 16.404 5.06517C16.2768 4.89497 16.1154 4.73175 15.8781 4.63525C15.6407 4.53871 15.4112 4.54296 15.2014 4.57627C15.0127 4.60623 14.7936 4.66843 14.5593 4.73495L14.5346 4.74198L13.6768 4.98359C13.4796 5.02642 13.2737 5.00079 13.0929 4.91084L12.8769 4.78621C12.7242 4.68568 12.6058 4.54032 12.5381 4.36976L12.3037 3.66959L12.2961 3.64666C12.2245 3.43156 12.1574 3.22962 12.0818 3.06686C11.9977 2.88564 11.8821 2.70401 11.6874 2.56339C11.4926 2.42271 11.2838 2.37019 11.0853 2.34748C10.9071 2.3271 10.6945 2.32712 10.4683 2.32715ZM9.02922 3.43251L9.02981 3.432C9.02981 3.432 9.03339 3.43016 9.03901 3.4283C9.05117 3.42427 9.07685 3.41763 9.1264 3.41196C9.23628 3.39939 9.38647 3.39858 9.64682 3.39858H10.4431C10.7034 3.39858 10.8536 3.39939 10.9635 3.41196C11.013 3.41763 11.0387 3.42427 11.0509 3.4283C11.0565 3.43016 11.0601 3.432 11.0601 3.432L11.0607 3.43251C11.0607 3.43251 11.0631 3.43496 11.0667 3.43978C11.0744 3.45019 11.0889 3.47264 11.11 3.51806C11.1567 3.6187 11.2051 3.76138 11.2874 4.00879L11.5299 4.73316L11.534 4.74395C11.6841 5.13528 11.9554 5.46841 12.3083 5.69442L12.3187 5.70111L12.5814 5.85268L12.593 5.85864C13.0046 6.07012 13.4777 6.12912 13.9286 6.02514L13.9411 6.02226L14.826 5.773C15.0951 5.69663 15.2517 5.65313 15.3694 5.63445C15.4226 5.626 15.4511 5.62571 15.4646 5.62653C15.4709 5.62691 15.474 5.6276 15.474 5.6276L15.4749 5.62796C15.4749 5.62796 15.4777 5.62972 15.4825 5.63384C15.4929 5.64281 15.5132 5.663 15.5455 5.70631C15.617 5.80202 15.6991 5.94267 15.8389 6.18532L16.1915 6.79717C16.3226 7.02479 16.3977 7.15677 16.4422 7.25941C16.4622 7.30574 16.4694 7.33174 16.4721 7.34463C16.4733 7.3506 16.4735 7.35418 16.4735 7.35418L16.4735 7.35524L16.4733 7.35625C16.4733 7.35625 16.4723 7.35969 16.4699 7.36525C16.4647 7.37727 16.4523 7.40118 16.423 7.44228C16.3582 7.53337 16.2574 7.64676 16.0818 7.84203L16.0808 7.84308L15.3335 8.67866L15.3233 8.69153C15.0559 9.0301 14.9002 9.55039 14.9002 10.0056C14.9002 10.461 15.0558 10.9812 15.3233 11.3198L15.3334 11.3327L16.0818 12.1694C16.2574 12.3646 16.3582 12.478 16.423 12.5691C16.4523 12.6102 16.4647 12.6341 16.4699 12.6461C16.4723 12.6517 16.4733 12.6551 16.4733 12.6551L16.4735 12.6562L16.4735 12.6572C16.4735 12.6572 16.4733 12.6608 16.4721 12.6668C16.4694 12.6796 16.4622 12.7056 16.4422 12.752C16.3977 12.8546 16.3226 12.9866 16.1915 13.2142L15.8389 13.8261C15.6991 14.0687 15.617 14.2094 15.5455 14.3051C15.5132 14.3484 15.4929 14.3686 15.4825 14.3775C15.4777 14.3817 15.4749 14.3834 15.4749 14.3834L15.474 14.3838C15.474 14.3838 15.4709 14.3845 15.4647 14.3848C15.4511 14.3857 15.4226 14.3854 15.3694 14.3769C15.2517 14.3582 15.0951 14.3147 14.826 14.2384L13.9411 13.9891L13.9286 13.9862C13.4776 13.8822 13.0045 13.9413 12.5928 14.1528L12.5812 14.1588L12.3186 14.3104L12.3081 14.317C11.9553 14.5431 11.6841 14.8762 11.5341 15.2674L11.5299 15.2782L11.2877 16.0017L11.2874 16.0027C11.2051 16.2501 11.1567 16.3927 11.11 16.4934C11.0889 16.5388 11.0744 16.5613 11.0667 16.5717C11.0631 16.5765 11.0607 16.5789 11.0607 16.5789L11.0595 16.5798C11.0595 16.5798 11.0585 16.5803 11.0565 16.5811C11.0551 16.5817 11.0532 16.5824 11.0509 16.5831C11.0387 16.5872 11.013 16.5938 10.9635 16.5995C10.8536 16.6121 10.7034 16.6129 10.4431 16.6129H9.64682C9.38647 16.6129 9.23628 16.6121 9.1264 16.5995C9.07685 16.5938 9.05117 16.5872 9.03901 16.5831C9.03339 16.5813 9.02981 16.5795 9.02981 16.5795L9.02922 16.5789C9.02922 16.5789 9.0268 16.5765 9.02321 16.5717C9.01546 16.5613 9.00097 16.5388 8.97989 16.4934C8.93316 16.3927 8.88484 16.2501 8.80253 16.0027L8.55997 15.2782L8.55583 15.2674C8.40576 14.8762 8.13458 14.5431 7.78176 14.317L7.77132 14.3104L7.50867 14.1588L7.49707 14.1528C7.08541 13.9413 6.61228 13.8822 6.16129 13.9862L6.14878 13.9891L5.26387 14.2384C4.99477 14.3147 4.83821 14.3582 4.72051 14.3769C4.66729 14.3854 4.6388 14.3857 4.62525 14.3848C4.61902 14.3845 4.61587 14.3838 4.61587 14.3838L4.61501 14.3834C4.61501 14.3834 4.61219 14.3817 4.60742 14.3775C4.59702 14.3686 4.57671 14.3484 4.54436 14.3051C4.47287 14.2094 4.3908 14.0687 4.25099 13.8261L3.89844 13.2142C3.76728 12.9866 3.69217 12.8546 3.64773 12.752C3.62766 12.7056 3.62047 12.6796 3.61783 12.6668C3.61661 12.6608 3.61638 12.6572 3.61638 12.6572L3.6164 12.6562L3.6166 12.6551C3.6166 12.6551 3.61756 12.6517 3.61999 12.6461C3.62523 12.6341 3.63765 12.6102 3.66688 12.5691C3.73166 12.478 3.83253 12.3646 4.00811 12.1694L4.00906 12.1683L4.75646 11.3327L4.76663 11.3198C5.03411 10.9812 5.18972 10.461 5.18972 10.0056C5.18972 9.55039 5.03405 9.0301 4.76661 8.69153L4.75644 8.67866L4.00906 7.84308L4.00811 7.84203C3.83252 7.64676 3.73166 7.53337 3.66688 7.44228C3.63765 7.40118 3.62523 7.37727 3.61999 7.36525C3.61756 7.35969 3.61659 7.35625 3.61659 7.35625L3.6164 7.35523L3.61638 7.35418C3.61638 7.35418 3.61661 7.3506 3.61783 7.34463C3.62047 7.33174 3.62766 7.30574 3.64772 7.25941C3.69217 7.15677 3.76728 7.02479 3.89843 6.79717L4.251 6.18532C4.39081 5.94267 4.47289 5.80202 4.54437 5.70631C4.57671 5.663 4.59703 5.64281 4.60742 5.63384C4.61219 5.62972 4.61501 5.62796 4.61501 5.62796L4.61588 5.6276C4.61588 5.6276 4.61903 5.62691 4.62525 5.62653C4.63881 5.62571 4.66729 5.626 4.72052 5.63445C4.83821 5.65313 4.99476 5.69663 5.26386 5.773L6.14882 6.02226L6.16133 6.02514C6.61223 6.12912 7.08528 6.07012 7.49689 5.85864L7.50849 5.85268L7.77118 5.70111L7.78163 5.69442C8.13451 5.46841 8.40575 5.13528 8.55585 4.74395L8.55999 4.73316L8.80253 4.00879C8.88484 3.76138 8.93316 3.6187 8.97989 3.51806C9.00097 3.47264 9.01546 3.45019 9.02321 3.43978C9.0268 3.43496 9.02922 3.43251 9.02922 3.43251Z" fill="#0E101A"/>
</svg>
