<svg width="20" height="20" viewBox="0 0 20 20" fill="none" xmlns="http://www.w3.org/2000/svg">
<path d="M17.9964 14.1743L17.7018 13.8797L17.9964 14.1743ZM3.72697 4.50268L4.0216 4.79731H4.0216L3.72697 4.50268ZM3.96539 5.88996V6.30662H14.3104V5.88996V5.47329H3.96539V5.88996ZM16.6093 8.18884H16.1926V13.9361H16.6093H17.0259V8.18884H16.6093ZM14.3104 16.2349V15.8183H3.96539V16.2349V16.6516H14.3104V16.2349ZM1.6665 13.9361H2.08317V8.18884H1.6665H1.24984V13.9361H1.6665ZM3.96539 16.2349V15.8183C3.41176 15.8183 3.03845 15.8174 2.75966 15.7799C2.49285 15.744 2.37581 15.6817 2.2978 15.6036L2.00317 15.8983L1.70854 16.1929C1.96719 16.4516 2.28941 16.5575 2.64862 16.6058C2.99585 16.6525 3.43532 16.6516 3.96539 16.6516V16.2349ZM1.6665 13.9361H1.24984C1.24984 14.4661 1.24895 14.9056 1.29564 15.2528C1.34393 15.612 1.44989 15.9342 1.70854 16.1929L2.00317 15.8983L2.2978 15.6036C2.21978 15.5256 2.15741 15.4086 2.12154 15.1418C2.08406 14.863 2.08317 14.4897 2.08317 13.9361H1.6665ZM16.6093 13.9361H16.1926C16.1926 14.4897 16.1917 14.863 16.1542 15.1418C16.1184 15.4086 16.056 15.5256 15.978 15.6036L16.2726 15.8983L16.5672 16.1929C16.8259 15.9343 16.9318 15.612 16.9801 15.2528C17.0268 14.9056 17.0259 14.4661 17.0259 13.9361H16.6093ZM14.3104 16.2349V16.6516C14.8404 16.6516 15.2799 16.6525 15.6271 16.6058C15.9864 16.5575 16.3086 16.4516 16.5672 16.1929L16.2726 15.8983L15.978 15.6036C15.9 15.6817 15.7829 15.744 15.5161 15.7799C15.2373 15.8174 14.864 15.8183 14.3104 15.8183V16.2349ZM14.3104 5.88996V6.30662C14.864 6.30662 15.2373 6.30751 15.5161 6.34499C15.7829 6.38086 15.9 6.44324 15.978 6.52125L16.2726 6.22662L16.5672 5.93199C16.3086 5.67334 15.9864 5.56738 15.6271 5.51909C15.2799 5.4724 14.8404 5.47329 14.3104 5.47329V5.88996ZM16.6093 8.18884H17.0259C17.0259 7.65877 17.0268 7.2193 16.9801 6.87207C16.9318 6.51286 16.8259 6.19064 16.5672 5.93199L16.2726 6.22662L15.978 6.52125C16.056 6.59926 16.1184 6.7163 16.1542 6.98311C16.1917 7.2619 16.1926 7.63521 16.1926 8.18884H16.6093ZM3.96539 5.88996V5.47329C3.43532 5.47329 2.99584 5.4724 2.64862 5.51909C2.28941 5.56738 1.96719 5.67334 1.70854 5.93199L2.00317 6.22662L2.2978 6.52125C2.37581 6.44324 2.49285 6.38086 2.75966 6.34499C3.03845 6.30751 3.41176 6.30662 3.96539 6.30662V5.88996ZM1.6665 8.18884H2.08317C2.08317 7.63521 2.08406 7.2619 2.12154 6.98311C2.15741 6.7163 2.21978 6.59926 2.2978 6.52125L2.00317 6.22662L1.70854 5.93199C1.44989 6.19064 1.34393 6.51286 1.29564 6.87207C1.24895 7.2193 1.24984 7.65877 1.24984 8.18884H1.6665ZM5.68919 4.16602V4.58268H16.0342V4.16602V3.74935H5.68919V4.16602ZM18.3331 6.4649H17.9164V12.2121H18.3331H18.7497V6.4649H18.3331ZM18.3331 12.2121H17.9164C17.9164 12.7657 17.9155 13.1391 17.878 13.4178C17.8422 13.6847 17.7798 13.8017 17.7018 13.8797L17.9964 14.1743L18.291 14.469C18.5497 14.2103 18.6556 13.8881 18.7039 13.5289C18.7506 13.1817 18.7497 12.7422 18.7497 12.2121H18.3331ZM16.0342 4.16602V4.58268C16.5878 4.58268 16.9611 4.58357 17.2399 4.62105C17.5067 4.65692 17.6238 4.7193 17.7018 4.79731L17.9964 4.50268L18.291 4.20805C18.0324 3.9494 17.7102 3.84344 17.3509 3.79515C17.0037 3.74846 16.5642 3.74935 16.0342 3.74935V4.16602ZM18.3331 6.4649H18.7497C18.7497 5.93483 18.7506 5.49536 18.7039 5.14813C18.6556 4.78892 18.5497 4.4667 18.291 4.20805L17.9964 4.50268L17.7018 4.79731C17.7798 4.87532 17.8422 4.99236 17.878 5.25917C17.9155 5.53796 17.9164 5.91127 17.9164 6.4649H18.3331ZM5.68919 4.16602V3.74935C5.15912 3.74935 4.71964 3.74846 4.37242 3.79515C4.01321 3.84344 3.69099 3.9494 3.43234 4.20805L3.72697 4.50268L4.0216 4.79731C4.09961 4.7193 4.21665 4.65692 4.48346 4.62105C4.76225 4.58357 5.13556 4.58268 5.68919 4.58268V4.16602ZM3.3928 5.89018L3.80942 5.89621C3.82015 5.15473 3.88789 4.93101 4.0216 4.79731L3.72697 4.50268L3.43234 4.20805C3.02403 4.61636 2.98607 5.20057 2.97618 5.88415L3.3928 5.89018ZM16.6089 14.5085L16.6149 14.9251C17.2985 14.9152 17.8827 14.8773 18.291 14.469L17.9964 14.1743L17.7018 13.8797C17.5681 14.0134 17.3443 14.0812 16.6029 14.0919L16.6089 14.5085ZM1.6665 8.33268V8.74935H16.6093V8.33268V7.91602H1.6665V8.33268ZM1.6665 10.0568V10.4735H16.6093V10.0568V9.64018H1.6665V10.0568ZM14.6268 13.7634H14.2102C14.2102 14.0094 14.0107 14.2089 13.7648 14.2089V14.6255V15.0422C14.471 15.0422 15.0435 14.4697 15.0435 13.7634H14.6268ZM13.7648 14.6255V14.2089C13.5188 14.2089 13.3193 14.0094 13.3193 13.7634H12.9027H12.486C12.486 14.4697 13.0585 15.0422 13.7648 15.0422V14.6255ZM12.9027 13.7634H13.3193C13.3193 13.5175 13.5188 13.318 13.7648 13.318V12.9014V12.4847C13.0585 12.4847 12.486 13.0572 12.486 13.7634H12.9027ZM13.7648 12.9014V13.318C14.0107 13.318 14.2102 13.5175 14.2102 13.7634H14.6268H15.0435C15.0435 13.0572 14.471 12.4847 13.7648 12.4847V12.9014ZM12.6148 14.6255V14.2089C12.3689 14.2089 12.1694 14.0094 12.1694 13.7634H11.7528H11.3361C11.3361 14.4697 11.9086 15.0422 12.6148 15.0422V14.6255ZM11.7528 13.7634H12.1694C12.1694 13.5175 12.3689 13.318 12.6148 13.318V12.9014V12.4847C11.9086 12.4847 11.3361 13.0572 11.3361 13.7634H11.7528ZM12.6148 12.9014V13.318C12.7292 13.318 12.8326 13.3606 12.9117 13.4314L13.1896 13.1209L13.4675 12.8104C13.2415 12.6082 12.9421 12.4847 12.6148 12.4847V12.9014ZM13.1896 14.406L12.9117 14.0955C12.8326 14.1663 12.7292 14.2089 12.6148 14.2089V14.6255V15.0422C12.9421 15.0422 13.2415 14.9187 13.4675 14.7165L13.1896 14.406Z" fill="#AAB9CC"/>
</svg>
