<svg width="16" height="16" viewBox="0 0 16 16" fill="none" xmlns="http://www.w3.org/2000/svg">
<path d="M7.9987 2C7.9987 2 10.6654 4.66667 10.6654 8C10.6654 8.70724 10.3844 9.38552 9.88432 9.88562C9.38422 10.3857 8.70594 10.6667 7.9987 10.6667C7.29145 10.6667 6.61318 10.3857 6.11308 9.88562C5.61298 9.38552 5.33203 8.70724 5.33203 8C5.33203 6.66667 5.9987 6 6.66536 5.33333C5.9987 4 7.9987 2 7.9987 2Z" stroke="#E0A218" stroke-width="1.06667" stroke-linecap="round" stroke-linejoin="round"/>
<path d="M8 9.33334C9.33333 9.33334 10 10.6667 10 11.3333C10 11.8638 9.78929 12.3725 9.41421 12.7476C9.03914 13.1226 8.53043 13.3333 8 13.3333C7.46957 13.3333 6.96086 13.1226 6.58579 12.7476C6.21071 12.3725 6 11.8638 6 11.3333C6 10.6667 6.66667 9.33334 8 9.33334Z" stroke="#E0A218" stroke-width="1.06667" stroke-linecap="round" stroke-linejoin="round"/>
</svg>
